M48
; DRILL file {KiCad 9.0.2} date 2025-06-04T18:27:00+0200
; FORMAT={-:-/ absolute / metric / decimal}
; #@! TF.CreationDate,2025-06-04T18:27:00+02:00
; #@! TF.GenerationSoftware,Kicad,Pcbnew,9.0.2
; #@! TF.FileFunction,Plated,1,2,PTH
FMAT,2
METRIC
; #@! TA.AperFunction,Plated,PTH,ComponentDrill
T1C0.800
; #@! TA.AperFunction,Plated,PTH,ComponentDrill
T2C0.914
; #@! TA.AperFunction,Plated,PTH,ComponentDrill
T3C1.000
%
G90
G05
T1
X256.54Y-81.28
X259.08Y-81.28
X261.62Y-81.28
X264.16Y-81.28
X266.7Y-81.28
T2
X185.374Y-80.875
X185.374Y-83.415
X185.374Y-85.955
X185.374Y-88.495
X185.42Y-59.66
X185.42Y-62.2
X185.42Y-64.74
X185.42Y-67.28
X242.524Y-80.875
X242.524Y-83.415
X242.524Y-85.955
X242.524Y-88.495
X242.57Y-59.66
X242.57Y-62.2
X242.57Y-64.74
X242.57Y-67.28
T3
X179.07Y-48.26
X182.88Y-104.62
X182.88Y-110.49
X187.96Y-29.21
X187.96Y-46.99
X190.5Y-29.21
X190.5Y-46.99
X193.04Y-29.21
X193.04Y-46.99
X195.58Y-29.21
X195.58Y-46.99
X198.12Y-29.21
X198.12Y-46.99
X200.66Y-29.21
X200.66Y-46.99
X203.2Y-29.21
X203.2Y-46.99
X205.74Y-29.21
X205.74Y-46.99
X207.01Y-22.86
X208.28Y-29.21
X208.28Y-46.99
X210.82Y-29.21
X210.82Y-46.99
X212.09Y-22.86
X213.36Y-29.21
X213.36Y-46.99
X215.9Y-29.21
X215.9Y-46.99
X218.44Y-29.21
X218.44Y-46.99
X218.44Y-104.14
X220.98Y-29.21
X220.98Y-46.99
X223.52Y-29.21
X223.52Y-46.99
X223.52Y-104.14
X226.06Y-29.21
X226.06Y-46.99
X228.6Y-29.21
X228.6Y-46.99
X231.14Y-29.21
X231.14Y-46.99
X233.68Y-29.21
X233.68Y-46.99
X234.95Y-105.41
X236.22Y-29.21
X236.22Y-46.99
X242.57Y-29.21
X242.57Y-39.37
X245.11Y-105.41
M30
