%TF.GenerationSoftware,KiCad,Pcbnew,9.0.2*%
%TF.CreationDate,2025-06-04T18:27:00+02:00*%
%TF.ProjectId,schaltung_labor_netzteil_display,73636861-6c74-4756-9e67-5f6c61626f72,rev?*%
%TF.SameCoordinates,Original*%
%TF.FileFunction,Drillmap*%
%TF.FilePolarity,Positive*%
%FSLAX45Y45*%
G04 Gerber Fmt 4.5, Leading zero omitted, Abs format (unit mm)*
G04 Created by KiCad (PCBNEW 9.0.2) date 2025-06-04 18:27:00*
%MOMM*%
%LPD*%
G01*
G04 APERTURE LIST*
%ADD10C,0.050000*%
%ADD11C,0.200000*%
%ADD12C,0.185000*%
%ADD13C,0.220000*%
G04 APERTURE END LIST*
D10*
X17653000Y-2032000D02*
X27559000Y-2032000D01*
X27559000Y-11557000D01*
X17653000Y-11557000D01*
X17653000Y-2032000D01*
D11*
D12*
X19019500Y-3475000D02*
X19204500Y-3660000D01*
X19204500Y-3475000D02*
X19019500Y-3660000D01*
X19019500Y-3960000D02*
X19204500Y-4145000D01*
X19204500Y-3960000D02*
X19019500Y-4145000D01*
D13*
X18919000Y-3537500D02*
G75*
G02*
X18699000Y-3537500I-110000J0D01*
G01*
X18699000Y-3537500D02*
G75*
G02*
X18919000Y-3537500I110000J0D01*
G01*
X18919000Y-4082500D02*
G75*
G02*
X18699000Y-4082500I-110000J0D01*
G01*
X18699000Y-4082500D02*
G75*
G02*
X18919000Y-4082500I110000J0D01*
G01*
D11*
X17911277Y-11870984D02*
X17911277Y-11670984D01*
X17911277Y-11670984D02*
X17958896Y-11670984D01*
X17958896Y-11670984D02*
X17987467Y-11680508D01*
X17987467Y-11680508D02*
X18006515Y-11699555D01*
X18006515Y-11699555D02*
X18016039Y-11718603D01*
X18016039Y-11718603D02*
X18025563Y-11756698D01*
X18025563Y-11756698D02*
X18025563Y-11785269D01*
X18025563Y-11785269D02*
X18016039Y-11823365D01*
X18016039Y-11823365D02*
X18006515Y-11842412D01*
X18006515Y-11842412D02*
X17987467Y-11861460D01*
X17987467Y-11861460D02*
X17958896Y-11870984D01*
X17958896Y-11870984D02*
X17911277Y-11870984D01*
X18111277Y-11870984D02*
X18111277Y-11737650D01*
X18111277Y-11775746D02*
X18120801Y-11756698D01*
X18120801Y-11756698D02*
X18130324Y-11747174D01*
X18130324Y-11747174D02*
X18149372Y-11737650D01*
X18149372Y-11737650D02*
X18168420Y-11737650D01*
X18235086Y-11870984D02*
X18235086Y-11737650D01*
X18235086Y-11670984D02*
X18225563Y-11680508D01*
X18225563Y-11680508D02*
X18235086Y-11690031D01*
X18235086Y-11690031D02*
X18244610Y-11680508D01*
X18244610Y-11680508D02*
X18235086Y-11670984D01*
X18235086Y-11670984D02*
X18235086Y-11690031D01*
X18358896Y-11870984D02*
X18339848Y-11861460D01*
X18339848Y-11861460D02*
X18330324Y-11842412D01*
X18330324Y-11842412D02*
X18330324Y-11670984D01*
X18463658Y-11870984D02*
X18444610Y-11861460D01*
X18444610Y-11861460D02*
X18435086Y-11842412D01*
X18435086Y-11842412D02*
X18435086Y-11670984D01*
X18692229Y-11870984D02*
X18692229Y-11670984D01*
X18692229Y-11670984D02*
X18758896Y-11813841D01*
X18758896Y-11813841D02*
X18825563Y-11670984D01*
X18825563Y-11670984D02*
X18825563Y-11870984D01*
X19006515Y-11870984D02*
X19006515Y-11766222D01*
X19006515Y-11766222D02*
X18996991Y-11747174D01*
X18996991Y-11747174D02*
X18977944Y-11737650D01*
X18977944Y-11737650D02*
X18939848Y-11737650D01*
X18939848Y-11737650D02*
X18920801Y-11747174D01*
X19006515Y-11861460D02*
X18987467Y-11870984D01*
X18987467Y-11870984D02*
X18939848Y-11870984D01*
X18939848Y-11870984D02*
X18920801Y-11861460D01*
X18920801Y-11861460D02*
X18911277Y-11842412D01*
X18911277Y-11842412D02*
X18911277Y-11823365D01*
X18911277Y-11823365D02*
X18920801Y-11804317D01*
X18920801Y-11804317D02*
X18939848Y-11794793D01*
X18939848Y-11794793D02*
X18987467Y-11794793D01*
X18987467Y-11794793D02*
X19006515Y-11785269D01*
X19101753Y-11737650D02*
X19101753Y-11937650D01*
X19101753Y-11747174D02*
X19120801Y-11737650D01*
X19120801Y-11737650D02*
X19158896Y-11737650D01*
X19158896Y-11737650D02*
X19177944Y-11747174D01*
X19177944Y-11747174D02*
X19187467Y-11756698D01*
X19187467Y-11756698D02*
X19196991Y-11775746D01*
X19196991Y-11775746D02*
X19196991Y-11832888D01*
X19196991Y-11832888D02*
X19187467Y-11851936D01*
X19187467Y-11851936D02*
X19177944Y-11861460D01*
X19177944Y-11861460D02*
X19158896Y-11870984D01*
X19158896Y-11870984D02*
X19120801Y-11870984D01*
X19120801Y-11870984D02*
X19101753Y-11861460D01*
X19282705Y-11851936D02*
X19292229Y-11861460D01*
X19292229Y-11861460D02*
X19282705Y-11870984D01*
X19282705Y-11870984D02*
X19273182Y-11861460D01*
X19273182Y-11861460D02*
X19282705Y-11851936D01*
X19282705Y-11851936D02*
X19282705Y-11870984D01*
X19282705Y-11747174D02*
X19292229Y-11756698D01*
X19292229Y-11756698D02*
X19282705Y-11766222D01*
X19282705Y-11766222D02*
X19273182Y-11756698D01*
X19273182Y-11756698D02*
X19282705Y-11747174D01*
X19282705Y-11747174D02*
X19282705Y-11766222D01*
D12*
X17465500Y-12107000D02*
X17650500Y-12292000D01*
X17650500Y-12107000D02*
X17465500Y-12292000D01*
D11*
X18016039Y-12290984D02*
X17901753Y-12290984D01*
X17958896Y-12290984D02*
X17958896Y-12090984D01*
X17958896Y-12090984D02*
X17939848Y-12119555D01*
X17939848Y-12119555D02*
X17920801Y-12138603D01*
X17920801Y-12138603D02*
X17901753Y-12148127D01*
X18101753Y-12271936D02*
X18111277Y-12281460D01*
X18111277Y-12281460D02*
X18101753Y-12290984D01*
X18101753Y-12290984D02*
X18092229Y-12281460D01*
X18092229Y-12281460D02*
X18101753Y-12271936D01*
X18101753Y-12271936D02*
X18101753Y-12290984D01*
X18225563Y-12176698D02*
X18206515Y-12167174D01*
X18206515Y-12167174D02*
X18196991Y-12157650D01*
X18196991Y-12157650D02*
X18187467Y-12138603D01*
X18187467Y-12138603D02*
X18187467Y-12129079D01*
X18187467Y-12129079D02*
X18196991Y-12110031D01*
X18196991Y-12110031D02*
X18206515Y-12100508D01*
X18206515Y-12100508D02*
X18225563Y-12090984D01*
X18225563Y-12090984D02*
X18263658Y-12090984D01*
X18263658Y-12090984D02*
X18282705Y-12100508D01*
X18282705Y-12100508D02*
X18292229Y-12110031D01*
X18292229Y-12110031D02*
X18301753Y-12129079D01*
X18301753Y-12129079D02*
X18301753Y-12138603D01*
X18301753Y-12138603D02*
X18292229Y-12157650D01*
X18292229Y-12157650D02*
X18282705Y-12167174D01*
X18282705Y-12167174D02*
X18263658Y-12176698D01*
X18263658Y-12176698D02*
X18225563Y-12176698D01*
X18225563Y-12176698D02*
X18206515Y-12186222D01*
X18206515Y-12186222D02*
X18196991Y-12195746D01*
X18196991Y-12195746D02*
X18187467Y-12214793D01*
X18187467Y-12214793D02*
X18187467Y-12252888D01*
X18187467Y-12252888D02*
X18196991Y-12271936D01*
X18196991Y-12271936D02*
X18206515Y-12281460D01*
X18206515Y-12281460D02*
X18225563Y-12290984D01*
X18225563Y-12290984D02*
X18263658Y-12290984D01*
X18263658Y-12290984D02*
X18282705Y-12281460D01*
X18282705Y-12281460D02*
X18292229Y-12271936D01*
X18292229Y-12271936D02*
X18301753Y-12252888D01*
X18301753Y-12252888D02*
X18301753Y-12214793D01*
X18301753Y-12214793D02*
X18292229Y-12195746D01*
X18292229Y-12195746D02*
X18282705Y-12186222D01*
X18282705Y-12186222D02*
X18263658Y-12176698D01*
X18482705Y-12090984D02*
X18387467Y-12090984D01*
X18387467Y-12090984D02*
X18377944Y-12186222D01*
X18377944Y-12186222D02*
X18387467Y-12176698D01*
X18387467Y-12176698D02*
X18406515Y-12167174D01*
X18406515Y-12167174D02*
X18454134Y-12167174D01*
X18454134Y-12167174D02*
X18473182Y-12176698D01*
X18473182Y-12176698D02*
X18482705Y-12186222D01*
X18482705Y-12186222D02*
X18492229Y-12205269D01*
X18492229Y-12205269D02*
X18492229Y-12252888D01*
X18492229Y-12252888D02*
X18482705Y-12271936D01*
X18482705Y-12271936D02*
X18473182Y-12281460D01*
X18473182Y-12281460D02*
X18454134Y-12290984D01*
X18454134Y-12290984D02*
X18406515Y-12290984D01*
X18406515Y-12290984D02*
X18387467Y-12281460D01*
X18387467Y-12281460D02*
X18377944Y-12271936D01*
X18616039Y-12090984D02*
X18635086Y-12090984D01*
X18635086Y-12090984D02*
X18654134Y-12100508D01*
X18654134Y-12100508D02*
X18663658Y-12110031D01*
X18663658Y-12110031D02*
X18673182Y-12129079D01*
X18673182Y-12129079D02*
X18682705Y-12167174D01*
X18682705Y-12167174D02*
X18682705Y-12214793D01*
X18682705Y-12214793D02*
X18673182Y-12252888D01*
X18673182Y-12252888D02*
X18663658Y-12271936D01*
X18663658Y-12271936D02*
X18654134Y-12281460D01*
X18654134Y-12281460D02*
X18635086Y-12290984D01*
X18635086Y-12290984D02*
X18616039Y-12290984D01*
X18616039Y-12290984D02*
X18596991Y-12281460D01*
X18596991Y-12281460D02*
X18587467Y-12271936D01*
X18587467Y-12271936D02*
X18577944Y-12252888D01*
X18577944Y-12252888D02*
X18568420Y-12214793D01*
X18568420Y-12214793D02*
X18568420Y-12167174D01*
X18568420Y-12167174D02*
X18577944Y-12129079D01*
X18577944Y-12129079D02*
X18587467Y-12110031D01*
X18587467Y-12110031D02*
X18596991Y-12100508D01*
X18596991Y-12100508D02*
X18616039Y-12090984D01*
X18768420Y-12290984D02*
X18768420Y-12157650D01*
X18768420Y-12176698D02*
X18777944Y-12167174D01*
X18777944Y-12167174D02*
X18796991Y-12157650D01*
X18796991Y-12157650D02*
X18825563Y-12157650D01*
X18825563Y-12157650D02*
X18844610Y-12167174D01*
X18844610Y-12167174D02*
X18854134Y-12186222D01*
X18854134Y-12186222D02*
X18854134Y-12290984D01*
X18854134Y-12186222D02*
X18863658Y-12167174D01*
X18863658Y-12167174D02*
X18882705Y-12157650D01*
X18882705Y-12157650D02*
X18911277Y-12157650D01*
X18911277Y-12157650D02*
X18930325Y-12167174D01*
X18930325Y-12167174D02*
X18939848Y-12186222D01*
X18939848Y-12186222D02*
X18939848Y-12290984D01*
X19035086Y-12290984D02*
X19035086Y-12157650D01*
X19035086Y-12176698D02*
X19044610Y-12167174D01*
X19044610Y-12167174D02*
X19063658Y-12157650D01*
X19063658Y-12157650D02*
X19092229Y-12157650D01*
X19092229Y-12157650D02*
X19111277Y-12167174D01*
X19111277Y-12167174D02*
X19120801Y-12186222D01*
X19120801Y-12186222D02*
X19120801Y-12290984D01*
X19120801Y-12186222D02*
X19130325Y-12167174D01*
X19130325Y-12167174D02*
X19149372Y-12157650D01*
X19149372Y-12157650D02*
X19177944Y-12157650D01*
X19177944Y-12157650D02*
X19196991Y-12167174D01*
X19196991Y-12167174D02*
X19206515Y-12186222D01*
X19206515Y-12186222D02*
X19206515Y-12290984D01*
X19596991Y-12081460D02*
X19425563Y-12338603D01*
X19854134Y-12090984D02*
X19873182Y-12090984D01*
X19873182Y-12090984D02*
X19892229Y-12100508D01*
X19892229Y-12100508D02*
X19901753Y-12110031D01*
X19901753Y-12110031D02*
X19911277Y-12129079D01*
X19911277Y-12129079D02*
X19920801Y-12167174D01*
X19920801Y-12167174D02*
X19920801Y-12214793D01*
X19920801Y-12214793D02*
X19911277Y-12252888D01*
X19911277Y-12252888D02*
X19901753Y-12271936D01*
X19901753Y-12271936D02*
X19892229Y-12281460D01*
X19892229Y-12281460D02*
X19873182Y-12290984D01*
X19873182Y-12290984D02*
X19854134Y-12290984D01*
X19854134Y-12290984D02*
X19835087Y-12281460D01*
X19835087Y-12281460D02*
X19825563Y-12271936D01*
X19825563Y-12271936D02*
X19816039Y-12252888D01*
X19816039Y-12252888D02*
X19806515Y-12214793D01*
X19806515Y-12214793D02*
X19806515Y-12167174D01*
X19806515Y-12167174D02*
X19816039Y-12129079D01*
X19816039Y-12129079D02*
X19825563Y-12110031D01*
X19825563Y-12110031D02*
X19835087Y-12100508D01*
X19835087Y-12100508D02*
X19854134Y-12090984D01*
X20006515Y-12271936D02*
X20016039Y-12281460D01*
X20016039Y-12281460D02*
X20006515Y-12290984D01*
X20006515Y-12290984D02*
X19996991Y-12281460D01*
X19996991Y-12281460D02*
X20006515Y-12271936D01*
X20006515Y-12271936D02*
X20006515Y-12290984D01*
X20139848Y-12090984D02*
X20158896Y-12090984D01*
X20158896Y-12090984D02*
X20177944Y-12100508D01*
X20177944Y-12100508D02*
X20187468Y-12110031D01*
X20187468Y-12110031D02*
X20196991Y-12129079D01*
X20196991Y-12129079D02*
X20206515Y-12167174D01*
X20206515Y-12167174D02*
X20206515Y-12214793D01*
X20206515Y-12214793D02*
X20196991Y-12252888D01*
X20196991Y-12252888D02*
X20187468Y-12271936D01*
X20187468Y-12271936D02*
X20177944Y-12281460D01*
X20177944Y-12281460D02*
X20158896Y-12290984D01*
X20158896Y-12290984D02*
X20139848Y-12290984D01*
X20139848Y-12290984D02*
X20120801Y-12281460D01*
X20120801Y-12281460D02*
X20111277Y-12271936D01*
X20111277Y-12271936D02*
X20101753Y-12252888D01*
X20101753Y-12252888D02*
X20092229Y-12214793D01*
X20092229Y-12214793D02*
X20092229Y-12167174D01*
X20092229Y-12167174D02*
X20101753Y-12129079D01*
X20101753Y-12129079D02*
X20111277Y-12110031D01*
X20111277Y-12110031D02*
X20120801Y-12100508D01*
X20120801Y-12100508D02*
X20139848Y-12090984D01*
X20273182Y-12090984D02*
X20406515Y-12090984D01*
X20406515Y-12090984D02*
X20320801Y-12290984D01*
X20473182Y-12110031D02*
X20482706Y-12100508D01*
X20482706Y-12100508D02*
X20501753Y-12090984D01*
X20501753Y-12090984D02*
X20549372Y-12090984D01*
X20549372Y-12090984D02*
X20568420Y-12100508D01*
X20568420Y-12100508D02*
X20577944Y-12110031D01*
X20577944Y-12110031D02*
X20587468Y-12129079D01*
X20587468Y-12129079D02*
X20587468Y-12148127D01*
X20587468Y-12148127D02*
X20577944Y-12176698D01*
X20577944Y-12176698D02*
X20463658Y-12290984D01*
X20463658Y-12290984D02*
X20587468Y-12290984D01*
X20701753Y-12176698D02*
X20682706Y-12167174D01*
X20682706Y-12167174D02*
X20673182Y-12157650D01*
X20673182Y-12157650D02*
X20663658Y-12138603D01*
X20663658Y-12138603D02*
X20663658Y-12129079D01*
X20663658Y-12129079D02*
X20673182Y-12110031D01*
X20673182Y-12110031D02*
X20682706Y-12100508D01*
X20682706Y-12100508D02*
X20701753Y-12090984D01*
X20701753Y-12090984D02*
X20739849Y-12090984D01*
X20739849Y-12090984D02*
X20758896Y-12100508D01*
X20758896Y-12100508D02*
X20768420Y-12110031D01*
X20768420Y-12110031D02*
X20777944Y-12129079D01*
X20777944Y-12129079D02*
X20777944Y-12138603D01*
X20777944Y-12138603D02*
X20768420Y-12157650D01*
X20768420Y-12157650D02*
X20758896Y-12167174D01*
X20758896Y-12167174D02*
X20739849Y-12176698D01*
X20739849Y-12176698D02*
X20701753Y-12176698D01*
X20701753Y-12176698D02*
X20682706Y-12186222D01*
X20682706Y-12186222D02*
X20673182Y-12195746D01*
X20673182Y-12195746D02*
X20663658Y-12214793D01*
X20663658Y-12214793D02*
X20663658Y-12252888D01*
X20663658Y-12252888D02*
X20673182Y-12271936D01*
X20673182Y-12271936D02*
X20682706Y-12281460D01*
X20682706Y-12281460D02*
X20701753Y-12290984D01*
X20701753Y-12290984D02*
X20739849Y-12290984D01*
X20739849Y-12290984D02*
X20758896Y-12281460D01*
X20758896Y-12281460D02*
X20768420Y-12271936D01*
X20768420Y-12271936D02*
X20777944Y-12252888D01*
X20777944Y-12252888D02*
X20777944Y-12214793D01*
X20777944Y-12214793D02*
X20768420Y-12195746D01*
X20768420Y-12195746D02*
X20758896Y-12186222D01*
X20758896Y-12186222D02*
X20739849Y-12176698D01*
X20854134Y-12090984D02*
X20854134Y-12129079D01*
X20930325Y-12090984D02*
X20930325Y-12129079D01*
X21225563Y-12367174D02*
X21216039Y-12357650D01*
X21216039Y-12357650D02*
X21196991Y-12329079D01*
X21196991Y-12329079D02*
X21187468Y-12310031D01*
X21187468Y-12310031D02*
X21177944Y-12281460D01*
X21177944Y-12281460D02*
X21168420Y-12233841D01*
X21168420Y-12233841D02*
X21168420Y-12195746D01*
X21168420Y-12195746D02*
X21177944Y-12148127D01*
X21177944Y-12148127D02*
X21187468Y-12119555D01*
X21187468Y-12119555D02*
X21196991Y-12100508D01*
X21196991Y-12100508D02*
X21216039Y-12071936D01*
X21216039Y-12071936D02*
X21225563Y-12062412D01*
X21292230Y-12110031D02*
X21301753Y-12100508D01*
X21301753Y-12100508D02*
X21320801Y-12090984D01*
X21320801Y-12090984D02*
X21368420Y-12090984D01*
X21368420Y-12090984D02*
X21387468Y-12100508D01*
X21387468Y-12100508D02*
X21396991Y-12110031D01*
X21396991Y-12110031D02*
X21406515Y-12129079D01*
X21406515Y-12129079D02*
X21406515Y-12148127D01*
X21406515Y-12148127D02*
X21396991Y-12176698D01*
X21396991Y-12176698D02*
X21282706Y-12290984D01*
X21282706Y-12290984D02*
X21406515Y-12290984D01*
X21644611Y-12290984D02*
X21644611Y-12090984D01*
X21730325Y-12290984D02*
X21730325Y-12186222D01*
X21730325Y-12186222D02*
X21720801Y-12167174D01*
X21720801Y-12167174D02*
X21701753Y-12157650D01*
X21701753Y-12157650D02*
X21673182Y-12157650D01*
X21673182Y-12157650D02*
X21654134Y-12167174D01*
X21654134Y-12167174D02*
X21644611Y-12176698D01*
X21854134Y-12290984D02*
X21835087Y-12281460D01*
X21835087Y-12281460D02*
X21825563Y-12271936D01*
X21825563Y-12271936D02*
X21816039Y-12252888D01*
X21816039Y-12252888D02*
X21816039Y-12195746D01*
X21816039Y-12195746D02*
X21825563Y-12176698D01*
X21825563Y-12176698D02*
X21835087Y-12167174D01*
X21835087Y-12167174D02*
X21854134Y-12157650D01*
X21854134Y-12157650D02*
X21882706Y-12157650D01*
X21882706Y-12157650D02*
X21901753Y-12167174D01*
X21901753Y-12167174D02*
X21911277Y-12176698D01*
X21911277Y-12176698D02*
X21920801Y-12195746D01*
X21920801Y-12195746D02*
X21920801Y-12252888D01*
X21920801Y-12252888D02*
X21911277Y-12271936D01*
X21911277Y-12271936D02*
X21901753Y-12281460D01*
X21901753Y-12281460D02*
X21882706Y-12290984D01*
X21882706Y-12290984D02*
X21854134Y-12290984D01*
X22035087Y-12290984D02*
X22016039Y-12281460D01*
X22016039Y-12281460D02*
X22006515Y-12262412D01*
X22006515Y-12262412D02*
X22006515Y-12090984D01*
X22187468Y-12281460D02*
X22168420Y-12290984D01*
X22168420Y-12290984D02*
X22130325Y-12290984D01*
X22130325Y-12290984D02*
X22111277Y-12281460D01*
X22111277Y-12281460D02*
X22101753Y-12262412D01*
X22101753Y-12262412D02*
X22101753Y-12186222D01*
X22101753Y-12186222D02*
X22111277Y-12167174D01*
X22111277Y-12167174D02*
X22130325Y-12157650D01*
X22130325Y-12157650D02*
X22168420Y-12157650D01*
X22168420Y-12157650D02*
X22187468Y-12167174D01*
X22187468Y-12167174D02*
X22196992Y-12186222D01*
X22196992Y-12186222D02*
X22196992Y-12205269D01*
X22196992Y-12205269D02*
X22101753Y-12224317D01*
X22273182Y-12281460D02*
X22292230Y-12290984D01*
X22292230Y-12290984D02*
X22330325Y-12290984D01*
X22330325Y-12290984D02*
X22349373Y-12281460D01*
X22349373Y-12281460D02*
X22358896Y-12262412D01*
X22358896Y-12262412D02*
X22358896Y-12252888D01*
X22358896Y-12252888D02*
X22349373Y-12233841D01*
X22349373Y-12233841D02*
X22330325Y-12224317D01*
X22330325Y-12224317D02*
X22301753Y-12224317D01*
X22301753Y-12224317D02*
X22282706Y-12214793D01*
X22282706Y-12214793D02*
X22273182Y-12195746D01*
X22273182Y-12195746D02*
X22273182Y-12186222D01*
X22273182Y-12186222D02*
X22282706Y-12167174D01*
X22282706Y-12167174D02*
X22301753Y-12157650D01*
X22301753Y-12157650D02*
X22330325Y-12157650D01*
X22330325Y-12157650D02*
X22349373Y-12167174D01*
X22425563Y-12367174D02*
X22435087Y-12357650D01*
X22435087Y-12357650D02*
X22454134Y-12329079D01*
X22454134Y-12329079D02*
X22463658Y-12310031D01*
X22463658Y-12310031D02*
X22473182Y-12281460D01*
X22473182Y-12281460D02*
X22482706Y-12233841D01*
X22482706Y-12233841D02*
X22482706Y-12195746D01*
X22482706Y-12195746D02*
X22473182Y-12148127D01*
X22473182Y-12148127D02*
X22463658Y-12119555D01*
X22463658Y-12119555D02*
X22454134Y-12100508D01*
X22454134Y-12100508D02*
X22435087Y-12071936D01*
X22435087Y-12071936D02*
X22425563Y-12062412D01*
X22787468Y-12367174D02*
X22777944Y-12357650D01*
X22777944Y-12357650D02*
X22758896Y-12329079D01*
X22758896Y-12329079D02*
X22749372Y-12310031D01*
X22749372Y-12310031D02*
X22739849Y-12281460D01*
X22739849Y-12281460D02*
X22730325Y-12233841D01*
X22730325Y-12233841D02*
X22730325Y-12195746D01*
X22730325Y-12195746D02*
X22739849Y-12148127D01*
X22739849Y-12148127D02*
X22749372Y-12119555D01*
X22749372Y-12119555D02*
X22758896Y-12100508D01*
X22758896Y-12100508D02*
X22777944Y-12071936D01*
X22777944Y-12071936D02*
X22787468Y-12062412D01*
X22863658Y-12157650D02*
X22863658Y-12290984D01*
X22863658Y-12176698D02*
X22873182Y-12167174D01*
X22873182Y-12167174D02*
X22892230Y-12157650D01*
X22892230Y-12157650D02*
X22920801Y-12157650D01*
X22920801Y-12157650D02*
X22939849Y-12167174D01*
X22939849Y-12167174D02*
X22949372Y-12186222D01*
X22949372Y-12186222D02*
X22949372Y-12290984D01*
X23073182Y-12290984D02*
X23054134Y-12281460D01*
X23054134Y-12281460D02*
X23044611Y-12271936D01*
X23044611Y-12271936D02*
X23035087Y-12252888D01*
X23035087Y-12252888D02*
X23035087Y-12195746D01*
X23035087Y-12195746D02*
X23044611Y-12176698D01*
X23044611Y-12176698D02*
X23054134Y-12167174D01*
X23054134Y-12167174D02*
X23073182Y-12157650D01*
X23073182Y-12157650D02*
X23101753Y-12157650D01*
X23101753Y-12157650D02*
X23120801Y-12167174D01*
X23120801Y-12167174D02*
X23130325Y-12176698D01*
X23130325Y-12176698D02*
X23139849Y-12195746D01*
X23139849Y-12195746D02*
X23139849Y-12252888D01*
X23139849Y-12252888D02*
X23130325Y-12271936D01*
X23130325Y-12271936D02*
X23120801Y-12281460D01*
X23120801Y-12281460D02*
X23101753Y-12290984D01*
X23101753Y-12290984D02*
X23073182Y-12290984D01*
X23196992Y-12157650D02*
X23273182Y-12157650D01*
X23225563Y-12090984D02*
X23225563Y-12262412D01*
X23225563Y-12262412D02*
X23235087Y-12281460D01*
X23235087Y-12281460D02*
X23254134Y-12290984D01*
X23254134Y-12290984D02*
X23273182Y-12290984D01*
X23492230Y-12157650D02*
X23492230Y-12357650D01*
X23492230Y-12167174D02*
X23511277Y-12157650D01*
X23511277Y-12157650D02*
X23549373Y-12157650D01*
X23549373Y-12157650D02*
X23568420Y-12167174D01*
X23568420Y-12167174D02*
X23577944Y-12176698D01*
X23577944Y-12176698D02*
X23587468Y-12195746D01*
X23587468Y-12195746D02*
X23587468Y-12252888D01*
X23587468Y-12252888D02*
X23577944Y-12271936D01*
X23577944Y-12271936D02*
X23568420Y-12281460D01*
X23568420Y-12281460D02*
X23549373Y-12290984D01*
X23549373Y-12290984D02*
X23511277Y-12290984D01*
X23511277Y-12290984D02*
X23492230Y-12281460D01*
X23701753Y-12290984D02*
X23682706Y-12281460D01*
X23682706Y-12281460D02*
X23673182Y-12262412D01*
X23673182Y-12262412D02*
X23673182Y-12090984D01*
X23863658Y-12290984D02*
X23863658Y-12186222D01*
X23863658Y-12186222D02*
X23854134Y-12167174D01*
X23854134Y-12167174D02*
X23835087Y-12157650D01*
X23835087Y-12157650D02*
X23796992Y-12157650D01*
X23796992Y-12157650D02*
X23777944Y-12167174D01*
X23863658Y-12281460D02*
X23844611Y-12290984D01*
X23844611Y-12290984D02*
X23796992Y-12290984D01*
X23796992Y-12290984D02*
X23777944Y-12281460D01*
X23777944Y-12281460D02*
X23768420Y-12262412D01*
X23768420Y-12262412D02*
X23768420Y-12243365D01*
X23768420Y-12243365D02*
X23777944Y-12224317D01*
X23777944Y-12224317D02*
X23796992Y-12214793D01*
X23796992Y-12214793D02*
X23844611Y-12214793D01*
X23844611Y-12214793D02*
X23863658Y-12205269D01*
X23930325Y-12157650D02*
X24006515Y-12157650D01*
X23958896Y-12090984D02*
X23958896Y-12262412D01*
X23958896Y-12262412D02*
X23968420Y-12281460D01*
X23968420Y-12281460D02*
X23987468Y-12290984D01*
X23987468Y-12290984D02*
X24006515Y-12290984D01*
X24149373Y-12281460D02*
X24130325Y-12290984D01*
X24130325Y-12290984D02*
X24092230Y-12290984D01*
X24092230Y-12290984D02*
X24073182Y-12281460D01*
X24073182Y-12281460D02*
X24063658Y-12262412D01*
X24063658Y-12262412D02*
X24063658Y-12186222D01*
X24063658Y-12186222D02*
X24073182Y-12167174D01*
X24073182Y-12167174D02*
X24092230Y-12157650D01*
X24092230Y-12157650D02*
X24130325Y-12157650D01*
X24130325Y-12157650D02*
X24149373Y-12167174D01*
X24149373Y-12167174D02*
X24158896Y-12186222D01*
X24158896Y-12186222D02*
X24158896Y-12205269D01*
X24158896Y-12205269D02*
X24063658Y-12224317D01*
X24330325Y-12290984D02*
X24330325Y-12090984D01*
X24330325Y-12281460D02*
X24311277Y-12290984D01*
X24311277Y-12290984D02*
X24273182Y-12290984D01*
X24273182Y-12290984D02*
X24254134Y-12281460D01*
X24254134Y-12281460D02*
X24244611Y-12271936D01*
X24244611Y-12271936D02*
X24235087Y-12252888D01*
X24235087Y-12252888D02*
X24235087Y-12195746D01*
X24235087Y-12195746D02*
X24244611Y-12176698D01*
X24244611Y-12176698D02*
X24254134Y-12167174D01*
X24254134Y-12167174D02*
X24273182Y-12157650D01*
X24273182Y-12157650D02*
X24311277Y-12157650D01*
X24311277Y-12157650D02*
X24330325Y-12167174D01*
X24406515Y-12367174D02*
X24416039Y-12357650D01*
X24416039Y-12357650D02*
X24435087Y-12329079D01*
X24435087Y-12329079D02*
X24444611Y-12310031D01*
X24444611Y-12310031D02*
X24454134Y-12281460D01*
X24454134Y-12281460D02*
X24463658Y-12233841D01*
X24463658Y-12233841D02*
X24463658Y-12195746D01*
X24463658Y-12195746D02*
X24454134Y-12148127D01*
X24454134Y-12148127D02*
X24444611Y-12119555D01*
X24444611Y-12119555D02*
X24435087Y-12100508D01*
X24435087Y-12100508D02*
X24416039Y-12071936D01*
X24416039Y-12071936D02*
X24406515Y-12062412D01*
X17650500Y-12504500D02*
G75*
G02*
X17450500Y-12504500I-100000J0D01*
G01*
X17450500Y-12504500D02*
G75*
G02*
X17650500Y-12504500I100000J0D01*
G01*
X17901753Y-12415031D02*
X17911277Y-12405508D01*
X17911277Y-12405508D02*
X17930324Y-12395984D01*
X17930324Y-12395984D02*
X17977944Y-12395984D01*
X17977944Y-12395984D02*
X17996991Y-12405508D01*
X17996991Y-12405508D02*
X18006515Y-12415031D01*
X18006515Y-12415031D02*
X18016039Y-12434079D01*
X18016039Y-12434079D02*
X18016039Y-12453127D01*
X18016039Y-12453127D02*
X18006515Y-12481698D01*
X18006515Y-12481698D02*
X17892229Y-12595984D01*
X17892229Y-12595984D02*
X18016039Y-12595984D01*
X18101753Y-12576936D02*
X18111277Y-12586460D01*
X18111277Y-12586460D02*
X18101753Y-12595984D01*
X18101753Y-12595984D02*
X18092229Y-12586460D01*
X18092229Y-12586460D02*
X18101753Y-12576936D01*
X18101753Y-12576936D02*
X18101753Y-12595984D01*
X18187467Y-12415031D02*
X18196991Y-12405508D01*
X18196991Y-12405508D02*
X18216039Y-12395984D01*
X18216039Y-12395984D02*
X18263658Y-12395984D01*
X18263658Y-12395984D02*
X18282705Y-12405508D01*
X18282705Y-12405508D02*
X18292229Y-12415031D01*
X18292229Y-12415031D02*
X18301753Y-12434079D01*
X18301753Y-12434079D02*
X18301753Y-12453127D01*
X18301753Y-12453127D02*
X18292229Y-12481698D01*
X18292229Y-12481698D02*
X18177944Y-12595984D01*
X18177944Y-12595984D02*
X18301753Y-12595984D01*
X18425563Y-12395984D02*
X18444610Y-12395984D01*
X18444610Y-12395984D02*
X18463658Y-12405508D01*
X18463658Y-12405508D02*
X18473182Y-12415031D01*
X18473182Y-12415031D02*
X18482705Y-12434079D01*
X18482705Y-12434079D02*
X18492229Y-12472174D01*
X18492229Y-12472174D02*
X18492229Y-12519793D01*
X18492229Y-12519793D02*
X18482705Y-12557888D01*
X18482705Y-12557888D02*
X18473182Y-12576936D01*
X18473182Y-12576936D02*
X18463658Y-12586460D01*
X18463658Y-12586460D02*
X18444610Y-12595984D01*
X18444610Y-12595984D02*
X18425563Y-12595984D01*
X18425563Y-12595984D02*
X18406515Y-12586460D01*
X18406515Y-12586460D02*
X18396991Y-12576936D01*
X18396991Y-12576936D02*
X18387467Y-12557888D01*
X18387467Y-12557888D02*
X18377944Y-12519793D01*
X18377944Y-12519793D02*
X18377944Y-12472174D01*
X18377944Y-12472174D02*
X18387467Y-12434079D01*
X18387467Y-12434079D02*
X18396991Y-12415031D01*
X18396991Y-12415031D02*
X18406515Y-12405508D01*
X18406515Y-12405508D02*
X18425563Y-12395984D01*
X18616039Y-12395984D02*
X18635086Y-12395984D01*
X18635086Y-12395984D02*
X18654134Y-12405508D01*
X18654134Y-12405508D02*
X18663658Y-12415031D01*
X18663658Y-12415031D02*
X18673182Y-12434079D01*
X18673182Y-12434079D02*
X18682705Y-12472174D01*
X18682705Y-12472174D02*
X18682705Y-12519793D01*
X18682705Y-12519793D02*
X18673182Y-12557888D01*
X18673182Y-12557888D02*
X18663658Y-12576936D01*
X18663658Y-12576936D02*
X18654134Y-12586460D01*
X18654134Y-12586460D02*
X18635086Y-12595984D01*
X18635086Y-12595984D02*
X18616039Y-12595984D01*
X18616039Y-12595984D02*
X18596991Y-12586460D01*
X18596991Y-12586460D02*
X18587467Y-12576936D01*
X18587467Y-12576936D02*
X18577944Y-12557888D01*
X18577944Y-12557888D02*
X18568420Y-12519793D01*
X18568420Y-12519793D02*
X18568420Y-12472174D01*
X18568420Y-12472174D02*
X18577944Y-12434079D01*
X18577944Y-12434079D02*
X18587467Y-12415031D01*
X18587467Y-12415031D02*
X18596991Y-12405508D01*
X18596991Y-12405508D02*
X18616039Y-12395984D01*
X18768420Y-12595984D02*
X18768420Y-12462650D01*
X18768420Y-12481698D02*
X18777944Y-12472174D01*
X18777944Y-12472174D02*
X18796991Y-12462650D01*
X18796991Y-12462650D02*
X18825563Y-12462650D01*
X18825563Y-12462650D02*
X18844610Y-12472174D01*
X18844610Y-12472174D02*
X18854134Y-12491222D01*
X18854134Y-12491222D02*
X18854134Y-12595984D01*
X18854134Y-12491222D02*
X18863658Y-12472174D01*
X18863658Y-12472174D02*
X18882705Y-12462650D01*
X18882705Y-12462650D02*
X18911277Y-12462650D01*
X18911277Y-12462650D02*
X18930325Y-12472174D01*
X18930325Y-12472174D02*
X18939848Y-12491222D01*
X18939848Y-12491222D02*
X18939848Y-12595984D01*
X19035086Y-12595984D02*
X19035086Y-12462650D01*
X19035086Y-12481698D02*
X19044610Y-12472174D01*
X19044610Y-12472174D02*
X19063658Y-12462650D01*
X19063658Y-12462650D02*
X19092229Y-12462650D01*
X19092229Y-12462650D02*
X19111277Y-12472174D01*
X19111277Y-12472174D02*
X19120801Y-12491222D01*
X19120801Y-12491222D02*
X19120801Y-12595984D01*
X19120801Y-12491222D02*
X19130325Y-12472174D01*
X19130325Y-12472174D02*
X19149372Y-12462650D01*
X19149372Y-12462650D02*
X19177944Y-12462650D01*
X19177944Y-12462650D02*
X19196991Y-12472174D01*
X19196991Y-12472174D02*
X19206515Y-12491222D01*
X19206515Y-12491222D02*
X19206515Y-12595984D01*
X19596991Y-12386460D02*
X19425563Y-12643603D01*
X19854134Y-12395984D02*
X19873182Y-12395984D01*
X19873182Y-12395984D02*
X19892229Y-12405508D01*
X19892229Y-12405508D02*
X19901753Y-12415031D01*
X19901753Y-12415031D02*
X19911277Y-12434079D01*
X19911277Y-12434079D02*
X19920801Y-12472174D01*
X19920801Y-12472174D02*
X19920801Y-12519793D01*
X19920801Y-12519793D02*
X19911277Y-12557888D01*
X19911277Y-12557888D02*
X19901753Y-12576936D01*
X19901753Y-12576936D02*
X19892229Y-12586460D01*
X19892229Y-12586460D02*
X19873182Y-12595984D01*
X19873182Y-12595984D02*
X19854134Y-12595984D01*
X19854134Y-12595984D02*
X19835087Y-12586460D01*
X19835087Y-12586460D02*
X19825563Y-12576936D01*
X19825563Y-12576936D02*
X19816039Y-12557888D01*
X19816039Y-12557888D02*
X19806515Y-12519793D01*
X19806515Y-12519793D02*
X19806515Y-12472174D01*
X19806515Y-12472174D02*
X19816039Y-12434079D01*
X19816039Y-12434079D02*
X19825563Y-12415031D01*
X19825563Y-12415031D02*
X19835087Y-12405508D01*
X19835087Y-12405508D02*
X19854134Y-12395984D01*
X20006515Y-12576936D02*
X20016039Y-12586460D01*
X20016039Y-12586460D02*
X20006515Y-12595984D01*
X20006515Y-12595984D02*
X19996991Y-12586460D01*
X19996991Y-12586460D02*
X20006515Y-12576936D01*
X20006515Y-12576936D02*
X20006515Y-12595984D01*
X20139848Y-12395984D02*
X20158896Y-12395984D01*
X20158896Y-12395984D02*
X20177944Y-12405508D01*
X20177944Y-12405508D02*
X20187468Y-12415031D01*
X20187468Y-12415031D02*
X20196991Y-12434079D01*
X20196991Y-12434079D02*
X20206515Y-12472174D01*
X20206515Y-12472174D02*
X20206515Y-12519793D01*
X20206515Y-12519793D02*
X20196991Y-12557888D01*
X20196991Y-12557888D02*
X20187468Y-12576936D01*
X20187468Y-12576936D02*
X20177944Y-12586460D01*
X20177944Y-12586460D02*
X20158896Y-12595984D01*
X20158896Y-12595984D02*
X20139848Y-12595984D01*
X20139848Y-12595984D02*
X20120801Y-12586460D01*
X20120801Y-12586460D02*
X20111277Y-12576936D01*
X20111277Y-12576936D02*
X20101753Y-12557888D01*
X20101753Y-12557888D02*
X20092229Y-12519793D01*
X20092229Y-12519793D02*
X20092229Y-12472174D01*
X20092229Y-12472174D02*
X20101753Y-12434079D01*
X20101753Y-12434079D02*
X20111277Y-12415031D01*
X20111277Y-12415031D02*
X20120801Y-12405508D01*
X20120801Y-12405508D02*
X20139848Y-12395984D01*
X20320801Y-12481698D02*
X20301753Y-12472174D01*
X20301753Y-12472174D02*
X20292229Y-12462650D01*
X20292229Y-12462650D02*
X20282706Y-12443603D01*
X20282706Y-12443603D02*
X20282706Y-12434079D01*
X20282706Y-12434079D02*
X20292229Y-12415031D01*
X20292229Y-12415031D02*
X20301753Y-12405508D01*
X20301753Y-12405508D02*
X20320801Y-12395984D01*
X20320801Y-12395984D02*
X20358896Y-12395984D01*
X20358896Y-12395984D02*
X20377944Y-12405508D01*
X20377944Y-12405508D02*
X20387468Y-12415031D01*
X20387468Y-12415031D02*
X20396991Y-12434079D01*
X20396991Y-12434079D02*
X20396991Y-12443603D01*
X20396991Y-12443603D02*
X20387468Y-12462650D01*
X20387468Y-12462650D02*
X20377944Y-12472174D01*
X20377944Y-12472174D02*
X20358896Y-12481698D01*
X20358896Y-12481698D02*
X20320801Y-12481698D01*
X20320801Y-12481698D02*
X20301753Y-12491222D01*
X20301753Y-12491222D02*
X20292229Y-12500746D01*
X20292229Y-12500746D02*
X20282706Y-12519793D01*
X20282706Y-12519793D02*
X20282706Y-12557888D01*
X20282706Y-12557888D02*
X20292229Y-12576936D01*
X20292229Y-12576936D02*
X20301753Y-12586460D01*
X20301753Y-12586460D02*
X20320801Y-12595984D01*
X20320801Y-12595984D02*
X20358896Y-12595984D01*
X20358896Y-12595984D02*
X20377944Y-12586460D01*
X20377944Y-12586460D02*
X20387468Y-12576936D01*
X20387468Y-12576936D02*
X20396991Y-12557888D01*
X20396991Y-12557888D02*
X20396991Y-12519793D01*
X20396991Y-12519793D02*
X20387468Y-12500746D01*
X20387468Y-12500746D02*
X20377944Y-12491222D01*
X20377944Y-12491222D02*
X20358896Y-12481698D01*
X20568420Y-12395984D02*
X20530325Y-12395984D01*
X20530325Y-12395984D02*
X20511277Y-12405508D01*
X20511277Y-12405508D02*
X20501753Y-12415031D01*
X20501753Y-12415031D02*
X20482706Y-12443603D01*
X20482706Y-12443603D02*
X20473182Y-12481698D01*
X20473182Y-12481698D02*
X20473182Y-12557888D01*
X20473182Y-12557888D02*
X20482706Y-12576936D01*
X20482706Y-12576936D02*
X20492229Y-12586460D01*
X20492229Y-12586460D02*
X20511277Y-12595984D01*
X20511277Y-12595984D02*
X20549372Y-12595984D01*
X20549372Y-12595984D02*
X20568420Y-12586460D01*
X20568420Y-12586460D02*
X20577944Y-12576936D01*
X20577944Y-12576936D02*
X20587468Y-12557888D01*
X20587468Y-12557888D02*
X20587468Y-12510269D01*
X20587468Y-12510269D02*
X20577944Y-12491222D01*
X20577944Y-12491222D02*
X20568420Y-12481698D01*
X20568420Y-12481698D02*
X20549372Y-12472174D01*
X20549372Y-12472174D02*
X20511277Y-12472174D01*
X20511277Y-12472174D02*
X20492229Y-12481698D01*
X20492229Y-12481698D02*
X20482706Y-12491222D01*
X20482706Y-12491222D02*
X20473182Y-12510269D01*
X20758896Y-12395984D02*
X20720801Y-12395984D01*
X20720801Y-12395984D02*
X20701753Y-12405508D01*
X20701753Y-12405508D02*
X20692229Y-12415031D01*
X20692229Y-12415031D02*
X20673182Y-12443603D01*
X20673182Y-12443603D02*
X20663658Y-12481698D01*
X20663658Y-12481698D02*
X20663658Y-12557888D01*
X20663658Y-12557888D02*
X20673182Y-12576936D01*
X20673182Y-12576936D02*
X20682706Y-12586460D01*
X20682706Y-12586460D02*
X20701753Y-12595984D01*
X20701753Y-12595984D02*
X20739849Y-12595984D01*
X20739849Y-12595984D02*
X20758896Y-12586460D01*
X20758896Y-12586460D02*
X20768420Y-12576936D01*
X20768420Y-12576936D02*
X20777944Y-12557888D01*
X20777944Y-12557888D02*
X20777944Y-12510269D01*
X20777944Y-12510269D02*
X20768420Y-12491222D01*
X20768420Y-12491222D02*
X20758896Y-12481698D01*
X20758896Y-12481698D02*
X20739849Y-12472174D01*
X20739849Y-12472174D02*
X20701753Y-12472174D01*
X20701753Y-12472174D02*
X20682706Y-12481698D01*
X20682706Y-12481698D02*
X20673182Y-12491222D01*
X20673182Y-12491222D02*
X20663658Y-12510269D01*
X20854134Y-12395984D02*
X20854134Y-12434079D01*
X20930325Y-12395984D02*
X20930325Y-12434079D01*
X21225563Y-12672174D02*
X21216039Y-12662650D01*
X21216039Y-12662650D02*
X21196991Y-12634079D01*
X21196991Y-12634079D02*
X21187468Y-12615031D01*
X21187468Y-12615031D02*
X21177944Y-12586460D01*
X21177944Y-12586460D02*
X21168420Y-12538841D01*
X21168420Y-12538841D02*
X21168420Y-12500746D01*
X21168420Y-12500746D02*
X21177944Y-12453127D01*
X21177944Y-12453127D02*
X21187468Y-12424555D01*
X21187468Y-12424555D02*
X21196991Y-12405508D01*
X21196991Y-12405508D02*
X21216039Y-12376936D01*
X21216039Y-12376936D02*
X21225563Y-12367412D01*
X21292230Y-12415031D02*
X21301753Y-12405508D01*
X21301753Y-12405508D02*
X21320801Y-12395984D01*
X21320801Y-12395984D02*
X21368420Y-12395984D01*
X21368420Y-12395984D02*
X21387468Y-12405508D01*
X21387468Y-12405508D02*
X21396991Y-12415031D01*
X21396991Y-12415031D02*
X21406515Y-12434079D01*
X21406515Y-12434079D02*
X21406515Y-12453127D01*
X21406515Y-12453127D02*
X21396991Y-12481698D01*
X21396991Y-12481698D02*
X21282706Y-12595984D01*
X21282706Y-12595984D02*
X21406515Y-12595984D01*
X21644611Y-12595984D02*
X21644611Y-12395984D01*
X21730325Y-12595984D02*
X21730325Y-12491222D01*
X21730325Y-12491222D02*
X21720801Y-12472174D01*
X21720801Y-12472174D02*
X21701753Y-12462650D01*
X21701753Y-12462650D02*
X21673182Y-12462650D01*
X21673182Y-12462650D02*
X21654134Y-12472174D01*
X21654134Y-12472174D02*
X21644611Y-12481698D01*
X21854134Y-12595984D02*
X21835087Y-12586460D01*
X21835087Y-12586460D02*
X21825563Y-12576936D01*
X21825563Y-12576936D02*
X21816039Y-12557888D01*
X21816039Y-12557888D02*
X21816039Y-12500746D01*
X21816039Y-12500746D02*
X21825563Y-12481698D01*
X21825563Y-12481698D02*
X21835087Y-12472174D01*
X21835087Y-12472174D02*
X21854134Y-12462650D01*
X21854134Y-12462650D02*
X21882706Y-12462650D01*
X21882706Y-12462650D02*
X21901753Y-12472174D01*
X21901753Y-12472174D02*
X21911277Y-12481698D01*
X21911277Y-12481698D02*
X21920801Y-12500746D01*
X21920801Y-12500746D02*
X21920801Y-12557888D01*
X21920801Y-12557888D02*
X21911277Y-12576936D01*
X21911277Y-12576936D02*
X21901753Y-12586460D01*
X21901753Y-12586460D02*
X21882706Y-12595984D01*
X21882706Y-12595984D02*
X21854134Y-12595984D01*
X22035087Y-12595984D02*
X22016039Y-12586460D01*
X22016039Y-12586460D02*
X22006515Y-12567412D01*
X22006515Y-12567412D02*
X22006515Y-12395984D01*
X22187468Y-12586460D02*
X22168420Y-12595984D01*
X22168420Y-12595984D02*
X22130325Y-12595984D01*
X22130325Y-12595984D02*
X22111277Y-12586460D01*
X22111277Y-12586460D02*
X22101753Y-12567412D01*
X22101753Y-12567412D02*
X22101753Y-12491222D01*
X22101753Y-12491222D02*
X22111277Y-12472174D01*
X22111277Y-12472174D02*
X22130325Y-12462650D01*
X22130325Y-12462650D02*
X22168420Y-12462650D01*
X22168420Y-12462650D02*
X22187468Y-12472174D01*
X22187468Y-12472174D02*
X22196992Y-12491222D01*
X22196992Y-12491222D02*
X22196992Y-12510269D01*
X22196992Y-12510269D02*
X22101753Y-12529317D01*
X22273182Y-12586460D02*
X22292230Y-12595984D01*
X22292230Y-12595984D02*
X22330325Y-12595984D01*
X22330325Y-12595984D02*
X22349373Y-12586460D01*
X22349373Y-12586460D02*
X22358896Y-12567412D01*
X22358896Y-12567412D02*
X22358896Y-12557888D01*
X22358896Y-12557888D02*
X22349373Y-12538841D01*
X22349373Y-12538841D02*
X22330325Y-12529317D01*
X22330325Y-12529317D02*
X22301753Y-12529317D01*
X22301753Y-12529317D02*
X22282706Y-12519793D01*
X22282706Y-12519793D02*
X22273182Y-12500746D01*
X22273182Y-12500746D02*
X22273182Y-12491222D01*
X22273182Y-12491222D02*
X22282706Y-12472174D01*
X22282706Y-12472174D02*
X22301753Y-12462650D01*
X22301753Y-12462650D02*
X22330325Y-12462650D01*
X22330325Y-12462650D02*
X22349373Y-12472174D01*
X22425563Y-12672174D02*
X22435087Y-12662650D01*
X22435087Y-12662650D02*
X22454134Y-12634079D01*
X22454134Y-12634079D02*
X22463658Y-12615031D01*
X22463658Y-12615031D02*
X22473182Y-12586460D01*
X22473182Y-12586460D02*
X22482706Y-12538841D01*
X22482706Y-12538841D02*
X22482706Y-12500746D01*
X22482706Y-12500746D02*
X22473182Y-12453127D01*
X22473182Y-12453127D02*
X22463658Y-12424555D01*
X22463658Y-12424555D02*
X22454134Y-12405508D01*
X22454134Y-12405508D02*
X22435087Y-12376936D01*
X22435087Y-12376936D02*
X22425563Y-12367412D01*
X22787468Y-12672174D02*
X22777944Y-12662650D01*
X22777944Y-12662650D02*
X22758896Y-12634079D01*
X22758896Y-12634079D02*
X22749372Y-12615031D01*
X22749372Y-12615031D02*
X22739849Y-12586460D01*
X22739849Y-12586460D02*
X22730325Y-12538841D01*
X22730325Y-12538841D02*
X22730325Y-12500746D01*
X22730325Y-12500746D02*
X22739849Y-12453127D01*
X22739849Y-12453127D02*
X22749372Y-12424555D01*
X22749372Y-12424555D02*
X22758896Y-12405508D01*
X22758896Y-12405508D02*
X22777944Y-12376936D01*
X22777944Y-12376936D02*
X22787468Y-12367412D01*
X22863658Y-12462650D02*
X22863658Y-12595984D01*
X22863658Y-12481698D02*
X22873182Y-12472174D01*
X22873182Y-12472174D02*
X22892230Y-12462650D01*
X22892230Y-12462650D02*
X22920801Y-12462650D01*
X22920801Y-12462650D02*
X22939849Y-12472174D01*
X22939849Y-12472174D02*
X22949372Y-12491222D01*
X22949372Y-12491222D02*
X22949372Y-12595984D01*
X23073182Y-12595984D02*
X23054134Y-12586460D01*
X23054134Y-12586460D02*
X23044611Y-12576936D01*
X23044611Y-12576936D02*
X23035087Y-12557888D01*
X23035087Y-12557888D02*
X23035087Y-12500746D01*
X23035087Y-12500746D02*
X23044611Y-12481698D01*
X23044611Y-12481698D02*
X23054134Y-12472174D01*
X23054134Y-12472174D02*
X23073182Y-12462650D01*
X23073182Y-12462650D02*
X23101753Y-12462650D01*
X23101753Y-12462650D02*
X23120801Y-12472174D01*
X23120801Y-12472174D02*
X23130325Y-12481698D01*
X23130325Y-12481698D02*
X23139849Y-12500746D01*
X23139849Y-12500746D02*
X23139849Y-12557888D01*
X23139849Y-12557888D02*
X23130325Y-12576936D01*
X23130325Y-12576936D02*
X23120801Y-12586460D01*
X23120801Y-12586460D02*
X23101753Y-12595984D01*
X23101753Y-12595984D02*
X23073182Y-12595984D01*
X23196992Y-12462650D02*
X23273182Y-12462650D01*
X23225563Y-12395984D02*
X23225563Y-12567412D01*
X23225563Y-12567412D02*
X23235087Y-12586460D01*
X23235087Y-12586460D02*
X23254134Y-12595984D01*
X23254134Y-12595984D02*
X23273182Y-12595984D01*
X23492230Y-12462650D02*
X23492230Y-12662650D01*
X23492230Y-12472174D02*
X23511277Y-12462650D01*
X23511277Y-12462650D02*
X23549373Y-12462650D01*
X23549373Y-12462650D02*
X23568420Y-12472174D01*
X23568420Y-12472174D02*
X23577944Y-12481698D01*
X23577944Y-12481698D02*
X23587468Y-12500746D01*
X23587468Y-12500746D02*
X23587468Y-12557888D01*
X23587468Y-12557888D02*
X23577944Y-12576936D01*
X23577944Y-12576936D02*
X23568420Y-12586460D01*
X23568420Y-12586460D02*
X23549373Y-12595984D01*
X23549373Y-12595984D02*
X23511277Y-12595984D01*
X23511277Y-12595984D02*
X23492230Y-12586460D01*
X23701753Y-12595984D02*
X23682706Y-12586460D01*
X23682706Y-12586460D02*
X23673182Y-12567412D01*
X23673182Y-12567412D02*
X23673182Y-12395984D01*
X23863658Y-12595984D02*
X23863658Y-12491222D01*
X23863658Y-12491222D02*
X23854134Y-12472174D01*
X23854134Y-12472174D02*
X23835087Y-12462650D01*
X23835087Y-12462650D02*
X23796992Y-12462650D01*
X23796992Y-12462650D02*
X23777944Y-12472174D01*
X23863658Y-12586460D02*
X23844611Y-12595984D01*
X23844611Y-12595984D02*
X23796992Y-12595984D01*
X23796992Y-12595984D02*
X23777944Y-12586460D01*
X23777944Y-12586460D02*
X23768420Y-12567412D01*
X23768420Y-12567412D02*
X23768420Y-12548365D01*
X23768420Y-12548365D02*
X23777944Y-12529317D01*
X23777944Y-12529317D02*
X23796992Y-12519793D01*
X23796992Y-12519793D02*
X23844611Y-12519793D01*
X23844611Y-12519793D02*
X23863658Y-12510269D01*
X23930325Y-12462650D02*
X24006515Y-12462650D01*
X23958896Y-12395984D02*
X23958896Y-12567412D01*
X23958896Y-12567412D02*
X23968420Y-12586460D01*
X23968420Y-12586460D02*
X23987468Y-12595984D01*
X23987468Y-12595984D02*
X24006515Y-12595984D01*
X24149373Y-12586460D02*
X24130325Y-12595984D01*
X24130325Y-12595984D02*
X24092230Y-12595984D01*
X24092230Y-12595984D02*
X24073182Y-12586460D01*
X24073182Y-12586460D02*
X24063658Y-12567412D01*
X24063658Y-12567412D02*
X24063658Y-12491222D01*
X24063658Y-12491222D02*
X24073182Y-12472174D01*
X24073182Y-12472174D02*
X24092230Y-12462650D01*
X24092230Y-12462650D02*
X24130325Y-12462650D01*
X24130325Y-12462650D02*
X24149373Y-12472174D01*
X24149373Y-12472174D02*
X24158896Y-12491222D01*
X24158896Y-12491222D02*
X24158896Y-12510269D01*
X24158896Y-12510269D02*
X24063658Y-12529317D01*
X24330325Y-12595984D02*
X24330325Y-12395984D01*
X24330325Y-12586460D02*
X24311277Y-12595984D01*
X24311277Y-12595984D02*
X24273182Y-12595984D01*
X24273182Y-12595984D02*
X24254134Y-12586460D01*
X24254134Y-12586460D02*
X24244611Y-12576936D01*
X24244611Y-12576936D02*
X24235087Y-12557888D01*
X24235087Y-12557888D02*
X24235087Y-12500746D01*
X24235087Y-12500746D02*
X24244611Y-12481698D01*
X24244611Y-12481698D02*
X24254134Y-12472174D01*
X24254134Y-12472174D02*
X24273182Y-12462650D01*
X24273182Y-12462650D02*
X24311277Y-12462650D01*
X24311277Y-12462650D02*
X24330325Y-12472174D01*
X24406515Y-12672174D02*
X24416039Y-12662650D01*
X24416039Y-12662650D02*
X24435087Y-12634079D01*
X24435087Y-12634079D02*
X24444611Y-12615031D01*
X24444611Y-12615031D02*
X24454134Y-12586460D01*
X24454134Y-12586460D02*
X24463658Y-12538841D01*
X24463658Y-12538841D02*
X24463658Y-12500746D01*
X24463658Y-12500746D02*
X24454134Y-12453127D01*
X24454134Y-12453127D02*
X24444611Y-12424555D01*
X24444611Y-12424555D02*
X24435087Y-12405508D01*
X24435087Y-12405508D02*
X24416039Y-12376936D01*
X24416039Y-12376936D02*
X24406515Y-12367412D01*
M02*
