%TF.GenerationSoftware,KiCad,Pcbnew,9.0.2*%
%TF.CreationDate,2025-06-04T18:26:56+02:00*%
%TF.ProjectId,schaltung_labor_netzteil_display,73636861-6c74-4756-9e67-5f6c61626f72,rev?*%
%TF.SameCoordinates,Original*%
%TF.FileFunction,Soldermask,Top*%
%TF.FilePolarity,Negative*%
%FSLAX46Y46*%
G04 Gerber Fmt 4.6, Leading zero omitted, Abs format (unit mm)*
G04 Created by KiCad (PCBNEW 9.0.2) date 2025-06-04 18:26:56*
%MOMM*%
%LPD*%
G01*
G04 APERTURE LIST*
G04 Aperture macros list*
%AMRoundRect*
0 Rectangle with rounded corners*
0 $1 Rounding radius*
0 $2 $3 $4 $5 $6 $7 $8 $9 X,Y pos of 4 corners*
0 Add a 4 corners polygon primitive as box body*
4,1,4,$2,$3,$4,$5,$6,$7,$8,$9,$2,$3,0*
0 Add four circle primitives for the rounded corners*
1,1,$1+$1,$2,$3*
1,1,$1+$1,$4,$5*
1,1,$1+$1,$6,$7*
1,1,$1+$1,$8,$9*
0 Add four rect primitives between the rounded corners*
20,1,$1+$1,$2,$3,$4,$5,0*
20,1,$1+$1,$4,$5,$6,$7,0*
20,1,$1+$1,$6,$7,$8,$9,0*
20,1,$1+$1,$8,$9,$2,$3,0*%
%AMFreePoly0*
4,1,37,0.800000,0.796148,0.878414,0.796148,1.032228,0.765552,1.177117,0.705537,1.307515,0.618408,1.418408,0.507515,1.505537,0.377117,1.565552,0.232228,1.596148,0.078414,1.596148,-0.078414,1.565552,-0.232228,1.505537,-0.377117,1.418408,-0.507515,1.307515,-0.618408,1.177117,-0.705537,1.032228,-0.765552,0.878414,-0.796148,0.800000,-0.796148,0.800000,-0.800000,-1.400000,-0.800000,
-1.403843,-0.796157,-1.439018,-0.796157,-1.511114,-0.766294,-1.566294,-0.711114,-1.596157,-0.639018,-1.596157,-0.603843,-1.600000,-0.600000,-1.600000,0.600000,-1.596157,0.603843,-1.596157,0.639018,-1.566294,0.711114,-1.511114,0.766294,-1.439018,0.796157,-1.403843,0.796157,-1.400000,0.800000,0.800000,0.800000,0.800000,0.796148,0.800000,0.796148,$1*%
%AMFreePoly1*
4,1,37,1.403843,0.796157,1.439018,0.796157,1.511114,0.766294,1.566294,0.711114,1.596157,0.639018,1.596157,0.603843,1.600000,0.600000,1.600000,-0.600000,1.596157,-0.603843,1.596157,-0.639018,1.566294,-0.711114,1.511114,-0.766294,1.439018,-0.796157,1.403843,-0.796157,1.400000,-0.800000,-0.800000,-0.800000,-0.800000,-0.796148,-0.878414,-0.796148,-1.032228,-0.765552,-1.177117,-0.705537,
-1.307515,-0.618408,-1.418408,-0.507515,-1.505537,-0.377117,-1.565552,-0.232228,-1.596148,-0.078414,-1.596148,0.078414,-1.565552,0.232228,-1.505537,0.377117,-1.418408,0.507515,-1.307515,0.618408,-1.177117,0.705537,-1.032228,0.765552,-0.878414,0.796148,-0.800000,0.796148,-0.800000,0.800000,1.400000,0.800000,1.403843,0.796157,1.403843,0.796157,$1*%
%AMFreePoly2*
4,1,37,0.603843,0.796157,0.639018,0.796157,0.711114,0.766294,0.766294,0.711114,0.796157,0.639018,0.796157,0.603843,0.800000,0.600000,0.800000,-0.600000,0.796157,-0.603843,0.796157,-0.639018,0.766294,-0.711114,0.711114,-0.766294,0.639018,-0.796157,0.603843,-0.796157,0.600000,-0.800000,0.000000,-0.800000,0.000000,-0.796148,-0.078414,-0.796148,-0.232228,-0.765552,-0.377117,-0.705537,
-0.507515,-0.618408,-0.618408,-0.507515,-0.705537,-0.377117,-0.765552,-0.232228,-0.796148,-0.078414,-0.796148,0.078414,-0.765552,0.232228,-0.705537,0.377117,-0.618408,0.507515,-0.507515,0.618408,-0.377117,0.705537,-0.232228,0.765552,-0.078414,0.796148,0.000000,0.796148,0.000000,0.800000,0.600000,0.800000,0.603843,0.796157,0.603843,0.796157,$1*%
%AMFreePoly3*
4,1,37,0.000000,0.796148,0.078414,0.796148,0.232228,0.765552,0.377117,0.705537,0.507515,0.618408,0.618408,0.507515,0.705537,0.377117,0.765552,0.232228,0.796148,0.078414,0.796148,-0.078414,0.765552,-0.232228,0.705537,-0.377117,0.618408,-0.507515,0.507515,-0.618408,0.377117,-0.705537,0.232228,-0.765552,0.078414,-0.796148,0.000000,-0.796148,0.000000,-0.800000,-0.600000,-0.800000,
-0.603843,-0.796157,-0.639018,-0.796157,-0.711114,-0.766294,-0.766294,-0.711114,-0.796157,-0.639018,-0.796157,-0.603843,-0.800000,-0.600000,-0.800000,0.600000,-0.796157,0.603843,-0.796157,0.639018,-0.766294,0.711114,-0.711114,0.766294,-0.639018,0.796157,-0.603843,0.796157,-0.600000,0.800000,0.000000,0.800000,0.000000,0.796148,0.000000,0.796148,$1*%
G04 Aperture macros list end*
%ADD10R,1.700000X1.700000*%
%ADD11C,2.032000*%
%ADD12C,1.900000*%
%ADD13C,2.200000*%
%ADD14C,1.850000*%
%ADD15FreePoly0,90.000000*%
%ADD16RoundRect,0.200000X0.600000X-0.600000X0.600000X0.600000X-0.600000X0.600000X-0.600000X-0.600000X0*%
%ADD17RoundRect,0.800000X0.000010X-0.800000X0.000010X0.800000X-0.000010X0.800000X-0.000010X-0.800000X0*%
%ADD18C,1.600000*%
%ADD19FreePoly1,90.000000*%
%ADD20FreePoly2,90.000000*%
%ADD21FreePoly3,90.000000*%
G04 APERTURE END LIST*
D10*
%TO.C,J3*%
X234950000Y-105410000D03*
%TD*%
%TO.C,J5*%
X179070000Y-48260000D03*
%TD*%
D11*
%TO.C,U2*%
X185374440Y-80875320D03*
X242524440Y-80875320D03*
X185374440Y-83415320D03*
X242524440Y-83415320D03*
X185374440Y-85955320D03*
X242524440Y-85955320D03*
X185374440Y-88495320D03*
X242524440Y-88495320D03*
%TD*%
%TO.C,U1*%
X185420000Y-59660000D03*
X242570000Y-59660000D03*
X185420000Y-62200000D03*
X242570000Y-62200000D03*
X185420000Y-64740000D03*
X242570000Y-64740000D03*
X185420000Y-67280000D03*
X242570000Y-67280000D03*
%TD*%
D10*
%TO.C,J11*%
X223520000Y-104140000D03*
%TD*%
%TO.C,J9*%
X207010000Y-22860000D03*
%TD*%
%TO.C,J7*%
X242570000Y-29210000D03*
%TD*%
%TO.C,J8*%
X212090000Y-22860000D03*
%TD*%
%TO.C,J2*%
X182880000Y-110490000D03*
%TD*%
D12*
%TO.C,U3*%
X256540000Y-81280000D03*
X259080000Y-81280000D03*
X261620000Y-81280000D03*
X264160000Y-81280000D03*
X266700000Y-81280000D03*
%TD*%
D10*
%TO.C,J4*%
X245110000Y-105410000D03*
%TD*%
D13*
%TO.C,A1*%
X188090000Y-40825000D03*
D14*
X191120000Y-40525000D03*
X191120000Y-35675000D03*
D13*
X188090000Y-35375000D03*
D15*
X187960000Y-47790000D03*
D16*
X187960000Y-46990000D03*
D17*
X190500000Y-47790000D03*
D18*
X190500000Y-46990000D03*
D19*
X193040000Y-47790000D03*
D20*
X193040000Y-46990000D03*
D17*
X195580000Y-47790000D03*
D18*
X195580000Y-46990000D03*
D17*
X198120000Y-47790000D03*
D18*
X198120000Y-46990000D03*
D17*
X200660000Y-47790000D03*
D18*
X200660000Y-46990000D03*
D17*
X203200000Y-47790000D03*
D18*
X203200000Y-46990000D03*
D19*
X205740000Y-47790000D03*
D20*
X205740000Y-46990000D03*
D17*
X208280000Y-47790000D03*
D18*
X208280000Y-46990000D03*
D17*
X210820000Y-47790000D03*
D18*
X210820000Y-46990000D03*
D17*
X213360000Y-47790000D03*
D18*
X213360000Y-46990000D03*
D17*
X215900000Y-47790000D03*
D18*
X215900000Y-46990000D03*
D19*
X218440000Y-47790000D03*
D20*
X218440000Y-46990000D03*
D17*
X220980000Y-47790000D03*
D18*
X220980000Y-46990000D03*
D17*
X223520000Y-47790000D03*
D18*
X223520000Y-46990000D03*
D17*
X226060000Y-47790000D03*
D18*
X226060000Y-46990000D03*
D17*
X228600000Y-47790000D03*
D18*
X228600000Y-46990000D03*
D19*
X231140000Y-47790000D03*
D20*
X231140000Y-46990000D03*
D17*
X233680000Y-47790000D03*
D18*
X233680000Y-46990000D03*
D17*
X236220000Y-47790000D03*
D18*
X236220000Y-46990000D03*
X236220000Y-29210000D03*
D17*
X236220000Y-28410000D03*
D18*
X233680000Y-29210000D03*
D17*
X233680000Y-28410000D03*
D21*
X231140000Y-29210000D03*
D15*
X231140000Y-28410000D03*
D18*
X228600000Y-29210000D03*
D17*
X228600000Y-28410000D03*
D18*
X226060000Y-29210000D03*
D17*
X226060000Y-28410000D03*
D18*
X223520000Y-29210000D03*
D17*
X223520000Y-28410000D03*
D18*
X220980000Y-29210000D03*
D17*
X220980000Y-28410000D03*
D21*
X218440000Y-29210000D03*
D15*
X218440000Y-28410000D03*
D18*
X215900000Y-29210000D03*
D17*
X215900000Y-28410000D03*
D18*
X213360000Y-29210000D03*
D17*
X213360000Y-28410000D03*
D18*
X210820000Y-29210000D03*
D17*
X210820000Y-28410000D03*
D18*
X208280000Y-29210000D03*
D17*
X208280000Y-28410000D03*
D21*
X205740000Y-29210000D03*
D15*
X205740000Y-28410000D03*
D18*
X203200000Y-29210000D03*
D17*
X203200000Y-28410000D03*
D18*
X200660000Y-29210000D03*
D17*
X200660000Y-28410000D03*
D18*
X198120000Y-29210000D03*
D17*
X198120000Y-28410000D03*
D18*
X195580000Y-29210000D03*
D17*
X195580000Y-28410000D03*
D21*
X193040000Y-29210000D03*
D15*
X193040000Y-28410000D03*
D18*
X190500000Y-29210000D03*
D17*
X190500000Y-28410000D03*
D18*
X187960000Y-29210000D03*
D17*
X187960000Y-28410000D03*
%TD*%
D10*
%TO.C,J6*%
X242570000Y-39370000D03*
%TD*%
%TO.C,J10*%
X218440000Y-104140000D03*
%TD*%
%TO.C,J1*%
X182880000Y-104620000D03*
%TD*%
M02*
