%TF.GenerationSoftware,KiCad,Pcbnew,9.0.2*%
%TF.CreationDate,2025-06-21T00:54:49+02:00*%
%TF.ProjectId,schaltung_labor_netzteil_display,73636861-6c74-4756-9e67-5f6c61626f72,rev?*%
%TF.SameCoordinates,Original*%
%TF.FileFunction,Copper,L2,Bot*%
%TF.FilePolarity,Positive*%
%FSLAX46Y46*%
G04 Gerber Fmt 4.6, Leading zero omitted, Abs format (unit mm)*
G04 Created by KiCad (PCBNEW 9.0.2) date 2025-06-21 00:54:49*
%MOMM*%
%LPD*%
G01*
G04 APERTURE LIST*
G04 Aperture macros list*
%AMRoundRect*
0 Rectangle with rounded corners*
0 $1 Rounding radius*
0 $2 $3 $4 $5 $6 $7 $8 $9 X,Y pos of 4 corners*
0 Add a 4 corners polygon primitive as box body*
4,1,4,$2,$3,$4,$5,$6,$7,$8,$9,$2,$3,0*
0 Add four circle primitives for the rounded corners*
1,1,$1+$1,$2,$3*
1,1,$1+$1,$4,$5*
1,1,$1+$1,$6,$7*
1,1,$1+$1,$8,$9*
0 Add four rect primitives between the rounded corners*
20,1,$1+$1,$2,$3,$4,$5,0*
20,1,$1+$1,$4,$5,$6,$7,0*
20,1,$1+$1,$6,$7,$8,$9,0*
20,1,$1+$1,$8,$9,$2,$3,0*%
%AMFreePoly0*
4,1,37,0.603843,0.796157,0.639018,0.796157,0.711114,0.766294,0.766294,0.711114,0.796157,0.639018,0.796157,0.603843,0.800000,0.600000,0.800000,-0.600000,0.796157,-0.603843,0.796157,-0.639018,0.766294,-0.711114,0.711114,-0.766294,0.639018,-0.796157,0.603843,-0.796157,0.600000,-0.800000,0.000000,-0.800000,0.000000,-0.796148,-0.078414,-0.796148,-0.232228,-0.765552,-0.377117,-0.705537,
-0.507515,-0.618408,-0.618408,-0.507515,-0.705537,-0.377117,-0.765552,-0.232228,-0.796148,-0.078414,-0.796148,0.078414,-0.765552,0.232228,-0.705537,0.377117,-0.618408,0.507515,-0.507515,0.618408,-0.377117,0.705537,-0.232228,0.765552,-0.078414,0.796148,0.000000,0.796148,0.000000,0.800000,0.600000,0.800000,0.603843,0.796157,0.603843,0.796157,$1*%
%AMFreePoly1*
4,1,37,0.000000,0.796148,0.078414,0.796148,0.232228,0.765552,0.377117,0.705537,0.507515,0.618408,0.618408,0.507515,0.705537,0.377117,0.765552,0.232228,0.796148,0.078414,0.796148,-0.078414,0.765552,-0.232228,0.705537,-0.377117,0.618408,-0.507515,0.507515,-0.618408,0.377117,-0.705537,0.232228,-0.765552,0.078414,-0.796148,0.000000,-0.796148,0.000000,-0.800000,-0.600000,-0.800000,
-0.603843,-0.796157,-0.639018,-0.796157,-0.711114,-0.766294,-0.766294,-0.711114,-0.796157,-0.639018,-0.796157,-0.603843,-0.800000,-0.600000,-0.800000,0.600000,-0.796157,0.603843,-0.796157,0.639018,-0.766294,0.711114,-0.711114,0.766294,-0.639018,0.796157,-0.603843,0.796157,-0.600000,0.800000,0.000000,0.800000,0.000000,0.796148,0.000000,0.796148,$1*%
G04 Aperture macros list end*
%TA.AperFunction,ComponentPad*%
%ADD10R,1.700000X1.700000*%
%TD*%
%TA.AperFunction,ComponentPad*%
%ADD11C,2.032000*%
%TD*%
%TA.AperFunction,ComponentPad*%
%ADD12C,1.900000*%
%TD*%
%TA.AperFunction,ComponentPad*%
%ADD13RoundRect,0.200000X0.600000X-0.600000X0.600000X0.600000X-0.600000X0.600000X-0.600000X-0.600000X0*%
%TD*%
%TA.AperFunction,ComponentPad*%
%ADD14C,1.600000*%
%TD*%
%TA.AperFunction,ComponentPad*%
%ADD15FreePoly0,90.000000*%
%TD*%
%TA.AperFunction,ComponentPad*%
%ADD16FreePoly1,90.000000*%
%TD*%
G04 APERTURE END LIST*
D10*
%TO.P,J11,1,Pin_1*%
%TO.N,Net-(J11-Pin_1)*%
X223520000Y-104140000D03*
%TD*%
D11*
%TO.P,U2,1,CLK*%
%TO.N,Net-(A1-GPIO7)*%
X185374440Y-80875320D03*
X242524440Y-80875320D03*
%TO.P,U2,2,DIO*%
%TO.N,Net-(A1-GPIO6)*%
X185374440Y-83415320D03*
X242524440Y-83415320D03*
%TO.P,U2,3,GND*%
%TO.N,GND*%
X185374440Y-85955320D03*
X242524440Y-85955320D03*
%TO.P,U2,4,5V*%
%TO.N,Net-(A1-VSYS)*%
X185374440Y-88495320D03*
X242524440Y-88495320D03*
%TD*%
D10*
%TO.P,J9,1,Pin_1*%
%TO.N,Net-(A1-GPIO27_ADC1)*%
X207010000Y-22860000D03*
%TD*%
%TO.P,J7,1,Pin_1*%
%TO.N,Net-(A1-GPIO16)*%
X242570000Y-29210000D03*
%TD*%
D11*
%TO.P,U1,1,CLK*%
%TO.N,Net-(A1-GPIO1)*%
X185420000Y-59660000D03*
X242570000Y-59660000D03*
%TO.P,U1,2,DIO*%
%TO.N,Net-(A1-GPIO0)*%
X185420000Y-62200000D03*
X242570000Y-62200000D03*
%TO.P,U1,3,GND*%
%TO.N,GND*%
X185420000Y-64740000D03*
X242570000Y-64740000D03*
%TO.P,U1,4,5V*%
%TO.N,Net-(A1-VSYS)*%
X185420000Y-67280000D03*
X242570000Y-67280000D03*
%TD*%
D10*
%TO.P,J8,1,Pin_1*%
%TO.N,Net-(A1-GPIO26_ADC0)*%
X212090000Y-22860000D03*
%TD*%
%TO.P,J2,1,Pin_1*%
%TO.N,Net-(J2-Pin_1)*%
X182880000Y-110490000D03*
%TD*%
D12*
%TO.P,U3,1,CLK*%
%TO.N,Net-(A1-GPIO13)*%
X256540000Y-81280000D03*
%TO.P,U3,2,DT*%
%TO.N,Net-(A1-GPIO14)*%
X259080000Y-81280000D03*
%TO.P,U3,3,SW*%
%TO.N,Net-(A1-GPIO15)*%
X261620000Y-81280000D03*
%TO.P,U3,4,+*%
%TO.N,Net-(A1-VSYS)*%
X264160000Y-81280000D03*
%TO.P,U3,5,GND*%
%TO.N,GND*%
X266700000Y-81280000D03*
%TD*%
D10*
%TO.P,J4,1,Pin_1*%
%TO.N,Net-(J2-Pin_1)*%
X245110000Y-105410000D03*
%TD*%
%TO.P,J3,1,Pin_1*%
%TO.N,Net-(J11-Pin_1)*%
X234950000Y-105410000D03*
%TD*%
%TO.P,J5,1,Pin_1*%
%TO.N,Net-(A1-VSYS)*%
X179070000Y-48260000D03*
%TD*%
D13*
%TO.P,A1,1,GPIO0*%
%TO.N,Net-(A1-GPIO0)*%
X187960000Y-46990000D03*
D14*
%TO.P,A1,2,GPIO1*%
%TO.N,Net-(A1-GPIO1)*%
X190500000Y-46990000D03*
D15*
%TO.P,A1,3,GND*%
%TO.N,GND*%
X193040000Y-46990000D03*
D14*
%TO.P,A1,4,GPIO2*%
%TO.N,unconnected-(A1-GPIO2-Pad4)*%
X195580000Y-46990000D03*
%TO.P,A1,5,GPIO3*%
%TO.N,unconnected-(A1-GPIO3-Pad5)*%
X198120000Y-46990000D03*
%TO.P,A1,6,GPIO4*%
%TO.N,unconnected-(A1-GPIO4-Pad6)*%
X200660000Y-46990000D03*
%TO.P,A1,7,GPIO5*%
%TO.N,unconnected-(A1-GPIO5-Pad7)*%
X203200000Y-46990000D03*
D15*
%TO.P,A1,8,GND*%
%TO.N,GND*%
X205740000Y-46990000D03*
D14*
%TO.P,A1,9,GPIO6*%
%TO.N,Net-(A1-GPIO6)*%
X208280000Y-46990000D03*
%TO.P,A1,10,GPIO7*%
%TO.N,Net-(A1-GPIO7)*%
X210820000Y-46990000D03*
%TO.P,A1,11,GPIO8*%
%TO.N,unconnected-(A1-GPIO8-Pad11)*%
X213360000Y-46990000D03*
%TO.P,A1,12,GPIO9*%
%TO.N,unconnected-(A1-GPIO9-Pad12)*%
X215900000Y-46990000D03*
D15*
%TO.P,A1,13,GND*%
%TO.N,GND*%
X218440000Y-46990000D03*
D14*
%TO.P,A1,14,GPIO10*%
%TO.N,unconnected-(A1-GPIO10-Pad14)*%
X220980000Y-46990000D03*
%TO.P,A1,15,GPIO11*%
%TO.N,unconnected-(A1-GPIO11-Pad15)*%
X223520000Y-46990000D03*
%TO.P,A1,16,GPIO12*%
%TO.N,unconnected-(A1-GPIO12-Pad16)*%
X226060000Y-46990000D03*
%TO.P,A1,17,GPIO13*%
%TO.N,Net-(A1-GPIO13)*%
X228600000Y-46990000D03*
D15*
%TO.P,A1,18,GND*%
%TO.N,GND*%
X231140000Y-46990000D03*
D14*
%TO.P,A1,19,GPIO14*%
%TO.N,Net-(A1-GPIO14)*%
X233680000Y-46990000D03*
%TO.P,A1,20,GPIO15*%
%TO.N,Net-(A1-GPIO15)*%
X236220000Y-46990000D03*
%TO.P,A1,21,GPIO16*%
%TO.N,Net-(A1-GPIO16)*%
X236220000Y-29210000D03*
%TO.P,A1,22,GPIO17*%
%TO.N,unconnected-(A1-GPIO17-Pad22)*%
X233680000Y-29210000D03*
D16*
%TO.P,A1,23,GND*%
%TO.N,GND*%
X231140000Y-29210000D03*
D14*
%TO.P,A1,24,GPIO18*%
%TO.N,unconnected-(A1-GPIO18-Pad24)*%
X228600000Y-29210000D03*
%TO.P,A1,25,GPIO19*%
%TO.N,unconnected-(A1-GPIO19-Pad25)*%
X226060000Y-29210000D03*
%TO.P,A1,26,GPIO20*%
%TO.N,unconnected-(A1-GPIO20-Pad26)*%
X223520000Y-29210000D03*
%TO.P,A1,27,GPIO21*%
%TO.N,unconnected-(A1-GPIO21-Pad27)*%
X220980000Y-29210000D03*
D16*
%TO.P,A1,28,GND*%
%TO.N,GND*%
X218440000Y-29210000D03*
D14*
%TO.P,A1,29,GPIO22*%
%TO.N,unconnected-(A1-GPIO22-Pad29)*%
X215900000Y-29210000D03*
%TO.P,A1,30,RUN*%
%TO.N,unconnected-(A1-RUN-Pad30)*%
X213360000Y-29210000D03*
%TO.P,A1,31,GPIO26_ADC0*%
%TO.N,Net-(A1-GPIO26_ADC0)*%
X210820000Y-29210000D03*
%TO.P,A1,32,GPIO27_ADC1*%
%TO.N,Net-(A1-GPIO27_ADC1)*%
X208280000Y-29210000D03*
D16*
%TO.P,A1,33,AGND*%
%TO.N,GND*%
X205740000Y-29210000D03*
D14*
%TO.P,A1,34,GPIO28_ADC2*%
%TO.N,unconnected-(A1-GPIO28_ADC2-Pad34)*%
X203200000Y-29210000D03*
%TO.P,A1,35,ADC_VREF*%
%TO.N,unconnected-(A1-ADC_VREF-Pad35)*%
X200660000Y-29210000D03*
%TO.P,A1,36,3V3*%
%TO.N,unconnected-(A1-3V3-Pad36)*%
X198120000Y-29210000D03*
%TO.P,A1,37,3V3_EN*%
%TO.N,unconnected-(A1-3V3_EN-Pad37)*%
X195580000Y-29210000D03*
D16*
%TO.P,A1,38,GND*%
%TO.N,GND*%
X193040000Y-29210000D03*
D14*
%TO.P,A1,39,VSYS*%
%TO.N,Net-(A1-VSYS)*%
X190500000Y-29210000D03*
%TO.P,A1,40,VBUS*%
%TO.N,unconnected-(A1-VBUS-Pad40)*%
X187960000Y-29210000D03*
%TD*%
D10*
%TO.P,J6,1,Pin_1*%
%TO.N,GND*%
X242570000Y-39370000D03*
%TD*%
%TO.P,J10,1,Pin_1*%
%TO.N,Net-(J1-Pin_1)*%
X218440000Y-104140000D03*
%TD*%
%TO.P,J1,1,Pin_1*%
%TO.N,Net-(J1-Pin_1)*%
X182880000Y-104620000D03*
%TD*%
%TA.AperFunction,Conductor*%
%TO.N,GND*%
G36*
X205671266Y-21609685D02*
G01*
X205717021Y-21662489D01*
X205726965Y-21731647D01*
X205717915Y-21758841D01*
X205719303Y-21759359D01*
X205665908Y-21902517D01*
X205659501Y-21962116D01*
X205659501Y-21962123D01*
X205659500Y-21962135D01*
X205659500Y-23757870D01*
X205659501Y-23757876D01*
X205665908Y-23817483D01*
X205716202Y-23952328D01*
X205716206Y-23952335D01*
X205802452Y-24067544D01*
X205802455Y-24067547D01*
X205917664Y-24153793D01*
X205917671Y-24153797D01*
X206052517Y-24204091D01*
X206052516Y-24204091D01*
X206059444Y-24204835D01*
X206112127Y-24210500D01*
X207907872Y-24210499D01*
X207967483Y-24204091D01*
X208102331Y-24153796D01*
X208217546Y-24067546D01*
X208303796Y-23952331D01*
X208354091Y-23817483D01*
X208360500Y-23757873D01*
X208360499Y-21962128D01*
X208354091Y-21902517D01*
X208303796Y-21767669D01*
X208300697Y-21759359D01*
X208303639Y-21758261D01*
X208292090Y-21705141D01*
X208316514Y-21639679D01*
X208372452Y-21597814D01*
X208415773Y-21590000D01*
X210684227Y-21590000D01*
X210751266Y-21609685D01*
X210797021Y-21662489D01*
X210806965Y-21731647D01*
X210797915Y-21758841D01*
X210799303Y-21759359D01*
X210745908Y-21902517D01*
X210739501Y-21962116D01*
X210739501Y-21962123D01*
X210739500Y-21962135D01*
X210739500Y-23757870D01*
X210739501Y-23757876D01*
X210745908Y-23817483D01*
X210796202Y-23952328D01*
X210796206Y-23952335D01*
X210882452Y-24067544D01*
X210882455Y-24067547D01*
X210997664Y-24153793D01*
X210997671Y-24153797D01*
X211132517Y-24204091D01*
X211132516Y-24204091D01*
X211139444Y-24204835D01*
X211192127Y-24210500D01*
X212987872Y-24210499D01*
X213047483Y-24204091D01*
X213182331Y-24153796D01*
X213297546Y-24067546D01*
X213383796Y-23952331D01*
X213434091Y-23817483D01*
X213440500Y-23757873D01*
X213440499Y-21962128D01*
X213434091Y-21902517D01*
X213383796Y-21767669D01*
X213380697Y-21759359D01*
X213383639Y-21758261D01*
X213372090Y-21705141D01*
X213396514Y-21639679D01*
X213452452Y-21597814D01*
X213495773Y-21590000D01*
X274196000Y-21590000D01*
X274263039Y-21609685D01*
X274308794Y-21662489D01*
X274320000Y-21714000D01*
X274320000Y-114176000D01*
X274300315Y-114243039D01*
X274247511Y-114288794D01*
X274196000Y-114300000D01*
X179192313Y-114300000D01*
X179125274Y-114280315D01*
X179079519Y-114227511D01*
X179068325Y-114177698D01*
X179005509Y-109592135D01*
X181529500Y-109592135D01*
X181529500Y-111387870D01*
X181529501Y-111387876D01*
X181535908Y-111447483D01*
X181586202Y-111582328D01*
X181586206Y-111582335D01*
X181672452Y-111697544D01*
X181672455Y-111697547D01*
X181787664Y-111783793D01*
X181787671Y-111783797D01*
X181922517Y-111834091D01*
X181922516Y-111834091D01*
X181929444Y-111834835D01*
X181982127Y-111840500D01*
X183777872Y-111840499D01*
X183837483Y-111834091D01*
X183972331Y-111783796D01*
X184087546Y-111697546D01*
X184173796Y-111582331D01*
X184224091Y-111447483D01*
X184230500Y-111387873D01*
X184230499Y-109592128D01*
X184224091Y-109532517D01*
X184173796Y-109397669D01*
X184173795Y-109397668D01*
X184173793Y-109397664D01*
X184087547Y-109282455D01*
X184087544Y-109282452D01*
X183972335Y-109196206D01*
X183972328Y-109196202D01*
X183837482Y-109145908D01*
X183837483Y-109145908D01*
X183777883Y-109139501D01*
X183777881Y-109139500D01*
X183777873Y-109139500D01*
X183777864Y-109139500D01*
X181982129Y-109139500D01*
X181982123Y-109139501D01*
X181922516Y-109145908D01*
X181787671Y-109196202D01*
X181787664Y-109196206D01*
X181672455Y-109282452D01*
X181672452Y-109282455D01*
X181586206Y-109397664D01*
X181586202Y-109397671D01*
X181535908Y-109532517D01*
X181529674Y-109590504D01*
X181529501Y-109592123D01*
X181529500Y-109592135D01*
X179005509Y-109592135D01*
X179005487Y-109590504D01*
X178925098Y-103722135D01*
X181529500Y-103722135D01*
X181529500Y-105517870D01*
X181529501Y-105517876D01*
X181535908Y-105577483D01*
X181586202Y-105712328D01*
X181586206Y-105712335D01*
X181672452Y-105827544D01*
X181672455Y-105827547D01*
X181787664Y-105913793D01*
X181787671Y-105913797D01*
X181922517Y-105964091D01*
X181922516Y-105964091D01*
X181929444Y-105964835D01*
X181982127Y-105970500D01*
X183777872Y-105970499D01*
X183837483Y-105964091D01*
X183972331Y-105913796D01*
X184087546Y-105827546D01*
X184173796Y-105712331D01*
X184224091Y-105577483D01*
X184230500Y-105517873D01*
X184230499Y-103722128D01*
X184224091Y-103662517D01*
X184173796Y-103527669D01*
X184173795Y-103527668D01*
X184173793Y-103527664D01*
X184087547Y-103412455D01*
X183988185Y-103338072D01*
X183972331Y-103326204D01*
X183972328Y-103326202D01*
X183837482Y-103275908D01*
X183837483Y-103275908D01*
X183777883Y-103269501D01*
X183777881Y-103269500D01*
X183777873Y-103269500D01*
X183777864Y-103269500D01*
X181982129Y-103269500D01*
X181982123Y-103269501D01*
X181922516Y-103275908D01*
X181787671Y-103326202D01*
X181787664Y-103326206D01*
X181672455Y-103412452D01*
X181672452Y-103412455D01*
X181586206Y-103527664D01*
X181586202Y-103527671D01*
X181535908Y-103662517D01*
X181529674Y-103720504D01*
X181529501Y-103722123D01*
X181529500Y-103722135D01*
X178925098Y-103722135D01*
X178925076Y-103720504D01*
X178918523Y-103242135D01*
X217089500Y-103242135D01*
X217089500Y-105037870D01*
X217089501Y-105037876D01*
X217095908Y-105097483D01*
X217146202Y-105232328D01*
X217146206Y-105232335D01*
X217232452Y-105347544D01*
X217232455Y-105347547D01*
X217347664Y-105433793D01*
X217347671Y-105433797D01*
X217482517Y-105484091D01*
X217482516Y-105484091D01*
X217489444Y-105484835D01*
X217542127Y-105490500D01*
X219337872Y-105490499D01*
X219397483Y-105484091D01*
X219532331Y-105433796D01*
X219647546Y-105347546D01*
X219733796Y-105232331D01*
X219784091Y-105097483D01*
X219790500Y-105037873D01*
X219790499Y-103242135D01*
X222169500Y-103242135D01*
X222169500Y-105037870D01*
X222169501Y-105037876D01*
X222175908Y-105097483D01*
X222226202Y-105232328D01*
X222226206Y-105232335D01*
X222312452Y-105347544D01*
X222312455Y-105347547D01*
X222427664Y-105433793D01*
X222427671Y-105433797D01*
X222562517Y-105484091D01*
X222562516Y-105484091D01*
X222569444Y-105484835D01*
X222622127Y-105490500D01*
X224417872Y-105490499D01*
X224477483Y-105484091D01*
X224612331Y-105433796D01*
X224727546Y-105347546D01*
X224813796Y-105232331D01*
X224864091Y-105097483D01*
X224870500Y-105037873D01*
X224870499Y-104512135D01*
X233599500Y-104512135D01*
X233599500Y-106307870D01*
X233599501Y-106307876D01*
X233605908Y-106367483D01*
X233656202Y-106502328D01*
X233656206Y-106502335D01*
X233742452Y-106617544D01*
X233742455Y-106617547D01*
X233857664Y-106703793D01*
X233857671Y-106703797D01*
X233992517Y-106754091D01*
X233992516Y-106754091D01*
X233999444Y-106754835D01*
X234052127Y-106760500D01*
X235847872Y-106760499D01*
X235907483Y-106754091D01*
X236042331Y-106703796D01*
X236157546Y-106617546D01*
X236243796Y-106502331D01*
X236294091Y-106367483D01*
X236300500Y-106307873D01*
X236300499Y-104512135D01*
X243759500Y-104512135D01*
X243759500Y-106307870D01*
X243759501Y-106307876D01*
X243765908Y-106367483D01*
X243816202Y-106502328D01*
X243816206Y-106502335D01*
X243902452Y-106617544D01*
X243902455Y-106617547D01*
X244017664Y-106703793D01*
X244017671Y-106703797D01*
X244152517Y-106754091D01*
X244152516Y-106754091D01*
X244159444Y-106754835D01*
X244212127Y-106760500D01*
X246007872Y-106760499D01*
X246067483Y-106754091D01*
X246202331Y-106703796D01*
X246317546Y-106617546D01*
X246403796Y-106502331D01*
X246454091Y-106367483D01*
X246460500Y-106307873D01*
X246460499Y-104512128D01*
X246454091Y-104452517D01*
X246403796Y-104317669D01*
X246403795Y-104317668D01*
X246403793Y-104317664D01*
X246317547Y-104202455D01*
X246317544Y-104202452D01*
X246202335Y-104116206D01*
X246202328Y-104116202D01*
X246067482Y-104065908D01*
X246067483Y-104065908D01*
X246007883Y-104059501D01*
X246007881Y-104059500D01*
X246007873Y-104059500D01*
X246007864Y-104059500D01*
X244212129Y-104059500D01*
X244212123Y-104059501D01*
X244152516Y-104065908D01*
X244017671Y-104116202D01*
X244017664Y-104116206D01*
X243902455Y-104202452D01*
X243902452Y-104202455D01*
X243816206Y-104317664D01*
X243816202Y-104317671D01*
X243765908Y-104452517D01*
X243759857Y-104508805D01*
X243759501Y-104512123D01*
X243759500Y-104512135D01*
X236300499Y-104512135D01*
X236300499Y-104512128D01*
X236294091Y-104452517D01*
X236243796Y-104317669D01*
X236243795Y-104317668D01*
X236243793Y-104317664D01*
X236157547Y-104202455D01*
X236157544Y-104202452D01*
X236042335Y-104116206D01*
X236042328Y-104116202D01*
X235907482Y-104065908D01*
X235907483Y-104065908D01*
X235847883Y-104059501D01*
X235847881Y-104059500D01*
X235847873Y-104059500D01*
X235847864Y-104059500D01*
X234052129Y-104059500D01*
X234052123Y-104059501D01*
X233992516Y-104065908D01*
X233857671Y-104116202D01*
X233857664Y-104116206D01*
X233742455Y-104202452D01*
X233742452Y-104202455D01*
X233656206Y-104317664D01*
X233656202Y-104317671D01*
X233605908Y-104452517D01*
X233599857Y-104508805D01*
X233599501Y-104512123D01*
X233599500Y-104512135D01*
X224870499Y-104512135D01*
X224870499Y-104116206D01*
X224870499Y-103242129D01*
X224870498Y-103242123D01*
X224870497Y-103242116D01*
X224864091Y-103182517D01*
X224813796Y-103047669D01*
X224813795Y-103047668D01*
X224813793Y-103047664D01*
X224727547Y-102932455D01*
X224727544Y-102932452D01*
X224612335Y-102846206D01*
X224612328Y-102846202D01*
X224477482Y-102795908D01*
X224477483Y-102795908D01*
X224417883Y-102789501D01*
X224417881Y-102789500D01*
X224417873Y-102789500D01*
X224417864Y-102789500D01*
X222622129Y-102789500D01*
X222622123Y-102789501D01*
X222562516Y-102795908D01*
X222427671Y-102846202D01*
X222427664Y-102846206D01*
X222312455Y-102932452D01*
X222312452Y-102932455D01*
X222226206Y-103047664D01*
X222226202Y-103047671D01*
X222175908Y-103182517D01*
X222169501Y-103242116D01*
X222169501Y-103242123D01*
X222169500Y-103242135D01*
X219790499Y-103242135D01*
X219790499Y-103242128D01*
X219784091Y-103182517D01*
X219733796Y-103047669D01*
X219733795Y-103047668D01*
X219733793Y-103047664D01*
X219647547Y-102932455D01*
X219647544Y-102932452D01*
X219532335Y-102846206D01*
X219532328Y-102846202D01*
X219397482Y-102795908D01*
X219397483Y-102795908D01*
X219337883Y-102789501D01*
X219337881Y-102789500D01*
X219337873Y-102789500D01*
X219337864Y-102789500D01*
X217542129Y-102789500D01*
X217542123Y-102789501D01*
X217482516Y-102795908D01*
X217347671Y-102846202D01*
X217347664Y-102846206D01*
X217232455Y-102932452D01*
X217232452Y-102932455D01*
X217146206Y-103047664D01*
X217146202Y-103047671D01*
X217095908Y-103182517D01*
X217089501Y-103242116D01*
X217089501Y-103242123D01*
X217089500Y-103242135D01*
X178918523Y-103242135D01*
X178714833Y-88372795D01*
X178680039Y-85832834D01*
X178634665Y-82520578D01*
X178610492Y-80755969D01*
X183857940Y-80755969D01*
X183857940Y-80994670D01*
X183895281Y-81230431D01*
X183895281Y-81230432D01*
X183895282Y-81230435D01*
X183969045Y-81457454D01*
X184077413Y-81670139D01*
X184217719Y-81863253D01*
X184386507Y-82032041D01*
X184386510Y-82032043D01*
X184404348Y-82045004D01*
X184447012Y-82100335D01*
X184452990Y-82169949D01*
X184420382Y-82231743D01*
X184404348Y-82245636D01*
X184386510Y-82258596D01*
X184386504Y-82258601D01*
X184217721Y-82427384D01*
X184217721Y-82427385D01*
X184217719Y-82427387D01*
X184189039Y-82466862D01*
X184077413Y-82620500D01*
X183969046Y-82833183D01*
X183895281Y-83060207D01*
X183895281Y-83060208D01*
X183857940Y-83295969D01*
X183857940Y-83534670D01*
X183895281Y-83770431D01*
X183895281Y-83770432D01*
X183895282Y-83770435D01*
X183969045Y-83997454D01*
X184077413Y-84210139D01*
X184217719Y-84403253D01*
X184386507Y-84572041D01*
X184442994Y-84613081D01*
X184485659Y-84668411D01*
X184493367Y-84720695D01*
X185279976Y-85507303D01*
X185197967Y-85529278D01*
X185093713Y-85589469D01*
X185008589Y-85674593D01*
X184948398Y-85778847D01*
X184926423Y-85860856D01*
X184140325Y-85074758D01*
X184077838Y-85160766D01*
X183969506Y-85373377D01*
X183969505Y-85373380D01*
X183895769Y-85600320D01*
X183858440Y-85836008D01*
X183858440Y-86074631D01*
X183895769Y-86310319D01*
X183969505Y-86537259D01*
X183969506Y-86537262D01*
X184077842Y-86749880D01*
X184140324Y-86835880D01*
X184140326Y-86835880D01*
X184926423Y-86049783D01*
X184948398Y-86131793D01*
X185008589Y-86236047D01*
X185093713Y-86321171D01*
X185197967Y-86381362D01*
X185279976Y-86403336D01*
X184493174Y-87190136D01*
X184479361Y-87255890D01*
X184442995Y-87297557D01*
X184386507Y-87338598D01*
X184217721Y-87507384D01*
X184217721Y-87507385D01*
X184217719Y-87507387D01*
X184157462Y-87590322D01*
X184077413Y-87700500D01*
X183969046Y-87913183D01*
X183895281Y-88140207D01*
X183895281Y-88140208D01*
X183857940Y-88375969D01*
X183857940Y-88614670D01*
X183895281Y-88850431D01*
X183895281Y-88850432D01*
X183895282Y-88850435D01*
X183969045Y-89077454D01*
X184077413Y-89290139D01*
X184217719Y-89483253D01*
X184386507Y-89652041D01*
X184579621Y-89792347D01*
X184792306Y-89900715D01*
X185019325Y-89974478D01*
X185255089Y-90011820D01*
X185255090Y-90011820D01*
X185493790Y-90011820D01*
X185493791Y-90011820D01*
X185729555Y-89974478D01*
X185956574Y-89900715D01*
X186169259Y-89792347D01*
X186362373Y-89652041D01*
X186531161Y-89483253D01*
X186671467Y-89290139D01*
X186779835Y-89077454D01*
X186853598Y-88850435D01*
X186890940Y-88614671D01*
X186890940Y-88375969D01*
X186853598Y-88140205D01*
X186779835Y-87913186D01*
X186671467Y-87700501D01*
X186531161Y-87507387D01*
X186362373Y-87338599D01*
X186305882Y-87297555D01*
X186263218Y-87242227D01*
X186255509Y-87189942D01*
X185468903Y-86403336D01*
X185550913Y-86381362D01*
X185655167Y-86321171D01*
X185740291Y-86236047D01*
X185800482Y-86131793D01*
X185822456Y-86049784D01*
X186608553Y-86835881D01*
X186608553Y-86835880D01*
X186671039Y-86749877D01*
X186779373Y-86537262D01*
X186779374Y-86537259D01*
X186853110Y-86310319D01*
X186890440Y-86074631D01*
X186890440Y-85836008D01*
X186853110Y-85600320D01*
X186779374Y-85373380D01*
X186779373Y-85373377D01*
X186671037Y-85160759D01*
X186608554Y-85074758D01*
X186608553Y-85074757D01*
X185822456Y-85860855D01*
X185800482Y-85778847D01*
X185740291Y-85674593D01*
X185655167Y-85589469D01*
X185550913Y-85529278D01*
X185468902Y-85507302D01*
X186255703Y-84720503D01*
X186269514Y-84654754D01*
X186305882Y-84613083D01*
X186362373Y-84572041D01*
X186531161Y-84403253D01*
X186671467Y-84210139D01*
X186779835Y-83997454D01*
X186853598Y-83770435D01*
X186890940Y-83534671D01*
X186890940Y-83295969D01*
X186853598Y-83060205D01*
X186779835Y-82833186D01*
X186671467Y-82620501D01*
X186531161Y-82427387D01*
X186362373Y-82258599D01*
X186344532Y-82245637D01*
X186301868Y-82190310D01*
X186295887Y-82120697D01*
X186328492Y-82058901D01*
X186344531Y-82045004D01*
X186362373Y-82032041D01*
X186531161Y-81863253D01*
X186671467Y-81670139D01*
X186779835Y-81457454D01*
X186853598Y-81230435D01*
X186890940Y-80994671D01*
X186890940Y-80755969D01*
X241007940Y-80755969D01*
X241007940Y-80994670D01*
X241045281Y-81230431D01*
X241045281Y-81230432D01*
X241045282Y-81230435D01*
X241119045Y-81457454D01*
X241227413Y-81670139D01*
X241367719Y-81863253D01*
X241536507Y-82032041D01*
X241536510Y-82032043D01*
X241554348Y-82045004D01*
X241597012Y-82100335D01*
X241602990Y-82169949D01*
X241570382Y-82231743D01*
X241554348Y-82245636D01*
X241536510Y-82258596D01*
X241536504Y-82258601D01*
X241367721Y-82427384D01*
X241367721Y-82427385D01*
X241367719Y-82427387D01*
X241339039Y-82466862D01*
X241227413Y-82620500D01*
X241119046Y-82833183D01*
X241045281Y-83060207D01*
X241045281Y-83060208D01*
X241007940Y-83295969D01*
X241007940Y-83534670D01*
X241045281Y-83770431D01*
X241045281Y-83770432D01*
X241045282Y-83770435D01*
X241119045Y-83997454D01*
X241227413Y-84210139D01*
X241367719Y-84403253D01*
X241536507Y-84572041D01*
X241592994Y-84613081D01*
X241635659Y-84668411D01*
X241643367Y-84720695D01*
X242429976Y-85507303D01*
X242347967Y-85529278D01*
X242243713Y-85589469D01*
X242158589Y-85674593D01*
X242098398Y-85778847D01*
X242076423Y-85860856D01*
X241290325Y-85074758D01*
X241227838Y-85160766D01*
X241119506Y-85373377D01*
X241119505Y-85373380D01*
X241045769Y-85600320D01*
X241008440Y-85836008D01*
X241008440Y-86074631D01*
X241045769Y-86310319D01*
X241119505Y-86537259D01*
X241119506Y-86537262D01*
X241227842Y-86749880D01*
X241290324Y-86835880D01*
X241290326Y-86835880D01*
X242076423Y-86049783D01*
X242098398Y-86131793D01*
X242158589Y-86236047D01*
X242243713Y-86321171D01*
X242347967Y-86381362D01*
X242429976Y-86403336D01*
X241643174Y-87190136D01*
X241629361Y-87255890D01*
X241592995Y-87297557D01*
X241536507Y-87338598D01*
X241367721Y-87507384D01*
X241367721Y-87507385D01*
X241367719Y-87507387D01*
X241307462Y-87590322D01*
X241227413Y-87700500D01*
X241119046Y-87913183D01*
X241045281Y-88140207D01*
X241045281Y-88140208D01*
X241007940Y-88375969D01*
X241007940Y-88614670D01*
X241045281Y-88850431D01*
X241045281Y-88850432D01*
X241045282Y-88850435D01*
X241119045Y-89077454D01*
X241227413Y-89290139D01*
X241367719Y-89483253D01*
X241536507Y-89652041D01*
X241729621Y-89792347D01*
X241942306Y-89900715D01*
X242169325Y-89974478D01*
X242405089Y-90011820D01*
X242405090Y-90011820D01*
X242643790Y-90011820D01*
X242643791Y-90011820D01*
X242879555Y-89974478D01*
X243106574Y-89900715D01*
X243319259Y-89792347D01*
X243512373Y-89652041D01*
X243681161Y-89483253D01*
X243821467Y-89290139D01*
X243929835Y-89077454D01*
X244003598Y-88850435D01*
X244040940Y-88614671D01*
X244040940Y-88375969D01*
X244003598Y-88140205D01*
X243929835Y-87913186D01*
X243821467Y-87700501D01*
X243681161Y-87507387D01*
X243512373Y-87338599D01*
X243455882Y-87297555D01*
X243413218Y-87242227D01*
X243405509Y-87189942D01*
X242618903Y-86403336D01*
X242700913Y-86381362D01*
X242805167Y-86321171D01*
X242890291Y-86236047D01*
X242950482Y-86131793D01*
X242972456Y-86049783D01*
X243758553Y-86835881D01*
X243758553Y-86835880D01*
X243821039Y-86749877D01*
X243929373Y-86537262D01*
X243929374Y-86537259D01*
X244003110Y-86310319D01*
X244040440Y-86074631D01*
X244040440Y-85836008D01*
X244003110Y-85600320D01*
X243929374Y-85373380D01*
X243929373Y-85373377D01*
X243821037Y-85160759D01*
X243758554Y-85074758D01*
X243758553Y-85074757D01*
X242972456Y-85860855D01*
X242950482Y-85778847D01*
X242890291Y-85674593D01*
X242805167Y-85589469D01*
X242700913Y-85529278D01*
X242618902Y-85507302D01*
X243405703Y-84720503D01*
X243419514Y-84654754D01*
X243455882Y-84613083D01*
X243512373Y-84572041D01*
X243681161Y-84403253D01*
X243821467Y-84210139D01*
X243929835Y-83997454D01*
X244003598Y-83770435D01*
X244040940Y-83534671D01*
X244040940Y-83295969D01*
X244003598Y-83060205D01*
X243929835Y-82833186D01*
X243821467Y-82620501D01*
X243681161Y-82427387D01*
X243512373Y-82258599D01*
X243494532Y-82245637D01*
X243451868Y-82190310D01*
X243445887Y-82120697D01*
X243478492Y-82058901D01*
X243494531Y-82045004D01*
X243512373Y-82032041D01*
X243681161Y-81863253D01*
X243821467Y-81670139D01*
X243929835Y-81457454D01*
X244003598Y-81230435D01*
X244013829Y-81165843D01*
X244013830Y-81165837D01*
X255089500Y-81165837D01*
X255089500Y-81394162D01*
X255125215Y-81619660D01*
X255195770Y-81836803D01*
X255295251Y-82032043D01*
X255299421Y-82040228D01*
X255433621Y-82224937D01*
X255595063Y-82386379D01*
X255779772Y-82520579D01*
X255875884Y-82569550D01*
X255983196Y-82624229D01*
X255983198Y-82624229D01*
X255983201Y-82624231D01*
X256099592Y-82662049D01*
X256200339Y-82694784D01*
X256425838Y-82730500D01*
X256425843Y-82730500D01*
X256654162Y-82730500D01*
X256879660Y-82694784D01*
X256881165Y-82694295D01*
X257096799Y-82624231D01*
X257300228Y-82520579D01*
X257484937Y-82386379D01*
X257646379Y-82224937D01*
X257709682Y-82137807D01*
X257765012Y-82095143D01*
X257834626Y-82089164D01*
X257896421Y-82121770D01*
X257910315Y-82137804D01*
X257973621Y-82224937D01*
X258135063Y-82386379D01*
X258319772Y-82520579D01*
X258415884Y-82569550D01*
X258523196Y-82624229D01*
X258523198Y-82624229D01*
X258523201Y-82624231D01*
X258639592Y-82662049D01*
X258740339Y-82694784D01*
X258965838Y-82730500D01*
X258965843Y-82730500D01*
X259194162Y-82730500D01*
X259419660Y-82694784D01*
X259421165Y-82694295D01*
X259636799Y-82624231D01*
X259840228Y-82520579D01*
X260024937Y-82386379D01*
X260186379Y-82224937D01*
X260249682Y-82137807D01*
X260305012Y-82095143D01*
X260374626Y-82089164D01*
X260436421Y-82121770D01*
X260450315Y-82137804D01*
X260513621Y-82224937D01*
X260675063Y-82386379D01*
X260859772Y-82520579D01*
X260955884Y-82569550D01*
X261063196Y-82624229D01*
X261063198Y-82624229D01*
X261063201Y-82624231D01*
X261179592Y-82662049D01*
X261280339Y-82694784D01*
X261505838Y-82730500D01*
X261505843Y-82730500D01*
X261734162Y-82730500D01*
X261959660Y-82694784D01*
X261961165Y-82694295D01*
X262176799Y-82624231D01*
X262380228Y-82520579D01*
X262564937Y-82386379D01*
X262726379Y-82224937D01*
X262789682Y-82137807D01*
X262845012Y-82095143D01*
X262914626Y-82089164D01*
X262976421Y-82121770D01*
X262990315Y-82137804D01*
X263053621Y-82224937D01*
X263215063Y-82386379D01*
X263399772Y-82520579D01*
X263495884Y-82569550D01*
X263603196Y-82624229D01*
X263603198Y-82624229D01*
X263603201Y-82624231D01*
X263719592Y-82662049D01*
X263820339Y-82694784D01*
X264045838Y-82730500D01*
X264045843Y-82730500D01*
X264274162Y-82730500D01*
X264499660Y-82694784D01*
X264501165Y-82694295D01*
X264716799Y-82624231D01*
X264920228Y-82520579D01*
X265104937Y-82386379D01*
X265266379Y-82224937D01*
X265329991Y-82137383D01*
X265385320Y-82094718D01*
X265454933Y-82088739D01*
X265499458Y-82112232D01*
X265513137Y-82113309D01*
X266300000Y-81326446D01*
X266300000Y-81332661D01*
X266327259Y-81434394D01*
X266379920Y-81525606D01*
X266454394Y-81600080D01*
X266545606Y-81652741D01*
X266647339Y-81680000D01*
X266653553Y-81680000D01*
X265866688Y-82466862D01*
X265866689Y-82466863D01*
X265940030Y-82520148D01*
X266143395Y-82623769D01*
X266360455Y-82694295D01*
X266585884Y-82730000D01*
X266814116Y-82730000D01*
X267039544Y-82694295D01*
X267256604Y-82623769D01*
X267459966Y-82520150D01*
X267533309Y-82466862D01*
X267533310Y-82466862D01*
X266746447Y-81680000D01*
X266752661Y-81680000D01*
X266854394Y-81652741D01*
X266945606Y-81600080D01*
X267020080Y-81525606D01*
X267072741Y-81434394D01*
X267100000Y-81332661D01*
X267100000Y-81326447D01*
X267886862Y-82113310D01*
X267886862Y-82113309D01*
X267940150Y-82039966D01*
X268043769Y-81836604D01*
X268114295Y-81619544D01*
X268150000Y-81394116D01*
X268150000Y-81165883D01*
X268114295Y-80940455D01*
X268043769Y-80723395D01*
X267940148Y-80520030D01*
X267886863Y-80446689D01*
X267886862Y-80446688D01*
X267100000Y-81233551D01*
X267100000Y-81227339D01*
X267072741Y-81125606D01*
X267020080Y-81034394D01*
X266945606Y-80959920D01*
X266854394Y-80907259D01*
X266752661Y-80880000D01*
X266746446Y-80880000D01*
X267533309Y-80093137D01*
X267533309Y-80093135D01*
X267459969Y-80039851D01*
X267256604Y-79936230D01*
X267039544Y-79865704D01*
X266814116Y-79830000D01*
X266585884Y-79830000D01*
X266360455Y-79865704D01*
X266143395Y-79936230D01*
X265940035Y-80039848D01*
X265940033Y-80039849D01*
X265866689Y-80093135D01*
X265866689Y-80093136D01*
X266653554Y-80880000D01*
X266647339Y-80880000D01*
X266545606Y-80907259D01*
X266454394Y-80959920D01*
X266379920Y-81034394D01*
X266327259Y-81125606D01*
X266300000Y-81227339D01*
X266300000Y-81233553D01*
X265513136Y-80446689D01*
X265497842Y-80447893D01*
X265475291Y-80465282D01*
X265405678Y-80471258D01*
X265343884Y-80438651D01*
X265329993Y-80422620D01*
X265266379Y-80335063D01*
X265104937Y-80173621D01*
X264920228Y-80039421D01*
X264716803Y-79935770D01*
X264499660Y-79865215D01*
X264274162Y-79829500D01*
X264274157Y-79829500D01*
X264045843Y-79829500D01*
X264045838Y-79829500D01*
X263820339Y-79865215D01*
X263603196Y-79935770D01*
X263399771Y-80039421D01*
X263215061Y-80173622D01*
X263053623Y-80335060D01*
X263053616Y-80335069D01*
X262990317Y-80422191D01*
X262934987Y-80464857D01*
X262865373Y-80470835D01*
X262803579Y-80438228D01*
X262789683Y-80422191D01*
X262726383Y-80335069D01*
X262726379Y-80335063D01*
X262564937Y-80173621D01*
X262380228Y-80039421D01*
X262176803Y-79935770D01*
X261959660Y-79865215D01*
X261734162Y-79829500D01*
X261734157Y-79829500D01*
X261505843Y-79829500D01*
X261505838Y-79829500D01*
X261280339Y-79865215D01*
X261063196Y-79935770D01*
X260859771Y-80039421D01*
X260675061Y-80173622D01*
X260513623Y-80335060D01*
X260513616Y-80335069D01*
X260450317Y-80422191D01*
X260394987Y-80464857D01*
X260325373Y-80470835D01*
X260263579Y-80438228D01*
X260249683Y-80422191D01*
X260186383Y-80335069D01*
X260186379Y-80335063D01*
X260024937Y-80173621D01*
X259840228Y-80039421D01*
X259636803Y-79935770D01*
X259419660Y-79865215D01*
X259194162Y-79829500D01*
X259194157Y-79829500D01*
X258965843Y-79829500D01*
X258965838Y-79829500D01*
X258740339Y-79865215D01*
X258523196Y-79935770D01*
X258319771Y-80039421D01*
X258135061Y-80173622D01*
X257973623Y-80335060D01*
X257973616Y-80335069D01*
X257910317Y-80422191D01*
X257854987Y-80464857D01*
X257785373Y-80470835D01*
X257723579Y-80438228D01*
X257709683Y-80422191D01*
X257646383Y-80335069D01*
X257646379Y-80335063D01*
X257484937Y-80173621D01*
X257300228Y-80039421D01*
X257096803Y-79935770D01*
X256879660Y-79865215D01*
X256654162Y-79829500D01*
X256654157Y-79829500D01*
X256425843Y-79829500D01*
X256425838Y-79829500D01*
X256200339Y-79865215D01*
X255983196Y-79935770D01*
X255779771Y-80039421D01*
X255595061Y-80173622D01*
X255433622Y-80335061D01*
X255299421Y-80519771D01*
X255195770Y-80723196D01*
X255125215Y-80940339D01*
X255089500Y-81165837D01*
X244013830Y-81165837D01*
X244017673Y-81141572D01*
X244017673Y-81141571D01*
X244040940Y-80994670D01*
X244040940Y-80755969D01*
X244003598Y-80520208D01*
X244003598Y-80520207D01*
X244003598Y-80520205D01*
X243929835Y-80293186D01*
X243821467Y-80080501D01*
X243681161Y-79887387D01*
X243512373Y-79718599D01*
X243319259Y-79578293D01*
X243106574Y-79469925D01*
X242879555Y-79396162D01*
X242879553Y-79396161D01*
X242879551Y-79396161D01*
X242714938Y-79370088D01*
X242643791Y-79358820D01*
X242405089Y-79358820D01*
X242350435Y-79367476D01*
X242169328Y-79396161D01*
X242169327Y-79396161D01*
X241942303Y-79469926D01*
X241729620Y-79578293D01*
X241619442Y-79658342D01*
X241536507Y-79718599D01*
X241536505Y-79718601D01*
X241536504Y-79718601D01*
X241367721Y-79887384D01*
X241367721Y-79887385D01*
X241367719Y-79887387D01*
X241307462Y-79970322D01*
X241227413Y-80080500D01*
X241119046Y-80293183D01*
X241045281Y-80520207D01*
X241045281Y-80520208D01*
X241007940Y-80755969D01*
X186890940Y-80755969D01*
X186853598Y-80520205D01*
X186779835Y-80293186D01*
X186671467Y-80080501D01*
X186531161Y-79887387D01*
X186362373Y-79718599D01*
X186169259Y-79578293D01*
X185956574Y-79469925D01*
X185729555Y-79396162D01*
X185729553Y-79396161D01*
X185729551Y-79396161D01*
X185564938Y-79370088D01*
X185493791Y-79358820D01*
X185255089Y-79358820D01*
X185200435Y-79367476D01*
X185019328Y-79396161D01*
X185019327Y-79396161D01*
X184792303Y-79469926D01*
X184579620Y-79578293D01*
X184469442Y-79658342D01*
X184386507Y-79718599D01*
X184386505Y-79718601D01*
X184386504Y-79718601D01*
X184217721Y-79887384D01*
X184217721Y-79887385D01*
X184217719Y-79887387D01*
X184157462Y-79970322D01*
X184077413Y-80080500D01*
X183969046Y-80293183D01*
X183895281Y-80520207D01*
X183895281Y-80520208D01*
X183857940Y-80755969D01*
X178610492Y-80755969D01*
X178319871Y-59540649D01*
X183903500Y-59540649D01*
X183903500Y-59779350D01*
X183940841Y-60015111D01*
X183940841Y-60015112D01*
X183940842Y-60015115D01*
X184014605Y-60242134D01*
X184122973Y-60454819D01*
X184263279Y-60647933D01*
X184432067Y-60816721D01*
X184432070Y-60816723D01*
X184449908Y-60829684D01*
X184492572Y-60885015D01*
X184498550Y-60954629D01*
X184465942Y-61016423D01*
X184449908Y-61030316D01*
X184432070Y-61043276D01*
X184432064Y-61043281D01*
X184263281Y-61212064D01*
X184263281Y-61212065D01*
X184263279Y-61212067D01*
X184203022Y-61295002D01*
X184122973Y-61405180D01*
X184014606Y-61617863D01*
X183940841Y-61844887D01*
X183940841Y-61844888D01*
X183903500Y-62080649D01*
X183903500Y-62319350D01*
X183940841Y-62555111D01*
X183940841Y-62555112D01*
X183940842Y-62555115D01*
X184014605Y-62782134D01*
X184122973Y-62994819D01*
X184263279Y-63187933D01*
X184432067Y-63356721D01*
X184488554Y-63397761D01*
X184531219Y-63453091D01*
X184538927Y-63505375D01*
X185325536Y-64291983D01*
X185243527Y-64313958D01*
X185139273Y-64374149D01*
X185054149Y-64459273D01*
X184993958Y-64563527D01*
X184971983Y-64645536D01*
X184185885Y-63859438D01*
X184123398Y-63945446D01*
X184015066Y-64158057D01*
X184015065Y-64158060D01*
X183941329Y-64385000D01*
X183904000Y-64620688D01*
X183904000Y-64859311D01*
X183941329Y-65094999D01*
X184015065Y-65321939D01*
X184015066Y-65321942D01*
X184123402Y-65534560D01*
X184185884Y-65620560D01*
X184185886Y-65620560D01*
X184971983Y-64834463D01*
X184993958Y-64916473D01*
X185054149Y-65020727D01*
X185139273Y-65105851D01*
X185243527Y-65166042D01*
X185325536Y-65188016D01*
X184538734Y-65974816D01*
X184524921Y-66040570D01*
X184488555Y-66082237D01*
X184432067Y-66123278D01*
X184263281Y-66292064D01*
X184263281Y-66292065D01*
X184263279Y-66292067D01*
X184203022Y-66375002D01*
X184122973Y-66485180D01*
X184014606Y-66697863D01*
X183940841Y-66924887D01*
X183940841Y-66924888D01*
X183903500Y-67160649D01*
X183903500Y-67399350D01*
X183940841Y-67635111D01*
X183940841Y-67635112D01*
X183940842Y-67635115D01*
X184014605Y-67862134D01*
X184122973Y-68074819D01*
X184263279Y-68267933D01*
X184432067Y-68436721D01*
X184625181Y-68577027D01*
X184837866Y-68685395D01*
X185064885Y-68759158D01*
X185300649Y-68796500D01*
X185300650Y-68796500D01*
X185539350Y-68796500D01*
X185539351Y-68796500D01*
X185775115Y-68759158D01*
X186002134Y-68685395D01*
X186214819Y-68577027D01*
X186407933Y-68436721D01*
X186576721Y-68267933D01*
X186717027Y-68074819D01*
X186825395Y-67862134D01*
X186899158Y-67635115D01*
X186936500Y-67399351D01*
X186936500Y-67160649D01*
X186899158Y-66924885D01*
X186825395Y-66697866D01*
X186717027Y-66485181D01*
X186576721Y-66292067D01*
X186407933Y-66123279D01*
X186351442Y-66082235D01*
X186308778Y-66026907D01*
X186301069Y-65974622D01*
X185514463Y-65188016D01*
X185596473Y-65166042D01*
X185700727Y-65105851D01*
X185785851Y-65020727D01*
X185846042Y-64916473D01*
X185868016Y-64834464D01*
X186654113Y-65620561D01*
X186654113Y-65620560D01*
X186716599Y-65534557D01*
X186824933Y-65321942D01*
X186824934Y-65321939D01*
X186898670Y-65094999D01*
X186936000Y-64859311D01*
X186936000Y-64620688D01*
X186898670Y-64385000D01*
X186824934Y-64158060D01*
X186824933Y-64158057D01*
X186716597Y-63945439D01*
X186654114Y-63859438D01*
X186654113Y-63859437D01*
X185868016Y-64645535D01*
X185846042Y-64563527D01*
X185785851Y-64459273D01*
X185700727Y-64374149D01*
X185596473Y-64313958D01*
X185514462Y-64291982D01*
X186301263Y-63505183D01*
X186315074Y-63439434D01*
X186351442Y-63397763D01*
X186407933Y-63356721D01*
X186576721Y-63187933D01*
X186717027Y-62994819D01*
X186825395Y-62782134D01*
X186899158Y-62555115D01*
X186936500Y-62319351D01*
X186936500Y-62080649D01*
X186899158Y-61844885D01*
X186825395Y-61617866D01*
X186717027Y-61405181D01*
X186576721Y-61212067D01*
X186407933Y-61043279D01*
X186390092Y-61030317D01*
X186347428Y-60974990D01*
X186341447Y-60905377D01*
X186374052Y-60843581D01*
X186390091Y-60829684D01*
X186407933Y-60816721D01*
X186576721Y-60647933D01*
X186717027Y-60454819D01*
X186825395Y-60242134D01*
X186899158Y-60015115D01*
X186936500Y-59779351D01*
X186936500Y-59540649D01*
X241053500Y-59540649D01*
X241053500Y-59779350D01*
X241090841Y-60015111D01*
X241090841Y-60015112D01*
X241090842Y-60015115D01*
X241164605Y-60242134D01*
X241272973Y-60454819D01*
X241413279Y-60647933D01*
X241582067Y-60816721D01*
X241582070Y-60816723D01*
X241599908Y-60829684D01*
X241642572Y-60885015D01*
X241648550Y-60954629D01*
X241615942Y-61016423D01*
X241599908Y-61030316D01*
X241582070Y-61043276D01*
X241582064Y-61043281D01*
X241413281Y-61212064D01*
X241413281Y-61212065D01*
X241413279Y-61212067D01*
X241353022Y-61295002D01*
X241272973Y-61405180D01*
X241164606Y-61617863D01*
X241090841Y-61844887D01*
X241090841Y-61844888D01*
X241053500Y-62080649D01*
X241053500Y-62319350D01*
X241090841Y-62555111D01*
X241090841Y-62555112D01*
X241090842Y-62555115D01*
X241164605Y-62782134D01*
X241272973Y-62994819D01*
X241413279Y-63187933D01*
X241582067Y-63356721D01*
X241638554Y-63397761D01*
X241681219Y-63453091D01*
X241688927Y-63505375D01*
X242475536Y-64291983D01*
X242393527Y-64313958D01*
X242289273Y-64374149D01*
X242204149Y-64459273D01*
X242143958Y-64563527D01*
X242121983Y-64645536D01*
X241335885Y-63859438D01*
X241273398Y-63945446D01*
X241165066Y-64158057D01*
X241165065Y-64158060D01*
X241091329Y-64385000D01*
X241054000Y-64620688D01*
X241054000Y-64859311D01*
X241091329Y-65094999D01*
X241165065Y-65321939D01*
X241165066Y-65321942D01*
X241273402Y-65534560D01*
X241335884Y-65620560D01*
X241335886Y-65620560D01*
X242121983Y-64834463D01*
X242143958Y-64916473D01*
X242204149Y-65020727D01*
X242289273Y-65105851D01*
X242393527Y-65166042D01*
X242475536Y-65188016D01*
X241688734Y-65974816D01*
X241674921Y-66040570D01*
X241638555Y-66082237D01*
X241582067Y-66123278D01*
X241413281Y-66292064D01*
X241413281Y-66292065D01*
X241413279Y-66292067D01*
X241353022Y-66375002D01*
X241272973Y-66485180D01*
X241164606Y-66697863D01*
X241090841Y-66924887D01*
X241090841Y-66924888D01*
X241053500Y-67160649D01*
X241053500Y-67399350D01*
X241090841Y-67635111D01*
X241090841Y-67635112D01*
X241090842Y-67635115D01*
X241164605Y-67862134D01*
X241272973Y-68074819D01*
X241413279Y-68267933D01*
X241582067Y-68436721D01*
X241775181Y-68577027D01*
X241987866Y-68685395D01*
X242214885Y-68759158D01*
X242450649Y-68796500D01*
X242450650Y-68796500D01*
X242689350Y-68796500D01*
X242689351Y-68796500D01*
X242925115Y-68759158D01*
X243152134Y-68685395D01*
X243364819Y-68577027D01*
X243557933Y-68436721D01*
X243726721Y-68267933D01*
X243867027Y-68074819D01*
X243975395Y-67862134D01*
X244049158Y-67635115D01*
X244086500Y-67399351D01*
X244086500Y-67160649D01*
X244049158Y-66924885D01*
X243975395Y-66697866D01*
X243867027Y-66485181D01*
X243726721Y-66292067D01*
X243557933Y-66123279D01*
X243501442Y-66082235D01*
X243458778Y-66026907D01*
X243451069Y-65974622D01*
X242664463Y-65188016D01*
X242746473Y-65166042D01*
X242850727Y-65105851D01*
X242935851Y-65020727D01*
X242996042Y-64916473D01*
X243018016Y-64834464D01*
X243804113Y-65620561D01*
X243804113Y-65620560D01*
X243866599Y-65534557D01*
X243974933Y-65321942D01*
X243974934Y-65321939D01*
X244048670Y-65094999D01*
X244086000Y-64859311D01*
X244086000Y-64620688D01*
X244048670Y-64385000D01*
X243974934Y-64158060D01*
X243974933Y-64158057D01*
X243866597Y-63945439D01*
X243804114Y-63859438D01*
X243804113Y-63859437D01*
X243018016Y-64645535D01*
X242996042Y-64563527D01*
X242935851Y-64459273D01*
X242850727Y-64374149D01*
X242746473Y-64313958D01*
X242664462Y-64291982D01*
X243451263Y-63505183D01*
X243465074Y-63439434D01*
X243501442Y-63397763D01*
X243557933Y-63356721D01*
X243726721Y-63187933D01*
X243867027Y-62994819D01*
X243975395Y-62782134D01*
X244049158Y-62555115D01*
X244086500Y-62319351D01*
X244086500Y-62080649D01*
X244049158Y-61844885D01*
X243975395Y-61617866D01*
X243867027Y-61405181D01*
X243726721Y-61212067D01*
X243557933Y-61043279D01*
X243540092Y-61030317D01*
X243497428Y-60974990D01*
X243491447Y-60905377D01*
X243524052Y-60843581D01*
X243540091Y-60829684D01*
X243557933Y-60816721D01*
X243726721Y-60647933D01*
X243867027Y-60454819D01*
X243975395Y-60242134D01*
X244049158Y-60015115D01*
X244086500Y-59779351D01*
X244086500Y-59540649D01*
X244049158Y-59304885D01*
X243975395Y-59077866D01*
X243867027Y-58865181D01*
X243726721Y-58672067D01*
X243557933Y-58503279D01*
X243364819Y-58362973D01*
X243152134Y-58254605D01*
X242925115Y-58180842D01*
X242925113Y-58180841D01*
X242925111Y-58180841D01*
X242760498Y-58154768D01*
X242689351Y-58143500D01*
X242450649Y-58143500D01*
X242395995Y-58152156D01*
X242214888Y-58180841D01*
X242214887Y-58180841D01*
X241987863Y-58254606D01*
X241775180Y-58362973D01*
X241665002Y-58443022D01*
X241582067Y-58503279D01*
X241582065Y-58503281D01*
X241582064Y-58503281D01*
X241413281Y-58672064D01*
X241413281Y-58672065D01*
X241413279Y-58672067D01*
X241353022Y-58755002D01*
X241272973Y-58865180D01*
X241164606Y-59077863D01*
X241090841Y-59304887D01*
X241090841Y-59304888D01*
X241053500Y-59540649D01*
X186936500Y-59540649D01*
X186899158Y-59304885D01*
X186825395Y-59077866D01*
X186717027Y-58865181D01*
X186576721Y-58672067D01*
X186407933Y-58503279D01*
X186214819Y-58362973D01*
X186002134Y-58254605D01*
X185775115Y-58180842D01*
X185775113Y-58180841D01*
X185775111Y-58180841D01*
X185610498Y-58154768D01*
X185539351Y-58143500D01*
X185300649Y-58143500D01*
X185245995Y-58152156D01*
X185064888Y-58180841D01*
X185064887Y-58180841D01*
X184837863Y-58254606D01*
X184625180Y-58362973D01*
X184515002Y-58443022D01*
X184432067Y-58503279D01*
X184432065Y-58503281D01*
X184432064Y-58503281D01*
X184263281Y-58672064D01*
X184263281Y-58672065D01*
X184263279Y-58672067D01*
X184203022Y-58755002D01*
X184122973Y-58865180D01*
X184014606Y-59077863D01*
X183940841Y-59304887D01*
X183940841Y-59304888D01*
X183903500Y-59540649D01*
X178319871Y-59540649D01*
X178185564Y-49736195D01*
X178204328Y-49668895D01*
X178256500Y-49622421D01*
X178309547Y-49610499D01*
X179967872Y-49610499D01*
X180027483Y-49604091D01*
X180162331Y-49553796D01*
X180277546Y-49467546D01*
X180363796Y-49352331D01*
X180414091Y-49217483D01*
X180420500Y-49157873D01*
X180420499Y-47362128D01*
X180414091Y-47302517D01*
X180369511Y-47182993D01*
X180363797Y-47167671D01*
X180363793Y-47167664D01*
X180277547Y-47052455D01*
X180277544Y-47052452D01*
X180162335Y-46966206D01*
X180162328Y-46966202D01*
X180027482Y-46915908D01*
X180027483Y-46915908D01*
X179967883Y-46909501D01*
X179967881Y-46909500D01*
X179967873Y-46909500D01*
X179967865Y-46909500D01*
X178269154Y-46909500D01*
X178202115Y-46889815D01*
X178156360Y-46837011D01*
X178145167Y-46787204D01*
X178138950Y-46333384D01*
X186659500Y-46333384D01*
X186659500Y-47646616D01*
X186661423Y-47667778D01*
X186665913Y-47717192D01*
X186716522Y-47879606D01*
X186804530Y-48025188D01*
X186924811Y-48145469D01*
X186924813Y-48145470D01*
X186924815Y-48145472D01*
X187070394Y-48233478D01*
X187232804Y-48284086D01*
X187303384Y-48290500D01*
X187303387Y-48290500D01*
X188616613Y-48290500D01*
X188616616Y-48290500D01*
X188687196Y-48284086D01*
X188849606Y-48233478D01*
X188995185Y-48145472D01*
X189115472Y-48025185D01*
X189203478Y-47879606D01*
X189230641Y-47792433D01*
X189269377Y-47734288D01*
X189333402Y-47706313D01*
X189402388Y-47717394D01*
X189449344Y-47756440D01*
X189508028Y-47837212D01*
X189508032Y-47837217D01*
X189652786Y-47981971D01*
X189777343Y-48072465D01*
X189818390Y-48102287D01*
X189934607Y-48161503D01*
X190000776Y-48195218D01*
X190000778Y-48195218D01*
X190000781Y-48195220D01*
X190094940Y-48225814D01*
X190195465Y-48258477D01*
X190296557Y-48274488D01*
X190397648Y-48290500D01*
X190397649Y-48290500D01*
X190602351Y-48290500D01*
X190602352Y-48290500D01*
X190804534Y-48258477D01*
X190999219Y-48195220D01*
X191181610Y-48102287D01*
X191287733Y-48025185D01*
X191347213Y-47981971D01*
X191347215Y-47981968D01*
X191347219Y-47981966D01*
X191491966Y-47837219D01*
X191491968Y-47837215D01*
X191491971Y-47837213D01*
X191612286Y-47671611D01*
X191612287Y-47671610D01*
X191656058Y-47585703D01*
X191704030Y-47534909D01*
X191771851Y-47518113D01*
X191837986Y-47540650D01*
X191875900Y-47583545D01*
X191911155Y-47649500D01*
X191911161Y-47649511D01*
X191957534Y-47718912D01*
X192557037Y-47119410D01*
X192574075Y-47182993D01*
X192639901Y-47297007D01*
X192732993Y-47390099D01*
X192847007Y-47455925D01*
X192910589Y-47472962D01*
X192311085Y-48072465D01*
X192380488Y-48118838D01*
X192380498Y-48118844D01*
X192467801Y-48165509D01*
X192613387Y-48225814D01*
X192708135Y-48254555D01*
X192862699Y-48285298D01*
X192961210Y-48295000D01*
X193118790Y-48295000D01*
X193217299Y-48285298D01*
X193217302Y-48285298D01*
X193371864Y-48254555D01*
X193466612Y-48225814D01*
X193612198Y-48165509D01*
X193699511Y-48118838D01*
X193699515Y-48118837D01*
X193768913Y-48072465D01*
X193169410Y-47472962D01*
X193232993Y-47455925D01*
X193347007Y-47390099D01*
X193440099Y-47297007D01*
X193505925Y-47182993D01*
X193522962Y-47119410D01*
X194122465Y-47718913D01*
X194168837Y-47649515D01*
X194168843Y-47649503D01*
X194204099Y-47583546D01*
X194253061Y-47533702D01*
X194321199Y-47518241D01*
X194386879Y-47542073D01*
X194423941Y-47585702D01*
X194454976Y-47646613D01*
X194467715Y-47671614D01*
X194588028Y-47837213D01*
X194732786Y-47981971D01*
X194857343Y-48072465D01*
X194898390Y-48102287D01*
X195014607Y-48161503D01*
X195080776Y-48195218D01*
X195080778Y-48195218D01*
X195080781Y-48195220D01*
X195174940Y-48225814D01*
X195275465Y-48258477D01*
X195376557Y-48274488D01*
X195477648Y-48290500D01*
X195477649Y-48290500D01*
X195682351Y-48290500D01*
X195682352Y-48290500D01*
X195884534Y-48258477D01*
X196079219Y-48195220D01*
X196261610Y-48102287D01*
X196367733Y-48025185D01*
X196427213Y-47981971D01*
X196427215Y-47981968D01*
X196427219Y-47981966D01*
X196571966Y-47837219D01*
X196571968Y-47837215D01*
X196571971Y-47837213D01*
X196692284Y-47671614D01*
X196692286Y-47671611D01*
X196692287Y-47671610D01*
X196739516Y-47578917D01*
X196787489Y-47528123D01*
X196855310Y-47511328D01*
X196921445Y-47533865D01*
X196960483Y-47578917D01*
X196994976Y-47646613D01*
X197007715Y-47671614D01*
X197128028Y-47837213D01*
X197272786Y-47981971D01*
X197397343Y-48072465D01*
X197438390Y-48102287D01*
X197554607Y-48161503D01*
X197620776Y-48195218D01*
X197620778Y-48195218D01*
X197620781Y-48195220D01*
X197714940Y-48225814D01*
X197815465Y-48258477D01*
X197916557Y-48274488D01*
X198017648Y-48290500D01*
X198017649Y-48290500D01*
X198222351Y-48290500D01*
X198222352Y-48290500D01*
X198424534Y-48258477D01*
X198619219Y-48195220D01*
X198801610Y-48102287D01*
X198907733Y-48025185D01*
X198967213Y-47981971D01*
X198967215Y-47981968D01*
X198967219Y-47981966D01*
X199111966Y-47837219D01*
X199111968Y-47837215D01*
X199111971Y-47837213D01*
X199232284Y-47671614D01*
X199232286Y-47671611D01*
X199232287Y-47671610D01*
X199279516Y-47578917D01*
X199327489Y-47528123D01*
X199395310Y-47511328D01*
X199461445Y-47533865D01*
X199500483Y-47578917D01*
X199534976Y-47646613D01*
X199547715Y-47671614D01*
X199668028Y-47837213D01*
X199812786Y-47981971D01*
X199937343Y-48072465D01*
X199978390Y-48102287D01*
X200094607Y-48161503D01*
X200160776Y-48195218D01*
X200160778Y-48195218D01*
X200160781Y-48195220D01*
X200254940Y-48225814D01*
X200355465Y-48258477D01*
X200456557Y-48274488D01*
X200557648Y-48290500D01*
X200557649Y-48290500D01*
X200762351Y-48290500D01*
X200762352Y-48290500D01*
X200964534Y-48258477D01*
X201159219Y-48195220D01*
X201341610Y-48102287D01*
X201447733Y-48025185D01*
X201507213Y-47981971D01*
X201507215Y-47981968D01*
X201507219Y-47981966D01*
X201651966Y-47837219D01*
X201651968Y-47837215D01*
X201651971Y-47837213D01*
X201772284Y-47671614D01*
X201772286Y-47671611D01*
X201772287Y-47671610D01*
X201819516Y-47578917D01*
X201867489Y-47528123D01*
X201935310Y-47511328D01*
X202001445Y-47533865D01*
X202040483Y-47578917D01*
X202074976Y-47646613D01*
X202087715Y-47671614D01*
X202208028Y-47837213D01*
X202352786Y-47981971D01*
X202477343Y-48072465D01*
X202518390Y-48102287D01*
X202634607Y-48161503D01*
X202700776Y-48195218D01*
X202700778Y-48195218D01*
X202700781Y-48195220D01*
X202794940Y-48225814D01*
X202895465Y-48258477D01*
X202996557Y-48274488D01*
X203097648Y-48290500D01*
X203097649Y-48290500D01*
X203302351Y-48290500D01*
X203302352Y-48290500D01*
X203504534Y-48258477D01*
X203699219Y-48195220D01*
X203881610Y-48102287D01*
X203987733Y-48025185D01*
X204047213Y-47981971D01*
X204047215Y-47981968D01*
X204047219Y-47981966D01*
X204191966Y-47837219D01*
X204191968Y-47837215D01*
X204191971Y-47837213D01*
X204312286Y-47671611D01*
X204312287Y-47671610D01*
X204356058Y-47585703D01*
X204404030Y-47534909D01*
X204471851Y-47518113D01*
X204537986Y-47540650D01*
X204575900Y-47583545D01*
X204611155Y-47649500D01*
X204611161Y-47649511D01*
X204657534Y-47718912D01*
X205257037Y-47119410D01*
X205274075Y-47182993D01*
X205339901Y-47297007D01*
X205432993Y-47390099D01*
X205547007Y-47455925D01*
X205610589Y-47472962D01*
X205011085Y-48072465D01*
X205080488Y-48118838D01*
X205080498Y-48118844D01*
X205167801Y-48165509D01*
X205313387Y-48225814D01*
X205408135Y-48254555D01*
X205562699Y-48285298D01*
X205661210Y-48295000D01*
X205818790Y-48295000D01*
X205917299Y-48285298D01*
X205917302Y-48285298D01*
X206071864Y-48254555D01*
X206166612Y-48225814D01*
X206312198Y-48165509D01*
X206399511Y-48118838D01*
X206399515Y-48118837D01*
X206468913Y-48072465D01*
X205869410Y-47472962D01*
X205932993Y-47455925D01*
X206047007Y-47390099D01*
X206140099Y-47297007D01*
X206205925Y-47182993D01*
X206222962Y-47119410D01*
X206822465Y-47718913D01*
X206868837Y-47649515D01*
X206868843Y-47649503D01*
X206904099Y-47583546D01*
X206953061Y-47533702D01*
X207021199Y-47518241D01*
X207086879Y-47542073D01*
X207123941Y-47585702D01*
X207154976Y-47646613D01*
X207167715Y-47671614D01*
X207288028Y-47837213D01*
X207432786Y-47981971D01*
X207557343Y-48072465D01*
X207598390Y-48102287D01*
X207714607Y-48161503D01*
X207780776Y-48195218D01*
X207780778Y-48195218D01*
X207780781Y-48195220D01*
X207874940Y-48225814D01*
X207975465Y-48258477D01*
X208076557Y-48274488D01*
X208177648Y-48290500D01*
X208177649Y-48290500D01*
X208382351Y-48290500D01*
X208382352Y-48290500D01*
X208584534Y-48258477D01*
X208779219Y-48195220D01*
X208961610Y-48102287D01*
X209067733Y-48025185D01*
X209127213Y-47981971D01*
X209127215Y-47981968D01*
X209127219Y-47981966D01*
X209271966Y-47837219D01*
X209271968Y-47837215D01*
X209271971Y-47837213D01*
X209392284Y-47671614D01*
X209392286Y-47671611D01*
X209392287Y-47671610D01*
X209439516Y-47578917D01*
X209487489Y-47528123D01*
X209555310Y-47511328D01*
X209621445Y-47533865D01*
X209660483Y-47578917D01*
X209694976Y-47646613D01*
X209707715Y-47671614D01*
X209828028Y-47837213D01*
X209972786Y-47981971D01*
X210097343Y-48072465D01*
X210138390Y-48102287D01*
X210254607Y-48161503D01*
X210320776Y-48195218D01*
X210320778Y-48195218D01*
X210320781Y-48195220D01*
X210414940Y-48225814D01*
X210515465Y-48258477D01*
X210616557Y-48274488D01*
X210717648Y-48290500D01*
X210717649Y-48290500D01*
X210922351Y-48290500D01*
X210922352Y-48290500D01*
X211124534Y-48258477D01*
X211319219Y-48195220D01*
X211501610Y-48102287D01*
X211607733Y-48025185D01*
X211667213Y-47981971D01*
X211667215Y-47981968D01*
X211667219Y-47981966D01*
X211811966Y-47837219D01*
X211811968Y-47837215D01*
X211811971Y-47837213D01*
X211932284Y-47671614D01*
X211932286Y-47671611D01*
X211932287Y-47671610D01*
X211979516Y-47578917D01*
X212027489Y-47528123D01*
X212095310Y-47511328D01*
X212161445Y-47533865D01*
X212200483Y-47578917D01*
X212234976Y-47646613D01*
X212247715Y-47671614D01*
X212368028Y-47837213D01*
X212512786Y-47981971D01*
X212637343Y-48072465D01*
X212678390Y-48102287D01*
X212794607Y-48161503D01*
X212860776Y-48195218D01*
X212860778Y-48195218D01*
X212860781Y-48195220D01*
X212954940Y-48225814D01*
X213055465Y-48258477D01*
X213156557Y-48274488D01*
X213257648Y-48290500D01*
X213257649Y-48290500D01*
X213462351Y-48290500D01*
X213462352Y-48290500D01*
X213664534Y-48258477D01*
X213859219Y-48195220D01*
X214041610Y-48102287D01*
X214147733Y-48025185D01*
X214207213Y-47981971D01*
X214207215Y-47981968D01*
X214207219Y-47981966D01*
X214351966Y-47837219D01*
X214351968Y-47837215D01*
X214351971Y-47837213D01*
X214472284Y-47671614D01*
X214472286Y-47671611D01*
X214472287Y-47671610D01*
X214519516Y-47578917D01*
X214567489Y-47528123D01*
X214635310Y-47511328D01*
X214701445Y-47533865D01*
X214740483Y-47578917D01*
X214774976Y-47646613D01*
X214787715Y-47671614D01*
X214908028Y-47837213D01*
X215052786Y-47981971D01*
X215177343Y-48072465D01*
X215218390Y-48102287D01*
X215334607Y-48161503D01*
X215400776Y-48195218D01*
X215400778Y-48195218D01*
X215400781Y-48195220D01*
X215494940Y-48225814D01*
X215595465Y-48258477D01*
X215696557Y-48274488D01*
X215797648Y-48290500D01*
X215797649Y-48290500D01*
X216002351Y-48290500D01*
X216002352Y-48290500D01*
X216204534Y-48258477D01*
X216399219Y-48195220D01*
X216581610Y-48102287D01*
X216687733Y-48025185D01*
X216747213Y-47981971D01*
X216747215Y-47981968D01*
X216747219Y-47981966D01*
X216891966Y-47837219D01*
X216891968Y-47837215D01*
X216891971Y-47837213D01*
X217012286Y-47671611D01*
X217012287Y-47671610D01*
X217056058Y-47585703D01*
X217104030Y-47534909D01*
X217171851Y-47518113D01*
X217237986Y-47540650D01*
X217275900Y-47583545D01*
X217311155Y-47649500D01*
X217311161Y-47649511D01*
X217357534Y-47718912D01*
X217957037Y-47119410D01*
X217974075Y-47182993D01*
X218039901Y-47297007D01*
X218132993Y-47390099D01*
X218247007Y-47455925D01*
X218310589Y-47472962D01*
X217711085Y-48072465D01*
X217780488Y-48118838D01*
X217780498Y-48118844D01*
X217867801Y-48165509D01*
X218013387Y-48225814D01*
X218108135Y-48254555D01*
X218262699Y-48285298D01*
X218361210Y-48295000D01*
X218518790Y-48295000D01*
X218617299Y-48285298D01*
X218617302Y-48285298D01*
X218771864Y-48254555D01*
X218866612Y-48225814D01*
X219012198Y-48165509D01*
X219099511Y-48118838D01*
X219099515Y-48118837D01*
X219168913Y-48072465D01*
X218569410Y-47472962D01*
X218632993Y-47455925D01*
X218747007Y-47390099D01*
X218840099Y-47297007D01*
X218905925Y-47182993D01*
X218922962Y-47119410D01*
X219522465Y-47718913D01*
X219568837Y-47649515D01*
X219568843Y-47649503D01*
X219604099Y-47583546D01*
X219653061Y-47533702D01*
X219721199Y-47518241D01*
X219786879Y-47542073D01*
X219823941Y-47585702D01*
X219854976Y-47646613D01*
X219867715Y-47671614D01*
X219988028Y-47837213D01*
X220132786Y-47981971D01*
X220257343Y-48072465D01*
X220298390Y-48102287D01*
X220414607Y-48161503D01*
X220480776Y-48195218D01*
X220480778Y-48195218D01*
X220480781Y-48195220D01*
X220574940Y-48225814D01*
X220675465Y-48258477D01*
X220776557Y-48274488D01*
X220877648Y-48290500D01*
X220877649Y-48290500D01*
X221082351Y-48290500D01*
X221082352Y-48290500D01*
X221284534Y-48258477D01*
X221479219Y-48195220D01*
X221661610Y-48102287D01*
X221767733Y-48025185D01*
X221827213Y-47981971D01*
X221827215Y-47981968D01*
X221827219Y-47981966D01*
X221971966Y-47837219D01*
X221971968Y-47837215D01*
X221971971Y-47837213D01*
X222092284Y-47671614D01*
X222092286Y-47671611D01*
X222092287Y-47671610D01*
X222139516Y-47578917D01*
X222187489Y-47528123D01*
X222255310Y-47511328D01*
X222321445Y-47533865D01*
X222360483Y-47578917D01*
X222394976Y-47646613D01*
X222407715Y-47671614D01*
X222528028Y-47837213D01*
X222672786Y-47981971D01*
X222797343Y-48072465D01*
X222838390Y-48102287D01*
X222954607Y-48161503D01*
X223020776Y-48195218D01*
X223020778Y-48195218D01*
X223020781Y-48195220D01*
X223114940Y-48225814D01*
X223215465Y-48258477D01*
X223316557Y-48274488D01*
X223417648Y-48290500D01*
X223417649Y-48290500D01*
X223622351Y-48290500D01*
X223622352Y-48290500D01*
X223824534Y-48258477D01*
X224019219Y-48195220D01*
X224201610Y-48102287D01*
X224307733Y-48025185D01*
X224367213Y-47981971D01*
X224367215Y-47981968D01*
X224367219Y-47981966D01*
X224511966Y-47837219D01*
X224511968Y-47837215D01*
X224511971Y-47837213D01*
X224632284Y-47671614D01*
X224632286Y-47671611D01*
X224632287Y-47671610D01*
X224679516Y-47578917D01*
X224727489Y-47528123D01*
X224795310Y-47511328D01*
X224861445Y-47533865D01*
X224900483Y-47578917D01*
X224934976Y-47646613D01*
X224947715Y-47671614D01*
X225068028Y-47837213D01*
X225212786Y-47981971D01*
X225337343Y-48072465D01*
X225378390Y-48102287D01*
X225494607Y-48161503D01*
X225560776Y-48195218D01*
X225560778Y-48195218D01*
X225560781Y-48195220D01*
X225654940Y-48225814D01*
X225755465Y-48258477D01*
X225856557Y-48274488D01*
X225957648Y-48290500D01*
X225957649Y-48290500D01*
X226162351Y-48290500D01*
X226162352Y-48290500D01*
X226364534Y-48258477D01*
X226559219Y-48195220D01*
X226741610Y-48102287D01*
X226847733Y-48025185D01*
X226907213Y-47981971D01*
X226907215Y-47981968D01*
X226907219Y-47981966D01*
X227051966Y-47837219D01*
X227051968Y-47837215D01*
X227051971Y-47837213D01*
X227172284Y-47671614D01*
X227172286Y-47671611D01*
X227172287Y-47671610D01*
X227219516Y-47578917D01*
X227267489Y-47528123D01*
X227335310Y-47511328D01*
X227401445Y-47533865D01*
X227440483Y-47578917D01*
X227474976Y-47646613D01*
X227487715Y-47671614D01*
X227608028Y-47837213D01*
X227752786Y-47981971D01*
X227877343Y-48072465D01*
X227918390Y-48102287D01*
X228034607Y-48161503D01*
X228100776Y-48195218D01*
X228100778Y-48195218D01*
X228100781Y-48195220D01*
X228194940Y-48225814D01*
X228295465Y-48258477D01*
X228396557Y-48274488D01*
X228497648Y-48290500D01*
X228497649Y-48290500D01*
X228702351Y-48290500D01*
X228702352Y-48290500D01*
X228904534Y-48258477D01*
X229099219Y-48195220D01*
X229281610Y-48102287D01*
X229387733Y-48025185D01*
X229447213Y-47981971D01*
X229447215Y-47981968D01*
X229447219Y-47981966D01*
X229591966Y-47837219D01*
X229591968Y-47837215D01*
X229591971Y-47837213D01*
X229712286Y-47671611D01*
X229712287Y-47671610D01*
X229756058Y-47585703D01*
X229804030Y-47534909D01*
X229871851Y-47518113D01*
X229937986Y-47540650D01*
X229975900Y-47583545D01*
X230011155Y-47649500D01*
X230011161Y-47649511D01*
X230057534Y-47718912D01*
X230657037Y-47119410D01*
X230674075Y-47182993D01*
X230739901Y-47297007D01*
X230832993Y-47390099D01*
X230947007Y-47455925D01*
X231010589Y-47472962D01*
X230411085Y-48072465D01*
X230480488Y-48118838D01*
X230480498Y-48118844D01*
X230567801Y-48165509D01*
X230713387Y-48225814D01*
X230808135Y-48254555D01*
X230962699Y-48285298D01*
X231061210Y-48295000D01*
X231218790Y-48295000D01*
X231317299Y-48285298D01*
X231317302Y-48285298D01*
X231471864Y-48254555D01*
X231566612Y-48225814D01*
X231712198Y-48165509D01*
X231799511Y-48118838D01*
X231799515Y-48118837D01*
X231868913Y-48072465D01*
X231269410Y-47472962D01*
X231332993Y-47455925D01*
X231447007Y-47390099D01*
X231540099Y-47297007D01*
X231605925Y-47182993D01*
X231622962Y-47119410D01*
X232222464Y-47718913D01*
X232222465Y-47718913D01*
X232268837Y-47649515D01*
X232268843Y-47649503D01*
X232304099Y-47583546D01*
X232353061Y-47533702D01*
X232421199Y-47518241D01*
X232486879Y-47542073D01*
X232523941Y-47585702D01*
X232554976Y-47646613D01*
X232567715Y-47671614D01*
X232688028Y-47837213D01*
X232832786Y-47981971D01*
X232957343Y-48072465D01*
X232998390Y-48102287D01*
X233114607Y-48161503D01*
X233180776Y-48195218D01*
X233180778Y-48195218D01*
X233180781Y-48195220D01*
X233274940Y-48225814D01*
X233375465Y-48258477D01*
X233476557Y-48274488D01*
X233577648Y-48290500D01*
X233577649Y-48290500D01*
X233782351Y-48290500D01*
X233782352Y-48290500D01*
X233984534Y-48258477D01*
X234179219Y-48195220D01*
X234361610Y-48102287D01*
X234467733Y-48025185D01*
X234527213Y-47981971D01*
X234527215Y-47981968D01*
X234527219Y-47981966D01*
X234671966Y-47837219D01*
X234671968Y-47837215D01*
X234671971Y-47837213D01*
X234792284Y-47671614D01*
X234792286Y-47671611D01*
X234792287Y-47671610D01*
X234839516Y-47578917D01*
X234887489Y-47528123D01*
X234955310Y-47511328D01*
X235021445Y-47533865D01*
X235060483Y-47578917D01*
X235094976Y-47646613D01*
X235107715Y-47671614D01*
X235228028Y-47837213D01*
X235372786Y-47981971D01*
X235497343Y-48072465D01*
X235538390Y-48102287D01*
X235654607Y-48161503D01*
X235720776Y-48195218D01*
X235720778Y-48195218D01*
X235720781Y-48195220D01*
X235814940Y-48225814D01*
X235915465Y-48258477D01*
X236016557Y-48274488D01*
X236117648Y-48290500D01*
X236117649Y-48290500D01*
X236322351Y-48290500D01*
X236322352Y-48290500D01*
X236524534Y-48258477D01*
X236719219Y-48195220D01*
X236901610Y-48102287D01*
X237007733Y-48025185D01*
X237067213Y-47981971D01*
X237067215Y-47981968D01*
X237067219Y-47981966D01*
X237211966Y-47837219D01*
X237211968Y-47837215D01*
X237211971Y-47837213D01*
X237286749Y-47734288D01*
X237332287Y-47671610D01*
X237425220Y-47489219D01*
X237488477Y-47294534D01*
X237520500Y-47092352D01*
X237520500Y-46887648D01*
X237488477Y-46685466D01*
X237487673Y-46682993D01*
X237425218Y-46490776D01*
X237379515Y-46401080D01*
X237332287Y-46308390D01*
X237301653Y-46266225D01*
X237211971Y-46142786D01*
X237067213Y-45998028D01*
X236901613Y-45877715D01*
X236901612Y-45877714D01*
X236901610Y-45877713D01*
X236816855Y-45834528D01*
X236719223Y-45784781D01*
X236524534Y-45721522D01*
X236349995Y-45693878D01*
X236322352Y-45689500D01*
X236117648Y-45689500D01*
X236093329Y-45693351D01*
X235915465Y-45721522D01*
X235720776Y-45784781D01*
X235538386Y-45877715D01*
X235372786Y-45998028D01*
X235228028Y-46142786D01*
X235107715Y-46308386D01*
X235060485Y-46401080D01*
X235012510Y-46451876D01*
X234944689Y-46468671D01*
X234878554Y-46446134D01*
X234839515Y-46401080D01*
X234838883Y-46399840D01*
X234792287Y-46308390D01*
X234761653Y-46266225D01*
X234671971Y-46142786D01*
X234527213Y-45998028D01*
X234361613Y-45877715D01*
X234361612Y-45877714D01*
X234361610Y-45877713D01*
X234276855Y-45834528D01*
X234179223Y-45784781D01*
X233984534Y-45721522D01*
X233809995Y-45693878D01*
X233782352Y-45689500D01*
X233577648Y-45689500D01*
X233553329Y-45693351D01*
X233375465Y-45721522D01*
X233180776Y-45784781D01*
X232998386Y-45877715D01*
X232832786Y-45998028D01*
X232688032Y-46142782D01*
X232688026Y-46142789D01*
X232632231Y-46219584D01*
X232576901Y-46262250D01*
X232507288Y-46268228D01*
X232445493Y-46235622D01*
X232411765Y-46177361D01*
X232406559Y-46156965D01*
X232406559Y-46156962D01*
X232383135Y-46100414D01*
X231622962Y-46860588D01*
X231605925Y-46797007D01*
X231540099Y-46682993D01*
X231447007Y-46589901D01*
X231332993Y-46524075D01*
X231269410Y-46507037D01*
X232029584Y-45746862D01*
X231973059Y-45723449D01*
X231922053Y-45705455D01*
X231779780Y-45685000D01*
X230500214Y-45685000D01*
X230446237Y-45687893D01*
X230446235Y-45687893D01*
X230306976Y-45723436D01*
X230306962Y-45723441D01*
X230250415Y-45746863D01*
X231010589Y-46507037D01*
X230947007Y-46524075D01*
X230832993Y-46589901D01*
X230739901Y-46682993D01*
X230674075Y-46797007D01*
X230657037Y-46860589D01*
X229896863Y-46100415D01*
X229896862Y-46100415D01*
X229873446Y-46156947D01*
X229873439Y-46156965D01*
X229863330Y-46185623D01*
X229822464Y-46242295D01*
X229757446Y-46267876D01*
X229688918Y-46254246D01*
X229646075Y-46217255D01*
X229591971Y-46142786D01*
X229447213Y-45998028D01*
X229295763Y-45887995D01*
X229281613Y-45877715D01*
X229281612Y-45877714D01*
X229281610Y-45877713D01*
X229196855Y-45834528D01*
X229099223Y-45784781D01*
X228904534Y-45721522D01*
X228729995Y-45693878D01*
X228702352Y-45689500D01*
X228497648Y-45689500D01*
X228473329Y-45693351D01*
X228295465Y-45721522D01*
X228100776Y-45784781D01*
X227918386Y-45877715D01*
X227752786Y-45998028D01*
X227608028Y-46142786D01*
X227487715Y-46308386D01*
X227440485Y-46401080D01*
X227392510Y-46451876D01*
X227324689Y-46468671D01*
X227258554Y-46446134D01*
X227219515Y-46401080D01*
X227218883Y-46399840D01*
X227172287Y-46308390D01*
X227141653Y-46266225D01*
X227051971Y-46142786D01*
X226907213Y-45998028D01*
X226741613Y-45877715D01*
X226741612Y-45877714D01*
X226741610Y-45877713D01*
X226656855Y-45834528D01*
X226559223Y-45784781D01*
X226364534Y-45721522D01*
X226189995Y-45693878D01*
X226162352Y-45689500D01*
X225957648Y-45689500D01*
X225933329Y-45693351D01*
X225755465Y-45721522D01*
X225560776Y-45784781D01*
X225378386Y-45877715D01*
X225212786Y-45998028D01*
X225068028Y-46142786D01*
X224947715Y-46308386D01*
X224900485Y-46401080D01*
X224852510Y-46451876D01*
X224784689Y-46468671D01*
X224718554Y-46446134D01*
X224679515Y-46401080D01*
X224678883Y-46399840D01*
X224632287Y-46308390D01*
X224601653Y-46266225D01*
X224511971Y-46142786D01*
X224367213Y-45998028D01*
X224201613Y-45877715D01*
X224201612Y-45877714D01*
X224201610Y-45877713D01*
X224116855Y-45834528D01*
X224019223Y-45784781D01*
X223824534Y-45721522D01*
X223649995Y-45693878D01*
X223622352Y-45689500D01*
X223417648Y-45689500D01*
X223393329Y-45693351D01*
X223215465Y-45721522D01*
X223020776Y-45784781D01*
X222838386Y-45877715D01*
X222672786Y-45998028D01*
X222528028Y-46142786D01*
X222407715Y-46308386D01*
X222360485Y-46401080D01*
X222312510Y-46451876D01*
X222244689Y-46468671D01*
X222178554Y-46446134D01*
X222139515Y-46401080D01*
X222138883Y-46399840D01*
X222092287Y-46308390D01*
X222061653Y-46266225D01*
X221971971Y-46142786D01*
X221827213Y-45998028D01*
X221661613Y-45877715D01*
X221661612Y-45877714D01*
X221661610Y-45877713D01*
X221576855Y-45834528D01*
X221479223Y-45784781D01*
X221284534Y-45721522D01*
X221109995Y-45693878D01*
X221082352Y-45689500D01*
X220877648Y-45689500D01*
X220853329Y-45693351D01*
X220675465Y-45721522D01*
X220480776Y-45784781D01*
X220298386Y-45877715D01*
X220132786Y-45998028D01*
X219988032Y-46142782D01*
X219988026Y-46142789D01*
X219932231Y-46219584D01*
X219876901Y-46262250D01*
X219807288Y-46268228D01*
X219745493Y-46235622D01*
X219711765Y-46177361D01*
X219706559Y-46156965D01*
X219706559Y-46156962D01*
X219683135Y-46100414D01*
X218922962Y-46860588D01*
X218905925Y-46797007D01*
X218840099Y-46682993D01*
X218747007Y-46589901D01*
X218632993Y-46524075D01*
X218569410Y-46507037D01*
X219329584Y-45746862D01*
X219273059Y-45723449D01*
X219222053Y-45705455D01*
X219079780Y-45685000D01*
X217800214Y-45685000D01*
X217746237Y-45687893D01*
X217746235Y-45687893D01*
X217606976Y-45723436D01*
X217606962Y-45723441D01*
X217550415Y-45746863D01*
X218310589Y-46507037D01*
X218247007Y-46524075D01*
X218132993Y-46589901D01*
X218039901Y-46682993D01*
X217974075Y-46797007D01*
X217957037Y-46860589D01*
X217196863Y-46100415D01*
X217196862Y-46100415D01*
X217173446Y-46156947D01*
X217173439Y-46156965D01*
X217163330Y-46185623D01*
X217122464Y-46242295D01*
X217057446Y-46267876D01*
X216988918Y-46254246D01*
X216946075Y-46217255D01*
X216891971Y-46142786D01*
X216747213Y-45998028D01*
X216595763Y-45887995D01*
X216581613Y-45877715D01*
X216581612Y-45877714D01*
X216581610Y-45877713D01*
X216496855Y-45834528D01*
X216399223Y-45784781D01*
X216204534Y-45721522D01*
X216029995Y-45693878D01*
X216002352Y-45689500D01*
X215797648Y-45689500D01*
X215773329Y-45693351D01*
X215595465Y-45721522D01*
X215400776Y-45784781D01*
X215218386Y-45877715D01*
X215052786Y-45998028D01*
X214908028Y-46142786D01*
X214787715Y-46308386D01*
X214740485Y-46401080D01*
X214692510Y-46451876D01*
X214624689Y-46468671D01*
X214558554Y-46446134D01*
X214519515Y-46401080D01*
X214518883Y-46399840D01*
X214472287Y-46308390D01*
X214441653Y-46266225D01*
X214351971Y-46142786D01*
X214207213Y-45998028D01*
X214041613Y-45877715D01*
X214041612Y-45877714D01*
X214041610Y-45877713D01*
X213956855Y-45834528D01*
X213859223Y-45784781D01*
X213664534Y-45721522D01*
X213489995Y-45693878D01*
X213462352Y-45689500D01*
X213257648Y-45689500D01*
X213233329Y-45693351D01*
X213055465Y-45721522D01*
X212860776Y-45784781D01*
X212678386Y-45877715D01*
X212512786Y-45998028D01*
X212368028Y-46142786D01*
X212247715Y-46308386D01*
X212200485Y-46401080D01*
X212152510Y-46451876D01*
X212084689Y-46468671D01*
X212018554Y-46446134D01*
X211979515Y-46401080D01*
X211978883Y-46399840D01*
X211932287Y-46308390D01*
X211901653Y-46266225D01*
X211811971Y-46142786D01*
X211667213Y-45998028D01*
X211501613Y-45877715D01*
X211501612Y-45877714D01*
X211501610Y-45877713D01*
X211416855Y-45834528D01*
X211319223Y-45784781D01*
X211124534Y-45721522D01*
X210949995Y-45693878D01*
X210922352Y-45689500D01*
X210717648Y-45689500D01*
X210693329Y-45693351D01*
X210515465Y-45721522D01*
X210320776Y-45784781D01*
X210138386Y-45877715D01*
X209972786Y-45998028D01*
X209828028Y-46142786D01*
X209707715Y-46308386D01*
X209660485Y-46401080D01*
X209612510Y-46451876D01*
X209544689Y-46468671D01*
X209478554Y-46446134D01*
X209439515Y-46401080D01*
X209438883Y-46399840D01*
X209392287Y-46308390D01*
X209361653Y-46266225D01*
X209271971Y-46142786D01*
X209127213Y-45998028D01*
X208961613Y-45877715D01*
X208961612Y-45877714D01*
X208961610Y-45877713D01*
X208876855Y-45834528D01*
X208779223Y-45784781D01*
X208584534Y-45721522D01*
X208409995Y-45693878D01*
X208382352Y-45689500D01*
X208177648Y-45689500D01*
X208153329Y-45693351D01*
X207975465Y-45721522D01*
X207780776Y-45784781D01*
X207598386Y-45877715D01*
X207432786Y-45998028D01*
X207288032Y-46142782D01*
X207288026Y-46142789D01*
X207232231Y-46219584D01*
X207176901Y-46262250D01*
X207107288Y-46268228D01*
X207045493Y-46235622D01*
X207011765Y-46177361D01*
X207006559Y-46156965D01*
X207006559Y-46156962D01*
X206983135Y-46100414D01*
X206222962Y-46860588D01*
X206205925Y-46797007D01*
X206140099Y-46682993D01*
X206047007Y-46589901D01*
X205932993Y-46524075D01*
X205869410Y-46507037D01*
X206629584Y-45746862D01*
X206573059Y-45723449D01*
X206522053Y-45705455D01*
X206379780Y-45685000D01*
X205100214Y-45685000D01*
X205046237Y-45687893D01*
X205046235Y-45687893D01*
X204906976Y-45723436D01*
X204906962Y-45723441D01*
X204850415Y-45746863D01*
X205610589Y-46507037D01*
X205547007Y-46524075D01*
X205432993Y-46589901D01*
X205339901Y-46682993D01*
X205274075Y-46797007D01*
X205257037Y-46860589D01*
X204496863Y-46100415D01*
X204496862Y-46100415D01*
X204473446Y-46156947D01*
X204473439Y-46156965D01*
X204463330Y-46185623D01*
X204422464Y-46242295D01*
X204357446Y-46267876D01*
X204288918Y-46254246D01*
X204246075Y-46217255D01*
X204191971Y-46142786D01*
X204047213Y-45998028D01*
X203895763Y-45887995D01*
X203881613Y-45877715D01*
X203881612Y-45877714D01*
X203881610Y-45877713D01*
X203796855Y-45834528D01*
X203699223Y-45784781D01*
X203504534Y-45721522D01*
X203329995Y-45693878D01*
X203302352Y-45689500D01*
X203097648Y-45689500D01*
X203073329Y-45693351D01*
X202895465Y-45721522D01*
X202700776Y-45784781D01*
X202518386Y-45877715D01*
X202352786Y-45998028D01*
X202208028Y-46142786D01*
X202087715Y-46308386D01*
X202040485Y-46401080D01*
X201992510Y-46451876D01*
X201924689Y-46468671D01*
X201858554Y-46446134D01*
X201819515Y-46401080D01*
X201818883Y-46399840D01*
X201772287Y-46308390D01*
X201741653Y-46266225D01*
X201651971Y-46142786D01*
X201507213Y-45998028D01*
X201341613Y-45877715D01*
X201341612Y-45877714D01*
X201341610Y-45877713D01*
X201256855Y-45834528D01*
X201159223Y-45784781D01*
X200964534Y-45721522D01*
X200789995Y-45693878D01*
X200762352Y-45689500D01*
X200557648Y-45689500D01*
X200533329Y-45693351D01*
X200355465Y-45721522D01*
X200160776Y-45784781D01*
X199978386Y-45877715D01*
X199812786Y-45998028D01*
X199668028Y-46142786D01*
X199547715Y-46308386D01*
X199500485Y-46401080D01*
X199452510Y-46451876D01*
X199384689Y-46468671D01*
X199318554Y-46446134D01*
X199279515Y-46401080D01*
X199278883Y-46399840D01*
X199232287Y-46308390D01*
X199201653Y-46266225D01*
X199111971Y-46142786D01*
X198967213Y-45998028D01*
X198801613Y-45877715D01*
X198801612Y-45877714D01*
X198801610Y-45877713D01*
X198716855Y-45834528D01*
X198619223Y-45784781D01*
X198424534Y-45721522D01*
X198249995Y-45693878D01*
X198222352Y-45689500D01*
X198017648Y-45689500D01*
X197993329Y-45693351D01*
X197815465Y-45721522D01*
X197620776Y-45784781D01*
X197438386Y-45877715D01*
X197272786Y-45998028D01*
X197128028Y-46142786D01*
X197007715Y-46308386D01*
X196960485Y-46401080D01*
X196912510Y-46451876D01*
X196844689Y-46468671D01*
X196778554Y-46446134D01*
X196739515Y-46401080D01*
X196738883Y-46399840D01*
X196692287Y-46308390D01*
X196661653Y-46266225D01*
X196571971Y-46142786D01*
X196427213Y-45998028D01*
X196261613Y-45877715D01*
X196261612Y-45877714D01*
X196261610Y-45877713D01*
X196176855Y-45834528D01*
X196079223Y-45784781D01*
X195884534Y-45721522D01*
X195709995Y-45693878D01*
X195682352Y-45689500D01*
X195477648Y-45689500D01*
X195453329Y-45693351D01*
X195275465Y-45721522D01*
X195080776Y-45784781D01*
X194898386Y-45877715D01*
X194732786Y-45998028D01*
X194588032Y-46142782D01*
X194588026Y-46142789D01*
X194532231Y-46219584D01*
X194476901Y-46262250D01*
X194407288Y-46268228D01*
X194345493Y-46235622D01*
X194311765Y-46177361D01*
X194306559Y-46156965D01*
X194306559Y-46156962D01*
X194283135Y-46100414D01*
X193522962Y-46860588D01*
X193505925Y-46797007D01*
X193440099Y-46682993D01*
X193347007Y-46589901D01*
X193232993Y-46524075D01*
X193169410Y-46507037D01*
X193929584Y-45746862D01*
X193873059Y-45723449D01*
X193822053Y-45705455D01*
X193679780Y-45685000D01*
X192400214Y-45685000D01*
X192346237Y-45687893D01*
X192346235Y-45687893D01*
X192206976Y-45723436D01*
X192206962Y-45723441D01*
X192150415Y-45746863D01*
X192910589Y-46507037D01*
X192847007Y-46524075D01*
X192732993Y-46589901D01*
X192639901Y-46682993D01*
X192574075Y-46797007D01*
X192557037Y-46860589D01*
X191796863Y-46100415D01*
X191796862Y-46100415D01*
X191773446Y-46156947D01*
X191773439Y-46156965D01*
X191763330Y-46185623D01*
X191722464Y-46242295D01*
X191657446Y-46267876D01*
X191588918Y-46254246D01*
X191546075Y-46217255D01*
X191491971Y-46142786D01*
X191347213Y-45998028D01*
X191195763Y-45887995D01*
X191181613Y-45877715D01*
X191181612Y-45877714D01*
X191181610Y-45877713D01*
X191096855Y-45834528D01*
X190999223Y-45784781D01*
X190804534Y-45721522D01*
X190629995Y-45693878D01*
X190602352Y-45689500D01*
X190397648Y-45689500D01*
X190373329Y-45693351D01*
X190195465Y-45721522D01*
X190000776Y-45784781D01*
X189818386Y-45877715D01*
X189652786Y-45998028D01*
X189508032Y-46142782D01*
X189449344Y-46223560D01*
X189394014Y-46266225D01*
X189324400Y-46272204D01*
X189262606Y-46239598D01*
X189230641Y-46187566D01*
X189203478Y-46100394D01*
X189115472Y-45954815D01*
X189115470Y-45954813D01*
X189115469Y-45954811D01*
X188995188Y-45834530D01*
X188849606Y-45746522D01*
X188687196Y-45695914D01*
X188687194Y-45695913D01*
X188687192Y-45695913D01*
X188637778Y-45691423D01*
X188616616Y-45689500D01*
X187303384Y-45689500D01*
X187284145Y-45691248D01*
X187232807Y-45695913D01*
X187070393Y-45746522D01*
X186924811Y-45834530D01*
X186804530Y-45954811D01*
X186716522Y-46100393D01*
X186665913Y-46262807D01*
X186661772Y-46308386D01*
X186659500Y-46333384D01*
X178138950Y-46333384D01*
X178123424Y-45200000D01*
X229090000Y-45200000D01*
X233429895Y-45200000D01*
X236744960Y-40931286D01*
X237042662Y-40547944D01*
X237099328Y-40507069D01*
X237140598Y-40500000D01*
X238090000Y-40500000D01*
X238090000Y-38472155D01*
X241220000Y-38472155D01*
X241220000Y-39120000D01*
X242136988Y-39120000D01*
X242104075Y-39177007D01*
X242070000Y-39304174D01*
X242070000Y-39435826D01*
X242104075Y-39562993D01*
X242136988Y-39620000D01*
X241220000Y-39620000D01*
X241220000Y-40267844D01*
X241226401Y-40327372D01*
X241226403Y-40327379D01*
X241276645Y-40462086D01*
X241276649Y-40462093D01*
X241362809Y-40577187D01*
X241362812Y-40577190D01*
X241477906Y-40663350D01*
X241477913Y-40663354D01*
X241612620Y-40713596D01*
X241612627Y-40713598D01*
X241672155Y-40719999D01*
X241672172Y-40720000D01*
X242320000Y-40720000D01*
X242320000Y-39803012D01*
X242377007Y-39835925D01*
X242504174Y-39870000D01*
X242635826Y-39870000D01*
X242762993Y-39835925D01*
X242820000Y-39803012D01*
X242820000Y-40720000D01*
X243467828Y-40720000D01*
X243467844Y-40719999D01*
X243527372Y-40713598D01*
X243527379Y-40713596D01*
X243662086Y-40663354D01*
X243662093Y-40663350D01*
X243777187Y-40577190D01*
X243777190Y-40577187D01*
X243863350Y-40462093D01*
X243863354Y-40462086D01*
X243913596Y-40327379D01*
X243913598Y-40327372D01*
X243919999Y-40267844D01*
X243920000Y-40267827D01*
X243920000Y-39620000D01*
X243003012Y-39620000D01*
X243035925Y-39562993D01*
X243070000Y-39435826D01*
X243070000Y-39304174D01*
X243035925Y-39177007D01*
X243003012Y-39120000D01*
X243920000Y-39120000D01*
X243920000Y-38472172D01*
X243919999Y-38472155D01*
X243913598Y-38412627D01*
X243913596Y-38412620D01*
X243863354Y-38277913D01*
X243863350Y-38277906D01*
X243777190Y-38162812D01*
X243777187Y-38162809D01*
X243662093Y-38076649D01*
X243662086Y-38076645D01*
X243527379Y-38026403D01*
X243527372Y-38026401D01*
X243467844Y-38020000D01*
X242820000Y-38020000D01*
X242820000Y-38936988D01*
X242762993Y-38904075D01*
X242635826Y-38870000D01*
X242504174Y-38870000D01*
X242377007Y-38904075D01*
X242320000Y-38936988D01*
X242320000Y-38020000D01*
X241672155Y-38020000D01*
X241612627Y-38026401D01*
X241612620Y-38026403D01*
X241477913Y-38076645D01*
X241477906Y-38076649D01*
X241362812Y-38162809D01*
X241362809Y-38162812D01*
X241276649Y-38277906D01*
X241276645Y-38277913D01*
X241226403Y-38412620D01*
X241226401Y-38412627D01*
X241220000Y-38472155D01*
X238090000Y-38472155D01*
X238090000Y-35700000D01*
X237140598Y-35700000D01*
X237073559Y-35680315D01*
X237042662Y-35652056D01*
X233429895Y-31000000D01*
X229090000Y-31000000D01*
X229090000Y-45200000D01*
X178123424Y-45200000D01*
X178062037Y-40718713D01*
X186739500Y-40718713D01*
X186739500Y-40931286D01*
X186772730Y-41141096D01*
X186772754Y-41141243D01*
X186821344Y-41290788D01*
X186838444Y-41343414D01*
X186934951Y-41532820D01*
X187059890Y-41704786D01*
X187210213Y-41855109D01*
X187382179Y-41980048D01*
X187382181Y-41980049D01*
X187382184Y-41980051D01*
X187571588Y-42076557D01*
X187773757Y-42142246D01*
X187983713Y-42175500D01*
X187983714Y-42175500D01*
X188196286Y-42175500D01*
X188196287Y-42175500D01*
X188406243Y-42142246D01*
X188608412Y-42076557D01*
X188797816Y-41980051D01*
X188819789Y-41964086D01*
X188969786Y-41855109D01*
X188969788Y-41855106D01*
X188969792Y-41855104D01*
X189120104Y-41704792D01*
X189120106Y-41704788D01*
X189120109Y-41704786D01*
X189245048Y-41532820D01*
X189245047Y-41532820D01*
X189245051Y-41532816D01*
X189341557Y-41343412D01*
X189407246Y-41141243D01*
X189440500Y-40931287D01*
X189440500Y-40718713D01*
X189407246Y-40508757D01*
X189382464Y-40432486D01*
X189944500Y-40432486D01*
X189944500Y-40617513D01*
X189973445Y-40800265D01*
X190030619Y-40976232D01*
X190030620Y-40976235D01*
X190114622Y-41141096D01*
X190223379Y-41290787D01*
X190354213Y-41421621D01*
X190503904Y-41530378D01*
X190584763Y-41571577D01*
X190668764Y-41614379D01*
X190668767Y-41614380D01*
X190756750Y-41642967D01*
X190844736Y-41671555D01*
X191027486Y-41700500D01*
X191027487Y-41700500D01*
X191212513Y-41700500D01*
X191212514Y-41700500D01*
X191395264Y-41671555D01*
X191571235Y-41614379D01*
X191736096Y-41530378D01*
X191885787Y-41421621D01*
X192016621Y-41290787D01*
X192125378Y-41141096D01*
X192209379Y-40976235D01*
X192266555Y-40800264D01*
X192295500Y-40617514D01*
X192295500Y-40432486D01*
X192266555Y-40249736D01*
X192209379Y-40073765D01*
X192209379Y-40073764D01*
X192125377Y-39908903D01*
X192016621Y-39759213D01*
X191885787Y-39628379D01*
X191736096Y-39519622D01*
X191712802Y-39507753D01*
X191571235Y-39435620D01*
X191571232Y-39435619D01*
X191395265Y-39378445D01*
X191303889Y-39363972D01*
X191212514Y-39349500D01*
X191027486Y-39349500D01*
X190966569Y-39359148D01*
X190844734Y-39378445D01*
X190668767Y-39435619D01*
X190668764Y-39435620D01*
X190503903Y-39519622D01*
X190444209Y-39562993D01*
X190354213Y-39628379D01*
X190354211Y-39628381D01*
X190354210Y-39628381D01*
X190223381Y-39759210D01*
X190223381Y-39759211D01*
X190223379Y-39759213D01*
X190215470Y-39770099D01*
X190114622Y-39908903D01*
X190030620Y-40073764D01*
X190030619Y-40073767D01*
X189973445Y-40249734D01*
X189944500Y-40432486D01*
X189382464Y-40432486D01*
X189341557Y-40306588D01*
X189245051Y-40117184D01*
X189245049Y-40117181D01*
X189245048Y-40117179D01*
X189120109Y-39945213D01*
X188969786Y-39794890D01*
X188797820Y-39669951D01*
X188608414Y-39573444D01*
X188608413Y-39573443D01*
X188608412Y-39573443D01*
X188406243Y-39507754D01*
X188406241Y-39507753D01*
X188406240Y-39507753D01*
X188244957Y-39482208D01*
X188196287Y-39474500D01*
X187983713Y-39474500D01*
X187935042Y-39482208D01*
X187773760Y-39507753D01*
X187571585Y-39573444D01*
X187382179Y-39669951D01*
X187210213Y-39794890D01*
X187059890Y-39945213D01*
X186934951Y-40117179D01*
X186838444Y-40306585D01*
X186772753Y-40508760D01*
X186739500Y-40718713D01*
X178062037Y-40718713D01*
X177987379Y-35268713D01*
X186739500Y-35268713D01*
X186739500Y-35481287D01*
X186772754Y-35691243D01*
X186775599Y-35700000D01*
X186838444Y-35893414D01*
X186934951Y-36082820D01*
X187059890Y-36254786D01*
X187210213Y-36405109D01*
X187382179Y-36530048D01*
X187382181Y-36530049D01*
X187382184Y-36530051D01*
X187571588Y-36626557D01*
X187773757Y-36692246D01*
X187983713Y-36725500D01*
X187983714Y-36725500D01*
X188196286Y-36725500D01*
X188196287Y-36725500D01*
X188406243Y-36692246D01*
X188608412Y-36626557D01*
X188797816Y-36530051D01*
X188819789Y-36514086D01*
X188969786Y-36405109D01*
X188969788Y-36405106D01*
X188969792Y-36405104D01*
X189120104Y-36254792D01*
X189120106Y-36254788D01*
X189120109Y-36254786D01*
X189245048Y-36082820D01*
X189245047Y-36082820D01*
X189245051Y-36082816D01*
X189341557Y-35893412D01*
X189407246Y-35691243D01*
X189424472Y-35582486D01*
X189944500Y-35582486D01*
X189944500Y-35767513D01*
X189973445Y-35950265D01*
X190030619Y-36126232D01*
X190030620Y-36126235D01*
X190096121Y-36254786D01*
X190114622Y-36291096D01*
X190223379Y-36440787D01*
X190354213Y-36571621D01*
X190503904Y-36680378D01*
X190584763Y-36721577D01*
X190668764Y-36764379D01*
X190668767Y-36764380D01*
X190756750Y-36792967D01*
X190844736Y-36821555D01*
X191027486Y-36850500D01*
X191027487Y-36850500D01*
X191212513Y-36850500D01*
X191212514Y-36850500D01*
X191395264Y-36821555D01*
X191571235Y-36764379D01*
X191736096Y-36680378D01*
X191885787Y-36571621D01*
X192016621Y-36440787D01*
X192125378Y-36291096D01*
X192209379Y-36126235D01*
X192266555Y-35950264D01*
X192295500Y-35767514D01*
X192295500Y-35582486D01*
X192266555Y-35399736D01*
X192237967Y-35311750D01*
X192209380Y-35223767D01*
X192209379Y-35223764D01*
X192125377Y-35058903D01*
X192125271Y-35058757D01*
X192016621Y-34909213D01*
X191885787Y-34778379D01*
X191736096Y-34669622D01*
X191731301Y-34667179D01*
X191571235Y-34585620D01*
X191571232Y-34585619D01*
X191395265Y-34528445D01*
X191303889Y-34513972D01*
X191212514Y-34499500D01*
X191027486Y-34499500D01*
X190966569Y-34509148D01*
X190844734Y-34528445D01*
X190668767Y-34585619D01*
X190668764Y-34585620D01*
X190503903Y-34669622D01*
X190418499Y-34731672D01*
X190354213Y-34778379D01*
X190354211Y-34778381D01*
X190354210Y-34778381D01*
X190223381Y-34909210D01*
X190223381Y-34909211D01*
X190223379Y-34909213D01*
X190176672Y-34973499D01*
X190114622Y-35058903D01*
X190030620Y-35223764D01*
X190030619Y-35223767D01*
X189973445Y-35399734D01*
X189944500Y-35582486D01*
X189424472Y-35582486D01*
X189440500Y-35481287D01*
X189440500Y-35268713D01*
X189407246Y-35058757D01*
X189341557Y-34856588D01*
X189245051Y-34667184D01*
X189245049Y-34667181D01*
X189245048Y-34667179D01*
X189120109Y-34495213D01*
X188969786Y-34344890D01*
X188797820Y-34219951D01*
X188608414Y-34123444D01*
X188608413Y-34123443D01*
X188608412Y-34123443D01*
X188406243Y-34057754D01*
X188406241Y-34057753D01*
X188406240Y-34057753D01*
X188244957Y-34032208D01*
X188196287Y-34024500D01*
X187983713Y-34024500D01*
X187935042Y-34032208D01*
X187773760Y-34057753D01*
X187571585Y-34123444D01*
X187382179Y-34219951D01*
X187210213Y-34344890D01*
X187059890Y-34495213D01*
X186934951Y-34667179D01*
X186838444Y-34856585D01*
X186772753Y-35058760D01*
X186746619Y-35223764D01*
X186739500Y-35268713D01*
X177987379Y-35268713D01*
X177920893Y-30415218D01*
X177902981Y-29107648D01*
X186659500Y-29107648D01*
X186659500Y-29312351D01*
X186691522Y-29514534D01*
X186754781Y-29709223D01*
X186847715Y-29891613D01*
X186968028Y-30057213D01*
X187112786Y-30201971D01*
X187250928Y-30302335D01*
X187278390Y-30322287D01*
X187394607Y-30381503D01*
X187460776Y-30415218D01*
X187460778Y-30415218D01*
X187460781Y-30415220D01*
X187565137Y-30449127D01*
X187655465Y-30478477D01*
X187756557Y-30494488D01*
X187857648Y-30510500D01*
X187857649Y-30510500D01*
X188062351Y-30510500D01*
X188062352Y-30510500D01*
X188264534Y-30478477D01*
X188459219Y-30415220D01*
X188641610Y-30322287D01*
X188734590Y-30254732D01*
X188807213Y-30201971D01*
X188807215Y-30201968D01*
X188807219Y-30201966D01*
X188951966Y-30057219D01*
X188951968Y-30057215D01*
X188951971Y-30057213D01*
X189072284Y-29891614D01*
X189072285Y-29891613D01*
X189072287Y-29891610D01*
X189119516Y-29798917D01*
X189167489Y-29748123D01*
X189235310Y-29731328D01*
X189301445Y-29753865D01*
X189340485Y-29798919D01*
X189387715Y-29891614D01*
X189508028Y-30057213D01*
X189652786Y-30201971D01*
X189790928Y-30302335D01*
X189818390Y-30322287D01*
X189934607Y-30381503D01*
X190000776Y-30415218D01*
X190000778Y-30415218D01*
X190000781Y-30415220D01*
X190105137Y-30449127D01*
X190195465Y-30478477D01*
X190296557Y-30494488D01*
X190397648Y-30510500D01*
X190397649Y-30510500D01*
X190602351Y-30510500D01*
X190602352Y-30510500D01*
X190804534Y-30478477D01*
X190999219Y-30415220D01*
X191181610Y-30322287D01*
X191209072Y-30302335D01*
X191347213Y-30201971D01*
X191347215Y-30201968D01*
X191347219Y-30201966D01*
X191491966Y-30057219D01*
X191547766Y-29980415D01*
X191603096Y-29937750D01*
X191672710Y-29931771D01*
X191734505Y-29964376D01*
X191768233Y-30022635D01*
X191773438Y-30043030D01*
X191773442Y-30043043D01*
X191796862Y-30099584D01*
X192557037Y-29339410D01*
X192574075Y-29402993D01*
X192639901Y-29517007D01*
X192732993Y-29610099D01*
X192847007Y-29675925D01*
X192910589Y-29692962D01*
X192150414Y-30453135D01*
X192206960Y-30476557D01*
X192206964Y-30476559D01*
X192257946Y-30494544D01*
X192400219Y-30514999D01*
X192400221Y-30515000D01*
X193679786Y-30515000D01*
X193733762Y-30512106D01*
X193733764Y-30512106D01*
X193873039Y-30476558D01*
X193929584Y-30453136D01*
X193929584Y-30453135D01*
X193169410Y-29692962D01*
X193232993Y-29675925D01*
X193347007Y-29610099D01*
X193440099Y-29517007D01*
X193505925Y-29402993D01*
X193522962Y-29339410D01*
X194283135Y-30099584D01*
X194283136Y-30099584D01*
X194306553Y-30043052D01*
X194316668Y-30014379D01*
X194357533Y-29957706D01*
X194422551Y-29932123D01*
X194491078Y-29945752D01*
X194533924Y-29982744D01*
X194588028Y-30057212D01*
X194588032Y-30057217D01*
X194732786Y-30201971D01*
X194870928Y-30302335D01*
X194898390Y-30322287D01*
X195014607Y-30381503D01*
X195080776Y-30415218D01*
X195080778Y-30415218D01*
X195080781Y-30415220D01*
X195185137Y-30449127D01*
X195275465Y-30478477D01*
X195376557Y-30494488D01*
X195477648Y-30510500D01*
X195477649Y-30510500D01*
X195682351Y-30510500D01*
X195682352Y-30510500D01*
X195884534Y-30478477D01*
X196079219Y-30415220D01*
X196261610Y-30322287D01*
X196354590Y-30254732D01*
X196427213Y-30201971D01*
X196427215Y-30201968D01*
X196427219Y-30201966D01*
X196571966Y-30057219D01*
X196571968Y-30057215D01*
X196571971Y-30057213D01*
X196692284Y-29891614D01*
X196692285Y-29891613D01*
X196692287Y-29891610D01*
X196739516Y-29798917D01*
X196787489Y-29748123D01*
X196855310Y-29731328D01*
X196921445Y-29753865D01*
X196960485Y-29798919D01*
X197007715Y-29891614D01*
X197128028Y-30057213D01*
X197272786Y-30201971D01*
X197410928Y-30302335D01*
X197438390Y-30322287D01*
X197554607Y-30381503D01*
X197620776Y-30415218D01*
X197620778Y-30415218D01*
X197620781Y-30415220D01*
X197725137Y-30449127D01*
X197815465Y-30478477D01*
X197916557Y-30494488D01*
X198017648Y-30510500D01*
X198017649Y-30510500D01*
X198222351Y-30510500D01*
X198222352Y-30510500D01*
X198424534Y-30478477D01*
X198619219Y-30415220D01*
X198801610Y-30322287D01*
X198894590Y-30254732D01*
X198967213Y-30201971D01*
X198967215Y-30201968D01*
X198967219Y-30201966D01*
X199111966Y-30057219D01*
X199111968Y-30057215D01*
X199111971Y-30057213D01*
X199232284Y-29891614D01*
X199232285Y-29891613D01*
X199232287Y-29891610D01*
X199279516Y-29798917D01*
X199327489Y-29748123D01*
X199395310Y-29731328D01*
X199461445Y-29753865D01*
X199500485Y-29798919D01*
X199547715Y-29891614D01*
X199668028Y-30057213D01*
X199812786Y-30201971D01*
X199950928Y-30302335D01*
X199978390Y-30322287D01*
X200094607Y-30381503D01*
X200160776Y-30415218D01*
X200160778Y-30415218D01*
X200160781Y-30415220D01*
X200265137Y-30449127D01*
X200355465Y-30478477D01*
X200456557Y-30494488D01*
X200557648Y-30510500D01*
X200557649Y-30510500D01*
X200762351Y-30510500D01*
X200762352Y-30510500D01*
X200964534Y-30478477D01*
X201159219Y-30415220D01*
X201341610Y-30322287D01*
X201434590Y-30254732D01*
X201507213Y-30201971D01*
X201507215Y-30201968D01*
X201507219Y-30201966D01*
X201651966Y-30057219D01*
X201651968Y-30057215D01*
X201651971Y-30057213D01*
X201772284Y-29891614D01*
X201772285Y-29891613D01*
X201772287Y-29891610D01*
X201819516Y-29798917D01*
X201867489Y-29748123D01*
X201935310Y-29731328D01*
X202001445Y-29753865D01*
X202040485Y-29798919D01*
X202087715Y-29891614D01*
X202208028Y-30057213D01*
X202352786Y-30201971D01*
X202490928Y-30302335D01*
X202518390Y-30322287D01*
X202634607Y-30381503D01*
X202700776Y-30415218D01*
X202700778Y-30415218D01*
X202700781Y-30415220D01*
X202805137Y-30449127D01*
X202895465Y-30478477D01*
X202996557Y-30494488D01*
X203097648Y-30510500D01*
X203097649Y-30510500D01*
X203302351Y-30510500D01*
X203302352Y-30510500D01*
X203504534Y-30478477D01*
X203699219Y-30415220D01*
X203881610Y-30322287D01*
X203909072Y-30302335D01*
X204047213Y-30201971D01*
X204047215Y-30201968D01*
X204047219Y-30201966D01*
X204191966Y-30057219D01*
X204247766Y-29980415D01*
X204303096Y-29937750D01*
X204372710Y-29931771D01*
X204434505Y-29964376D01*
X204468233Y-30022635D01*
X204473438Y-30043030D01*
X204473442Y-30043043D01*
X204496862Y-30099584D01*
X205257037Y-29339410D01*
X205274075Y-29402993D01*
X205339901Y-29517007D01*
X205432993Y-29610099D01*
X205547007Y-29675925D01*
X205610589Y-29692962D01*
X204850414Y-30453135D01*
X204906960Y-30476557D01*
X204906964Y-30476559D01*
X204957946Y-30494544D01*
X205100219Y-30514999D01*
X205100221Y-30515000D01*
X206379786Y-30515000D01*
X206433762Y-30512106D01*
X206433764Y-30512106D01*
X206573039Y-30476558D01*
X206629584Y-30453136D01*
X206629584Y-30453135D01*
X205869410Y-29692962D01*
X205932993Y-29675925D01*
X206047007Y-29610099D01*
X206140099Y-29517007D01*
X206205925Y-29402993D01*
X206222962Y-29339410D01*
X206983136Y-30099584D01*
X207006553Y-30043052D01*
X207016668Y-30014379D01*
X207057533Y-29957706D01*
X207122551Y-29932123D01*
X207191078Y-29945752D01*
X207233924Y-29982744D01*
X207288028Y-30057212D01*
X207288032Y-30057217D01*
X207432786Y-30201971D01*
X207570928Y-30302335D01*
X207598390Y-30322287D01*
X207714607Y-30381503D01*
X207780776Y-30415218D01*
X207780778Y-30415218D01*
X207780781Y-30415220D01*
X207885137Y-30449127D01*
X207975465Y-30478477D01*
X208076557Y-30494488D01*
X208177648Y-30510500D01*
X208177649Y-30510500D01*
X208382351Y-30510500D01*
X208382352Y-30510500D01*
X208584534Y-30478477D01*
X208779219Y-30415220D01*
X208961610Y-30322287D01*
X209054590Y-30254732D01*
X209127213Y-30201971D01*
X209127215Y-30201968D01*
X209127219Y-30201966D01*
X209271966Y-30057219D01*
X209271968Y-30057215D01*
X209271971Y-30057213D01*
X209392284Y-29891614D01*
X209392285Y-29891613D01*
X209392287Y-29891610D01*
X209439516Y-29798917D01*
X209487489Y-29748123D01*
X209555310Y-29731328D01*
X209621445Y-29753865D01*
X209660485Y-29798919D01*
X209707715Y-29891614D01*
X209828028Y-30057213D01*
X209972786Y-30201971D01*
X210110928Y-30302335D01*
X210138390Y-30322287D01*
X210254607Y-30381503D01*
X210320776Y-30415218D01*
X210320778Y-30415218D01*
X210320781Y-30415220D01*
X210425137Y-30449127D01*
X210515465Y-30478477D01*
X210616557Y-30494488D01*
X210717648Y-30510500D01*
X210717649Y-30510500D01*
X210922351Y-30510500D01*
X210922352Y-30510500D01*
X211124534Y-30478477D01*
X211319219Y-30415220D01*
X211501610Y-30322287D01*
X211594590Y-30254732D01*
X211667213Y-30201971D01*
X211667215Y-30201968D01*
X211667219Y-30201966D01*
X211811966Y-30057219D01*
X211811968Y-30057215D01*
X211811971Y-30057213D01*
X211932284Y-29891614D01*
X211932285Y-29891613D01*
X211932287Y-29891610D01*
X211979516Y-29798917D01*
X212027489Y-29748123D01*
X212095310Y-29731328D01*
X212161445Y-29753865D01*
X212200485Y-29798919D01*
X212247715Y-29891614D01*
X212368028Y-30057213D01*
X212512786Y-30201971D01*
X212650928Y-30302335D01*
X212678390Y-30322287D01*
X212794607Y-30381503D01*
X212860776Y-30415218D01*
X212860778Y-30415218D01*
X212860781Y-30415220D01*
X212965137Y-30449127D01*
X213055465Y-30478477D01*
X213156557Y-30494488D01*
X213257648Y-30510500D01*
X213257649Y-30510500D01*
X213462351Y-30510500D01*
X213462352Y-30510500D01*
X213664534Y-30478477D01*
X213859219Y-30415220D01*
X214041610Y-30322287D01*
X214134590Y-30254732D01*
X214207213Y-30201971D01*
X214207215Y-30201968D01*
X214207219Y-30201966D01*
X214351966Y-30057219D01*
X214351968Y-30057215D01*
X214351971Y-30057213D01*
X214472284Y-29891614D01*
X214472285Y-29891613D01*
X214472287Y-29891610D01*
X214519516Y-29798917D01*
X214567489Y-29748123D01*
X214635310Y-29731328D01*
X214701445Y-29753865D01*
X214740485Y-29798919D01*
X214787715Y-29891614D01*
X214908028Y-30057213D01*
X215052786Y-30201971D01*
X215190928Y-30302335D01*
X215218390Y-30322287D01*
X215334607Y-30381503D01*
X215400776Y-30415218D01*
X215400778Y-30415218D01*
X215400781Y-30415220D01*
X215505137Y-30449127D01*
X215595465Y-30478477D01*
X215696557Y-30494488D01*
X215797648Y-30510500D01*
X215797649Y-30510500D01*
X216002351Y-30510500D01*
X216002352Y-30510500D01*
X216204534Y-30478477D01*
X216399219Y-30415220D01*
X216581610Y-30322287D01*
X216609072Y-30302335D01*
X216747213Y-30201971D01*
X216747215Y-30201968D01*
X216747219Y-30201966D01*
X216891966Y-30057219D01*
X216947766Y-29980415D01*
X217003096Y-29937750D01*
X217072710Y-29931771D01*
X217134505Y-29964376D01*
X217168233Y-30022635D01*
X217173438Y-30043030D01*
X217173442Y-30043043D01*
X217196862Y-30099584D01*
X217957037Y-29339410D01*
X217974075Y-29402993D01*
X218039901Y-29517007D01*
X218132993Y-29610099D01*
X218247007Y-29675925D01*
X218310589Y-29692962D01*
X217550414Y-30453135D01*
X217606960Y-30476557D01*
X217606964Y-30476559D01*
X217657946Y-30494544D01*
X217800219Y-30514999D01*
X217800221Y-30515000D01*
X219079786Y-30515000D01*
X219133762Y-30512106D01*
X219133764Y-30512106D01*
X219273039Y-30476558D01*
X219329584Y-30453136D01*
X219329584Y-30453135D01*
X218569410Y-29692962D01*
X218632993Y-29675925D01*
X218747007Y-29610099D01*
X218840099Y-29517007D01*
X218905925Y-29402993D01*
X218922962Y-29339411D01*
X219683135Y-30099584D01*
X219683136Y-30099584D01*
X219706553Y-30043052D01*
X219716668Y-30014379D01*
X219757533Y-29957706D01*
X219822551Y-29932123D01*
X219891078Y-29945752D01*
X219933924Y-29982744D01*
X219988028Y-30057212D01*
X219988032Y-30057217D01*
X220132786Y-30201971D01*
X220270928Y-30302335D01*
X220298390Y-30322287D01*
X220414607Y-30381503D01*
X220480776Y-30415218D01*
X220480778Y-30415218D01*
X220480781Y-30415220D01*
X220585137Y-30449127D01*
X220675465Y-30478477D01*
X220776557Y-30494488D01*
X220877648Y-30510500D01*
X220877649Y-30510500D01*
X221082351Y-30510500D01*
X221082352Y-30510500D01*
X221284534Y-30478477D01*
X221479219Y-30415220D01*
X221661610Y-30322287D01*
X221754590Y-30254732D01*
X221827213Y-30201971D01*
X221827215Y-30201968D01*
X221827219Y-30201966D01*
X221971966Y-30057219D01*
X221971968Y-30057215D01*
X221971971Y-30057213D01*
X222092284Y-29891614D01*
X222092285Y-29891613D01*
X222092287Y-29891610D01*
X222139516Y-29798917D01*
X222187489Y-29748123D01*
X222255310Y-29731328D01*
X222321445Y-29753865D01*
X222360485Y-29798919D01*
X222407715Y-29891614D01*
X222528028Y-30057213D01*
X222672786Y-30201971D01*
X222810928Y-30302335D01*
X222838390Y-30322287D01*
X222954607Y-30381503D01*
X223020776Y-30415218D01*
X223020778Y-30415218D01*
X223020781Y-30415220D01*
X223125137Y-30449127D01*
X223215465Y-30478477D01*
X223316557Y-30494488D01*
X223417648Y-30510500D01*
X223417649Y-30510500D01*
X223622351Y-30510500D01*
X223622352Y-30510500D01*
X223824534Y-30478477D01*
X224019219Y-30415220D01*
X224201610Y-30322287D01*
X224294590Y-30254732D01*
X224367213Y-30201971D01*
X224367215Y-30201968D01*
X224367219Y-30201966D01*
X224511966Y-30057219D01*
X224511968Y-30057215D01*
X224511971Y-30057213D01*
X224632284Y-29891614D01*
X224632285Y-29891613D01*
X224632287Y-29891610D01*
X224679516Y-29798917D01*
X224727489Y-29748123D01*
X224795310Y-29731328D01*
X224861445Y-29753865D01*
X224900485Y-29798919D01*
X224947715Y-29891614D01*
X225068028Y-30057213D01*
X225212786Y-30201971D01*
X225350928Y-30302335D01*
X225378390Y-30322287D01*
X225494607Y-30381503D01*
X225560776Y-30415218D01*
X225560778Y-30415218D01*
X225560781Y-30415220D01*
X225665137Y-30449127D01*
X225755465Y-30478477D01*
X225856557Y-30494488D01*
X225957648Y-30510500D01*
X225957649Y-30510500D01*
X226162351Y-30510500D01*
X226162352Y-30510500D01*
X226364534Y-30478477D01*
X226559219Y-30415220D01*
X226741610Y-30322287D01*
X226834590Y-30254732D01*
X226907213Y-30201971D01*
X226907215Y-30201968D01*
X226907219Y-30201966D01*
X227051966Y-30057219D01*
X227051968Y-30057215D01*
X227051971Y-30057213D01*
X227172284Y-29891614D01*
X227172285Y-29891613D01*
X227172287Y-29891610D01*
X227219516Y-29798917D01*
X227267489Y-29748123D01*
X227335310Y-29731328D01*
X227401445Y-29753865D01*
X227440485Y-29798919D01*
X227487715Y-29891614D01*
X227608028Y-30057213D01*
X227752786Y-30201971D01*
X227890928Y-30302335D01*
X227918390Y-30322287D01*
X228034607Y-30381503D01*
X228100776Y-30415218D01*
X228100778Y-30415218D01*
X228100781Y-30415220D01*
X228205137Y-30449127D01*
X228295465Y-30478477D01*
X228396557Y-30494488D01*
X228497648Y-30510500D01*
X228497649Y-30510500D01*
X228702351Y-30510500D01*
X228702352Y-30510500D01*
X228904534Y-30478477D01*
X229099219Y-30415220D01*
X229281610Y-30322287D01*
X229309072Y-30302335D01*
X229447213Y-30201971D01*
X229447215Y-30201968D01*
X229447219Y-30201966D01*
X229591966Y-30057219D01*
X229647766Y-29980415D01*
X229703096Y-29937750D01*
X229772710Y-29931771D01*
X229834505Y-29964376D01*
X229868233Y-30022635D01*
X229873438Y-30043030D01*
X229873442Y-30043043D01*
X229896862Y-30099584D01*
X230657037Y-29339410D01*
X230674075Y-29402993D01*
X230739901Y-29517007D01*
X230832993Y-29610099D01*
X230947007Y-29675925D01*
X231010589Y-29692962D01*
X230250414Y-30453135D01*
X230306960Y-30476557D01*
X230306964Y-30476559D01*
X230357946Y-30494544D01*
X230500219Y-30514999D01*
X230500221Y-30515000D01*
X231779786Y-30515000D01*
X231833762Y-30512106D01*
X231833764Y-30512106D01*
X231973039Y-30476558D01*
X232029584Y-30453136D01*
X232029584Y-30453135D01*
X231269410Y-29692962D01*
X231332993Y-29675925D01*
X231447007Y-29610099D01*
X231540099Y-29517007D01*
X231605925Y-29402993D01*
X231622962Y-29339410D01*
X232383136Y-30099584D01*
X232406553Y-30043052D01*
X232416668Y-30014379D01*
X232457533Y-29957706D01*
X232522551Y-29932123D01*
X232591078Y-29945752D01*
X232633924Y-29982744D01*
X232688028Y-30057212D01*
X232688032Y-30057217D01*
X232832786Y-30201971D01*
X232970928Y-30302335D01*
X232998390Y-30322287D01*
X233114607Y-30381503D01*
X233180776Y-30415218D01*
X233180778Y-30415218D01*
X233180781Y-30415220D01*
X233285137Y-30449127D01*
X233375465Y-30478477D01*
X233476557Y-30494488D01*
X233577648Y-30510500D01*
X233577649Y-30510500D01*
X233782351Y-30510500D01*
X233782352Y-30510500D01*
X233984534Y-30478477D01*
X234179219Y-30415220D01*
X234361610Y-30322287D01*
X234454590Y-30254732D01*
X234527213Y-30201971D01*
X234527215Y-30201968D01*
X234527219Y-30201966D01*
X234671966Y-30057219D01*
X234671968Y-30057215D01*
X234671971Y-30057213D01*
X234792284Y-29891614D01*
X234792285Y-29891613D01*
X234792287Y-29891610D01*
X234839516Y-29798917D01*
X234887489Y-29748123D01*
X234955310Y-29731328D01*
X235021445Y-29753865D01*
X235060485Y-29798919D01*
X235107715Y-29891614D01*
X235228028Y-30057213D01*
X235372786Y-30201971D01*
X235510928Y-30302335D01*
X235538390Y-30322287D01*
X235654607Y-30381503D01*
X235720776Y-30415218D01*
X235720778Y-30415218D01*
X235720781Y-30415220D01*
X235825137Y-30449127D01*
X235915465Y-30478477D01*
X236016557Y-30494488D01*
X236117648Y-30510500D01*
X236117649Y-30510500D01*
X236322351Y-30510500D01*
X236322352Y-30510500D01*
X236524534Y-30478477D01*
X236719219Y-30415220D01*
X236901610Y-30322287D01*
X236994590Y-30254732D01*
X237067213Y-30201971D01*
X237067215Y-30201968D01*
X237067219Y-30201966D01*
X237211966Y-30057219D01*
X237211968Y-30057215D01*
X237211971Y-30057213D01*
X237292951Y-29945752D01*
X237332287Y-29891610D01*
X237425220Y-29709219D01*
X237488477Y-29514534D01*
X237520500Y-29312352D01*
X237520500Y-29107648D01*
X237488477Y-28905466D01*
X237487673Y-28902993D01*
X237425218Y-28710776D01*
X237332287Y-28528390D01*
X237225705Y-28381691D01*
X237225704Y-28381690D01*
X237211967Y-28362782D01*
X237161320Y-28312135D01*
X241219500Y-28312135D01*
X241219500Y-30107870D01*
X241219501Y-30107876D01*
X241225908Y-30167483D01*
X241276202Y-30302328D01*
X241276206Y-30302335D01*
X241362452Y-30417544D01*
X241362455Y-30417547D01*
X241477664Y-30503793D01*
X241477671Y-30503797D01*
X241612517Y-30554091D01*
X241612516Y-30554091D01*
X241619444Y-30554835D01*
X241672127Y-30560500D01*
X243467872Y-30560499D01*
X243527483Y-30554091D01*
X243662331Y-30503796D01*
X243777546Y-30417546D01*
X243863796Y-30302331D01*
X243914091Y-30167483D01*
X243920500Y-30107873D01*
X243920499Y-28312128D01*
X243914091Y-28252517D01*
X243901227Y-28218028D01*
X243863797Y-28117671D01*
X243863793Y-28117664D01*
X243777547Y-28002455D01*
X243777544Y-28002452D01*
X243662335Y-27916206D01*
X243662328Y-27916202D01*
X243527482Y-27865908D01*
X243527483Y-27865908D01*
X243467883Y-27859501D01*
X243467881Y-27859500D01*
X243467873Y-27859500D01*
X243467864Y-27859500D01*
X241672129Y-27859500D01*
X241672123Y-27859501D01*
X241612516Y-27865908D01*
X241477671Y-27916202D01*
X241477664Y-27916206D01*
X241362455Y-28002452D01*
X241362452Y-28002455D01*
X241276206Y-28117664D01*
X241276202Y-28117671D01*
X241225908Y-28252517D01*
X241219501Y-28312116D01*
X241219501Y-28312123D01*
X241219500Y-28312135D01*
X237161320Y-28312135D01*
X237067213Y-28218028D01*
X236901613Y-28097715D01*
X236901612Y-28097714D01*
X236901610Y-28097713D01*
X236844653Y-28068691D01*
X236719223Y-28004781D01*
X236524534Y-27941522D01*
X236349995Y-27913878D01*
X236322352Y-27909500D01*
X236117648Y-27909500D01*
X236093329Y-27913351D01*
X235915465Y-27941522D01*
X235720776Y-28004781D01*
X235538386Y-28097715D01*
X235372786Y-28218028D01*
X235228028Y-28362786D01*
X235107715Y-28528386D01*
X235060485Y-28621080D01*
X235012510Y-28671876D01*
X234944689Y-28688671D01*
X234878554Y-28666134D01*
X234839515Y-28621080D01*
X234836057Y-28614294D01*
X234792287Y-28528390D01*
X234757919Y-28481086D01*
X234671971Y-28362786D01*
X234527213Y-28218028D01*
X234361613Y-28097715D01*
X234361612Y-28097714D01*
X234361610Y-28097713D01*
X234304653Y-28068691D01*
X234179223Y-28004781D01*
X233984534Y-27941522D01*
X233809995Y-27913878D01*
X233782352Y-27909500D01*
X233577648Y-27909500D01*
X233553329Y-27913351D01*
X233375465Y-27941522D01*
X233180776Y-28004781D01*
X232998386Y-28097715D01*
X232832786Y-28218028D01*
X232688028Y-28362786D01*
X232567715Y-28528386D01*
X232523942Y-28614295D01*
X232475967Y-28665091D01*
X232408146Y-28681886D01*
X232342011Y-28659348D01*
X232304099Y-28616454D01*
X232268844Y-28550498D01*
X232268838Y-28550488D01*
X232222465Y-28481085D01*
X231622962Y-29080588D01*
X231605925Y-29017007D01*
X231540099Y-28902993D01*
X231447007Y-28809901D01*
X231332993Y-28744075D01*
X231269410Y-28727037D01*
X231868912Y-28127534D01*
X231799511Y-28081161D01*
X231799501Y-28081155D01*
X231712198Y-28034490D01*
X231566612Y-27974185D01*
X231471864Y-27945444D01*
X231317300Y-27914701D01*
X231218790Y-27905000D01*
X231061210Y-27905000D01*
X230962700Y-27914701D01*
X230962697Y-27914701D01*
X230808135Y-27945444D01*
X230713387Y-27974185D01*
X230567801Y-28034490D01*
X230480493Y-28081158D01*
X230411086Y-28127534D01*
X230411085Y-28127534D01*
X231010589Y-28727037D01*
X230947007Y-28744075D01*
X230832993Y-28809901D01*
X230739901Y-28902993D01*
X230674075Y-29017007D01*
X230657037Y-29080588D01*
X230057534Y-28481085D01*
X230057534Y-28481086D01*
X230011155Y-28550497D01*
X229975899Y-28616455D01*
X229926936Y-28666299D01*
X229858798Y-28681758D01*
X229793119Y-28657925D01*
X229756057Y-28614294D01*
X229723546Y-28550488D01*
X229712287Y-28528390D01*
X229712286Y-28528388D01*
X229591971Y-28362786D01*
X229447213Y-28218028D01*
X229281613Y-28097715D01*
X229281612Y-28097714D01*
X229281610Y-28097713D01*
X229224653Y-28068691D01*
X229099223Y-28004781D01*
X228904534Y-27941522D01*
X228729995Y-27913878D01*
X228702352Y-27909500D01*
X228497648Y-27909500D01*
X228473329Y-27913351D01*
X228295465Y-27941522D01*
X228100776Y-28004781D01*
X227918386Y-28097715D01*
X227752786Y-28218028D01*
X227608028Y-28362786D01*
X227487715Y-28528386D01*
X227440485Y-28621080D01*
X227392510Y-28671876D01*
X227324689Y-28688671D01*
X227258554Y-28666134D01*
X227219515Y-28621080D01*
X227216057Y-28614294D01*
X227172287Y-28528390D01*
X227137919Y-28481086D01*
X227051971Y-28362786D01*
X226907213Y-28218028D01*
X226741613Y-28097715D01*
X226741612Y-28097714D01*
X226741610Y-28097713D01*
X226684653Y-28068691D01*
X226559223Y-28004781D01*
X226364534Y-27941522D01*
X226189995Y-27913878D01*
X226162352Y-27909500D01*
X225957648Y-27909500D01*
X225933329Y-27913351D01*
X225755465Y-27941522D01*
X225560776Y-28004781D01*
X225378386Y-28097715D01*
X225212786Y-28218028D01*
X225068028Y-28362786D01*
X224947715Y-28528386D01*
X224900485Y-28621080D01*
X224852510Y-28671876D01*
X224784689Y-28688671D01*
X224718554Y-28666134D01*
X224679515Y-28621080D01*
X224676057Y-28614294D01*
X224632287Y-28528390D01*
X224597919Y-28481086D01*
X224511971Y-28362786D01*
X224367213Y-28218028D01*
X224201613Y-28097715D01*
X224201612Y-28097714D01*
X224201610Y-28097713D01*
X224144653Y-28068691D01*
X224019223Y-28004781D01*
X223824534Y-27941522D01*
X223649995Y-27913878D01*
X223622352Y-27909500D01*
X223417648Y-27909500D01*
X223393329Y-27913351D01*
X223215465Y-27941522D01*
X223020776Y-28004781D01*
X222838386Y-28097715D01*
X222672786Y-28218028D01*
X222528028Y-28362786D01*
X222407715Y-28528386D01*
X222360485Y-28621080D01*
X222312510Y-28671876D01*
X222244689Y-28688671D01*
X222178554Y-28666134D01*
X222139515Y-28621080D01*
X222136057Y-28614294D01*
X222092287Y-28528390D01*
X222057919Y-28481086D01*
X221971971Y-28362786D01*
X221827213Y-28218028D01*
X221661613Y-28097715D01*
X221661612Y-28097714D01*
X221661610Y-28097713D01*
X221604653Y-28068691D01*
X221479223Y-28004781D01*
X221284534Y-27941522D01*
X221109995Y-27913878D01*
X221082352Y-27909500D01*
X220877648Y-27909500D01*
X220853329Y-27913351D01*
X220675465Y-27941522D01*
X220480776Y-28004781D01*
X220298386Y-28097715D01*
X220132786Y-28218028D01*
X219988028Y-28362786D01*
X219867715Y-28528386D01*
X219823942Y-28614295D01*
X219775967Y-28665091D01*
X219708146Y-28681886D01*
X219642011Y-28659348D01*
X219604099Y-28616454D01*
X219568844Y-28550498D01*
X219568838Y-28550488D01*
X219522465Y-28481085D01*
X218922962Y-29080588D01*
X218905925Y-29017007D01*
X218840099Y-28902993D01*
X218747007Y-28809901D01*
X218632993Y-28744075D01*
X218569410Y-28727037D01*
X219168912Y-28127534D01*
X219099511Y-28081161D01*
X219099501Y-28081155D01*
X219012198Y-28034490D01*
X218866612Y-27974185D01*
X218771864Y-27945444D01*
X218617300Y-27914701D01*
X218518790Y-27905000D01*
X218361210Y-27905000D01*
X218262700Y-27914701D01*
X218262697Y-27914701D01*
X218108135Y-27945444D01*
X218013387Y-27974185D01*
X217867801Y-28034490D01*
X217780493Y-28081158D01*
X217711086Y-28127534D01*
X217711085Y-28127534D01*
X218310589Y-28727037D01*
X218247007Y-28744075D01*
X218132993Y-28809901D01*
X218039901Y-28902993D01*
X217974075Y-29017007D01*
X217957037Y-29080588D01*
X217357534Y-28481085D01*
X217357534Y-28481086D01*
X217311155Y-28550497D01*
X217275899Y-28616455D01*
X217226936Y-28666299D01*
X217158798Y-28681758D01*
X217093119Y-28657925D01*
X217056057Y-28614294D01*
X217023546Y-28550488D01*
X217012287Y-28528390D01*
X217012286Y-28528388D01*
X216891971Y-28362786D01*
X216747213Y-28218028D01*
X216581613Y-28097715D01*
X216581612Y-28097714D01*
X216581610Y-28097713D01*
X216524653Y-28068691D01*
X216399223Y-28004781D01*
X216204534Y-27941522D01*
X216029995Y-27913878D01*
X216002352Y-27909500D01*
X215797648Y-27909500D01*
X215773329Y-27913351D01*
X215595465Y-27941522D01*
X215400776Y-28004781D01*
X215218386Y-28097715D01*
X215052786Y-28218028D01*
X214908028Y-28362786D01*
X214787715Y-28528386D01*
X214740485Y-28621080D01*
X214692510Y-28671876D01*
X214624689Y-28688671D01*
X214558554Y-28666134D01*
X214519515Y-28621080D01*
X214516057Y-28614294D01*
X214472287Y-28528390D01*
X214437919Y-28481086D01*
X214351971Y-28362786D01*
X214207213Y-28218028D01*
X214041613Y-28097715D01*
X214041612Y-28097714D01*
X214041610Y-28097713D01*
X213984653Y-28068691D01*
X213859223Y-28004781D01*
X213664534Y-27941522D01*
X213489995Y-27913878D01*
X213462352Y-27909500D01*
X213257648Y-27909500D01*
X213233329Y-27913351D01*
X213055465Y-27941522D01*
X212860776Y-28004781D01*
X212678386Y-28097715D01*
X212512786Y-28218028D01*
X212368028Y-28362786D01*
X212247715Y-28528386D01*
X212200485Y-28621080D01*
X212152510Y-28671876D01*
X212084689Y-28688671D01*
X212018554Y-28666134D01*
X211979515Y-28621080D01*
X211976057Y-28614294D01*
X211932287Y-28528390D01*
X211897919Y-28481086D01*
X211811971Y-28362786D01*
X211667213Y-28218028D01*
X211501613Y-28097715D01*
X211501612Y-28097714D01*
X211501610Y-28097713D01*
X211444653Y-28068691D01*
X211319223Y-28004781D01*
X211124534Y-27941522D01*
X210949995Y-27913878D01*
X210922352Y-27909500D01*
X210717648Y-27909500D01*
X210693329Y-27913351D01*
X210515465Y-27941522D01*
X210320776Y-28004781D01*
X210138386Y-28097715D01*
X209972786Y-28218028D01*
X209828028Y-28362786D01*
X209707715Y-28528386D01*
X209660485Y-28621080D01*
X209612510Y-28671876D01*
X209544689Y-28688671D01*
X209478554Y-28666134D01*
X209439515Y-28621080D01*
X209436057Y-28614294D01*
X209392287Y-28528390D01*
X209357919Y-28481086D01*
X209271971Y-28362786D01*
X209127213Y-28218028D01*
X208961613Y-28097715D01*
X208961612Y-28097714D01*
X208961610Y-28097713D01*
X208904653Y-28068691D01*
X208779223Y-28004781D01*
X208584534Y-27941522D01*
X208409995Y-27913878D01*
X208382352Y-27909500D01*
X208177648Y-27909500D01*
X208153329Y-27913351D01*
X207975465Y-27941522D01*
X207780776Y-28004781D01*
X207598386Y-28097715D01*
X207432786Y-28218028D01*
X207288028Y-28362786D01*
X207167715Y-28528386D01*
X207123942Y-28614295D01*
X207075967Y-28665091D01*
X207008146Y-28681886D01*
X206942011Y-28659348D01*
X206904099Y-28616454D01*
X206868844Y-28550498D01*
X206868838Y-28550488D01*
X206822465Y-28481085D01*
X206222962Y-29080588D01*
X206205925Y-29017007D01*
X206140099Y-28902993D01*
X206047007Y-28809901D01*
X205932993Y-28744075D01*
X205869410Y-28727037D01*
X206468912Y-28127534D01*
X206399511Y-28081161D01*
X206399501Y-28081155D01*
X206312198Y-28034490D01*
X206166612Y-27974185D01*
X206071864Y-27945444D01*
X205917300Y-27914701D01*
X205818790Y-27905000D01*
X205661210Y-27905000D01*
X205562700Y-27914701D01*
X205562697Y-27914701D01*
X205408135Y-27945444D01*
X205313387Y-27974185D01*
X205167801Y-28034490D01*
X205080493Y-28081158D01*
X205011086Y-28127534D01*
X205011085Y-28127534D01*
X205610589Y-28727037D01*
X205547007Y-28744075D01*
X205432993Y-28809901D01*
X205339901Y-28902993D01*
X205274075Y-29017007D01*
X205257037Y-29080588D01*
X204657534Y-28481085D01*
X204657534Y-28481086D01*
X204611155Y-28550497D01*
X204575899Y-28616455D01*
X204526936Y-28666299D01*
X204458798Y-28681758D01*
X204393119Y-28657925D01*
X204356057Y-28614294D01*
X204323546Y-28550488D01*
X204312287Y-28528390D01*
X204312286Y-28528388D01*
X204191971Y-28362786D01*
X204047213Y-28218028D01*
X203881613Y-28097715D01*
X203881612Y-28097714D01*
X203881610Y-28097713D01*
X203824653Y-28068691D01*
X203699223Y-28004781D01*
X203504534Y-27941522D01*
X203329995Y-27913878D01*
X203302352Y-27909500D01*
X203097648Y-27909500D01*
X203073329Y-27913351D01*
X202895465Y-27941522D01*
X202700776Y-28004781D01*
X202518386Y-28097715D01*
X202352786Y-28218028D01*
X202208028Y-28362786D01*
X202087715Y-28528386D01*
X202040485Y-28621080D01*
X201992510Y-28671876D01*
X201924689Y-28688671D01*
X201858554Y-28666134D01*
X201819515Y-28621080D01*
X201816057Y-28614294D01*
X201772287Y-28528390D01*
X201737919Y-28481086D01*
X201651971Y-28362786D01*
X201507213Y-28218028D01*
X201341613Y-28097715D01*
X201341612Y-28097714D01*
X201341610Y-28097713D01*
X201284653Y-28068691D01*
X201159223Y-28004781D01*
X200964534Y-27941522D01*
X200789995Y-27913878D01*
X200762352Y-27909500D01*
X200557648Y-27909500D01*
X200533329Y-27913351D01*
X200355465Y-27941522D01*
X200160776Y-28004781D01*
X199978386Y-28097715D01*
X199812786Y-28218028D01*
X199668028Y-28362786D01*
X199547715Y-28528386D01*
X199500485Y-28621080D01*
X199452510Y-28671876D01*
X199384689Y-28688671D01*
X199318554Y-28666134D01*
X199279515Y-28621080D01*
X199276057Y-28614294D01*
X199232287Y-28528390D01*
X199197919Y-28481086D01*
X199111971Y-28362786D01*
X198967213Y-28218028D01*
X198801613Y-28097715D01*
X198801612Y-28097714D01*
X198801610Y-28097713D01*
X198744653Y-28068691D01*
X198619223Y-28004781D01*
X198424534Y-27941522D01*
X198249995Y-27913878D01*
X198222352Y-27909500D01*
X198017648Y-27909500D01*
X197993329Y-27913351D01*
X197815465Y-27941522D01*
X197620776Y-28004781D01*
X197438386Y-28097715D01*
X197272786Y-28218028D01*
X197128028Y-28362786D01*
X197007715Y-28528386D01*
X196960485Y-28621080D01*
X196912510Y-28671876D01*
X196844689Y-28688671D01*
X196778554Y-28666134D01*
X196739515Y-28621080D01*
X196736057Y-28614294D01*
X196692287Y-28528390D01*
X196657919Y-28481086D01*
X196571971Y-28362786D01*
X196427213Y-28218028D01*
X196261613Y-28097715D01*
X196261612Y-28097714D01*
X196261610Y-28097713D01*
X196204653Y-28068691D01*
X196079223Y-28004781D01*
X195884534Y-27941522D01*
X195709995Y-27913878D01*
X195682352Y-27909500D01*
X195477648Y-27909500D01*
X195453329Y-27913351D01*
X195275465Y-27941522D01*
X195080776Y-28004781D01*
X194898386Y-28097715D01*
X194732786Y-28218028D01*
X194588028Y-28362786D01*
X194467715Y-28528386D01*
X194423942Y-28614295D01*
X194375967Y-28665091D01*
X194308146Y-28681886D01*
X194242011Y-28659348D01*
X194204099Y-28616454D01*
X194168844Y-28550498D01*
X194168838Y-28550488D01*
X194122465Y-28481085D01*
X193522962Y-29080588D01*
X193505925Y-29017007D01*
X193440099Y-28902993D01*
X193347007Y-28809901D01*
X193232993Y-28744075D01*
X193169410Y-28727037D01*
X193768912Y-28127534D01*
X193699511Y-28081161D01*
X193699501Y-28081155D01*
X193612198Y-28034490D01*
X193466612Y-27974185D01*
X193371864Y-27945444D01*
X193217300Y-27914701D01*
X193118790Y-27905000D01*
X192961210Y-27905000D01*
X192862700Y-27914701D01*
X192862697Y-27914701D01*
X192708135Y-27945444D01*
X192613387Y-27974185D01*
X192467801Y-28034490D01*
X192380493Y-28081158D01*
X192311086Y-28127534D01*
X192311085Y-28127534D01*
X192910589Y-28727037D01*
X192847007Y-28744075D01*
X192732993Y-28809901D01*
X192639901Y-28902993D01*
X192574075Y-29017007D01*
X192557037Y-29080588D01*
X191957534Y-28481085D01*
X191957534Y-28481086D01*
X191911155Y-28550497D01*
X191875899Y-28616455D01*
X191826936Y-28666299D01*
X191758798Y-28681758D01*
X191693119Y-28657925D01*
X191656057Y-28614294D01*
X191623546Y-28550488D01*
X191612287Y-28528390D01*
X191612286Y-28528388D01*
X191491971Y-28362786D01*
X191347213Y-28218028D01*
X191181613Y-28097715D01*
X191181612Y-28097714D01*
X191181610Y-28097713D01*
X191124653Y-28068691D01*
X190999223Y-28004781D01*
X190804534Y-27941522D01*
X190629995Y-27913878D01*
X190602352Y-27909500D01*
X190397648Y-27909500D01*
X190373329Y-27913351D01*
X190195465Y-27941522D01*
X190000776Y-28004781D01*
X189818386Y-28097715D01*
X189652786Y-28218028D01*
X189508028Y-28362786D01*
X189387715Y-28528386D01*
X189340485Y-28621080D01*
X189292510Y-28671876D01*
X189224689Y-28688671D01*
X189158554Y-28666134D01*
X189119515Y-28621080D01*
X189116057Y-28614294D01*
X189072287Y-28528390D01*
X189037919Y-28481086D01*
X188951971Y-28362786D01*
X188807213Y-28218028D01*
X188641613Y-28097715D01*
X188641612Y-28097714D01*
X188641610Y-28097713D01*
X188584653Y-28068691D01*
X188459223Y-28004781D01*
X188264534Y-27941522D01*
X188089995Y-27913878D01*
X188062352Y-27909500D01*
X187857648Y-27909500D01*
X187833329Y-27913351D01*
X187655465Y-27941522D01*
X187460776Y-28004781D01*
X187278386Y-28097715D01*
X187112786Y-28218028D01*
X186968028Y-28362786D01*
X186847715Y-28528386D01*
X186754781Y-28710776D01*
X186691522Y-28905465D01*
X186659500Y-29107648D01*
X177902981Y-29107648D01*
X177902938Y-29104474D01*
X177801722Y-21715698D01*
X177820486Y-21648396D01*
X177872658Y-21601922D01*
X177925710Y-21590000D01*
X205604227Y-21590000D01*
X205671266Y-21609685D01*
G37*
%TD.AperFunction*%
%TD*%
M02*
