%TF.GenerationSoftware,KiCad,Pcbnew,9.0.2*%
%TF.CreationDate,2025-06-03T22:33:05+02:00*%
%TF.ProjectId,schaltung,73636861-6c74-4756-9e67-2e6b69636164,rev?*%
%TF.SameCoordinates,Original*%
%TF.FileFunction,Legend,Top*%
%TF.FilePolarity,Positive*%
%FSLAX46Y46*%
G04 Gerber Fmt 4.6, Leading zero omitted, Abs format (unit mm)*
G04 Created by KiCad (PCBNEW 9.0.2) date 2025-06-03 22:33:05*
%MOMM*%
%LPD*%
G01*
G04 APERTURE LIST*
G04 Aperture macros list*
%AMRoundRect*
0 Rectangle with rounded corners*
0 $1 Rounding radius*
0 $2 $3 $4 $5 $6 $7 $8 $9 X,Y pos of 4 corners*
0 Add a 4 corners polygon primitive as box body*
4,1,4,$2,$3,$4,$5,$6,$7,$8,$9,$2,$3,0*
0 Add four circle primitives for the rounded corners*
1,1,$1+$1,$2,$3*
1,1,$1+$1,$4,$5*
1,1,$1+$1,$6,$7*
1,1,$1+$1,$8,$9*
0 Add four rect primitives between the rounded corners*
20,1,$1+$1,$2,$3,$4,$5,0*
20,1,$1+$1,$4,$5,$6,$7,0*
20,1,$1+$1,$6,$7,$8,$9,0*
20,1,$1+$1,$8,$9,$2,$3,0*%
G04 Aperture macros list end*
%ADD10C,0.125000*%
%ADD11C,0.200000*%
%ADD12C,0.150000*%
%ADD13C,0.120000*%
%ADD14C,2.200000*%
%ADD15C,1.600000*%
%ADD16C,4.400000*%
%ADD17RoundRect,0.250002X-1.799998X-1.799998X1.799998X-1.799998X1.799998X1.799998X-1.799998X1.799998X0*%
%ADD18RoundRect,0.250000X-0.312500X-0.625000X0.312500X-0.625000X0.312500X0.625000X-0.312500X0.625000X0*%
%ADD19RoundRect,0.250000X0.362500X1.425000X-0.362500X1.425000X-0.362500X-1.425000X0.362500X-1.425000X0*%
%ADD20R,1.905000X2.000000*%
%ADD21O,1.905000X2.000000*%
%ADD22RoundRect,0.250000X-0.650000X1.000000X-0.650000X-1.000000X0.650000X-1.000000X0.650000X1.000000X0*%
%ADD23RoundRect,0.250000X-0.750000X0.750000X-0.750000X-0.750000X0.750000X-0.750000X0.750000X0.750000X0*%
%ADD24C,2.000000*%
%ADD25RoundRect,0.150000X-0.825000X-0.150000X0.825000X-0.150000X0.825000X0.150000X-0.825000X0.150000X0*%
G04 APERTURE END LIST*
D10*
X110320331Y-69651231D02*
X110320331Y-68651231D01*
X110320331Y-68651231D02*
X110653664Y-69365516D01*
X110653664Y-69365516D02*
X110986997Y-68651231D01*
X110986997Y-68651231D02*
X110986997Y-69651231D01*
X111891759Y-69651231D02*
X111891759Y-69127421D01*
X111891759Y-69127421D02*
X111844140Y-69032183D01*
X111844140Y-69032183D02*
X111748902Y-68984564D01*
X111748902Y-68984564D02*
X111558426Y-68984564D01*
X111558426Y-68984564D02*
X111463188Y-69032183D01*
X111891759Y-69603612D02*
X111796521Y-69651231D01*
X111796521Y-69651231D02*
X111558426Y-69651231D01*
X111558426Y-69651231D02*
X111463188Y-69603612D01*
X111463188Y-69603612D02*
X111415569Y-69508373D01*
X111415569Y-69508373D02*
X111415569Y-69413135D01*
X111415569Y-69413135D02*
X111463188Y-69317897D01*
X111463188Y-69317897D02*
X111558426Y-69270278D01*
X111558426Y-69270278D02*
X111796521Y-69270278D01*
X111796521Y-69270278D02*
X111891759Y-69222659D01*
X112272712Y-69651231D02*
X112796521Y-68984564D01*
X112272712Y-68984564D02*
X112796521Y-69651231D01*
X113177474Y-69555992D02*
X113225093Y-69603612D01*
X113225093Y-69603612D02*
X113177474Y-69651231D01*
X113177474Y-69651231D02*
X113129855Y-69603612D01*
X113129855Y-69603612D02*
X113177474Y-69555992D01*
X113177474Y-69555992D02*
X113177474Y-69651231D01*
X114367950Y-69603612D02*
X114510807Y-69651231D01*
X114510807Y-69651231D02*
X114748902Y-69651231D01*
X114748902Y-69651231D02*
X114844140Y-69603612D01*
X114844140Y-69603612D02*
X114891759Y-69555992D01*
X114891759Y-69555992D02*
X114939378Y-69460754D01*
X114939378Y-69460754D02*
X114939378Y-69365516D01*
X114939378Y-69365516D02*
X114891759Y-69270278D01*
X114891759Y-69270278D02*
X114844140Y-69222659D01*
X114844140Y-69222659D02*
X114748902Y-69175040D01*
X114748902Y-69175040D02*
X114558426Y-69127421D01*
X114558426Y-69127421D02*
X114463188Y-69079802D01*
X114463188Y-69079802D02*
X114415569Y-69032183D01*
X114415569Y-69032183D02*
X114367950Y-68936945D01*
X114367950Y-68936945D02*
X114367950Y-68841707D01*
X114367950Y-68841707D02*
X114415569Y-68746469D01*
X114415569Y-68746469D02*
X114463188Y-68698850D01*
X114463188Y-68698850D02*
X114558426Y-68651231D01*
X114558426Y-68651231D02*
X114796521Y-68651231D01*
X114796521Y-68651231D02*
X114939378Y-68698850D01*
X115367950Y-68984564D02*
X115367950Y-69984564D01*
X115367950Y-69032183D02*
X115463188Y-68984564D01*
X115463188Y-68984564D02*
X115653664Y-68984564D01*
X115653664Y-68984564D02*
X115748902Y-69032183D01*
X115748902Y-69032183D02*
X115796521Y-69079802D01*
X115796521Y-69079802D02*
X115844140Y-69175040D01*
X115844140Y-69175040D02*
X115844140Y-69460754D01*
X115844140Y-69460754D02*
X115796521Y-69555992D01*
X115796521Y-69555992D02*
X115748902Y-69603612D01*
X115748902Y-69603612D02*
X115653664Y-69651231D01*
X115653664Y-69651231D02*
X115463188Y-69651231D01*
X115463188Y-69651231D02*
X115367950Y-69603612D01*
X116701283Y-69651231D02*
X116701283Y-69127421D01*
X116701283Y-69127421D02*
X116653664Y-69032183D01*
X116653664Y-69032183D02*
X116558426Y-68984564D01*
X116558426Y-68984564D02*
X116367950Y-68984564D01*
X116367950Y-68984564D02*
X116272712Y-69032183D01*
X116701283Y-69603612D02*
X116606045Y-69651231D01*
X116606045Y-69651231D02*
X116367950Y-69651231D01*
X116367950Y-69651231D02*
X116272712Y-69603612D01*
X116272712Y-69603612D02*
X116225093Y-69508373D01*
X116225093Y-69508373D02*
X116225093Y-69413135D01*
X116225093Y-69413135D02*
X116272712Y-69317897D01*
X116272712Y-69317897D02*
X116367950Y-69270278D01*
X116367950Y-69270278D02*
X116606045Y-69270278D01*
X116606045Y-69270278D02*
X116701283Y-69222659D01*
X117177474Y-68984564D02*
X117177474Y-69651231D01*
X117177474Y-69079802D02*
X117225093Y-69032183D01*
X117225093Y-69032183D02*
X117320331Y-68984564D01*
X117320331Y-68984564D02*
X117463188Y-68984564D01*
X117463188Y-68984564D02*
X117558426Y-69032183D01*
X117558426Y-69032183D02*
X117606045Y-69127421D01*
X117606045Y-69127421D02*
X117606045Y-69651231D01*
X118082236Y-68984564D02*
X118082236Y-69651231D01*
X118082236Y-69079802D02*
X118129855Y-69032183D01*
X118129855Y-69032183D02*
X118225093Y-68984564D01*
X118225093Y-68984564D02*
X118367950Y-68984564D01*
X118367950Y-68984564D02*
X118463188Y-69032183D01*
X118463188Y-69032183D02*
X118510807Y-69127421D01*
X118510807Y-69127421D02*
X118510807Y-69651231D01*
X119415569Y-68984564D02*
X119415569Y-69651231D01*
X118986998Y-68984564D02*
X118986998Y-69508373D01*
X118986998Y-69508373D02*
X119034617Y-69603612D01*
X119034617Y-69603612D02*
X119129855Y-69651231D01*
X119129855Y-69651231D02*
X119272712Y-69651231D01*
X119272712Y-69651231D02*
X119367950Y-69603612D01*
X119367950Y-69603612D02*
X119415569Y-69555992D01*
X119891760Y-68984564D02*
X119891760Y-69651231D01*
X119891760Y-69079802D02*
X119939379Y-69032183D01*
X119939379Y-69032183D02*
X120034617Y-68984564D01*
X120034617Y-68984564D02*
X120177474Y-68984564D01*
X120177474Y-68984564D02*
X120272712Y-69032183D01*
X120272712Y-69032183D02*
X120320331Y-69127421D01*
X120320331Y-69127421D02*
X120320331Y-69651231D01*
X121225093Y-68984564D02*
X121225093Y-69794088D01*
X121225093Y-69794088D02*
X121177474Y-69889326D01*
X121177474Y-69889326D02*
X121129855Y-69936945D01*
X121129855Y-69936945D02*
X121034617Y-69984564D01*
X121034617Y-69984564D02*
X120891760Y-69984564D01*
X120891760Y-69984564D02*
X120796522Y-69936945D01*
X121225093Y-69603612D02*
X121129855Y-69651231D01*
X121129855Y-69651231D02*
X120939379Y-69651231D01*
X120939379Y-69651231D02*
X120844141Y-69603612D01*
X120844141Y-69603612D02*
X120796522Y-69555992D01*
X120796522Y-69555992D02*
X120748903Y-69460754D01*
X120748903Y-69460754D02*
X120748903Y-69175040D01*
X120748903Y-69175040D02*
X120796522Y-69079802D01*
X120796522Y-69079802D02*
X120844141Y-69032183D01*
X120844141Y-69032183D02*
X120939379Y-68984564D01*
X120939379Y-68984564D02*
X121129855Y-68984564D01*
X121129855Y-68984564D02*
X121225093Y-69032183D01*
X121701284Y-69555992D02*
X121748903Y-69603612D01*
X121748903Y-69603612D02*
X121701284Y-69651231D01*
X121701284Y-69651231D02*
X121653665Y-69603612D01*
X121653665Y-69603612D02*
X121701284Y-69555992D01*
X121701284Y-69555992D02*
X121701284Y-69651231D01*
X121701284Y-69032183D02*
X121748903Y-69079802D01*
X121748903Y-69079802D02*
X121701284Y-69127421D01*
X121701284Y-69127421D02*
X121653665Y-69079802D01*
X121653665Y-69079802D02*
X121701284Y-69032183D01*
X121701284Y-69032183D02*
X121701284Y-69127421D01*
X123463188Y-69651231D02*
X122891760Y-69651231D01*
X123177474Y-69651231D02*
X123177474Y-68651231D01*
X123177474Y-68651231D02*
X123082236Y-68794088D01*
X123082236Y-68794088D02*
X122986998Y-68889326D01*
X122986998Y-68889326D02*
X122891760Y-68936945D01*
X124034617Y-69079802D02*
X123939379Y-69032183D01*
X123939379Y-69032183D02*
X123891760Y-68984564D01*
X123891760Y-68984564D02*
X123844141Y-68889326D01*
X123844141Y-68889326D02*
X123844141Y-68841707D01*
X123844141Y-68841707D02*
X123891760Y-68746469D01*
X123891760Y-68746469D02*
X123939379Y-68698850D01*
X123939379Y-68698850D02*
X124034617Y-68651231D01*
X124034617Y-68651231D02*
X124225093Y-68651231D01*
X124225093Y-68651231D02*
X124320331Y-68698850D01*
X124320331Y-68698850D02*
X124367950Y-68746469D01*
X124367950Y-68746469D02*
X124415569Y-68841707D01*
X124415569Y-68841707D02*
X124415569Y-68889326D01*
X124415569Y-68889326D02*
X124367950Y-68984564D01*
X124367950Y-68984564D02*
X124320331Y-69032183D01*
X124320331Y-69032183D02*
X124225093Y-69079802D01*
X124225093Y-69079802D02*
X124034617Y-69079802D01*
X124034617Y-69079802D02*
X123939379Y-69127421D01*
X123939379Y-69127421D02*
X123891760Y-69175040D01*
X123891760Y-69175040D02*
X123844141Y-69270278D01*
X123844141Y-69270278D02*
X123844141Y-69460754D01*
X123844141Y-69460754D02*
X123891760Y-69555992D01*
X123891760Y-69555992D02*
X123939379Y-69603612D01*
X123939379Y-69603612D02*
X124034617Y-69651231D01*
X124034617Y-69651231D02*
X124225093Y-69651231D01*
X124225093Y-69651231D02*
X124320331Y-69603612D01*
X124320331Y-69603612D02*
X124367950Y-69555992D01*
X124367950Y-69555992D02*
X124415569Y-69460754D01*
X124415569Y-69460754D02*
X124415569Y-69270278D01*
X124415569Y-69270278D02*
X124367950Y-69175040D01*
X124367950Y-69175040D02*
X124320331Y-69127421D01*
X124320331Y-69127421D02*
X124225093Y-69079802D01*
X124701284Y-68651231D02*
X125034617Y-69651231D01*
X125034617Y-69651231D02*
X125367950Y-68651231D01*
X110320331Y-71261175D02*
X110320331Y-70261175D01*
X110320331Y-70261175D02*
X110653664Y-70975460D01*
X110653664Y-70975460D02*
X110986997Y-70261175D01*
X110986997Y-70261175D02*
X110986997Y-71261175D01*
X111891759Y-71261175D02*
X111891759Y-70737365D01*
X111891759Y-70737365D02*
X111844140Y-70642127D01*
X111844140Y-70642127D02*
X111748902Y-70594508D01*
X111748902Y-70594508D02*
X111558426Y-70594508D01*
X111558426Y-70594508D02*
X111463188Y-70642127D01*
X111891759Y-71213556D02*
X111796521Y-71261175D01*
X111796521Y-71261175D02*
X111558426Y-71261175D01*
X111558426Y-71261175D02*
X111463188Y-71213556D01*
X111463188Y-71213556D02*
X111415569Y-71118317D01*
X111415569Y-71118317D02*
X111415569Y-71023079D01*
X111415569Y-71023079D02*
X111463188Y-70927841D01*
X111463188Y-70927841D02*
X111558426Y-70880222D01*
X111558426Y-70880222D02*
X111796521Y-70880222D01*
X111796521Y-70880222D02*
X111891759Y-70832603D01*
X112272712Y-71261175D02*
X112796521Y-70594508D01*
X112272712Y-70594508D02*
X112796521Y-71261175D01*
X113177474Y-71165936D02*
X113225093Y-71213556D01*
X113225093Y-71213556D02*
X113177474Y-71261175D01*
X113177474Y-71261175D02*
X113129855Y-71213556D01*
X113129855Y-71213556D02*
X113177474Y-71165936D01*
X113177474Y-71165936D02*
X113177474Y-71261175D01*
X114367950Y-71213556D02*
X114510807Y-71261175D01*
X114510807Y-71261175D02*
X114748902Y-71261175D01*
X114748902Y-71261175D02*
X114844140Y-71213556D01*
X114844140Y-71213556D02*
X114891759Y-71165936D01*
X114891759Y-71165936D02*
X114939378Y-71070698D01*
X114939378Y-71070698D02*
X114939378Y-70975460D01*
X114939378Y-70975460D02*
X114891759Y-70880222D01*
X114891759Y-70880222D02*
X114844140Y-70832603D01*
X114844140Y-70832603D02*
X114748902Y-70784984D01*
X114748902Y-70784984D02*
X114558426Y-70737365D01*
X114558426Y-70737365D02*
X114463188Y-70689746D01*
X114463188Y-70689746D02*
X114415569Y-70642127D01*
X114415569Y-70642127D02*
X114367950Y-70546889D01*
X114367950Y-70546889D02*
X114367950Y-70451651D01*
X114367950Y-70451651D02*
X114415569Y-70356413D01*
X114415569Y-70356413D02*
X114463188Y-70308794D01*
X114463188Y-70308794D02*
X114558426Y-70261175D01*
X114558426Y-70261175D02*
X114796521Y-70261175D01*
X114796521Y-70261175D02*
X114939378Y-70308794D01*
X115225093Y-70594508D02*
X115606045Y-70594508D01*
X115367950Y-70261175D02*
X115367950Y-71118317D01*
X115367950Y-71118317D02*
X115415569Y-71213556D01*
X115415569Y-71213556D02*
X115510807Y-71261175D01*
X115510807Y-71261175D02*
X115606045Y-71261175D01*
X115939379Y-71261175D02*
X115939379Y-70594508D01*
X115939379Y-70784984D02*
X115986998Y-70689746D01*
X115986998Y-70689746D02*
X116034617Y-70642127D01*
X116034617Y-70642127D02*
X116129855Y-70594508D01*
X116129855Y-70594508D02*
X116225093Y-70594508D01*
X116701284Y-71261175D02*
X116606046Y-71213556D01*
X116606046Y-71213556D02*
X116558427Y-71165936D01*
X116558427Y-71165936D02*
X116510808Y-71070698D01*
X116510808Y-71070698D02*
X116510808Y-70784984D01*
X116510808Y-70784984D02*
X116558427Y-70689746D01*
X116558427Y-70689746D02*
X116606046Y-70642127D01*
X116606046Y-70642127D02*
X116701284Y-70594508D01*
X116701284Y-70594508D02*
X116844141Y-70594508D01*
X116844141Y-70594508D02*
X116939379Y-70642127D01*
X116939379Y-70642127D02*
X116986998Y-70689746D01*
X116986998Y-70689746D02*
X117034617Y-70784984D01*
X117034617Y-70784984D02*
X117034617Y-71070698D01*
X117034617Y-71070698D02*
X116986998Y-71165936D01*
X116986998Y-71165936D02*
X116939379Y-71213556D01*
X116939379Y-71213556D02*
X116844141Y-71261175D01*
X116844141Y-71261175D02*
X116701284Y-71261175D01*
X117463189Y-71261175D02*
X117463189Y-70594508D01*
X117463189Y-70689746D02*
X117510808Y-70642127D01*
X117510808Y-70642127D02*
X117606046Y-70594508D01*
X117606046Y-70594508D02*
X117748903Y-70594508D01*
X117748903Y-70594508D02*
X117844141Y-70642127D01*
X117844141Y-70642127D02*
X117891760Y-70737365D01*
X117891760Y-70737365D02*
X117891760Y-71261175D01*
X117891760Y-70737365D02*
X117939379Y-70642127D01*
X117939379Y-70642127D02*
X118034617Y-70594508D01*
X118034617Y-70594508D02*
X118177474Y-70594508D01*
X118177474Y-70594508D02*
X118272713Y-70642127D01*
X118272713Y-70642127D02*
X118320332Y-70737365D01*
X118320332Y-70737365D02*
X118320332Y-71261175D01*
X118748903Y-71213556D02*
X118844141Y-71261175D01*
X118844141Y-71261175D02*
X119034617Y-71261175D01*
X119034617Y-71261175D02*
X119129855Y-71213556D01*
X119129855Y-71213556D02*
X119177474Y-71118317D01*
X119177474Y-71118317D02*
X119177474Y-71070698D01*
X119177474Y-71070698D02*
X119129855Y-70975460D01*
X119129855Y-70975460D02*
X119034617Y-70927841D01*
X119034617Y-70927841D02*
X118891760Y-70927841D01*
X118891760Y-70927841D02*
X118796522Y-70880222D01*
X118796522Y-70880222D02*
X118748903Y-70784984D01*
X118748903Y-70784984D02*
X118748903Y-70737365D01*
X118748903Y-70737365D02*
X118796522Y-70642127D01*
X118796522Y-70642127D02*
X118891760Y-70594508D01*
X118891760Y-70594508D02*
X119034617Y-70594508D01*
X119034617Y-70594508D02*
X119129855Y-70642127D01*
X119463189Y-70594508D02*
X119844141Y-70594508D01*
X119606046Y-70261175D02*
X119606046Y-71118317D01*
X119606046Y-71118317D02*
X119653665Y-71213556D01*
X119653665Y-71213556D02*
X119748903Y-71261175D01*
X119748903Y-71261175D02*
X119844141Y-71261175D01*
X120606046Y-71261175D02*
X120606046Y-70737365D01*
X120606046Y-70737365D02*
X120558427Y-70642127D01*
X120558427Y-70642127D02*
X120463189Y-70594508D01*
X120463189Y-70594508D02*
X120272713Y-70594508D01*
X120272713Y-70594508D02*
X120177475Y-70642127D01*
X120606046Y-71213556D02*
X120510808Y-71261175D01*
X120510808Y-71261175D02*
X120272713Y-71261175D01*
X120272713Y-71261175D02*
X120177475Y-71213556D01*
X120177475Y-71213556D02*
X120129856Y-71118317D01*
X120129856Y-71118317D02*
X120129856Y-71023079D01*
X120129856Y-71023079D02*
X120177475Y-70927841D01*
X120177475Y-70927841D02*
X120272713Y-70880222D01*
X120272713Y-70880222D02*
X120510808Y-70880222D01*
X120510808Y-70880222D02*
X120606046Y-70832603D01*
X120177475Y-70261175D02*
X120225094Y-70308794D01*
X120225094Y-70308794D02*
X120177475Y-70356413D01*
X120177475Y-70356413D02*
X120129856Y-70308794D01*
X120129856Y-70308794D02*
X120177475Y-70261175D01*
X120177475Y-70261175D02*
X120177475Y-70356413D01*
X120558427Y-70261175D02*
X120606046Y-70308794D01*
X120606046Y-70308794D02*
X120558427Y-70356413D01*
X120558427Y-70356413D02*
X120510808Y-70308794D01*
X120510808Y-70308794D02*
X120558427Y-70261175D01*
X120558427Y-70261175D02*
X120558427Y-70356413D01*
X121082237Y-71261175D02*
X121082237Y-70594508D01*
X121082237Y-70784984D02*
X121129856Y-70689746D01*
X121129856Y-70689746D02*
X121177475Y-70642127D01*
X121177475Y-70642127D02*
X121272713Y-70594508D01*
X121272713Y-70594508D02*
X121367951Y-70594508D01*
X121701285Y-71261175D02*
X121701285Y-70261175D01*
X121796523Y-70880222D02*
X122082237Y-71261175D01*
X122082237Y-70594508D02*
X121701285Y-70975460D01*
X122891761Y-71213556D02*
X122796523Y-71261175D01*
X122796523Y-71261175D02*
X122606047Y-71261175D01*
X122606047Y-71261175D02*
X122510809Y-71213556D01*
X122510809Y-71213556D02*
X122463190Y-71118317D01*
X122463190Y-71118317D02*
X122463190Y-70737365D01*
X122463190Y-70737365D02*
X122510809Y-70642127D01*
X122510809Y-70642127D02*
X122606047Y-70594508D01*
X122606047Y-70594508D02*
X122796523Y-70594508D01*
X122796523Y-70594508D02*
X122891761Y-70642127D01*
X122891761Y-70642127D02*
X122939380Y-70737365D01*
X122939380Y-70737365D02*
X122939380Y-70832603D01*
X122939380Y-70832603D02*
X122463190Y-70927841D01*
X123367952Y-71165936D02*
X123415571Y-71213556D01*
X123415571Y-71213556D02*
X123367952Y-71261175D01*
X123367952Y-71261175D02*
X123320333Y-71213556D01*
X123320333Y-71213556D02*
X123367952Y-71165936D01*
X123367952Y-71165936D02*
X123367952Y-71261175D01*
X123367952Y-70642127D02*
X123415571Y-70689746D01*
X123415571Y-70689746D02*
X123367952Y-70737365D01*
X123367952Y-70737365D02*
X123320333Y-70689746D01*
X123320333Y-70689746D02*
X123367952Y-70642127D01*
X123367952Y-70642127D02*
X123367952Y-70737365D01*
X124558428Y-70356413D02*
X124606047Y-70308794D01*
X124606047Y-70308794D02*
X124701285Y-70261175D01*
X124701285Y-70261175D02*
X124939380Y-70261175D01*
X124939380Y-70261175D02*
X125034618Y-70308794D01*
X125034618Y-70308794D02*
X125082237Y-70356413D01*
X125082237Y-70356413D02*
X125129856Y-70451651D01*
X125129856Y-70451651D02*
X125129856Y-70546889D01*
X125129856Y-70546889D02*
X125082237Y-70689746D01*
X125082237Y-70689746D02*
X124510809Y-71261175D01*
X124510809Y-71261175D02*
X125129856Y-71261175D01*
X125510809Y-70975460D02*
X125986999Y-70975460D01*
X125415571Y-71261175D02*
X125748904Y-70261175D01*
X125748904Y-70261175D02*
X126082237Y-71261175D01*
X110510807Y-71871119D02*
X110701283Y-71871119D01*
X110701283Y-71871119D02*
X110796521Y-71918738D01*
X110796521Y-71918738D02*
X110891759Y-72013976D01*
X110891759Y-72013976D02*
X110939378Y-72204452D01*
X110939378Y-72204452D02*
X110939378Y-72537785D01*
X110939378Y-72537785D02*
X110891759Y-72728261D01*
X110891759Y-72728261D02*
X110796521Y-72823500D01*
X110796521Y-72823500D02*
X110701283Y-72871119D01*
X110701283Y-72871119D02*
X110510807Y-72871119D01*
X110510807Y-72871119D02*
X110415569Y-72823500D01*
X110415569Y-72823500D02*
X110320331Y-72728261D01*
X110320331Y-72728261D02*
X110272712Y-72537785D01*
X110272712Y-72537785D02*
X110272712Y-72204452D01*
X110272712Y-72204452D02*
X110320331Y-72013976D01*
X110320331Y-72013976D02*
X110415569Y-71918738D01*
X110415569Y-71918738D02*
X110510807Y-71871119D01*
X111796521Y-72204452D02*
X111796521Y-72871119D01*
X111367950Y-72204452D02*
X111367950Y-72728261D01*
X111367950Y-72728261D02*
X111415569Y-72823500D01*
X111415569Y-72823500D02*
X111510807Y-72871119D01*
X111510807Y-72871119D02*
X111653664Y-72871119D01*
X111653664Y-72871119D02*
X111748902Y-72823500D01*
X111748902Y-72823500D02*
X111796521Y-72775880D01*
X112129855Y-72204452D02*
X112510807Y-72204452D01*
X112272712Y-71871119D02*
X112272712Y-72728261D01*
X112272712Y-72728261D02*
X112320331Y-72823500D01*
X112320331Y-72823500D02*
X112415569Y-72871119D01*
X112415569Y-72871119D02*
X112510807Y-72871119D01*
X112844141Y-72204452D02*
X112844141Y-73204452D01*
X112844141Y-72252071D02*
X112939379Y-72204452D01*
X112939379Y-72204452D02*
X113129855Y-72204452D01*
X113129855Y-72204452D02*
X113225093Y-72252071D01*
X113225093Y-72252071D02*
X113272712Y-72299690D01*
X113272712Y-72299690D02*
X113320331Y-72394928D01*
X113320331Y-72394928D02*
X113320331Y-72680642D01*
X113320331Y-72680642D02*
X113272712Y-72775880D01*
X113272712Y-72775880D02*
X113225093Y-72823500D01*
X113225093Y-72823500D02*
X113129855Y-72871119D01*
X113129855Y-72871119D02*
X112939379Y-72871119D01*
X112939379Y-72871119D02*
X112844141Y-72823500D01*
X114177474Y-72204452D02*
X114177474Y-72871119D01*
X113748903Y-72204452D02*
X113748903Y-72728261D01*
X113748903Y-72728261D02*
X113796522Y-72823500D01*
X113796522Y-72823500D02*
X113891760Y-72871119D01*
X113891760Y-72871119D02*
X114034617Y-72871119D01*
X114034617Y-72871119D02*
X114129855Y-72823500D01*
X114129855Y-72823500D02*
X114177474Y-72775880D01*
X114510808Y-72204452D02*
X114891760Y-72204452D01*
X114653665Y-71871119D02*
X114653665Y-72728261D01*
X114653665Y-72728261D02*
X114701284Y-72823500D01*
X114701284Y-72823500D02*
X114796522Y-72871119D01*
X114796522Y-72871119D02*
X114891760Y-72871119D01*
X115225094Y-72775880D02*
X115272713Y-72823500D01*
X115272713Y-72823500D02*
X115225094Y-72871119D01*
X115225094Y-72871119D02*
X115177475Y-72823500D01*
X115177475Y-72823500D02*
X115225094Y-72775880D01*
X115225094Y-72775880D02*
X115225094Y-72871119D01*
X115225094Y-72252071D02*
X115272713Y-72299690D01*
X115272713Y-72299690D02*
X115225094Y-72347309D01*
X115225094Y-72347309D02*
X115177475Y-72299690D01*
X115177475Y-72299690D02*
X115225094Y-72252071D01*
X115225094Y-72252071D02*
X115225094Y-72347309D01*
X116653665Y-71871119D02*
X116748903Y-71871119D01*
X116748903Y-71871119D02*
X116844141Y-71918738D01*
X116844141Y-71918738D02*
X116891760Y-71966357D01*
X116891760Y-71966357D02*
X116939379Y-72061595D01*
X116939379Y-72061595D02*
X116986998Y-72252071D01*
X116986998Y-72252071D02*
X116986998Y-72490166D01*
X116986998Y-72490166D02*
X116939379Y-72680642D01*
X116939379Y-72680642D02*
X116891760Y-72775880D01*
X116891760Y-72775880D02*
X116844141Y-72823500D01*
X116844141Y-72823500D02*
X116748903Y-72871119D01*
X116748903Y-72871119D02*
X116653665Y-72871119D01*
X116653665Y-72871119D02*
X116558427Y-72823500D01*
X116558427Y-72823500D02*
X116510808Y-72775880D01*
X116510808Y-72775880D02*
X116463189Y-72680642D01*
X116463189Y-72680642D02*
X116415570Y-72490166D01*
X116415570Y-72490166D02*
X116415570Y-72252071D01*
X116415570Y-72252071D02*
X116463189Y-72061595D01*
X116463189Y-72061595D02*
X116510808Y-71966357D01*
X116510808Y-71966357D02*
X116558427Y-71918738D01*
X116558427Y-71918738D02*
X116653665Y-71871119D01*
X117415570Y-72490166D02*
X118177475Y-72490166D01*
X119177474Y-72871119D02*
X118606046Y-72871119D01*
X118891760Y-72871119D02*
X118891760Y-71871119D01*
X118891760Y-71871119D02*
X118796522Y-72013976D01*
X118796522Y-72013976D02*
X118701284Y-72109214D01*
X118701284Y-72109214D02*
X118606046Y-72156833D01*
X119748903Y-72299690D02*
X119653665Y-72252071D01*
X119653665Y-72252071D02*
X119606046Y-72204452D01*
X119606046Y-72204452D02*
X119558427Y-72109214D01*
X119558427Y-72109214D02*
X119558427Y-72061595D01*
X119558427Y-72061595D02*
X119606046Y-71966357D01*
X119606046Y-71966357D02*
X119653665Y-71918738D01*
X119653665Y-71918738D02*
X119748903Y-71871119D01*
X119748903Y-71871119D02*
X119939379Y-71871119D01*
X119939379Y-71871119D02*
X120034617Y-71918738D01*
X120034617Y-71918738D02*
X120082236Y-71966357D01*
X120082236Y-71966357D02*
X120129855Y-72061595D01*
X120129855Y-72061595D02*
X120129855Y-72109214D01*
X120129855Y-72109214D02*
X120082236Y-72204452D01*
X120082236Y-72204452D02*
X120034617Y-72252071D01*
X120034617Y-72252071D02*
X119939379Y-72299690D01*
X119939379Y-72299690D02*
X119748903Y-72299690D01*
X119748903Y-72299690D02*
X119653665Y-72347309D01*
X119653665Y-72347309D02*
X119606046Y-72394928D01*
X119606046Y-72394928D02*
X119558427Y-72490166D01*
X119558427Y-72490166D02*
X119558427Y-72680642D01*
X119558427Y-72680642D02*
X119606046Y-72775880D01*
X119606046Y-72775880D02*
X119653665Y-72823500D01*
X119653665Y-72823500D02*
X119748903Y-72871119D01*
X119748903Y-72871119D02*
X119939379Y-72871119D01*
X119939379Y-72871119D02*
X120034617Y-72823500D01*
X120034617Y-72823500D02*
X120082236Y-72775880D01*
X120082236Y-72775880D02*
X120129855Y-72680642D01*
X120129855Y-72680642D02*
X120129855Y-72490166D01*
X120129855Y-72490166D02*
X120082236Y-72394928D01*
X120082236Y-72394928D02*
X120034617Y-72347309D01*
X120034617Y-72347309D02*
X119939379Y-72299690D01*
X120415570Y-71871119D02*
X120748903Y-72871119D01*
X120748903Y-72871119D02*
X121082236Y-71871119D01*
D11*
X109369673Y-65757275D02*
X109369673Y-64757275D01*
X109369673Y-64757275D02*
X109607768Y-64757275D01*
X109607768Y-64757275D02*
X109750625Y-64804894D01*
X109750625Y-64804894D02*
X109845863Y-64900132D01*
X109845863Y-64900132D02*
X109893482Y-64995370D01*
X109893482Y-64995370D02*
X109941101Y-65185846D01*
X109941101Y-65185846D02*
X109941101Y-65328703D01*
X109941101Y-65328703D02*
X109893482Y-65519179D01*
X109893482Y-65519179D02*
X109845863Y-65614417D01*
X109845863Y-65614417D02*
X109750625Y-65709656D01*
X109750625Y-65709656D02*
X109607768Y-65757275D01*
X109607768Y-65757275D02*
X109369673Y-65757275D01*
X110941101Y-65662036D02*
X110893482Y-65709656D01*
X110893482Y-65709656D02*
X110750625Y-65757275D01*
X110750625Y-65757275D02*
X110655387Y-65757275D01*
X110655387Y-65757275D02*
X110512530Y-65709656D01*
X110512530Y-65709656D02*
X110417292Y-65614417D01*
X110417292Y-65614417D02*
X110369673Y-65519179D01*
X110369673Y-65519179D02*
X110322054Y-65328703D01*
X110322054Y-65328703D02*
X110322054Y-65185846D01*
X110322054Y-65185846D02*
X110369673Y-64995370D01*
X110369673Y-64995370D02*
X110417292Y-64900132D01*
X110417292Y-64900132D02*
X110512530Y-64804894D01*
X110512530Y-64804894D02*
X110655387Y-64757275D01*
X110655387Y-64757275D02*
X110750625Y-64757275D01*
X110750625Y-64757275D02*
X110893482Y-64804894D01*
X110893482Y-64804894D02*
X110941101Y-64852513D01*
X111369673Y-65376322D02*
X112131578Y-65376322D01*
X112607768Y-65757275D02*
X112607768Y-64757275D01*
X112607768Y-64757275D02*
X112845863Y-64757275D01*
X112845863Y-64757275D02*
X112988720Y-64804894D01*
X112988720Y-64804894D02*
X113083958Y-64900132D01*
X113083958Y-64900132D02*
X113131577Y-64995370D01*
X113131577Y-64995370D02*
X113179196Y-65185846D01*
X113179196Y-65185846D02*
X113179196Y-65328703D01*
X113179196Y-65328703D02*
X113131577Y-65519179D01*
X113131577Y-65519179D02*
X113083958Y-65614417D01*
X113083958Y-65614417D02*
X112988720Y-65709656D01*
X112988720Y-65709656D02*
X112845863Y-65757275D01*
X112845863Y-65757275D02*
X112607768Y-65757275D01*
X114179196Y-65662036D02*
X114131577Y-65709656D01*
X114131577Y-65709656D02*
X113988720Y-65757275D01*
X113988720Y-65757275D02*
X113893482Y-65757275D01*
X113893482Y-65757275D02*
X113750625Y-65709656D01*
X113750625Y-65709656D02*
X113655387Y-65614417D01*
X113655387Y-65614417D02*
X113607768Y-65519179D01*
X113607768Y-65519179D02*
X113560149Y-65328703D01*
X113560149Y-65328703D02*
X113560149Y-65185846D01*
X113560149Y-65185846D02*
X113607768Y-64995370D01*
X113607768Y-64995370D02*
X113655387Y-64900132D01*
X113655387Y-64900132D02*
X113750625Y-64804894D01*
X113750625Y-64804894D02*
X113893482Y-64757275D01*
X113893482Y-64757275D02*
X113988720Y-64757275D01*
X113988720Y-64757275D02*
X114131577Y-64804894D01*
X114131577Y-64804894D02*
X114179196Y-64852513D01*
X115703006Y-65233465D02*
X115845863Y-65281084D01*
X115845863Y-65281084D02*
X115893482Y-65328703D01*
X115893482Y-65328703D02*
X115941101Y-65423941D01*
X115941101Y-65423941D02*
X115941101Y-65566798D01*
X115941101Y-65566798D02*
X115893482Y-65662036D01*
X115893482Y-65662036D02*
X115845863Y-65709656D01*
X115845863Y-65709656D02*
X115750625Y-65757275D01*
X115750625Y-65757275D02*
X115369673Y-65757275D01*
X115369673Y-65757275D02*
X115369673Y-64757275D01*
X115369673Y-64757275D02*
X115703006Y-64757275D01*
X115703006Y-64757275D02*
X115798244Y-64804894D01*
X115798244Y-64804894D02*
X115845863Y-64852513D01*
X115845863Y-64852513D02*
X115893482Y-64947751D01*
X115893482Y-64947751D02*
X115893482Y-65042989D01*
X115893482Y-65042989D02*
X115845863Y-65138227D01*
X115845863Y-65138227D02*
X115798244Y-65185846D01*
X115798244Y-65185846D02*
X115703006Y-65233465D01*
X115703006Y-65233465D02*
X115369673Y-65233465D01*
X116798244Y-65090608D02*
X116798244Y-65757275D01*
X116369673Y-65090608D02*
X116369673Y-65614417D01*
X116369673Y-65614417D02*
X116417292Y-65709656D01*
X116417292Y-65709656D02*
X116512530Y-65757275D01*
X116512530Y-65757275D02*
X116655387Y-65757275D01*
X116655387Y-65757275D02*
X116750625Y-65709656D01*
X116750625Y-65709656D02*
X116798244Y-65662036D01*
X117703006Y-65709656D02*
X117607768Y-65757275D01*
X117607768Y-65757275D02*
X117417292Y-65757275D01*
X117417292Y-65757275D02*
X117322054Y-65709656D01*
X117322054Y-65709656D02*
X117274435Y-65662036D01*
X117274435Y-65662036D02*
X117226816Y-65566798D01*
X117226816Y-65566798D02*
X117226816Y-65281084D01*
X117226816Y-65281084D02*
X117274435Y-65185846D01*
X117274435Y-65185846D02*
X117322054Y-65138227D01*
X117322054Y-65138227D02*
X117417292Y-65090608D01*
X117417292Y-65090608D02*
X117607768Y-65090608D01*
X117607768Y-65090608D02*
X117703006Y-65138227D01*
X118131578Y-65757275D02*
X118131578Y-64757275D01*
X118226816Y-65376322D02*
X118512530Y-65757275D01*
X118512530Y-65090608D02*
X118131578Y-65471560D01*
X119703007Y-65757275D02*
X119703007Y-64757275D01*
X119703007Y-64757275D02*
X119941102Y-64757275D01*
X119941102Y-64757275D02*
X120083959Y-64804894D01*
X120083959Y-64804894D02*
X120179197Y-64900132D01*
X120179197Y-64900132D02*
X120226816Y-64995370D01*
X120226816Y-64995370D02*
X120274435Y-65185846D01*
X120274435Y-65185846D02*
X120274435Y-65328703D01*
X120274435Y-65328703D02*
X120226816Y-65519179D01*
X120226816Y-65519179D02*
X120179197Y-65614417D01*
X120179197Y-65614417D02*
X120083959Y-65709656D01*
X120083959Y-65709656D02*
X119941102Y-65757275D01*
X119941102Y-65757275D02*
X119703007Y-65757275D01*
X120845864Y-65757275D02*
X120750626Y-65709656D01*
X120750626Y-65709656D02*
X120703007Y-65662036D01*
X120703007Y-65662036D02*
X120655388Y-65566798D01*
X120655388Y-65566798D02*
X120655388Y-65281084D01*
X120655388Y-65281084D02*
X120703007Y-65185846D01*
X120703007Y-65185846D02*
X120750626Y-65138227D01*
X120750626Y-65138227D02*
X120845864Y-65090608D01*
X120845864Y-65090608D02*
X120988721Y-65090608D01*
X120988721Y-65090608D02*
X121083959Y-65138227D01*
X121083959Y-65138227D02*
X121131578Y-65185846D01*
X121131578Y-65185846D02*
X121179197Y-65281084D01*
X121179197Y-65281084D02*
X121179197Y-65566798D01*
X121179197Y-65566798D02*
X121131578Y-65662036D01*
X121131578Y-65662036D02*
X121083959Y-65709656D01*
X121083959Y-65709656D02*
X120988721Y-65757275D01*
X120988721Y-65757275D02*
X120845864Y-65757275D01*
X121512531Y-65090608D02*
X121703007Y-65757275D01*
X121703007Y-65757275D02*
X121893483Y-65281084D01*
X121893483Y-65281084D02*
X122083959Y-65757275D01*
X122083959Y-65757275D02*
X122274435Y-65090608D01*
X122655388Y-65090608D02*
X122655388Y-65757275D01*
X122655388Y-65185846D02*
X122703007Y-65138227D01*
X122703007Y-65138227D02*
X122798245Y-65090608D01*
X122798245Y-65090608D02*
X122941102Y-65090608D01*
X122941102Y-65090608D02*
X123036340Y-65138227D01*
X123036340Y-65138227D02*
X123083959Y-65233465D01*
X123083959Y-65233465D02*
X123083959Y-65757275D01*
X110179197Y-66605314D02*
X110083958Y-66557695D01*
X110083958Y-66557695D02*
X109893482Y-66557695D01*
X109893482Y-66557695D02*
X109798244Y-66605314D01*
X109798244Y-66605314D02*
X109703006Y-66700552D01*
X109703006Y-66700552D02*
X109655387Y-66795790D01*
X109655387Y-66795790D02*
X109655387Y-66986266D01*
X109655387Y-66986266D02*
X109703006Y-67081504D01*
X109703006Y-67081504D02*
X109798244Y-67176742D01*
X109798244Y-67176742D02*
X109893482Y-67224361D01*
X109893482Y-67224361D02*
X110083958Y-67224361D01*
X110083958Y-67224361D02*
X110179197Y-67176742D01*
X109988720Y-66224361D02*
X109750625Y-66271980D01*
X109750625Y-66271980D02*
X109512530Y-66414838D01*
X109512530Y-66414838D02*
X109369673Y-66652933D01*
X109369673Y-66652933D02*
X109322054Y-66891028D01*
X109322054Y-66891028D02*
X109369673Y-67129123D01*
X109369673Y-67129123D02*
X109512530Y-67367219D01*
X109512530Y-67367219D02*
X109750625Y-67510076D01*
X109750625Y-67510076D02*
X109988720Y-67557695D01*
X109988720Y-67557695D02*
X110226816Y-67510076D01*
X110226816Y-67510076D02*
X110464911Y-67367219D01*
X110464911Y-67367219D02*
X110607768Y-67129123D01*
X110607768Y-67129123D02*
X110655387Y-66891028D01*
X110655387Y-66891028D02*
X110607768Y-66652933D01*
X110607768Y-66652933D02*
X110464911Y-66414838D01*
X110464911Y-66414838D02*
X110226816Y-66271980D01*
X110226816Y-66271980D02*
X109988720Y-66224361D01*
X112036340Y-66891028D02*
X112036340Y-67367219D01*
X111703007Y-66367219D02*
X112036340Y-66891028D01*
X112036340Y-66891028D02*
X112369673Y-66367219D01*
X113131578Y-67367219D02*
X113131578Y-66843409D01*
X113131578Y-66843409D02*
X113083959Y-66748171D01*
X113083959Y-66748171D02*
X112988721Y-66700552D01*
X112988721Y-66700552D02*
X112798245Y-66700552D01*
X112798245Y-66700552D02*
X112703007Y-66748171D01*
X113131578Y-67319600D02*
X113036340Y-67367219D01*
X113036340Y-67367219D02*
X112798245Y-67367219D01*
X112798245Y-67367219D02*
X112703007Y-67319600D01*
X112703007Y-67319600D02*
X112655388Y-67224361D01*
X112655388Y-67224361D02*
X112655388Y-67129123D01*
X112655388Y-67129123D02*
X112703007Y-67033885D01*
X112703007Y-67033885D02*
X112798245Y-66986266D01*
X112798245Y-66986266D02*
X113036340Y-66986266D01*
X113036340Y-66986266D02*
X113131578Y-66938647D01*
X113607769Y-66700552D02*
X113607769Y-67367219D01*
X113607769Y-66795790D02*
X113655388Y-66748171D01*
X113655388Y-66748171D02*
X113750626Y-66700552D01*
X113750626Y-66700552D02*
X113893483Y-66700552D01*
X113893483Y-66700552D02*
X113988721Y-66748171D01*
X113988721Y-66748171D02*
X114036340Y-66843409D01*
X114036340Y-66843409D02*
X114036340Y-67367219D01*
X114512531Y-66700552D02*
X114512531Y-67367219D01*
X114512531Y-66795790D02*
X114560150Y-66748171D01*
X114560150Y-66748171D02*
X114655388Y-66700552D01*
X114655388Y-66700552D02*
X114798245Y-66700552D01*
X114798245Y-66700552D02*
X114893483Y-66748171D01*
X114893483Y-66748171D02*
X114941102Y-66843409D01*
X114941102Y-66843409D02*
X114941102Y-67367219D01*
X115417293Y-67367219D02*
X115417293Y-66700552D01*
X115417293Y-66367219D02*
X115369674Y-66414838D01*
X115369674Y-66414838D02*
X115417293Y-66462457D01*
X115417293Y-66462457D02*
X115464912Y-66414838D01*
X115464912Y-66414838D02*
X115417293Y-66367219D01*
X115417293Y-66367219D02*
X115417293Y-66462457D01*
X116322054Y-67319600D02*
X116226816Y-67367219D01*
X116226816Y-67367219D02*
X116036340Y-67367219D01*
X116036340Y-67367219D02*
X115941102Y-67319600D01*
X115941102Y-67319600D02*
X115893483Y-67271980D01*
X115893483Y-67271980D02*
X115845864Y-67176742D01*
X115845864Y-67176742D02*
X115845864Y-66891028D01*
X115845864Y-66891028D02*
X115893483Y-66795790D01*
X115893483Y-66795790D02*
X115941102Y-66748171D01*
X115941102Y-66748171D02*
X116036340Y-66700552D01*
X116036340Y-66700552D02*
X116226816Y-66700552D01*
X116226816Y-66700552D02*
X116322054Y-66748171D01*
X116750626Y-67367219D02*
X116750626Y-66367219D01*
X116845864Y-66986266D02*
X117131578Y-67367219D01*
X117131578Y-66700552D02*
X116750626Y-67081504D01*
X118322055Y-67367219D02*
X118322055Y-66367219D01*
X118893483Y-67367219D02*
X118464912Y-66795790D01*
X118893483Y-66367219D02*
X118322055Y-66938647D01*
X119464912Y-67367219D02*
X119369674Y-67319600D01*
X119369674Y-67319600D02*
X119322055Y-67271980D01*
X119322055Y-67271980D02*
X119274436Y-67176742D01*
X119274436Y-67176742D02*
X119274436Y-66891028D01*
X119274436Y-66891028D02*
X119322055Y-66795790D01*
X119322055Y-66795790D02*
X119369674Y-66748171D01*
X119369674Y-66748171D02*
X119464912Y-66700552D01*
X119464912Y-66700552D02*
X119607769Y-66700552D01*
X119607769Y-66700552D02*
X119703007Y-66748171D01*
X119703007Y-66748171D02*
X119750626Y-66795790D01*
X119750626Y-66795790D02*
X119798245Y-66891028D01*
X119798245Y-66891028D02*
X119798245Y-67176742D01*
X119798245Y-67176742D02*
X119750626Y-67271980D01*
X119750626Y-67271980D02*
X119703007Y-67319600D01*
X119703007Y-67319600D02*
X119607769Y-67367219D01*
X119607769Y-67367219D02*
X119464912Y-67367219D01*
X119369674Y-66367219D02*
X119417293Y-66414838D01*
X119417293Y-66414838D02*
X119369674Y-66462457D01*
X119369674Y-66462457D02*
X119322055Y-66414838D01*
X119322055Y-66414838D02*
X119369674Y-66367219D01*
X119369674Y-66367219D02*
X119369674Y-66462457D01*
X119750626Y-66367219D02*
X119798245Y-66414838D01*
X119798245Y-66414838D02*
X119750626Y-66462457D01*
X119750626Y-66462457D02*
X119703007Y-66414838D01*
X119703007Y-66414838D02*
X119750626Y-66367219D01*
X119750626Y-66367219D02*
X119750626Y-66462457D01*
X120226817Y-66700552D02*
X120226817Y-67367219D01*
X120226817Y-66795790D02*
X120274436Y-66748171D01*
X120274436Y-66748171D02*
X120369674Y-66700552D01*
X120369674Y-66700552D02*
X120512531Y-66700552D01*
X120512531Y-66700552D02*
X120607769Y-66748171D01*
X120607769Y-66748171D02*
X120655388Y-66843409D01*
X120655388Y-66843409D02*
X120655388Y-67367219D01*
X121131579Y-67367219D02*
X121131579Y-66700552D01*
X121131579Y-66367219D02*
X121083960Y-66414838D01*
X121083960Y-66414838D02*
X121131579Y-66462457D01*
X121131579Y-66462457D02*
X121179198Y-66414838D01*
X121179198Y-66414838D02*
X121131579Y-66367219D01*
X121131579Y-66367219D02*
X121131579Y-66462457D01*
X122036340Y-66700552D02*
X122036340Y-67510076D01*
X122036340Y-67510076D02*
X121988721Y-67605314D01*
X121988721Y-67605314D02*
X121941102Y-67652933D01*
X121941102Y-67652933D02*
X121845864Y-67700552D01*
X121845864Y-67700552D02*
X121703007Y-67700552D01*
X121703007Y-67700552D02*
X121607769Y-67652933D01*
X122036340Y-67319600D02*
X121941102Y-67367219D01*
X121941102Y-67367219D02*
X121750626Y-67367219D01*
X121750626Y-67367219D02*
X121655388Y-67319600D01*
X121655388Y-67319600D02*
X121607769Y-67271980D01*
X121607769Y-67271980D02*
X121560150Y-67176742D01*
X121560150Y-67176742D02*
X121560150Y-66891028D01*
X121560150Y-66891028D02*
X121607769Y-66795790D01*
X121607769Y-66795790D02*
X121655388Y-66748171D01*
X121655388Y-66748171D02*
X121750626Y-66700552D01*
X121750626Y-66700552D02*
X121941102Y-66700552D01*
X121941102Y-66700552D02*
X122036340Y-66748171D01*
X122560150Y-67319600D02*
X122560150Y-67367219D01*
X122560150Y-67367219D02*
X122512531Y-67462457D01*
X122512531Y-67462457D02*
X122464912Y-67510076D01*
X123703007Y-66462457D02*
X123750626Y-66414838D01*
X123750626Y-66414838D02*
X123845864Y-66367219D01*
X123845864Y-66367219D02*
X124083959Y-66367219D01*
X124083959Y-66367219D02*
X124179197Y-66414838D01*
X124179197Y-66414838D02*
X124226816Y-66462457D01*
X124226816Y-66462457D02*
X124274435Y-66557695D01*
X124274435Y-66557695D02*
X124274435Y-66652933D01*
X124274435Y-66652933D02*
X124226816Y-66795790D01*
X124226816Y-66795790D02*
X123655388Y-67367219D01*
X123655388Y-67367219D02*
X124274435Y-67367219D01*
X124893483Y-66367219D02*
X124988721Y-66367219D01*
X124988721Y-66367219D02*
X125083959Y-66414838D01*
X125083959Y-66414838D02*
X125131578Y-66462457D01*
X125131578Y-66462457D02*
X125179197Y-66557695D01*
X125179197Y-66557695D02*
X125226816Y-66748171D01*
X125226816Y-66748171D02*
X125226816Y-66986266D01*
X125226816Y-66986266D02*
X125179197Y-67176742D01*
X125179197Y-67176742D02*
X125131578Y-67271980D01*
X125131578Y-67271980D02*
X125083959Y-67319600D01*
X125083959Y-67319600D02*
X124988721Y-67367219D01*
X124988721Y-67367219D02*
X124893483Y-67367219D01*
X124893483Y-67367219D02*
X124798245Y-67319600D01*
X124798245Y-67319600D02*
X124750626Y-67271980D01*
X124750626Y-67271980D02*
X124703007Y-67176742D01*
X124703007Y-67176742D02*
X124655388Y-66986266D01*
X124655388Y-66986266D02*
X124655388Y-66748171D01*
X124655388Y-66748171D02*
X124703007Y-66557695D01*
X124703007Y-66557695D02*
X124750626Y-66462457D01*
X124750626Y-66462457D02*
X124798245Y-66414838D01*
X124798245Y-66414838D02*
X124893483Y-66367219D01*
X125607769Y-66462457D02*
X125655388Y-66414838D01*
X125655388Y-66414838D02*
X125750626Y-66367219D01*
X125750626Y-66367219D02*
X125988721Y-66367219D01*
X125988721Y-66367219D02*
X126083959Y-66414838D01*
X126083959Y-66414838D02*
X126131578Y-66462457D01*
X126131578Y-66462457D02*
X126179197Y-66557695D01*
X126179197Y-66557695D02*
X126179197Y-66652933D01*
X126179197Y-66652933D02*
X126131578Y-66795790D01*
X126131578Y-66795790D02*
X125560150Y-67367219D01*
X125560150Y-67367219D02*
X126179197Y-67367219D01*
X127083959Y-66367219D02*
X126607769Y-66367219D01*
X126607769Y-66367219D02*
X126560150Y-66843409D01*
X126560150Y-66843409D02*
X126607769Y-66795790D01*
X126607769Y-66795790D02*
X126703007Y-66748171D01*
X126703007Y-66748171D02*
X126941102Y-66748171D01*
X126941102Y-66748171D02*
X127036340Y-66795790D01*
X127036340Y-66795790D02*
X127083959Y-66843409D01*
X127083959Y-66843409D02*
X127131578Y-66938647D01*
X127131578Y-66938647D02*
X127131578Y-67176742D01*
X127131578Y-67176742D02*
X127083959Y-67271980D01*
X127083959Y-67271980D02*
X127036340Y-67319600D01*
X127036340Y-67319600D02*
X126941102Y-67367219D01*
X126941102Y-67367219D02*
X126703007Y-67367219D01*
X126703007Y-67367219D02*
X126607769Y-67319600D01*
X126607769Y-67319600D02*
X126560150Y-67271980D01*
D12*
X146359580Y-59166666D02*
X146407200Y-59214285D01*
X146407200Y-59214285D02*
X146454819Y-59357142D01*
X146454819Y-59357142D02*
X146454819Y-59452380D01*
X146454819Y-59452380D02*
X146407200Y-59595237D01*
X146407200Y-59595237D02*
X146311961Y-59690475D01*
X146311961Y-59690475D02*
X146216723Y-59738094D01*
X146216723Y-59738094D02*
X146026247Y-59785713D01*
X146026247Y-59785713D02*
X145883390Y-59785713D01*
X145883390Y-59785713D02*
X145692914Y-59738094D01*
X145692914Y-59738094D02*
X145597676Y-59690475D01*
X145597676Y-59690475D02*
X145502438Y-59595237D01*
X145502438Y-59595237D02*
X145454819Y-59452380D01*
X145454819Y-59452380D02*
X145454819Y-59357142D01*
X145454819Y-59357142D02*
X145502438Y-59214285D01*
X145502438Y-59214285D02*
X145550057Y-59166666D01*
X145550057Y-58785713D02*
X145502438Y-58738094D01*
X145502438Y-58738094D02*
X145454819Y-58642856D01*
X145454819Y-58642856D02*
X145454819Y-58404761D01*
X145454819Y-58404761D02*
X145502438Y-58309523D01*
X145502438Y-58309523D02*
X145550057Y-58261904D01*
X145550057Y-58261904D02*
X145645295Y-58214285D01*
X145645295Y-58214285D02*
X145740533Y-58214285D01*
X145740533Y-58214285D02*
X145883390Y-58261904D01*
X145883390Y-58261904D02*
X146454819Y-58833332D01*
X146454819Y-58833332D02*
X146454819Y-58214285D01*
X103690476Y-72604819D02*
X103690476Y-73319104D01*
X103690476Y-73319104D02*
X103642857Y-73461961D01*
X103642857Y-73461961D02*
X103547619Y-73557200D01*
X103547619Y-73557200D02*
X103404762Y-73604819D01*
X103404762Y-73604819D02*
X103309524Y-73604819D01*
X104690476Y-73604819D02*
X104119048Y-73604819D01*
X104404762Y-73604819D02*
X104404762Y-72604819D01*
X104404762Y-72604819D02*
X104309524Y-72747676D01*
X104309524Y-72747676D02*
X104214286Y-72842914D01*
X104214286Y-72842914D02*
X104119048Y-72890533D01*
X105309524Y-72604819D02*
X105404762Y-72604819D01*
X105404762Y-72604819D02*
X105500000Y-72652438D01*
X105500000Y-72652438D02*
X105547619Y-72700057D01*
X105547619Y-72700057D02*
X105595238Y-72795295D01*
X105595238Y-72795295D02*
X105642857Y-72985771D01*
X105642857Y-72985771D02*
X105642857Y-73223866D01*
X105642857Y-73223866D02*
X105595238Y-73414342D01*
X105595238Y-73414342D02*
X105547619Y-73509580D01*
X105547619Y-73509580D02*
X105500000Y-73557200D01*
X105500000Y-73557200D02*
X105404762Y-73604819D01*
X105404762Y-73604819D02*
X105309524Y-73604819D01*
X105309524Y-73604819D02*
X105214286Y-73557200D01*
X105214286Y-73557200D02*
X105166667Y-73509580D01*
X105166667Y-73509580D02*
X105119048Y-73414342D01*
X105119048Y-73414342D02*
X105071429Y-73223866D01*
X105071429Y-73223866D02*
X105071429Y-72985771D01*
X105071429Y-72985771D02*
X105119048Y-72795295D01*
X105119048Y-72795295D02*
X105166667Y-72700057D01*
X105166667Y-72700057D02*
X105214286Y-72652438D01*
X105214286Y-72652438D02*
X105309524Y-72604819D01*
X103738095Y-66352438D02*
X103642857Y-66304819D01*
X103642857Y-66304819D02*
X103500000Y-66304819D01*
X103500000Y-66304819D02*
X103357143Y-66352438D01*
X103357143Y-66352438D02*
X103261905Y-66447676D01*
X103261905Y-66447676D02*
X103214286Y-66542914D01*
X103214286Y-66542914D02*
X103166667Y-66733390D01*
X103166667Y-66733390D02*
X103166667Y-66876247D01*
X103166667Y-66876247D02*
X103214286Y-67066723D01*
X103214286Y-67066723D02*
X103261905Y-67161961D01*
X103261905Y-67161961D02*
X103357143Y-67257200D01*
X103357143Y-67257200D02*
X103500000Y-67304819D01*
X103500000Y-67304819D02*
X103595238Y-67304819D01*
X103595238Y-67304819D02*
X103738095Y-67257200D01*
X103738095Y-67257200D02*
X103785714Y-67209580D01*
X103785714Y-67209580D02*
X103785714Y-66876247D01*
X103785714Y-66876247D02*
X103595238Y-66876247D01*
X104214286Y-67304819D02*
X104214286Y-66304819D01*
X104214286Y-66304819D02*
X104785714Y-67304819D01*
X104785714Y-67304819D02*
X104785714Y-66304819D01*
X105261905Y-67304819D02*
X105261905Y-66304819D01*
X105261905Y-66304819D02*
X105500000Y-66304819D01*
X105500000Y-66304819D02*
X105642857Y-66352438D01*
X105642857Y-66352438D02*
X105738095Y-66447676D01*
X105738095Y-66447676D02*
X105785714Y-66542914D01*
X105785714Y-66542914D02*
X105833333Y-66733390D01*
X105833333Y-66733390D02*
X105833333Y-66876247D01*
X105833333Y-66876247D02*
X105785714Y-67066723D01*
X105785714Y-67066723D02*
X105738095Y-67161961D01*
X105738095Y-67161961D02*
X105642857Y-67257200D01*
X105642857Y-67257200D02*
X105500000Y-67304819D01*
X105500000Y-67304819D02*
X105261905Y-67304819D01*
X85166666Y-92004819D02*
X85166666Y-92719104D01*
X85166666Y-92719104D02*
X85119047Y-92861961D01*
X85119047Y-92861961D02*
X85023809Y-92957200D01*
X85023809Y-92957200D02*
X84880952Y-93004819D01*
X84880952Y-93004819D02*
X84785714Y-93004819D01*
X85690476Y-93004819D02*
X85880952Y-93004819D01*
X85880952Y-93004819D02*
X85976190Y-92957200D01*
X85976190Y-92957200D02*
X86023809Y-92909580D01*
X86023809Y-92909580D02*
X86119047Y-92766723D01*
X86119047Y-92766723D02*
X86166666Y-92576247D01*
X86166666Y-92576247D02*
X86166666Y-92195295D01*
X86166666Y-92195295D02*
X86119047Y-92100057D01*
X86119047Y-92100057D02*
X86071428Y-92052438D01*
X86071428Y-92052438D02*
X85976190Y-92004819D01*
X85976190Y-92004819D02*
X85785714Y-92004819D01*
X85785714Y-92004819D02*
X85690476Y-92052438D01*
X85690476Y-92052438D02*
X85642857Y-92100057D01*
X85642857Y-92100057D02*
X85595238Y-92195295D01*
X85595238Y-92195295D02*
X85595238Y-92433390D01*
X85595238Y-92433390D02*
X85642857Y-92528628D01*
X85642857Y-92528628D02*
X85690476Y-92576247D01*
X85690476Y-92576247D02*
X85785714Y-92623866D01*
X85785714Y-92623866D02*
X85976190Y-92623866D01*
X85976190Y-92623866D02*
X86071428Y-92576247D01*
X86071428Y-92576247D02*
X86119047Y-92528628D01*
X86119047Y-92528628D02*
X86166666Y-92433390D01*
X84238095Y-84852438D02*
X84142857Y-84804819D01*
X84142857Y-84804819D02*
X84000000Y-84804819D01*
X84000000Y-84804819D02*
X83857143Y-84852438D01*
X83857143Y-84852438D02*
X83761905Y-84947676D01*
X83761905Y-84947676D02*
X83714286Y-85042914D01*
X83714286Y-85042914D02*
X83666667Y-85233390D01*
X83666667Y-85233390D02*
X83666667Y-85376247D01*
X83666667Y-85376247D02*
X83714286Y-85566723D01*
X83714286Y-85566723D02*
X83761905Y-85661961D01*
X83761905Y-85661961D02*
X83857143Y-85757200D01*
X83857143Y-85757200D02*
X84000000Y-85804819D01*
X84000000Y-85804819D02*
X84095238Y-85804819D01*
X84095238Y-85804819D02*
X84238095Y-85757200D01*
X84238095Y-85757200D02*
X84285714Y-85709580D01*
X84285714Y-85709580D02*
X84285714Y-85376247D01*
X84285714Y-85376247D02*
X84095238Y-85376247D01*
X84714286Y-85804819D02*
X84714286Y-84804819D01*
X84714286Y-84804819D02*
X85285714Y-85804819D01*
X85285714Y-85804819D02*
X85285714Y-84804819D01*
X85761905Y-85804819D02*
X85761905Y-84804819D01*
X85761905Y-84804819D02*
X86000000Y-84804819D01*
X86000000Y-84804819D02*
X86142857Y-84852438D01*
X86142857Y-84852438D02*
X86238095Y-84947676D01*
X86238095Y-84947676D02*
X86285714Y-85042914D01*
X86285714Y-85042914D02*
X86333333Y-85233390D01*
X86333333Y-85233390D02*
X86333333Y-85376247D01*
X86333333Y-85376247D02*
X86285714Y-85566723D01*
X86285714Y-85566723D02*
X86238095Y-85661961D01*
X86238095Y-85661961D02*
X86142857Y-85757200D01*
X86142857Y-85757200D02*
X86000000Y-85804819D01*
X86000000Y-85804819D02*
X85761905Y-85804819D01*
X116833333Y-50954819D02*
X116357143Y-50954819D01*
X116357143Y-50954819D02*
X116357143Y-49954819D01*
X117690476Y-50954819D02*
X117119048Y-50954819D01*
X117404762Y-50954819D02*
X117404762Y-49954819D01*
X117404762Y-49954819D02*
X117309524Y-50097676D01*
X117309524Y-50097676D02*
X117214286Y-50192914D01*
X117214286Y-50192914D02*
X117119048Y-50240533D01*
X130166666Y-88304819D02*
X130166666Y-89019104D01*
X130166666Y-89019104D02*
X130119047Y-89161961D01*
X130119047Y-89161961D02*
X130023809Y-89257200D01*
X130023809Y-89257200D02*
X129880952Y-89304819D01*
X129880952Y-89304819D02*
X129785714Y-89304819D01*
X130785714Y-88733390D02*
X130690476Y-88685771D01*
X130690476Y-88685771D02*
X130642857Y-88638152D01*
X130642857Y-88638152D02*
X130595238Y-88542914D01*
X130595238Y-88542914D02*
X130595238Y-88495295D01*
X130595238Y-88495295D02*
X130642857Y-88400057D01*
X130642857Y-88400057D02*
X130690476Y-88352438D01*
X130690476Y-88352438D02*
X130785714Y-88304819D01*
X130785714Y-88304819D02*
X130976190Y-88304819D01*
X130976190Y-88304819D02*
X131071428Y-88352438D01*
X131071428Y-88352438D02*
X131119047Y-88400057D01*
X131119047Y-88400057D02*
X131166666Y-88495295D01*
X131166666Y-88495295D02*
X131166666Y-88542914D01*
X131166666Y-88542914D02*
X131119047Y-88638152D01*
X131119047Y-88638152D02*
X131071428Y-88685771D01*
X131071428Y-88685771D02*
X130976190Y-88733390D01*
X130976190Y-88733390D02*
X130785714Y-88733390D01*
X130785714Y-88733390D02*
X130690476Y-88781009D01*
X130690476Y-88781009D02*
X130642857Y-88828628D01*
X130642857Y-88828628D02*
X130595238Y-88923866D01*
X130595238Y-88923866D02*
X130595238Y-89114342D01*
X130595238Y-89114342D02*
X130642857Y-89209580D01*
X130642857Y-89209580D02*
X130690476Y-89257200D01*
X130690476Y-89257200D02*
X130785714Y-89304819D01*
X130785714Y-89304819D02*
X130976190Y-89304819D01*
X130976190Y-89304819D02*
X131071428Y-89257200D01*
X131071428Y-89257200D02*
X131119047Y-89209580D01*
X131119047Y-89209580D02*
X131166666Y-89114342D01*
X131166666Y-89114342D02*
X131166666Y-88923866D01*
X131166666Y-88923866D02*
X131119047Y-88828628D01*
X131119047Y-88828628D02*
X131071428Y-88781009D01*
X131071428Y-88781009D02*
X130976190Y-88733390D01*
X129738095Y-94652438D02*
X129642857Y-94604819D01*
X129642857Y-94604819D02*
X129500000Y-94604819D01*
X129500000Y-94604819D02*
X129357143Y-94652438D01*
X129357143Y-94652438D02*
X129261905Y-94747676D01*
X129261905Y-94747676D02*
X129214286Y-94842914D01*
X129214286Y-94842914D02*
X129166667Y-95033390D01*
X129166667Y-95033390D02*
X129166667Y-95176247D01*
X129166667Y-95176247D02*
X129214286Y-95366723D01*
X129214286Y-95366723D02*
X129261905Y-95461961D01*
X129261905Y-95461961D02*
X129357143Y-95557200D01*
X129357143Y-95557200D02*
X129500000Y-95604819D01*
X129500000Y-95604819D02*
X129595238Y-95604819D01*
X129595238Y-95604819D02*
X129738095Y-95557200D01*
X129738095Y-95557200D02*
X129785714Y-95509580D01*
X129785714Y-95509580D02*
X129785714Y-95176247D01*
X129785714Y-95176247D02*
X129595238Y-95176247D01*
X130214286Y-95604819D02*
X130214286Y-94604819D01*
X130214286Y-94604819D02*
X130785714Y-95604819D01*
X130785714Y-95604819D02*
X130785714Y-94604819D01*
X131261905Y-95604819D02*
X131261905Y-94604819D01*
X131261905Y-94604819D02*
X131500000Y-94604819D01*
X131500000Y-94604819D02*
X131642857Y-94652438D01*
X131642857Y-94652438D02*
X131738095Y-94747676D01*
X131738095Y-94747676D02*
X131785714Y-94842914D01*
X131785714Y-94842914D02*
X131833333Y-95033390D01*
X131833333Y-95033390D02*
X131833333Y-95176247D01*
X131833333Y-95176247D02*
X131785714Y-95366723D01*
X131785714Y-95366723D02*
X131738095Y-95461961D01*
X131738095Y-95461961D02*
X131642857Y-95557200D01*
X131642857Y-95557200D02*
X131500000Y-95604819D01*
X131500000Y-95604819D02*
X131261905Y-95604819D01*
X122166666Y-88304819D02*
X122166666Y-89019104D01*
X122166666Y-89019104D02*
X122119047Y-89161961D01*
X122119047Y-89161961D02*
X122023809Y-89257200D01*
X122023809Y-89257200D02*
X121880952Y-89304819D01*
X121880952Y-89304819D02*
X121785714Y-89304819D01*
X122547619Y-88304819D02*
X123214285Y-88304819D01*
X123214285Y-88304819D02*
X122785714Y-89304819D01*
X121214286Y-94604819D02*
X121214286Y-95414342D01*
X121214286Y-95414342D02*
X121261905Y-95509580D01*
X121261905Y-95509580D02*
X121309524Y-95557200D01*
X121309524Y-95557200D02*
X121404762Y-95604819D01*
X121404762Y-95604819D02*
X121595238Y-95604819D01*
X121595238Y-95604819D02*
X121690476Y-95557200D01*
X121690476Y-95557200D02*
X121738095Y-95509580D01*
X121738095Y-95509580D02*
X121785714Y-95414342D01*
X121785714Y-95414342D02*
X121785714Y-94604819D01*
X123023810Y-95223866D02*
X123785715Y-95223866D01*
X123404762Y-95604819D02*
X123404762Y-94842914D01*
X114166666Y-88304819D02*
X114166666Y-89019104D01*
X114166666Y-89019104D02*
X114119047Y-89161961D01*
X114119047Y-89161961D02*
X114023809Y-89257200D01*
X114023809Y-89257200D02*
X113880952Y-89304819D01*
X113880952Y-89304819D02*
X113785714Y-89304819D01*
X115071428Y-88304819D02*
X114880952Y-88304819D01*
X114880952Y-88304819D02*
X114785714Y-88352438D01*
X114785714Y-88352438D02*
X114738095Y-88400057D01*
X114738095Y-88400057D02*
X114642857Y-88542914D01*
X114642857Y-88542914D02*
X114595238Y-88733390D01*
X114595238Y-88733390D02*
X114595238Y-89114342D01*
X114595238Y-89114342D02*
X114642857Y-89209580D01*
X114642857Y-89209580D02*
X114690476Y-89257200D01*
X114690476Y-89257200D02*
X114785714Y-89304819D01*
X114785714Y-89304819D02*
X114976190Y-89304819D01*
X114976190Y-89304819D02*
X115071428Y-89257200D01*
X115071428Y-89257200D02*
X115119047Y-89209580D01*
X115119047Y-89209580D02*
X115166666Y-89114342D01*
X115166666Y-89114342D02*
X115166666Y-88876247D01*
X115166666Y-88876247D02*
X115119047Y-88781009D01*
X115119047Y-88781009D02*
X115071428Y-88733390D01*
X115071428Y-88733390D02*
X114976190Y-88685771D01*
X114976190Y-88685771D02*
X114785714Y-88685771D01*
X114785714Y-88685771D02*
X114690476Y-88733390D01*
X114690476Y-88733390D02*
X114642857Y-88781009D01*
X114642857Y-88781009D02*
X114595238Y-88876247D01*
X113500000Y-95604819D02*
X113500000Y-94604819D01*
X114738095Y-95223866D02*
X115500000Y-95223866D01*
X115119047Y-95604819D02*
X115119047Y-94842914D01*
X107666666Y-88304819D02*
X107666666Y-89019104D01*
X107666666Y-89019104D02*
X107619047Y-89161961D01*
X107619047Y-89161961D02*
X107523809Y-89257200D01*
X107523809Y-89257200D02*
X107380952Y-89304819D01*
X107380952Y-89304819D02*
X107285714Y-89304819D01*
X108619047Y-88304819D02*
X108142857Y-88304819D01*
X108142857Y-88304819D02*
X108095238Y-88781009D01*
X108095238Y-88781009D02*
X108142857Y-88733390D01*
X108142857Y-88733390D02*
X108238095Y-88685771D01*
X108238095Y-88685771D02*
X108476190Y-88685771D01*
X108476190Y-88685771D02*
X108571428Y-88733390D01*
X108571428Y-88733390D02*
X108619047Y-88781009D01*
X108619047Y-88781009D02*
X108666666Y-88876247D01*
X108666666Y-88876247D02*
X108666666Y-89114342D01*
X108666666Y-89114342D02*
X108619047Y-89209580D01*
X108619047Y-89209580D02*
X108571428Y-89257200D01*
X108571428Y-89257200D02*
X108476190Y-89304819D01*
X108476190Y-89304819D02*
X108238095Y-89304819D01*
X108238095Y-89304819D02*
X108142857Y-89257200D01*
X108142857Y-89257200D02*
X108095238Y-89209580D01*
X105595238Y-95604819D02*
X105595238Y-94604819D01*
X105595238Y-94604819D02*
X105976190Y-94604819D01*
X105976190Y-94604819D02*
X106071428Y-94652438D01*
X106071428Y-94652438D02*
X106119047Y-94700057D01*
X106119047Y-94700057D02*
X106166666Y-94795295D01*
X106166666Y-94795295D02*
X106166666Y-94938152D01*
X106166666Y-94938152D02*
X106119047Y-95033390D01*
X106119047Y-95033390D02*
X106071428Y-95081009D01*
X106071428Y-95081009D02*
X105976190Y-95128628D01*
X105976190Y-95128628D02*
X105595238Y-95128628D01*
X106500000Y-94604819D02*
X106738095Y-95604819D01*
X106738095Y-95604819D02*
X106928571Y-94890533D01*
X106928571Y-94890533D02*
X107119047Y-95604819D01*
X107119047Y-95604819D02*
X107357143Y-94604819D01*
X107738095Y-95604819D02*
X107738095Y-94604819D01*
X107738095Y-94604819D02*
X108071428Y-95319104D01*
X108071428Y-95319104D02*
X108404761Y-94604819D01*
X108404761Y-94604819D02*
X108404761Y-95604819D01*
X109642857Y-95223866D02*
X110404762Y-95223866D01*
X110023809Y-95604819D02*
X110023809Y-94842914D01*
X157666666Y-77954819D02*
X157666666Y-78669104D01*
X157666666Y-78669104D02*
X157619047Y-78811961D01*
X157619047Y-78811961D02*
X157523809Y-78907200D01*
X157523809Y-78907200D02*
X157380952Y-78954819D01*
X157380952Y-78954819D02*
X157285714Y-78954819D01*
X158571428Y-78288152D02*
X158571428Y-78954819D01*
X158333333Y-77907200D02*
X158095238Y-78621485D01*
X158095238Y-78621485D02*
X158714285Y-78621485D01*
X152357143Y-71954819D02*
X152690476Y-72954819D01*
X152690476Y-72954819D02*
X153023809Y-71954819D01*
X153119048Y-73050057D02*
X153880952Y-73050057D01*
X154309524Y-71954819D02*
X154500000Y-71954819D01*
X154500000Y-71954819D02*
X154595238Y-72002438D01*
X154595238Y-72002438D02*
X154690476Y-72097676D01*
X154690476Y-72097676D02*
X154738095Y-72288152D01*
X154738095Y-72288152D02*
X154738095Y-72621485D01*
X154738095Y-72621485D02*
X154690476Y-72811961D01*
X154690476Y-72811961D02*
X154595238Y-72907200D01*
X154595238Y-72907200D02*
X154500000Y-72954819D01*
X154500000Y-72954819D02*
X154309524Y-72954819D01*
X154309524Y-72954819D02*
X154214286Y-72907200D01*
X154214286Y-72907200D02*
X154119048Y-72811961D01*
X154119048Y-72811961D02*
X154071429Y-72621485D01*
X154071429Y-72621485D02*
X154071429Y-72288152D01*
X154071429Y-72288152D02*
X154119048Y-72097676D01*
X154119048Y-72097676D02*
X154214286Y-72002438D01*
X154214286Y-72002438D02*
X154309524Y-71954819D01*
X155166667Y-71954819D02*
X155166667Y-72764342D01*
X155166667Y-72764342D02*
X155214286Y-72859580D01*
X155214286Y-72859580D02*
X155261905Y-72907200D01*
X155261905Y-72907200D02*
X155357143Y-72954819D01*
X155357143Y-72954819D02*
X155547619Y-72954819D01*
X155547619Y-72954819D02*
X155642857Y-72907200D01*
X155642857Y-72907200D02*
X155690476Y-72859580D01*
X155690476Y-72859580D02*
X155738095Y-72764342D01*
X155738095Y-72764342D02*
X155738095Y-71954819D01*
X156071429Y-71954819D02*
X156642857Y-71954819D01*
X156357143Y-72954819D02*
X156357143Y-71954819D01*
X157738096Y-72573866D02*
X158500001Y-72573866D01*
X155166666Y-59804819D02*
X155166666Y-60519104D01*
X155166666Y-60519104D02*
X155119047Y-60661961D01*
X155119047Y-60661961D02*
X155023809Y-60757200D01*
X155023809Y-60757200D02*
X154880952Y-60804819D01*
X154880952Y-60804819D02*
X154785714Y-60804819D01*
X155547619Y-59804819D02*
X156166666Y-59804819D01*
X156166666Y-59804819D02*
X155833333Y-60185771D01*
X155833333Y-60185771D02*
X155976190Y-60185771D01*
X155976190Y-60185771D02*
X156071428Y-60233390D01*
X156071428Y-60233390D02*
X156119047Y-60281009D01*
X156119047Y-60281009D02*
X156166666Y-60376247D01*
X156166666Y-60376247D02*
X156166666Y-60614342D01*
X156166666Y-60614342D02*
X156119047Y-60709580D01*
X156119047Y-60709580D02*
X156071428Y-60757200D01*
X156071428Y-60757200D02*
X155976190Y-60804819D01*
X155976190Y-60804819D02*
X155690476Y-60804819D01*
X155690476Y-60804819D02*
X155595238Y-60757200D01*
X155595238Y-60757200D02*
X155547619Y-60709580D01*
X152357143Y-66104819D02*
X152690476Y-67104819D01*
X152690476Y-67104819D02*
X153023809Y-66104819D01*
X153119048Y-67200057D02*
X153880952Y-67200057D01*
X154309524Y-66104819D02*
X154500000Y-66104819D01*
X154500000Y-66104819D02*
X154595238Y-66152438D01*
X154595238Y-66152438D02*
X154690476Y-66247676D01*
X154690476Y-66247676D02*
X154738095Y-66438152D01*
X154738095Y-66438152D02*
X154738095Y-66771485D01*
X154738095Y-66771485D02*
X154690476Y-66961961D01*
X154690476Y-66961961D02*
X154595238Y-67057200D01*
X154595238Y-67057200D02*
X154500000Y-67104819D01*
X154500000Y-67104819D02*
X154309524Y-67104819D01*
X154309524Y-67104819D02*
X154214286Y-67057200D01*
X154214286Y-67057200D02*
X154119048Y-66961961D01*
X154119048Y-66961961D02*
X154071429Y-66771485D01*
X154071429Y-66771485D02*
X154071429Y-66438152D01*
X154071429Y-66438152D02*
X154119048Y-66247676D01*
X154119048Y-66247676D02*
X154214286Y-66152438D01*
X154214286Y-66152438D02*
X154309524Y-66104819D01*
X155166667Y-66104819D02*
X155166667Y-66914342D01*
X155166667Y-66914342D02*
X155214286Y-67009580D01*
X155214286Y-67009580D02*
X155261905Y-67057200D01*
X155261905Y-67057200D02*
X155357143Y-67104819D01*
X155357143Y-67104819D02*
X155547619Y-67104819D01*
X155547619Y-67104819D02*
X155642857Y-67057200D01*
X155642857Y-67057200D02*
X155690476Y-67009580D01*
X155690476Y-67009580D02*
X155738095Y-66914342D01*
X155738095Y-66914342D02*
X155738095Y-66104819D01*
X156071429Y-66104819D02*
X156642857Y-66104819D01*
X156357143Y-67104819D02*
X156357143Y-66104819D01*
X157738096Y-66723866D02*
X158500001Y-66723866D01*
X158119048Y-67104819D02*
X158119048Y-66342914D01*
X79666666Y-64804819D02*
X79666666Y-65519104D01*
X79666666Y-65519104D02*
X79619047Y-65661961D01*
X79619047Y-65661961D02*
X79523809Y-65757200D01*
X79523809Y-65757200D02*
X79380952Y-65804819D01*
X79380952Y-65804819D02*
X79285714Y-65804819D01*
X80095238Y-64900057D02*
X80142857Y-64852438D01*
X80142857Y-64852438D02*
X80238095Y-64804819D01*
X80238095Y-64804819D02*
X80476190Y-64804819D01*
X80476190Y-64804819D02*
X80571428Y-64852438D01*
X80571428Y-64852438D02*
X80619047Y-64900057D01*
X80619047Y-64900057D02*
X80666666Y-64995295D01*
X80666666Y-64995295D02*
X80666666Y-65090533D01*
X80666666Y-65090533D02*
X80619047Y-65233390D01*
X80619047Y-65233390D02*
X80047619Y-65804819D01*
X80047619Y-65804819D02*
X80666666Y-65804819D01*
X77595238Y-71104819D02*
X77928571Y-72104819D01*
X77928571Y-72104819D02*
X78261904Y-71104819D01*
X78357143Y-72200057D02*
X79119047Y-72200057D01*
X79357143Y-72104819D02*
X79357143Y-71438152D01*
X79357143Y-71104819D02*
X79309524Y-71152438D01*
X79309524Y-71152438D02*
X79357143Y-71200057D01*
X79357143Y-71200057D02*
X79404762Y-71152438D01*
X79404762Y-71152438D02*
X79357143Y-71104819D01*
X79357143Y-71104819D02*
X79357143Y-71200057D01*
X79833333Y-71438152D02*
X79833333Y-72104819D01*
X79833333Y-71533390D02*
X79880952Y-71485771D01*
X79880952Y-71485771D02*
X79976190Y-71438152D01*
X79976190Y-71438152D02*
X80119047Y-71438152D01*
X80119047Y-71438152D02*
X80214285Y-71485771D01*
X80214285Y-71485771D02*
X80261904Y-71581009D01*
X80261904Y-71581009D02*
X80261904Y-72104819D01*
X81500000Y-71723866D02*
X82261905Y-71723866D01*
X79666666Y-55804819D02*
X79666666Y-56519104D01*
X79666666Y-56519104D02*
X79619047Y-56661961D01*
X79619047Y-56661961D02*
X79523809Y-56757200D01*
X79523809Y-56757200D02*
X79380952Y-56804819D01*
X79380952Y-56804819D02*
X79285714Y-56804819D01*
X80666666Y-56804819D02*
X80095238Y-56804819D01*
X80380952Y-56804819D02*
X80380952Y-55804819D01*
X80380952Y-55804819D02*
X80285714Y-55947676D01*
X80285714Y-55947676D02*
X80190476Y-56042914D01*
X80190476Y-56042914D02*
X80095238Y-56090533D01*
X77595238Y-62104819D02*
X77928571Y-63104819D01*
X77928571Y-63104819D02*
X78261904Y-62104819D01*
X78357143Y-63200057D02*
X79119047Y-63200057D01*
X79357143Y-63104819D02*
X79357143Y-62438152D01*
X79357143Y-62104819D02*
X79309524Y-62152438D01*
X79309524Y-62152438D02*
X79357143Y-62200057D01*
X79357143Y-62200057D02*
X79404762Y-62152438D01*
X79404762Y-62152438D02*
X79357143Y-62104819D01*
X79357143Y-62104819D02*
X79357143Y-62200057D01*
X79833333Y-62438152D02*
X79833333Y-63104819D01*
X79833333Y-62533390D02*
X79880952Y-62485771D01*
X79880952Y-62485771D02*
X79976190Y-62438152D01*
X79976190Y-62438152D02*
X80119047Y-62438152D01*
X80119047Y-62438152D02*
X80214285Y-62485771D01*
X80214285Y-62485771D02*
X80261904Y-62581009D01*
X80261904Y-62581009D02*
X80261904Y-63104819D01*
X81500000Y-62723866D02*
X82261905Y-62723866D01*
X81880952Y-63104819D02*
X81880952Y-62342914D01*
X126333333Y-85624819D02*
X126000000Y-85148628D01*
X125761905Y-85624819D02*
X125761905Y-84624819D01*
X125761905Y-84624819D02*
X126142857Y-84624819D01*
X126142857Y-84624819D02*
X126238095Y-84672438D01*
X126238095Y-84672438D02*
X126285714Y-84720057D01*
X126285714Y-84720057D02*
X126333333Y-84815295D01*
X126333333Y-84815295D02*
X126333333Y-84958152D01*
X126333333Y-84958152D02*
X126285714Y-85053390D01*
X126285714Y-85053390D02*
X126238095Y-85101009D01*
X126238095Y-85101009D02*
X126142857Y-85148628D01*
X126142857Y-85148628D02*
X125761905Y-85148628D01*
X126666667Y-84624819D02*
X127285714Y-84624819D01*
X127285714Y-84624819D02*
X126952381Y-85005771D01*
X126952381Y-85005771D02*
X127095238Y-85005771D01*
X127095238Y-85005771D02*
X127190476Y-85053390D01*
X127190476Y-85053390D02*
X127238095Y-85101009D01*
X127238095Y-85101009D02*
X127285714Y-85196247D01*
X127285714Y-85196247D02*
X127285714Y-85434342D01*
X127285714Y-85434342D02*
X127238095Y-85529580D01*
X127238095Y-85529580D02*
X127190476Y-85577200D01*
X127190476Y-85577200D02*
X127095238Y-85624819D01*
X127095238Y-85624819D02*
X126809524Y-85624819D01*
X126809524Y-85624819D02*
X126714286Y-85577200D01*
X126714286Y-85577200D02*
X126666667Y-85529580D01*
X125404761Y-89454819D02*
X124833333Y-89454819D01*
X125119047Y-89454819D02*
X125119047Y-88454819D01*
X125119047Y-88454819D02*
X125023809Y-88597676D01*
X125023809Y-88597676D02*
X124928571Y-88692914D01*
X124928571Y-88692914D02*
X124833333Y-88740533D01*
X126023809Y-88454819D02*
X126119047Y-88454819D01*
X126119047Y-88454819D02*
X126214285Y-88502438D01*
X126214285Y-88502438D02*
X126261904Y-88550057D01*
X126261904Y-88550057D02*
X126309523Y-88645295D01*
X126309523Y-88645295D02*
X126357142Y-88835771D01*
X126357142Y-88835771D02*
X126357142Y-89073866D01*
X126357142Y-89073866D02*
X126309523Y-89264342D01*
X126309523Y-89264342D02*
X126261904Y-89359580D01*
X126261904Y-89359580D02*
X126214285Y-89407200D01*
X126214285Y-89407200D02*
X126119047Y-89454819D01*
X126119047Y-89454819D02*
X126023809Y-89454819D01*
X126023809Y-89454819D02*
X125928571Y-89407200D01*
X125928571Y-89407200D02*
X125880952Y-89359580D01*
X125880952Y-89359580D02*
X125833333Y-89264342D01*
X125833333Y-89264342D02*
X125785714Y-89073866D01*
X125785714Y-89073866D02*
X125785714Y-88835771D01*
X125785714Y-88835771D02*
X125833333Y-88645295D01*
X125833333Y-88645295D02*
X125880952Y-88550057D01*
X125880952Y-88550057D02*
X125928571Y-88502438D01*
X125928571Y-88502438D02*
X126023809Y-88454819D01*
X126785714Y-89454819D02*
X126785714Y-88454819D01*
X126880952Y-89073866D02*
X127166666Y-89454819D01*
X127166666Y-88788152D02*
X126785714Y-89169104D01*
X155333333Y-55124819D02*
X155000000Y-54648628D01*
X154761905Y-55124819D02*
X154761905Y-54124819D01*
X154761905Y-54124819D02*
X155142857Y-54124819D01*
X155142857Y-54124819D02*
X155238095Y-54172438D01*
X155238095Y-54172438D02*
X155285714Y-54220057D01*
X155285714Y-54220057D02*
X155333333Y-54315295D01*
X155333333Y-54315295D02*
X155333333Y-54458152D01*
X155333333Y-54458152D02*
X155285714Y-54553390D01*
X155285714Y-54553390D02*
X155238095Y-54601009D01*
X155238095Y-54601009D02*
X155142857Y-54648628D01*
X155142857Y-54648628D02*
X154761905Y-54648628D01*
X155714286Y-54220057D02*
X155761905Y-54172438D01*
X155761905Y-54172438D02*
X155857143Y-54124819D01*
X155857143Y-54124819D02*
X156095238Y-54124819D01*
X156095238Y-54124819D02*
X156190476Y-54172438D01*
X156190476Y-54172438D02*
X156238095Y-54220057D01*
X156238095Y-54220057D02*
X156285714Y-54315295D01*
X156285714Y-54315295D02*
X156285714Y-54410533D01*
X156285714Y-54410533D02*
X156238095Y-54553390D01*
X156238095Y-54553390D02*
X155666667Y-55124819D01*
X155666667Y-55124819D02*
X156285714Y-55124819D01*
X154857142Y-57784819D02*
X154380952Y-57784819D01*
X154380952Y-57784819D02*
X154333333Y-58261009D01*
X154333333Y-58261009D02*
X154380952Y-58213390D01*
X154380952Y-58213390D02*
X154476190Y-58165771D01*
X154476190Y-58165771D02*
X154714285Y-58165771D01*
X154714285Y-58165771D02*
X154809523Y-58213390D01*
X154809523Y-58213390D02*
X154857142Y-58261009D01*
X154857142Y-58261009D02*
X154904761Y-58356247D01*
X154904761Y-58356247D02*
X154904761Y-58594342D01*
X154904761Y-58594342D02*
X154857142Y-58689580D01*
X154857142Y-58689580D02*
X154809523Y-58737200D01*
X154809523Y-58737200D02*
X154714285Y-58784819D01*
X154714285Y-58784819D02*
X154476190Y-58784819D01*
X154476190Y-58784819D02*
X154380952Y-58737200D01*
X154380952Y-58737200D02*
X154333333Y-58689580D01*
X155857142Y-58784819D02*
X155285714Y-58784819D01*
X155571428Y-58784819D02*
X155571428Y-57784819D01*
X155571428Y-57784819D02*
X155476190Y-57927676D01*
X155476190Y-57927676D02*
X155380952Y-58022914D01*
X155380952Y-58022914D02*
X155285714Y-58070533D01*
X156285714Y-58784819D02*
X156285714Y-57784819D01*
X156380952Y-58403866D02*
X156666666Y-58784819D01*
X156666666Y-58118152D02*
X156285714Y-58499104D01*
X143333333Y-85584819D02*
X143000000Y-85108628D01*
X142761905Y-85584819D02*
X142761905Y-84584819D01*
X142761905Y-84584819D02*
X143142857Y-84584819D01*
X143142857Y-84584819D02*
X143238095Y-84632438D01*
X143238095Y-84632438D02*
X143285714Y-84680057D01*
X143285714Y-84680057D02*
X143333333Y-84775295D01*
X143333333Y-84775295D02*
X143333333Y-84918152D01*
X143333333Y-84918152D02*
X143285714Y-85013390D01*
X143285714Y-85013390D02*
X143238095Y-85061009D01*
X143238095Y-85061009D02*
X143142857Y-85108628D01*
X143142857Y-85108628D02*
X142761905Y-85108628D01*
X144285714Y-85584819D02*
X143714286Y-85584819D01*
X144000000Y-85584819D02*
X144000000Y-84584819D01*
X144000000Y-84584819D02*
X143904762Y-84727676D01*
X143904762Y-84727676D02*
X143809524Y-84822914D01*
X143809524Y-84822914D02*
X143714286Y-84870533D01*
X140714286Y-79324819D02*
X140809524Y-79324819D01*
X140809524Y-79324819D02*
X140904762Y-79372438D01*
X140904762Y-79372438D02*
X140952381Y-79420057D01*
X140952381Y-79420057D02*
X141000000Y-79515295D01*
X141000000Y-79515295D02*
X141047619Y-79705771D01*
X141047619Y-79705771D02*
X141047619Y-79943866D01*
X141047619Y-79943866D02*
X141000000Y-80134342D01*
X141000000Y-80134342D02*
X140952381Y-80229580D01*
X140952381Y-80229580D02*
X140904762Y-80277200D01*
X140904762Y-80277200D02*
X140809524Y-80324819D01*
X140809524Y-80324819D02*
X140714286Y-80324819D01*
X140714286Y-80324819D02*
X140619048Y-80277200D01*
X140619048Y-80277200D02*
X140571429Y-80229580D01*
X140571429Y-80229580D02*
X140523810Y-80134342D01*
X140523810Y-80134342D02*
X140476191Y-79943866D01*
X140476191Y-79943866D02*
X140476191Y-79705771D01*
X140476191Y-79705771D02*
X140523810Y-79515295D01*
X140523810Y-79515295D02*
X140571429Y-79420057D01*
X140571429Y-79420057D02*
X140619048Y-79372438D01*
X140619048Y-79372438D02*
X140714286Y-79324819D01*
X141476191Y-80229580D02*
X141523810Y-80277200D01*
X141523810Y-80277200D02*
X141476191Y-80324819D01*
X141476191Y-80324819D02*
X141428572Y-80277200D01*
X141428572Y-80277200D02*
X141476191Y-80229580D01*
X141476191Y-80229580D02*
X141476191Y-80324819D01*
X142476190Y-80324819D02*
X141904762Y-80324819D01*
X142190476Y-80324819D02*
X142190476Y-79324819D01*
X142190476Y-79324819D02*
X142095238Y-79467676D01*
X142095238Y-79467676D02*
X142000000Y-79562914D01*
X142000000Y-79562914D02*
X141904762Y-79610533D01*
X143857143Y-79324819D02*
X144047619Y-79324819D01*
X144047619Y-79324819D02*
X144142857Y-79372438D01*
X144142857Y-79372438D02*
X144238095Y-79467676D01*
X144238095Y-79467676D02*
X144285714Y-79658152D01*
X144285714Y-79658152D02*
X144285714Y-79991485D01*
X144285714Y-79991485D02*
X144238095Y-80181961D01*
X144238095Y-80181961D02*
X144142857Y-80277200D01*
X144142857Y-80277200D02*
X144047619Y-80324819D01*
X144047619Y-80324819D02*
X143857143Y-80324819D01*
X143857143Y-80324819D02*
X143761905Y-80277200D01*
X143761905Y-80277200D02*
X143666667Y-80181961D01*
X143666667Y-80181961D02*
X143619048Y-79991485D01*
X143619048Y-79991485D02*
X143619048Y-79658152D01*
X143619048Y-79658152D02*
X143666667Y-79467676D01*
X143666667Y-79467676D02*
X143761905Y-79372438D01*
X143761905Y-79372438D02*
X143857143Y-79324819D01*
X144714286Y-80324819D02*
X144714286Y-79324819D01*
X145142857Y-80324819D02*
X145142857Y-79801009D01*
X145142857Y-79801009D02*
X145095238Y-79705771D01*
X145095238Y-79705771D02*
X145000000Y-79658152D01*
X145000000Y-79658152D02*
X144857143Y-79658152D01*
X144857143Y-79658152D02*
X144761905Y-79705771D01*
X144761905Y-79705771D02*
X144714286Y-79753390D01*
X145619048Y-80324819D02*
X145619048Y-79658152D01*
X145619048Y-79753390D02*
X145666667Y-79705771D01*
X145666667Y-79705771D02*
X145761905Y-79658152D01*
X145761905Y-79658152D02*
X145904762Y-79658152D01*
X145904762Y-79658152D02*
X146000000Y-79705771D01*
X146000000Y-79705771D02*
X146047619Y-79801009D01*
X146047619Y-79801009D02*
X146047619Y-80324819D01*
X146047619Y-79801009D02*
X146095238Y-79705771D01*
X146095238Y-79705771D02*
X146190476Y-79658152D01*
X146190476Y-79658152D02*
X146333333Y-79658152D01*
X146333333Y-79658152D02*
X146428572Y-79705771D01*
X146428572Y-79705771D02*
X146476191Y-79801009D01*
X146476191Y-79801009D02*
X146476191Y-80324819D01*
X89904761Y-51400057D02*
X89809523Y-51352438D01*
X89809523Y-51352438D02*
X89714285Y-51257200D01*
X89714285Y-51257200D02*
X89571428Y-51114342D01*
X89571428Y-51114342D02*
X89476190Y-51066723D01*
X89476190Y-51066723D02*
X89380952Y-51066723D01*
X89428571Y-51304819D02*
X89333333Y-51257200D01*
X89333333Y-51257200D02*
X89238095Y-51161961D01*
X89238095Y-51161961D02*
X89190476Y-50971485D01*
X89190476Y-50971485D02*
X89190476Y-50638152D01*
X89190476Y-50638152D02*
X89238095Y-50447676D01*
X89238095Y-50447676D02*
X89333333Y-50352438D01*
X89333333Y-50352438D02*
X89428571Y-50304819D01*
X89428571Y-50304819D02*
X89619047Y-50304819D01*
X89619047Y-50304819D02*
X89714285Y-50352438D01*
X89714285Y-50352438D02*
X89809523Y-50447676D01*
X89809523Y-50447676D02*
X89857142Y-50638152D01*
X89857142Y-50638152D02*
X89857142Y-50971485D01*
X89857142Y-50971485D02*
X89809523Y-51161961D01*
X89809523Y-51161961D02*
X89714285Y-51257200D01*
X89714285Y-51257200D02*
X89619047Y-51304819D01*
X89619047Y-51304819D02*
X89428571Y-51304819D01*
X90809523Y-51304819D02*
X90238095Y-51304819D01*
X90523809Y-51304819D02*
X90523809Y-50304819D01*
X90523809Y-50304819D02*
X90428571Y-50447676D01*
X90428571Y-50447676D02*
X90333333Y-50542914D01*
X90333333Y-50542914D02*
X90238095Y-50590533D01*
X105954819Y-61738094D02*
X104954819Y-61738094D01*
X104954819Y-61738094D02*
X104954819Y-61499999D01*
X104954819Y-61499999D02*
X105002438Y-61357142D01*
X105002438Y-61357142D02*
X105097676Y-61261904D01*
X105097676Y-61261904D02*
X105192914Y-61214285D01*
X105192914Y-61214285D02*
X105383390Y-61166666D01*
X105383390Y-61166666D02*
X105526247Y-61166666D01*
X105526247Y-61166666D02*
X105716723Y-61214285D01*
X105716723Y-61214285D02*
X105811961Y-61261904D01*
X105811961Y-61261904D02*
X105907200Y-61357142D01*
X105907200Y-61357142D02*
X105954819Y-61499999D01*
X105954819Y-61499999D02*
X105954819Y-61738094D01*
X105954819Y-60214285D02*
X105954819Y-60785713D01*
X105954819Y-60499999D02*
X104954819Y-60499999D01*
X104954819Y-60499999D02*
X105097676Y-60595237D01*
X105097676Y-60595237D02*
X105192914Y-60690475D01*
X105192914Y-60690475D02*
X105240533Y-60785713D01*
X100907200Y-62714285D02*
X100954819Y-62571428D01*
X100954819Y-62571428D02*
X100954819Y-62333333D01*
X100954819Y-62333333D02*
X100907200Y-62238095D01*
X100907200Y-62238095D02*
X100859580Y-62190476D01*
X100859580Y-62190476D02*
X100764342Y-62142857D01*
X100764342Y-62142857D02*
X100669104Y-62142857D01*
X100669104Y-62142857D02*
X100573866Y-62190476D01*
X100573866Y-62190476D02*
X100526247Y-62238095D01*
X100526247Y-62238095D02*
X100478628Y-62333333D01*
X100478628Y-62333333D02*
X100431009Y-62523809D01*
X100431009Y-62523809D02*
X100383390Y-62619047D01*
X100383390Y-62619047D02*
X100335771Y-62666666D01*
X100335771Y-62666666D02*
X100240533Y-62714285D01*
X100240533Y-62714285D02*
X100145295Y-62714285D01*
X100145295Y-62714285D02*
X100050057Y-62666666D01*
X100050057Y-62666666D02*
X100002438Y-62619047D01*
X100002438Y-62619047D02*
X99954819Y-62523809D01*
X99954819Y-62523809D02*
X99954819Y-62285714D01*
X99954819Y-62285714D02*
X100002438Y-62142857D01*
X100907200Y-61761904D02*
X100954819Y-61619047D01*
X100954819Y-61619047D02*
X100954819Y-61380952D01*
X100954819Y-61380952D02*
X100907200Y-61285714D01*
X100907200Y-61285714D02*
X100859580Y-61238095D01*
X100859580Y-61238095D02*
X100764342Y-61190476D01*
X100764342Y-61190476D02*
X100669104Y-61190476D01*
X100669104Y-61190476D02*
X100573866Y-61238095D01*
X100573866Y-61238095D02*
X100526247Y-61285714D01*
X100526247Y-61285714D02*
X100478628Y-61380952D01*
X100478628Y-61380952D02*
X100431009Y-61571428D01*
X100431009Y-61571428D02*
X100383390Y-61666666D01*
X100383390Y-61666666D02*
X100335771Y-61714285D01*
X100335771Y-61714285D02*
X100240533Y-61761904D01*
X100240533Y-61761904D02*
X100145295Y-61761904D01*
X100145295Y-61761904D02*
X100050057Y-61714285D01*
X100050057Y-61714285D02*
X100002438Y-61666666D01*
X100002438Y-61666666D02*
X99954819Y-61571428D01*
X99954819Y-61571428D02*
X99954819Y-61333333D01*
X99954819Y-61333333D02*
X100002438Y-61190476D01*
X99954819Y-60857142D02*
X99954819Y-60238095D01*
X99954819Y-60238095D02*
X100335771Y-60571428D01*
X100335771Y-60571428D02*
X100335771Y-60428571D01*
X100335771Y-60428571D02*
X100383390Y-60333333D01*
X100383390Y-60333333D02*
X100431009Y-60285714D01*
X100431009Y-60285714D02*
X100526247Y-60238095D01*
X100526247Y-60238095D02*
X100764342Y-60238095D01*
X100764342Y-60238095D02*
X100859580Y-60285714D01*
X100859580Y-60285714D02*
X100907200Y-60333333D01*
X100907200Y-60333333D02*
X100954819Y-60428571D01*
X100954819Y-60428571D02*
X100954819Y-60714285D01*
X100954819Y-60714285D02*
X100907200Y-60809523D01*
X100907200Y-60809523D02*
X100859580Y-60857142D01*
X100288152Y-59380952D02*
X100954819Y-59380952D01*
X99907200Y-59619047D02*
X100621485Y-59857142D01*
X100621485Y-59857142D02*
X100621485Y-59238095D01*
X140609580Y-59166666D02*
X140657200Y-59214285D01*
X140657200Y-59214285D02*
X140704819Y-59357142D01*
X140704819Y-59357142D02*
X140704819Y-59452380D01*
X140704819Y-59452380D02*
X140657200Y-59595237D01*
X140657200Y-59595237D02*
X140561961Y-59690475D01*
X140561961Y-59690475D02*
X140466723Y-59738094D01*
X140466723Y-59738094D02*
X140276247Y-59785713D01*
X140276247Y-59785713D02*
X140133390Y-59785713D01*
X140133390Y-59785713D02*
X139942914Y-59738094D01*
X139942914Y-59738094D02*
X139847676Y-59690475D01*
X139847676Y-59690475D02*
X139752438Y-59595237D01*
X139752438Y-59595237D02*
X139704819Y-59452380D01*
X139704819Y-59452380D02*
X139704819Y-59357142D01*
X139704819Y-59357142D02*
X139752438Y-59214285D01*
X139752438Y-59214285D02*
X139800057Y-59166666D01*
X140704819Y-58214285D02*
X140704819Y-58785713D01*
X140704819Y-58499999D02*
X139704819Y-58499999D01*
X139704819Y-58499999D02*
X139847676Y-58595237D01*
X139847676Y-58595237D02*
X139942914Y-58690475D01*
X139942914Y-58690475D02*
X139990533Y-58785713D01*
X127538152Y-60714285D02*
X128204819Y-60714285D01*
X127157200Y-60952380D02*
X127871485Y-61190475D01*
X127871485Y-61190475D02*
X127871485Y-60571428D01*
X127204819Y-60285713D02*
X127204819Y-59619047D01*
X127204819Y-59619047D02*
X128204819Y-60047618D01*
X127204819Y-59047618D02*
X127204819Y-58952380D01*
X127204819Y-58952380D02*
X127252438Y-58857142D01*
X127252438Y-58857142D02*
X127300057Y-58809523D01*
X127300057Y-58809523D02*
X127395295Y-58761904D01*
X127395295Y-58761904D02*
X127585771Y-58714285D01*
X127585771Y-58714285D02*
X127823866Y-58714285D01*
X127823866Y-58714285D02*
X128014342Y-58761904D01*
X128014342Y-58761904D02*
X128109580Y-58809523D01*
X128109580Y-58809523D02*
X128157200Y-58857142D01*
X128157200Y-58857142D02*
X128204819Y-58952380D01*
X128204819Y-58952380D02*
X128204819Y-59047618D01*
X128204819Y-59047618D02*
X128157200Y-59142856D01*
X128157200Y-59142856D02*
X128109580Y-59190475D01*
X128109580Y-59190475D02*
X128014342Y-59238094D01*
X128014342Y-59238094D02*
X127823866Y-59285713D01*
X127823866Y-59285713D02*
X127585771Y-59285713D01*
X127585771Y-59285713D02*
X127395295Y-59238094D01*
X127395295Y-59238094D02*
X127300057Y-59190475D01*
X127300057Y-59190475D02*
X127252438Y-59142856D01*
X127252438Y-59142856D02*
X127204819Y-59047618D01*
X127538152Y-58285713D02*
X128538152Y-58285713D01*
X128061961Y-57809523D02*
X128157200Y-57761904D01*
X128157200Y-57761904D02*
X128204819Y-57666666D01*
X128061961Y-58285713D02*
X128157200Y-58238094D01*
X128157200Y-58238094D02*
X128204819Y-58142856D01*
X128204819Y-58142856D02*
X128204819Y-57952380D01*
X128204819Y-57952380D02*
X128157200Y-57857142D01*
X128157200Y-57857142D02*
X128061961Y-57809523D01*
X128061961Y-57809523D02*
X127538152Y-57809523D01*
X127681009Y-56904761D02*
X127681009Y-57238094D01*
X128204819Y-57238094D02*
X127204819Y-57238094D01*
X127204819Y-57238094D02*
X127204819Y-56761904D01*
X90238095Y-72054819D02*
X90238095Y-72864342D01*
X90238095Y-72864342D02*
X90285714Y-72959580D01*
X90285714Y-72959580D02*
X90333333Y-73007200D01*
X90333333Y-73007200D02*
X90428571Y-73054819D01*
X90428571Y-73054819D02*
X90619047Y-73054819D01*
X90619047Y-73054819D02*
X90714285Y-73007200D01*
X90714285Y-73007200D02*
X90761904Y-72959580D01*
X90761904Y-72959580D02*
X90809523Y-72864342D01*
X90809523Y-72864342D02*
X90809523Y-72054819D01*
X91809523Y-73054819D02*
X91238095Y-73054819D01*
X91523809Y-73054819D02*
X91523809Y-72054819D01*
X91523809Y-72054819D02*
X91428571Y-72197676D01*
X91428571Y-72197676D02*
X91333333Y-72292914D01*
X91333333Y-72292914D02*
X91238095Y-72340533D01*
X86952381Y-78854819D02*
X87523809Y-78854819D01*
X87238095Y-79854819D02*
X87238095Y-78854819D01*
X88428571Y-79759580D02*
X88380952Y-79807200D01*
X88380952Y-79807200D02*
X88238095Y-79854819D01*
X88238095Y-79854819D02*
X88142857Y-79854819D01*
X88142857Y-79854819D02*
X88000000Y-79807200D01*
X88000000Y-79807200D02*
X87904762Y-79711961D01*
X87904762Y-79711961D02*
X87857143Y-79616723D01*
X87857143Y-79616723D02*
X87809524Y-79426247D01*
X87809524Y-79426247D02*
X87809524Y-79283390D01*
X87809524Y-79283390D02*
X87857143Y-79092914D01*
X87857143Y-79092914D02*
X87904762Y-78997676D01*
X87904762Y-78997676D02*
X88000000Y-78902438D01*
X88000000Y-78902438D02*
X88142857Y-78854819D01*
X88142857Y-78854819D02*
X88238095Y-78854819D01*
X88238095Y-78854819D02*
X88380952Y-78902438D01*
X88380952Y-78902438D02*
X88428571Y-78950057D01*
X89285714Y-79188152D02*
X89285714Y-79854819D01*
X89047619Y-78807200D02*
X88809524Y-79521485D01*
X88809524Y-79521485D02*
X89428571Y-79521485D01*
X90238095Y-79188152D02*
X90238095Y-79854819D01*
X90000000Y-78807200D02*
X89761905Y-79521485D01*
X89761905Y-79521485D02*
X90380952Y-79521485D01*
X90714286Y-78950057D02*
X90761905Y-78902438D01*
X90761905Y-78902438D02*
X90857143Y-78854819D01*
X90857143Y-78854819D02*
X91095238Y-78854819D01*
X91095238Y-78854819D02*
X91190476Y-78902438D01*
X91190476Y-78902438D02*
X91238095Y-78950057D01*
X91238095Y-78950057D02*
X91285714Y-79045295D01*
X91285714Y-79045295D02*
X91285714Y-79140533D01*
X91285714Y-79140533D02*
X91238095Y-79283390D01*
X91238095Y-79283390D02*
X90666667Y-79854819D01*
X90666667Y-79854819D02*
X91285714Y-79854819D01*
X91619048Y-78854819D02*
X92285714Y-78854819D01*
X92285714Y-78854819D02*
X91857143Y-79854819D01*
X92571429Y-79854819D02*
X93095238Y-79188152D01*
X92571429Y-79188152D02*
X93095238Y-79854819D01*
X93666667Y-78854819D02*
X93857143Y-78854819D01*
X93857143Y-78854819D02*
X93952381Y-78902438D01*
X93952381Y-78902438D02*
X94047619Y-78997676D01*
X94047619Y-78997676D02*
X94095238Y-79188152D01*
X94095238Y-79188152D02*
X94095238Y-79521485D01*
X94095238Y-79521485D02*
X94047619Y-79711961D01*
X94047619Y-79711961D02*
X93952381Y-79807200D01*
X93952381Y-79807200D02*
X93857143Y-79854819D01*
X93857143Y-79854819D02*
X93666667Y-79854819D01*
X93666667Y-79854819D02*
X93571429Y-79807200D01*
X93571429Y-79807200D02*
X93476191Y-79711961D01*
X93476191Y-79711961D02*
X93428572Y-79521485D01*
X93428572Y-79521485D02*
X93428572Y-79188152D01*
X93428572Y-79188152D02*
X93476191Y-78997676D01*
X93476191Y-78997676D02*
X93571429Y-78902438D01*
X93571429Y-78902438D02*
X93666667Y-78854819D01*
X94476191Y-79569104D02*
X94952381Y-79569104D01*
X94380953Y-79854819D02*
X94714286Y-78854819D01*
X94714286Y-78854819D02*
X95047619Y-79854819D01*
D13*
%TO.C,C2*%
X142467000Y-61620000D02*
X142130000Y-61620000D01*
X144870000Y-61620000D02*
X144533000Y-61620000D01*
X142130000Y-56380000D02*
X142130000Y-61620000D01*
X142467000Y-56380000D02*
X142130000Y-56380000D01*
X144870000Y-56380000D02*
X144870000Y-61620000D01*
X144870000Y-56380000D02*
X144533000Y-56380000D01*
%TO.C,L1*%
X123010000Y-61760000D02*
X123010000Y-58810000D01*
X123010000Y-51240000D02*
X123010000Y-54190000D01*
X110990000Y-61760000D02*
X123010000Y-61760000D01*
X110990000Y-61760000D02*
X110990000Y-58810000D01*
X110990000Y-51240000D02*
X123010000Y-51240000D01*
X110990000Y-51240000D02*
X110990000Y-54190000D01*
%TO.C,R3*%
X125772936Y-86090000D02*
X127227064Y-86090000D01*
X125772936Y-87910000D02*
X127227064Y-87910000D01*
%TO.C,R2*%
X154772936Y-55590000D02*
X156227064Y-55590000D01*
X154772936Y-57410000D02*
X156227064Y-57410000D01*
%TO.C,R1*%
X145677064Y-84210000D02*
X141322936Y-84210000D01*
X145677064Y-80790000D02*
X141322936Y-80790000D01*
%TO.C,Q1*%
X84890000Y-51690000D02*
X84890000Y-56310000D01*
X84890000Y-51690000D02*
X95110000Y-51690000D01*
X84890000Y-53070000D02*
X95110000Y-53070000D01*
X84890000Y-56310000D02*
X95110000Y-56310000D01*
X88150000Y-51690000D02*
X88150000Y-53070000D01*
X91850000Y-51690000D02*
X91850000Y-53070000D01*
X95110000Y-51690000D02*
X95110000Y-56310000D01*
%TO.C,D1*%
X104650000Y-57490000D02*
X101350000Y-57490000D01*
X104650000Y-57490000D02*
X104650000Y-63000000D01*
X101350000Y-57490000D02*
X101350000Y-63000000D01*
%TO.C,C1*%
X136875000Y-53520354D02*
X136875000Y-54520354D01*
X137375000Y-54020354D02*
X136375000Y-54020354D01*
X139080000Y-59000000D02*
X128920000Y-59000000D01*
X139080000Y-59040000D02*
X128920000Y-59040000D01*
X139079000Y-59080000D02*
X128921000Y-59080000D01*
X139079000Y-59120000D02*
X128921000Y-59120000D01*
X139077000Y-59160000D02*
X128923000Y-59160000D01*
X139076000Y-59200000D02*
X128924000Y-59200000D01*
X139074000Y-59240000D02*
X128926000Y-59240000D01*
X139072000Y-59280000D02*
X128928000Y-59280000D01*
X139070000Y-59320000D02*
X128930000Y-59320000D01*
X139067000Y-59360000D02*
X128933000Y-59360000D01*
X139064000Y-59400000D02*
X128936000Y-59400000D01*
X139061000Y-59440000D02*
X128939000Y-59440000D01*
X139057000Y-59480000D02*
X128943000Y-59480000D01*
X139054000Y-59520000D02*
X128946000Y-59520000D01*
X139049000Y-59560000D02*
X128951000Y-59560000D01*
X139045000Y-59600000D02*
X128955000Y-59600000D01*
X139040000Y-59640000D02*
X128960000Y-59640000D01*
X139035000Y-59680000D02*
X128965000Y-59680000D01*
X139029000Y-59720000D02*
X128971000Y-59720000D01*
X139023000Y-59760000D02*
X128977000Y-59760000D01*
X139017000Y-59800000D02*
X128983000Y-59800000D01*
X139011000Y-59840000D02*
X128989000Y-59840000D01*
X139004000Y-59880000D02*
X128996000Y-59880000D01*
X138997000Y-59920000D02*
X129003000Y-59920000D01*
X138989000Y-59960000D02*
X129011000Y-59960000D01*
X138981000Y-60000000D02*
X129019000Y-60000000D01*
X138973000Y-60040000D02*
X129027000Y-60040000D01*
X138965000Y-60080000D02*
X129035000Y-60080000D01*
X138956000Y-60120000D02*
X129044000Y-60120000D01*
X138947000Y-60160000D02*
X129053000Y-60160000D01*
X138937000Y-60200000D02*
X129063000Y-60200000D01*
X138928000Y-60240000D02*
X129072000Y-60240000D01*
X138917000Y-60280000D02*
X135240000Y-60280000D01*
X132760000Y-60280000D02*
X129083000Y-60280000D01*
X138907000Y-60320000D02*
X135240000Y-60320000D01*
X132760000Y-60320000D02*
X129093000Y-60320000D01*
X138896000Y-60360000D02*
X135240000Y-60360000D01*
X132760000Y-60360000D02*
X129104000Y-60360000D01*
X138885000Y-60400000D02*
X135240000Y-60400000D01*
X132760000Y-60400000D02*
X129115000Y-60400000D01*
X138873000Y-60440000D02*
X135240000Y-60440000D01*
X132760000Y-60440000D02*
X129127000Y-60440000D01*
X138861000Y-60480000D02*
X135240000Y-60480000D01*
X132760000Y-60480000D02*
X129139000Y-60480000D01*
X138849000Y-60520000D02*
X135240000Y-60520000D01*
X132760000Y-60520000D02*
X129151000Y-60520000D01*
X138837000Y-60560000D02*
X135240000Y-60560000D01*
X132760000Y-60560000D02*
X129163000Y-60560000D01*
X138824000Y-60600000D02*
X135240000Y-60600000D01*
X132760000Y-60600000D02*
X129176000Y-60600000D01*
X138810000Y-60640000D02*
X135240000Y-60640000D01*
X132760000Y-60640000D02*
X129190000Y-60640000D01*
X138797000Y-60680000D02*
X135240000Y-60680000D01*
X132760000Y-60680000D02*
X129203000Y-60680000D01*
X138782000Y-60720000D02*
X135240000Y-60720000D01*
X132760000Y-60720000D02*
X129218000Y-60720000D01*
X138768000Y-60760000D02*
X135240000Y-60760000D01*
X132760000Y-60760000D02*
X129232000Y-60760000D01*
X138753000Y-60800000D02*
X135240000Y-60800000D01*
X132760000Y-60800000D02*
X129247000Y-60800000D01*
X138738000Y-60840000D02*
X135240000Y-60840000D01*
X132760000Y-60840000D02*
X129262000Y-60840000D01*
X138722000Y-60880000D02*
X135240000Y-60880000D01*
X132760000Y-60880000D02*
X129278000Y-60880000D01*
X138706000Y-60920000D02*
X135240000Y-60920000D01*
X132760000Y-60920000D02*
X129294000Y-60920000D01*
X138690000Y-60960000D02*
X135240000Y-60960000D01*
X132760000Y-60960000D02*
X129310000Y-60960000D01*
X138673000Y-61000000D02*
X135240000Y-61000000D01*
X132760000Y-61000000D02*
X129327000Y-61000000D01*
X138656000Y-61040000D02*
X135240000Y-61040000D01*
X132760000Y-61040000D02*
X129344000Y-61040000D01*
X138638000Y-61080000D02*
X135240000Y-61080000D01*
X132760000Y-61080000D02*
X129362000Y-61080000D01*
X138620000Y-61120000D02*
X135240000Y-61120000D01*
X132760000Y-61120000D02*
X129380000Y-61120000D01*
X138602000Y-61160000D02*
X135240000Y-61160000D01*
X132760000Y-61160000D02*
X129398000Y-61160000D01*
X138583000Y-61200000D02*
X135240000Y-61200000D01*
X132760000Y-61200000D02*
X129417000Y-61200000D01*
X138564000Y-61240000D02*
X135240000Y-61240000D01*
X132760000Y-61240000D02*
X129436000Y-61240000D01*
X138544000Y-61280000D02*
X135240000Y-61280000D01*
X132760000Y-61280000D02*
X129456000Y-61280000D01*
X138524000Y-61320000D02*
X135240000Y-61320000D01*
X132760000Y-61320000D02*
X129476000Y-61320000D01*
X138504000Y-61360000D02*
X135240000Y-61360000D01*
X132760000Y-61360000D02*
X129496000Y-61360000D01*
X138483000Y-61400000D02*
X135240000Y-61400000D01*
X132760000Y-61400000D02*
X129517000Y-61400000D01*
X138461000Y-61440000D02*
X135240000Y-61440000D01*
X132760000Y-61440000D02*
X129539000Y-61440000D01*
X138439000Y-61480000D02*
X135240000Y-61480000D01*
X132760000Y-61480000D02*
X129561000Y-61480000D01*
X138417000Y-61520000D02*
X135240000Y-61520000D01*
X132760000Y-61520000D02*
X129583000Y-61520000D01*
X138394000Y-61560000D02*
X135240000Y-61560000D01*
X132760000Y-61560000D02*
X129606000Y-61560000D01*
X138371000Y-61600000D02*
X135240000Y-61600000D01*
X132760000Y-61600000D02*
X129629000Y-61600000D01*
X138347000Y-61640000D02*
X135240000Y-61640000D01*
X132760000Y-61640000D02*
X129653000Y-61640000D01*
X138323000Y-61680000D02*
X135240000Y-61680000D01*
X132760000Y-61680000D02*
X129677000Y-61680000D01*
X138298000Y-61720000D02*
X135240000Y-61720000D01*
X132760000Y-61720000D02*
X129702000Y-61720000D01*
X138272000Y-61760000D02*
X135240000Y-61760000D01*
X132760000Y-61760000D02*
X129728000Y-61760000D01*
X138247000Y-61800000D02*
X135240000Y-61800000D01*
X132760000Y-61800000D02*
X129753000Y-61800000D01*
X138220000Y-61840000D02*
X135240000Y-61840000D01*
X132760000Y-61840000D02*
X129780000Y-61840000D01*
X138193000Y-61880000D02*
X135240000Y-61880000D01*
X132760000Y-61880000D02*
X129807000Y-61880000D01*
X138166000Y-61920000D02*
X135240000Y-61920000D01*
X132760000Y-61920000D02*
X129834000Y-61920000D01*
X138138000Y-61960000D02*
X135240000Y-61960000D01*
X132760000Y-61960000D02*
X129862000Y-61960000D01*
X138109000Y-62000000D02*
X135240000Y-62000000D01*
X132760000Y-62000000D02*
X129891000Y-62000000D01*
X138080000Y-62040000D02*
X135240000Y-62040000D01*
X132760000Y-62040000D02*
X129920000Y-62040000D01*
X138050000Y-62080000D02*
X135240000Y-62080000D01*
X132760000Y-62080000D02*
X129950000Y-62080000D01*
X138020000Y-62120000D02*
X135240000Y-62120000D01*
X132760000Y-62120000D02*
X129980000Y-62120000D01*
X137988000Y-62160000D02*
X135240000Y-62160000D01*
X132760000Y-62160000D02*
X130012000Y-62160000D01*
X137957000Y-62200000D02*
X135240000Y-62200000D01*
X132760000Y-62200000D02*
X130043000Y-62200000D01*
X137924000Y-62240000D02*
X135240000Y-62240000D01*
X132760000Y-62240000D02*
X130076000Y-62240000D01*
X137891000Y-62280000D02*
X135240000Y-62280000D01*
X132760000Y-62280000D02*
X130109000Y-62280000D01*
X137858000Y-62320000D02*
X135240000Y-62320000D01*
X132760000Y-62320000D02*
X130142000Y-62320000D01*
X137823000Y-62360000D02*
X135240000Y-62360000D01*
X132760000Y-62360000D02*
X130177000Y-62360000D01*
X137788000Y-62400000D02*
X135240000Y-62400000D01*
X132760000Y-62400000D02*
X130212000Y-62400000D01*
X137752000Y-62440000D02*
X135240000Y-62440000D01*
X132760000Y-62440000D02*
X130248000Y-62440000D01*
X137716000Y-62480000D02*
X135240000Y-62480000D01*
X132760000Y-62480000D02*
X130284000Y-62480000D01*
X137678000Y-62520000D02*
X135240000Y-62520000D01*
X132760000Y-62520000D02*
X130322000Y-62520000D01*
X137640000Y-62560000D02*
X135240000Y-62560000D01*
X132760000Y-62560000D02*
X130360000Y-62560000D01*
X137601000Y-62600000D02*
X135240000Y-62600000D01*
X132760000Y-62600000D02*
X130399000Y-62600000D01*
X137561000Y-62640000D02*
X135240000Y-62640000D01*
X132760000Y-62640000D02*
X130439000Y-62640000D01*
X137520000Y-62680000D02*
X135240000Y-62680000D01*
X132760000Y-62680000D02*
X130480000Y-62680000D01*
X137478000Y-62720000D02*
X135240000Y-62720000D01*
X132760000Y-62720000D02*
X130522000Y-62720000D01*
X137435000Y-62760000D02*
X130565000Y-62760000D01*
X137391000Y-62800000D02*
X130609000Y-62800000D01*
X137347000Y-62840000D02*
X130653000Y-62840000D01*
X137301000Y-62880000D02*
X130699000Y-62880000D01*
X137254000Y-62920000D02*
X130746000Y-62920000D01*
X137205000Y-62960000D02*
X130795000Y-62960000D01*
X137156000Y-63000000D02*
X130844000Y-63000000D01*
X137105000Y-63040000D02*
X130895000Y-63040000D01*
X137053000Y-63080000D02*
X130947000Y-63080000D01*
X137000000Y-63120000D02*
X131000000Y-63120000D01*
X136945000Y-63160000D02*
X131055000Y-63160000D01*
X136888000Y-63200000D02*
X131112000Y-63200000D01*
X136830000Y-63240000D02*
X131170000Y-63240000D01*
X136770000Y-63280000D02*
X131230000Y-63280000D01*
X136708000Y-63320000D02*
X131292000Y-63320000D01*
X136644000Y-63360000D02*
X131356000Y-63360000D01*
X136578000Y-63400000D02*
X131422000Y-63400000D01*
X136510000Y-63440000D02*
X131490000Y-63440000D01*
X136439000Y-63480000D02*
X131561000Y-63480000D01*
X136365000Y-63520000D02*
X131635000Y-63520000D01*
X136288000Y-63560000D02*
X131712000Y-63560000D01*
X136208000Y-63600000D02*
X131792000Y-63600000D01*
X136124000Y-63640000D02*
X131876000Y-63640000D01*
X136037000Y-63680000D02*
X131963000Y-63680000D01*
X135944000Y-63720000D02*
X132056000Y-63720000D01*
X135846000Y-63760000D02*
X132154000Y-63760000D01*
X135742000Y-63800000D02*
X132258000Y-63800000D01*
X135630000Y-63840000D02*
X132370000Y-63840000D01*
X135509000Y-63880000D02*
X132491000Y-63880000D01*
X135377000Y-63920000D02*
X132623000Y-63920000D01*
X135230000Y-63960000D02*
X132770000Y-63960000D01*
X135062000Y-64000000D02*
X132938000Y-64000000D01*
X134862000Y-64040000D02*
X133138000Y-64040000D01*
X134599000Y-64080000D02*
X133401000Y-64080000D01*
X139120000Y-59000000D02*
G75*
G02*
X128880000Y-59000000I-5120000J0D01*
G01*
X128880000Y-59000000D02*
G75*
G02*
X139120000Y-59000000I5120000J0D01*
G01*
%TO.C,U1*%
X91000000Y-73440000D02*
X89050000Y-73440000D01*
X91000000Y-73440000D02*
X92950000Y-73440000D01*
X91000000Y-78560000D02*
X89050000Y-78560000D01*
X91000000Y-78560000D02*
X92950000Y-78560000D01*
X88300000Y-73535000D02*
X88060000Y-73205000D01*
X88540000Y-73205000D01*
X88300000Y-73535000D01*
G36*
X88300000Y-73535000D02*
G01*
X88060000Y-73205000D01*
X88540000Y-73205000D01*
X88300000Y-73535000D01*
G37*
%TD*%
%LPC*%
D14*
%TO.C,*%
X159500000Y-96000000D03*
%TD*%
%TO.C,REF1*%
X159500000Y-52000000D03*
%TD*%
%TO.C,REF\u002A\u002A*%
X77000000Y-52000000D03*
%TD*%
%TO.C,REF\u002A\u002A*%
X77000000Y-96000000D03*
%TD*%
D15*
%TO.C,C2*%
X143500000Y-61500000D03*
X143500000Y-56500000D03*
%TD*%
D16*
%TO.C,J10*%
X104500000Y-70000000D03*
%TD*%
%TO.C,J9*%
X85000000Y-88500000D03*
%TD*%
D17*
%TO.C,L1*%
X121750000Y-56500000D03*
X112250000Y-56500000D03*
%TD*%
D16*
%TO.C,J8*%
X130500000Y-92000000D03*
%TD*%
%TO.C,J7*%
X122500000Y-92000000D03*
%TD*%
%TO.C,J6*%
X114500000Y-92000000D03*
%TD*%
%TO.C,J5*%
X108000000Y-92000000D03*
%TD*%
%TO.C,J4*%
X155500000Y-75500000D03*
%TD*%
%TO.C,J3*%
X155500000Y-63500000D03*
%TD*%
%TO.C,J2*%
X80000000Y-68500000D03*
%TD*%
%TO.C,J1*%
X80000000Y-59500000D03*
%TD*%
D18*
%TO.C,R3*%
X125037500Y-87000000D03*
X127962500Y-87000000D03*
%TD*%
%TO.C,R2*%
X154037500Y-56500000D03*
X156962500Y-56500000D03*
%TD*%
D19*
%TO.C,R1*%
X146462500Y-82500000D03*
X140537500Y-82500000D03*
%TD*%
D20*
%TO.C,Q1*%
X87460000Y-54950000D03*
D21*
X90000000Y-54950000D03*
X92540000Y-54950000D03*
%TD*%
D22*
%TO.C,D1*%
X103000000Y-59000000D03*
X103000000Y-63000000D03*
%TD*%
D23*
%TO.C,C1*%
X134000000Y-56500000D03*
D24*
X134000000Y-61500000D03*
%TD*%
D25*
%TO.C,U1*%
X88525000Y-74095000D03*
X88525000Y-75365000D03*
X88525000Y-76635000D03*
X88525000Y-77905000D03*
X93475000Y-77905000D03*
X93475000Y-76635000D03*
X93475000Y-75365000D03*
X93475000Y-74095000D03*
%TD*%
%LPD*%
M02*
