%TF.GenerationSoftware,KiCad,Pcbnew,9.0.2*%
%TF.CreationDate,2025-06-21T01:00:01+02:00*%
%TF.ProjectId,schaltung,73636861-6c74-4756-9e67-2e6b69636164,B*%
%TF.SameCoordinates,Original*%
%TF.FileFunction,Copper,L1,Top*%
%TF.FilePolarity,Positive*%
%FSLAX46Y46*%
G04 Gerber Fmt 4.6, Leading zero omitted, Abs format (unit mm)*
G04 Created by KiCad (PCBNEW 9.0.2) date 2025-06-21 01:00:01*
%MOMM*%
%LPD*%
G01*
G04 APERTURE LIST*
G04 Aperture macros list*
%AMRoundRect*
0 Rectangle with rounded corners*
0 $1 Rounding radius*
0 $2 $3 $4 $5 $6 $7 $8 $9 X,Y pos of 4 corners*
0 Add a 4 corners polygon primitive as box body*
4,1,4,$2,$3,$4,$5,$6,$7,$8,$9,$2,$3,0*
0 Add four circle primitives for the rounded corners*
1,1,$1+$1,$2,$3*
1,1,$1+$1,$4,$5*
1,1,$1+$1,$6,$7*
1,1,$1+$1,$8,$9*
0 Add four rect primitives between the rounded corners*
20,1,$1+$1,$2,$3,$4,$5,0*
20,1,$1+$1,$4,$5,$6,$7,0*
20,1,$1+$1,$6,$7,$8,$9,0*
20,1,$1+$1,$8,$9,$2,$3,0*%
G04 Aperture macros list end*
%TA.AperFunction,SMDPad,CuDef*%
%ADD10RoundRect,0.250000X-0.625000X0.312500X-0.625000X-0.312500X0.625000X-0.312500X0.625000X0.312500X0*%
%TD*%
%TA.AperFunction,SMDPad,CuDef*%
%ADD11RoundRect,0.250000X-0.312500X-0.625000X0.312500X-0.625000X0.312500X0.625000X-0.312500X0.625000X0*%
%TD*%
%TA.AperFunction,ComponentPad*%
%ADD12C,4.400000*%
%TD*%
%TA.AperFunction,SMDPad,CuDef*%
%ADD13RoundRect,0.250000X-0.650000X1.000000X-0.650000X-1.000000X0.650000X-1.000000X0.650000X1.000000X0*%
%TD*%
%TA.AperFunction,ComponentPad*%
%ADD14C,1.600000*%
%TD*%
%TA.AperFunction,ComponentPad*%
%ADD15R,1.905000X2.000000*%
%TD*%
%TA.AperFunction,ComponentPad*%
%ADD16O,1.905000X2.000000*%
%TD*%
%TA.AperFunction,SMDPad,CuDef*%
%ADD17RoundRect,0.150000X-0.825000X-0.150000X0.825000X-0.150000X0.825000X0.150000X-0.825000X0.150000X0*%
%TD*%
%TA.AperFunction,SMDPad,CuDef*%
%ADD18RoundRect,0.250002X-1.799998X-1.799998X1.799998X-1.799998X1.799998X1.799998X-1.799998X1.799998X0*%
%TD*%
%TA.AperFunction,ComponentPad*%
%ADD19RoundRect,0.250000X-0.750000X0.750000X-0.750000X-0.750000X0.750000X-0.750000X0.750000X0.750000X0*%
%TD*%
%TA.AperFunction,ComponentPad*%
%ADD20C,2.000000*%
%TD*%
%TA.AperFunction,SMDPad,CuDef*%
%ADD21RoundRect,0.250000X0.362500X1.425000X-0.362500X1.425000X-0.362500X-1.425000X0.362500X-1.425000X0*%
%TD*%
%TA.AperFunction,ViaPad*%
%ADD22C,1.000000*%
%TD*%
%TA.AperFunction,ViaPad*%
%ADD23C,0.600000*%
%TD*%
%TA.AperFunction,Conductor*%
%ADD24C,1.000000*%
%TD*%
%TA.AperFunction,Conductor*%
%ADD25C,0.200000*%
%TD*%
%TA.AperFunction,Conductor*%
%ADD26C,1.500000*%
%TD*%
%TA.AperFunction,Conductor*%
%ADD27C,0.600000*%
%TD*%
G04 APERTURE END LIST*
D10*
%TO.P,R4_Bleed1,1*%
%TO.N,Net-(J3-Pin_1)*%
X143510000Y-62037500D03*
%TO.P,R4_Bleed1,2*%
%TO.N,Net-(J4-Pin_1)*%
X143510000Y-64962500D03*
%TD*%
D11*
%TO.P,R2,1*%
%TO.N,Net-(J3-Pin_1)*%
X154037500Y-56500000D03*
%TO.P,R2,2*%
%TO.N,Net-(J7-Pin_1)*%
X156962500Y-56500000D03*
%TD*%
%TO.P,R3,1*%
%TO.N,Net-(J7-Pin_1)*%
X125037500Y-87000000D03*
%TO.P,R3,2*%
%TO.N,GND*%
X127962500Y-87000000D03*
%TD*%
D12*
%TO.P,J2,1,Pin_1*%
%TO.N,GND*%
X80000000Y-68500000D03*
%TD*%
D13*
%TO.P,D1,1,K*%
%TO.N,Net-(D1-K)*%
X103000000Y-59000000D03*
%TO.P,D1,2,A*%
%TO.N,GND*%
X103000000Y-63000000D03*
%TD*%
D12*
%TO.P,J1,1,Pin_1*%
%TO.N,Net-(J1-Pin_1)*%
X80000000Y-59500000D03*
%TD*%
%TO.P,J3,1,Pin_1*%
%TO.N,Net-(J3-Pin_1)*%
X155500000Y-63500000D03*
%TD*%
%TO.P,J5,1,Pin_1*%
%TO.N,Net-(J5-Pin_1)*%
X108000000Y-92000000D03*
%TD*%
%TO.P,J6,1,Pin_1*%
%TO.N,Net-(J4-Pin_1)*%
X114500000Y-92000000D03*
%TD*%
%TO.P,J7,1,Pin_1*%
%TO.N,Net-(J7-Pin_1)*%
X122500000Y-92000000D03*
%TD*%
%TO.P,J10,1,Pin_1*%
%TO.N,GND*%
X104500000Y-70000000D03*
%TD*%
D14*
%TO.P,C2,1*%
%TO.N,Net-(J3-Pin_1)*%
X138430000Y-56500000D03*
%TO.P,C2,2*%
%TO.N,GND*%
X138430000Y-61500000D03*
%TD*%
D15*
%TO.P,Q1,1,G*%
%TO.N,Net-(Q1-G)*%
X87460000Y-54950000D03*
D16*
%TO.P,Q1,2,D*%
%TO.N,Net-(J1-Pin_1)*%
X90000000Y-54950000D03*
%TO.P,Q1,3,S*%
%TO.N,Net-(D1-K)*%
X92540000Y-54950000D03*
%TD*%
D12*
%TO.P,J8,1,Pin_1*%
%TO.N,GND*%
X130500000Y-92000000D03*
%TD*%
%TO.P,J4,1,Pin_1*%
%TO.N,Net-(J4-Pin_1)*%
X155500000Y-75500000D03*
%TD*%
D17*
%TO.P,U1,1,NC*%
%TO.N,unconnected-(U1-NC-Pad1)*%
X88525000Y-74095000D03*
%TO.P,U1,2,IN_A*%
%TO.N,Net-(J5-Pin_1)*%
X88525000Y-75365000D03*
%TO.P,U1,3,GND*%
%TO.N,GND*%
X88525000Y-76635000D03*
%TO.P,U1,4,IN_B*%
%TO.N,unconnected-(U1-IN_B-Pad4)*%
X88525000Y-77905000D03*
%TO.P,U1,5,OUT_B*%
%TO.N,unconnected-(U1-OUT_B-Pad5)*%
X93475000Y-77905000D03*
%TO.P,U1,6,VDD*%
%TO.N,Net-(J1-Pin_1)*%
X93475000Y-76635000D03*
%TO.P,U1,7,OUT_A*%
%TO.N,Net-(Q1-G)*%
X93475000Y-75365000D03*
%TO.P,U1,8,NC*%
%TO.N,unconnected-(U1-NC-Pad8)*%
X93475000Y-74095000D03*
%TD*%
D18*
%TO.P,L1,1,1*%
%TO.N,Net-(D1-K)*%
X109550000Y-55880000D03*
%TO.P,L1,2,2*%
%TO.N,Net-(J3-Pin_1)*%
X119050000Y-55880000D03*
%TD*%
D19*
%TO.P,C1,1*%
%TO.N,Net-(J3-Pin_1)*%
X127000000Y-56500000D03*
D20*
%TO.P,C1,2*%
%TO.N,GND*%
X127000000Y-61500000D03*
%TD*%
D21*
%TO.P,R1,1*%
%TO.N,Net-(J4-Pin_1)*%
X146462500Y-82500000D03*
%TO.P,R1,2*%
%TO.N,GND*%
X140537500Y-82500000D03*
%TD*%
D22*
%TO.N,GND*%
X103000000Y-63000000D03*
D23*
X88525000Y-76635000D03*
%TD*%
D24*
%TO.N,Net-(J3-Pin_1)*%
X143510000Y-62037500D02*
X143510000Y-56510000D01*
D25*
X143510000Y-56510000D02*
X143500000Y-56500000D01*
D26*
X119050000Y-55880000D02*
X119670000Y-56500000D01*
X119670000Y-56500000D02*
X143500000Y-56500000D01*
%TO.N,Net-(D1-K)*%
X103000000Y-59000000D02*
X104830000Y-59000000D01*
X104830000Y-59000000D02*
X107330000Y-56500000D01*
X107330000Y-56500000D02*
X108930000Y-56500000D01*
D25*
%TO.N,GND*%
X130500000Y-92000000D02*
X130500000Y-91500000D01*
D26*
X103000000Y-68500000D02*
X104500000Y-70000000D01*
D24*
X140537500Y-82500000D02*
X131037500Y-92000000D01*
X130500000Y-91500000D02*
X127962500Y-88962500D01*
D25*
X131037500Y-92000000D02*
X130500000Y-92000000D01*
D26*
X103000000Y-63000000D02*
X103000000Y-68500000D01*
D24*
X127962500Y-88962500D02*
X127962500Y-87000000D01*
D26*
%TO.N,Net-(J3-Pin_1)*%
X151000000Y-63500000D02*
X155500000Y-63500000D01*
X144000000Y-56500000D02*
X154037500Y-56500000D01*
X144000000Y-56500000D02*
X151000000Y-63500000D01*
%TO.N,Net-(D1-K)*%
X98950000Y-54950000D02*
X103000000Y-59000000D01*
X92540000Y-54950000D02*
X98950000Y-54950000D01*
D27*
%TO.N,Net-(Q1-G)*%
X89500000Y-65000000D02*
X98000000Y-73500000D01*
X87460000Y-54950000D02*
X77050000Y-54950000D01*
X75500000Y-56500000D02*
X75500000Y-63500000D01*
X77050000Y-54950000D02*
X75500000Y-56500000D01*
X98000000Y-73500000D02*
X96135000Y-75365000D01*
X75500000Y-63500000D02*
X77000000Y-65000000D01*
X77000000Y-65000000D02*
X89500000Y-65000000D01*
X96135000Y-75365000D02*
X93475000Y-75365000D01*
D26*
%TO.N,Net-(J1-Pin_1)*%
X87950000Y-59500000D02*
X90000000Y-57450000D01*
D27*
X93475000Y-76635000D02*
X97365000Y-76635000D01*
X97365000Y-76635000D02*
X100000000Y-74000000D01*
D25*
X90000000Y-54950000D02*
X90000000Y-54997500D01*
D26*
X80000000Y-59500000D02*
X87950000Y-59500000D01*
X90000000Y-57450000D02*
X90000000Y-54950000D01*
D27*
X100000000Y-67450000D02*
X90000000Y-57450000D01*
X100000000Y-74000000D02*
X100000000Y-67450000D01*
D26*
%TO.N,Net-(J4-Pin_1)*%
X114500000Y-92000000D02*
X119500000Y-97000000D01*
X119500000Y-97000000D02*
X147000000Y-97000000D01*
X148500000Y-82500000D02*
X146462500Y-82500000D01*
X152962500Y-86962500D02*
X148500000Y-82500000D01*
X155500000Y-75500000D02*
X148500000Y-82500000D01*
X152962500Y-91037500D02*
X152962500Y-86962500D01*
X147000000Y-97000000D02*
X152962500Y-91037500D01*
D24*
%TO.N,Net-(J7-Pin_1)*%
X160500000Y-66000000D02*
X160500000Y-57500000D01*
X160500000Y-57500000D02*
X157962500Y-57500000D01*
D25*
X122500000Y-92000000D02*
X122500000Y-91000000D01*
D24*
X123500000Y-81000000D02*
X122500000Y-82000000D01*
X123500000Y-81000000D02*
X134500000Y-70000000D01*
X122500000Y-82000000D02*
X122500000Y-92000000D01*
X156500000Y-70000000D02*
X160500000Y-66000000D01*
X157962500Y-57500000D02*
X156962500Y-56500000D01*
X134500000Y-70000000D02*
X156500000Y-70000000D01*
X125037500Y-87000000D02*
X125037500Y-82537500D01*
X125037500Y-82537500D02*
X123500000Y-81000000D01*
D27*
%TO.N,Net-(J5-Pin_1)*%
X84000000Y-76500000D02*
X84000000Y-77500000D01*
X85135000Y-75365000D02*
X84000000Y-76500000D01*
X88525000Y-75365000D02*
X85135000Y-75365000D01*
X98500000Y-92000000D02*
X108000000Y-92000000D01*
X84000000Y-77500000D02*
X98500000Y-92000000D01*
%TD*%
M02*
