%TF.GenerationSoftware,KiCad,Pcbnew,9.0.2*%
%TF.CreationDate,2025-06-21T01:00:01+02:00*%
%TF.ProjectId,schaltung,73636861-6c74-4756-9e67-2e6b69636164,B*%
%TF.SameCoordinates,Original*%
%TF.FileFunction,Copper,L2,Bot*%
%TF.FilePolarity,Positive*%
%FSLAX46Y46*%
G04 Gerber Fmt 4.6, Leading zero omitted, Abs format (unit mm)*
G04 Created by KiCad (PCBNEW 9.0.2) date 2025-06-21 01:00:01*
%MOMM*%
%LPD*%
G01*
G04 APERTURE LIST*
G04 Aperture macros list*
%AMRoundRect*
0 Rectangle with rounded corners*
0 $1 Rounding radius*
0 $2 $3 $4 $5 $6 $7 $8 $9 X,Y pos of 4 corners*
0 Add a 4 corners polygon primitive as box body*
4,1,4,$2,$3,$4,$5,$6,$7,$8,$9,$2,$3,0*
0 Add four circle primitives for the rounded corners*
1,1,$1+$1,$2,$3*
1,1,$1+$1,$4,$5*
1,1,$1+$1,$6,$7*
1,1,$1+$1,$8,$9*
0 Add four rect primitives between the rounded corners*
20,1,$1+$1,$2,$3,$4,$5,0*
20,1,$1+$1,$4,$5,$6,$7,0*
20,1,$1+$1,$6,$7,$8,$9,0*
20,1,$1+$1,$8,$9,$2,$3,0*%
G04 Aperture macros list end*
%TA.AperFunction,ComponentPad*%
%ADD10C,4.400000*%
%TD*%
%TA.AperFunction,ComponentPad*%
%ADD11C,1.600000*%
%TD*%
%TA.AperFunction,ComponentPad*%
%ADD12R,1.905000X2.000000*%
%TD*%
%TA.AperFunction,ComponentPad*%
%ADD13O,1.905000X2.000000*%
%TD*%
%TA.AperFunction,ComponentPad*%
%ADD14RoundRect,0.250000X-0.750000X0.750000X-0.750000X-0.750000X0.750000X-0.750000X0.750000X0.750000X0*%
%TD*%
%TA.AperFunction,ComponentPad*%
%ADD15C,2.000000*%
%TD*%
%TA.AperFunction,ViaPad*%
%ADD16C,1.000000*%
%TD*%
%TA.AperFunction,ViaPad*%
%ADD17C,0.600000*%
%TD*%
G04 APERTURE END LIST*
D10*
%TO.P,J2,1,Pin_1*%
%TO.N,GND*%
X80000000Y-68500000D03*
%TD*%
%TO.P,J1,1,Pin_1*%
%TO.N,Net-(J1-Pin_1)*%
X80000000Y-59500000D03*
%TD*%
%TO.P,J3,1,Pin_1*%
%TO.N,Net-(J3-Pin_1)*%
X155500000Y-63500000D03*
%TD*%
%TO.P,J5,1,Pin_1*%
%TO.N,Net-(J5-Pin_1)*%
X108000000Y-92000000D03*
%TD*%
%TO.P,J6,1,Pin_1*%
%TO.N,Net-(J4-Pin_1)*%
X114500000Y-92000000D03*
%TD*%
%TO.P,J7,1,Pin_1*%
%TO.N,Net-(J7-Pin_1)*%
X122500000Y-92000000D03*
%TD*%
%TO.P,J10,1,Pin_1*%
%TO.N,GND*%
X104500000Y-70000000D03*
%TD*%
D11*
%TO.P,C2,1*%
%TO.N,Net-(J3-Pin_1)*%
X138430000Y-56500000D03*
%TO.P,C2,2*%
%TO.N,GND*%
X138430000Y-61500000D03*
%TD*%
D12*
%TO.P,Q1,1,G*%
%TO.N,Net-(Q1-G)*%
X87460000Y-54950000D03*
D13*
%TO.P,Q1,2,D*%
%TO.N,Net-(J1-Pin_1)*%
X90000000Y-54950000D03*
%TO.P,Q1,3,S*%
%TO.N,Net-(D1-K)*%
X92540000Y-54950000D03*
%TD*%
D10*
%TO.P,J8,1,Pin_1*%
%TO.N,GND*%
X130500000Y-92000000D03*
%TD*%
%TO.P,J4,1,Pin_1*%
%TO.N,Net-(J4-Pin_1)*%
X155500000Y-75500000D03*
%TD*%
D14*
%TO.P,C1,1*%
%TO.N,Net-(J3-Pin_1)*%
X127000000Y-56500000D03*
D15*
%TO.P,C1,2*%
%TO.N,GND*%
X127000000Y-61500000D03*
%TD*%
D16*
%TO.N,GND*%
X103000000Y-63000000D03*
D17*
X88525000Y-76635000D03*
%TD*%
%TA.AperFunction,Conductor*%
%TO.N,GND*%
G36*
X160943039Y-50019685D02*
G01*
X160988794Y-50072489D01*
X161000000Y-50124000D01*
X161000000Y-51463312D01*
X160980315Y-51530351D01*
X160927511Y-51576106D01*
X160858353Y-51586050D01*
X160794797Y-51557025D01*
X160758069Y-51501631D01*
X160751555Y-51481583D01*
X160655048Y-51292179D01*
X160530109Y-51120213D01*
X160379786Y-50969890D01*
X160207820Y-50844951D01*
X160018414Y-50748444D01*
X160018413Y-50748443D01*
X160018412Y-50748443D01*
X159816243Y-50682754D01*
X159816241Y-50682753D01*
X159816240Y-50682753D01*
X159654957Y-50657208D01*
X159606287Y-50649500D01*
X159393713Y-50649500D01*
X159345042Y-50657208D01*
X159183760Y-50682753D01*
X158981585Y-50748444D01*
X158792179Y-50844951D01*
X158620213Y-50969890D01*
X158469890Y-51120213D01*
X158344951Y-51292179D01*
X158248444Y-51481585D01*
X158182753Y-51683760D01*
X158149500Y-51893713D01*
X158149500Y-52106287D01*
X158182754Y-52316243D01*
X158233575Y-52472654D01*
X158248444Y-52518414D01*
X158344951Y-52707820D01*
X158469890Y-52879786D01*
X158620213Y-53030109D01*
X158792179Y-53155048D01*
X158792181Y-53155049D01*
X158792184Y-53155051D01*
X158981588Y-53251557D01*
X159183757Y-53317246D01*
X159393713Y-53350500D01*
X159393714Y-53350500D01*
X159606286Y-53350500D01*
X159606287Y-53350500D01*
X159816243Y-53317246D01*
X160018412Y-53251557D01*
X160207816Y-53155051D01*
X160229789Y-53139086D01*
X160379786Y-53030109D01*
X160379788Y-53030106D01*
X160379792Y-53030104D01*
X160530104Y-52879792D01*
X160530106Y-52879788D01*
X160530109Y-52879786D01*
X160655048Y-52707820D01*
X160655047Y-52707820D01*
X160655051Y-52707816D01*
X160751557Y-52518412D01*
X160758069Y-52498367D01*
X160797506Y-52440694D01*
X160861865Y-52413495D01*
X160930711Y-52425410D01*
X160982187Y-52472654D01*
X161000000Y-52536687D01*
X161000000Y-95463312D01*
X160980315Y-95530351D01*
X160927511Y-95576106D01*
X160858353Y-95586050D01*
X160794797Y-95557025D01*
X160758069Y-95501631D01*
X160751555Y-95481583D01*
X160655048Y-95292179D01*
X160530109Y-95120213D01*
X160379786Y-94969890D01*
X160207820Y-94844951D01*
X160018414Y-94748444D01*
X160018413Y-94748443D01*
X160018412Y-94748443D01*
X159816243Y-94682754D01*
X159816241Y-94682753D01*
X159816240Y-94682753D01*
X159654957Y-94657208D01*
X159606287Y-94649500D01*
X159393713Y-94649500D01*
X159345042Y-94657208D01*
X159183760Y-94682753D01*
X158981585Y-94748444D01*
X158792179Y-94844951D01*
X158620213Y-94969890D01*
X158469890Y-95120213D01*
X158344951Y-95292179D01*
X158248444Y-95481585D01*
X158182753Y-95683760D01*
X158149500Y-95893713D01*
X158149500Y-96106287D01*
X158182754Y-96316243D01*
X158233575Y-96472654D01*
X158248444Y-96518414D01*
X158344951Y-96707820D01*
X158469890Y-96879786D01*
X158620213Y-97030109D01*
X158792179Y-97155048D01*
X158792181Y-97155049D01*
X158792184Y-97155051D01*
X158981588Y-97251557D01*
X159183757Y-97317246D01*
X159393713Y-97350500D01*
X159393714Y-97350500D01*
X159606286Y-97350500D01*
X159606287Y-97350500D01*
X159816243Y-97317246D01*
X160018412Y-97251557D01*
X160207816Y-97155051D01*
X160229789Y-97139086D01*
X160379786Y-97030109D01*
X160379788Y-97030106D01*
X160379792Y-97030104D01*
X160530104Y-96879792D01*
X160530106Y-96879788D01*
X160530109Y-96879786D01*
X160655048Y-96707820D01*
X160655047Y-96707820D01*
X160655051Y-96707816D01*
X160751557Y-96518412D01*
X160758069Y-96498367D01*
X160797506Y-96440694D01*
X160861865Y-96413495D01*
X160930711Y-96425410D01*
X160982187Y-96472654D01*
X161000000Y-96536687D01*
X161000000Y-97876000D01*
X160980315Y-97943039D01*
X160927511Y-97988794D01*
X160876000Y-98000000D01*
X74624000Y-98000000D01*
X74556961Y-97980315D01*
X74511206Y-97927511D01*
X74500000Y-97876000D01*
X74500000Y-95893713D01*
X75649500Y-95893713D01*
X75649500Y-96106287D01*
X75682754Y-96316243D01*
X75733575Y-96472654D01*
X75748444Y-96518414D01*
X75844951Y-96707820D01*
X75969890Y-96879786D01*
X76120213Y-97030109D01*
X76292179Y-97155048D01*
X76292181Y-97155049D01*
X76292184Y-97155051D01*
X76481588Y-97251557D01*
X76683757Y-97317246D01*
X76893713Y-97350500D01*
X76893714Y-97350500D01*
X77106286Y-97350500D01*
X77106287Y-97350500D01*
X77316243Y-97317246D01*
X77518412Y-97251557D01*
X77707816Y-97155051D01*
X77729789Y-97139086D01*
X77879786Y-97030109D01*
X77879788Y-97030106D01*
X77879792Y-97030104D01*
X78030104Y-96879792D01*
X78030106Y-96879788D01*
X78030109Y-96879786D01*
X78155048Y-96707820D01*
X78155047Y-96707820D01*
X78155051Y-96707816D01*
X78251557Y-96518412D01*
X78317246Y-96316243D01*
X78350500Y-96106287D01*
X78350500Y-95893713D01*
X78317246Y-95683757D01*
X78251557Y-95481588D01*
X78155051Y-95292184D01*
X78155049Y-95292181D01*
X78155048Y-95292179D01*
X78030109Y-95120213D01*
X77879786Y-94969890D01*
X77707820Y-94844951D01*
X77518414Y-94748444D01*
X77518413Y-94748443D01*
X77518412Y-94748443D01*
X77316243Y-94682754D01*
X77316241Y-94682753D01*
X77316240Y-94682753D01*
X77154957Y-94657208D01*
X77106287Y-94649500D01*
X76893713Y-94649500D01*
X76845042Y-94657208D01*
X76683760Y-94682753D01*
X76481585Y-94748444D01*
X76292179Y-94844951D01*
X76120213Y-94969890D01*
X75969890Y-95120213D01*
X75844951Y-95292179D01*
X75748444Y-95481585D01*
X75682753Y-95683760D01*
X75649500Y-95893713D01*
X74500000Y-95893713D01*
X74500000Y-91848336D01*
X105299500Y-91848336D01*
X105299500Y-92151663D01*
X105333457Y-92453048D01*
X105333460Y-92453062D01*
X105400953Y-92748771D01*
X105400957Y-92748783D01*
X105501133Y-93035068D01*
X105632733Y-93308338D01*
X105632735Y-93308341D01*
X105794108Y-93565164D01*
X105983221Y-93802304D01*
X106197696Y-94016779D01*
X106434836Y-94205892D01*
X106691659Y-94367265D01*
X106964935Y-94498868D01*
X107179951Y-94574105D01*
X107251216Y-94599042D01*
X107251228Y-94599046D01*
X107546937Y-94666540D01*
X107546946Y-94666541D01*
X107546951Y-94666542D01*
X107747874Y-94689180D01*
X107848337Y-94700499D01*
X107848340Y-94700500D01*
X107848343Y-94700500D01*
X108151660Y-94700500D01*
X108151661Y-94700499D01*
X108305694Y-94683144D01*
X108453048Y-94666542D01*
X108453051Y-94666541D01*
X108453063Y-94666540D01*
X108748772Y-94599046D01*
X109035065Y-94498868D01*
X109308341Y-94367265D01*
X109565164Y-94205892D01*
X109802304Y-94016779D01*
X110016779Y-93802304D01*
X110205892Y-93565164D01*
X110367265Y-93308341D01*
X110498868Y-93035065D01*
X110599046Y-92748772D01*
X110666540Y-92453063D01*
X110700500Y-92151657D01*
X110700500Y-91848343D01*
X110700499Y-91848336D01*
X111799500Y-91848336D01*
X111799500Y-92151663D01*
X111833457Y-92453048D01*
X111833460Y-92453062D01*
X111900953Y-92748771D01*
X111900957Y-92748783D01*
X112001133Y-93035068D01*
X112132733Y-93308338D01*
X112132735Y-93308341D01*
X112294108Y-93565164D01*
X112483221Y-93802304D01*
X112697696Y-94016779D01*
X112934836Y-94205892D01*
X113191659Y-94367265D01*
X113464935Y-94498868D01*
X113679951Y-94574105D01*
X113751216Y-94599042D01*
X113751228Y-94599046D01*
X114046937Y-94666540D01*
X114046946Y-94666541D01*
X114046951Y-94666542D01*
X114247874Y-94689180D01*
X114348337Y-94700499D01*
X114348340Y-94700500D01*
X114348343Y-94700500D01*
X114651660Y-94700500D01*
X114651661Y-94700499D01*
X114805694Y-94683144D01*
X114953048Y-94666542D01*
X114953051Y-94666541D01*
X114953063Y-94666540D01*
X115248772Y-94599046D01*
X115535065Y-94498868D01*
X115808341Y-94367265D01*
X116065164Y-94205892D01*
X116302304Y-94016779D01*
X116516779Y-93802304D01*
X116705892Y-93565164D01*
X116867265Y-93308341D01*
X116998868Y-93035065D01*
X117099046Y-92748772D01*
X117166540Y-92453063D01*
X117200500Y-92151657D01*
X117200500Y-91848343D01*
X117200499Y-91848336D01*
X119799500Y-91848336D01*
X119799500Y-92151663D01*
X119833457Y-92453048D01*
X119833460Y-92453062D01*
X119900953Y-92748771D01*
X119900957Y-92748783D01*
X120001133Y-93035068D01*
X120132733Y-93308338D01*
X120132735Y-93308341D01*
X120294108Y-93565164D01*
X120483221Y-93802304D01*
X120697696Y-94016779D01*
X120934836Y-94205892D01*
X121191659Y-94367265D01*
X121464935Y-94498868D01*
X121679951Y-94574105D01*
X121751216Y-94599042D01*
X121751228Y-94599046D01*
X122046937Y-94666540D01*
X122046946Y-94666541D01*
X122046951Y-94666542D01*
X122247874Y-94689180D01*
X122348337Y-94700499D01*
X122348340Y-94700500D01*
X122348343Y-94700500D01*
X122651660Y-94700500D01*
X122651661Y-94700499D01*
X122805694Y-94683144D01*
X122953048Y-94666542D01*
X122953051Y-94666541D01*
X122953063Y-94666540D01*
X123248772Y-94599046D01*
X123535065Y-94498868D01*
X123808341Y-94367265D01*
X124065164Y-94205892D01*
X124302304Y-94016779D01*
X124516779Y-93802304D01*
X124705892Y-93565164D01*
X124867265Y-93308341D01*
X124998868Y-93035065D01*
X125099046Y-92748772D01*
X125166540Y-92453063D01*
X125200500Y-92151657D01*
X125200500Y-91848343D01*
X125166540Y-91546937D01*
X125099046Y-91251228D01*
X124998868Y-90964935D01*
X124867265Y-90691659D01*
X124705892Y-90434836D01*
X124516779Y-90197696D01*
X124302304Y-89983221D01*
X124065164Y-89794108D01*
X123808341Y-89632735D01*
X123808338Y-89632733D01*
X123535068Y-89501133D01*
X123248783Y-89400957D01*
X123248771Y-89400953D01*
X123020556Y-89348864D01*
X122953063Y-89333460D01*
X122953060Y-89333459D01*
X122953048Y-89333457D01*
X122651663Y-89299500D01*
X122651657Y-89299500D01*
X122348343Y-89299500D01*
X122348336Y-89299500D01*
X122046951Y-89333457D01*
X122046937Y-89333460D01*
X121751228Y-89400953D01*
X121751216Y-89400957D01*
X121464931Y-89501133D01*
X121191661Y-89632733D01*
X120934837Y-89794107D01*
X120697696Y-89983220D01*
X120483220Y-90197696D01*
X120294107Y-90434837D01*
X120132733Y-90691661D01*
X120001133Y-90964931D01*
X119900957Y-91251216D01*
X119900953Y-91251228D01*
X119833460Y-91546937D01*
X119833457Y-91546951D01*
X119799500Y-91848336D01*
X117200499Y-91848336D01*
X117166540Y-91546937D01*
X117099046Y-91251228D01*
X116998868Y-90964935D01*
X116867265Y-90691659D01*
X116705892Y-90434836D01*
X116516779Y-90197696D01*
X116302304Y-89983221D01*
X116065164Y-89794108D01*
X115808341Y-89632735D01*
X115808338Y-89632733D01*
X115535068Y-89501133D01*
X115248783Y-89400957D01*
X115248771Y-89400953D01*
X115020556Y-89348864D01*
X114953063Y-89333460D01*
X114953060Y-89333459D01*
X114953048Y-89333457D01*
X114651663Y-89299500D01*
X114651657Y-89299500D01*
X114348343Y-89299500D01*
X114348336Y-89299500D01*
X114046951Y-89333457D01*
X114046937Y-89333460D01*
X113751228Y-89400953D01*
X113751216Y-89400957D01*
X113464931Y-89501133D01*
X113191661Y-89632733D01*
X112934837Y-89794107D01*
X112697696Y-89983220D01*
X112483220Y-90197696D01*
X112294107Y-90434837D01*
X112132733Y-90691661D01*
X112001133Y-90964931D01*
X111900957Y-91251216D01*
X111900953Y-91251228D01*
X111833460Y-91546937D01*
X111833457Y-91546951D01*
X111799500Y-91848336D01*
X110700499Y-91848336D01*
X110666540Y-91546937D01*
X110599046Y-91251228D01*
X110498868Y-90964935D01*
X110367265Y-90691659D01*
X110205892Y-90434836D01*
X110016779Y-90197696D01*
X109802304Y-89983221D01*
X109565164Y-89794108D01*
X109308341Y-89632735D01*
X109308338Y-89632733D01*
X109035068Y-89501133D01*
X108748783Y-89400957D01*
X108748771Y-89400953D01*
X108520556Y-89348864D01*
X108453063Y-89333460D01*
X108453060Y-89333459D01*
X108453048Y-89333457D01*
X108151663Y-89299500D01*
X108151657Y-89299500D01*
X107848343Y-89299500D01*
X107848336Y-89299500D01*
X107546951Y-89333457D01*
X107546937Y-89333460D01*
X107251228Y-89400953D01*
X107251216Y-89400957D01*
X106964931Y-89501133D01*
X106691661Y-89632733D01*
X106434837Y-89794107D01*
X106197696Y-89983220D01*
X105983220Y-90197696D01*
X105794107Y-90434837D01*
X105632733Y-90691661D01*
X105501133Y-90964931D01*
X105400957Y-91251216D01*
X105400953Y-91251228D01*
X105333460Y-91546937D01*
X105333457Y-91546951D01*
X105299500Y-91848336D01*
X74500000Y-91848336D01*
X74500000Y-75348336D01*
X152799500Y-75348336D01*
X152799500Y-75651663D01*
X152833457Y-75953048D01*
X152833460Y-75953062D01*
X152900953Y-76248771D01*
X152900957Y-76248783D01*
X153001133Y-76535068D01*
X153132733Y-76808338D01*
X153132735Y-76808341D01*
X153294108Y-77065164D01*
X153483221Y-77302304D01*
X153697696Y-77516779D01*
X153934836Y-77705892D01*
X154191659Y-77867265D01*
X154464935Y-77998868D01*
X154679951Y-78074105D01*
X154751216Y-78099042D01*
X154751228Y-78099046D01*
X155046937Y-78166540D01*
X155046946Y-78166541D01*
X155046951Y-78166542D01*
X155247874Y-78189180D01*
X155348337Y-78200499D01*
X155348340Y-78200500D01*
X155348343Y-78200500D01*
X155651660Y-78200500D01*
X155651661Y-78200499D01*
X155805694Y-78183144D01*
X155953048Y-78166542D01*
X155953051Y-78166541D01*
X155953063Y-78166540D01*
X156248772Y-78099046D01*
X156535065Y-77998868D01*
X156808341Y-77867265D01*
X157065164Y-77705892D01*
X157302304Y-77516779D01*
X157516779Y-77302304D01*
X157705892Y-77065164D01*
X157867265Y-76808341D01*
X157998868Y-76535065D01*
X158099046Y-76248772D01*
X158166540Y-75953063D01*
X158200500Y-75651657D01*
X158200500Y-75348343D01*
X158166540Y-75046937D01*
X158099046Y-74751228D01*
X157998868Y-74464935D01*
X157867265Y-74191659D01*
X157705892Y-73934836D01*
X157516779Y-73697696D01*
X157302304Y-73483221D01*
X157065164Y-73294108D01*
X156808341Y-73132735D01*
X156808338Y-73132733D01*
X156535068Y-73001133D01*
X156248783Y-72900957D01*
X156248771Y-72900953D01*
X156020556Y-72848864D01*
X155953063Y-72833460D01*
X155953060Y-72833459D01*
X155953048Y-72833457D01*
X155651663Y-72799500D01*
X155651657Y-72799500D01*
X155348343Y-72799500D01*
X155348336Y-72799500D01*
X155046951Y-72833457D01*
X155046937Y-72833460D01*
X154751228Y-72900953D01*
X154751216Y-72900957D01*
X154464931Y-73001133D01*
X154191661Y-73132733D01*
X153934837Y-73294107D01*
X153697696Y-73483220D01*
X153483220Y-73697696D01*
X153294107Y-73934837D01*
X153132733Y-74191661D01*
X153001133Y-74464931D01*
X152900957Y-74751216D01*
X152900953Y-74751228D01*
X152833460Y-75046937D01*
X152833457Y-75046951D01*
X152799500Y-75348336D01*
X74500000Y-75348336D01*
X74500000Y-63348336D01*
X152799500Y-63348336D01*
X152799500Y-63651663D01*
X152833457Y-63953048D01*
X152833460Y-63953062D01*
X152900953Y-64248771D01*
X152900957Y-64248783D01*
X153001133Y-64535068D01*
X153132733Y-64808338D01*
X153132735Y-64808341D01*
X153294108Y-65065164D01*
X153483221Y-65302304D01*
X153697696Y-65516779D01*
X153934836Y-65705892D01*
X154191659Y-65867265D01*
X154464935Y-65998868D01*
X154679951Y-66074105D01*
X154751216Y-66099042D01*
X154751228Y-66099046D01*
X155046937Y-66166540D01*
X155046946Y-66166541D01*
X155046951Y-66166542D01*
X155247874Y-66189180D01*
X155348337Y-66200499D01*
X155348340Y-66200500D01*
X155348343Y-66200500D01*
X155651660Y-66200500D01*
X155651661Y-66200499D01*
X155805694Y-66183144D01*
X155953048Y-66166542D01*
X155953051Y-66166541D01*
X155953063Y-66166540D01*
X156248772Y-66099046D01*
X156535065Y-65998868D01*
X156808341Y-65867265D01*
X157065164Y-65705892D01*
X157302304Y-65516779D01*
X157516779Y-65302304D01*
X157705892Y-65065164D01*
X157867265Y-64808341D01*
X157998868Y-64535065D01*
X158099046Y-64248772D01*
X158166540Y-63953063D01*
X158200500Y-63651657D01*
X158200500Y-63348343D01*
X158166540Y-63046937D01*
X158099046Y-62751228D01*
X158082784Y-62704755D01*
X158038947Y-62579474D01*
X157998868Y-62464935D01*
X157867265Y-62191659D01*
X157705892Y-61934836D01*
X157516779Y-61697696D01*
X157302304Y-61483221D01*
X157065164Y-61294108D01*
X156808341Y-61132735D01*
X156808338Y-61132733D01*
X156535068Y-61001133D01*
X156248783Y-60900957D01*
X156248771Y-60900953D01*
X156020556Y-60848864D01*
X155953063Y-60833460D01*
X155953060Y-60833459D01*
X155953048Y-60833457D01*
X155651663Y-60799500D01*
X155651657Y-60799500D01*
X155348343Y-60799500D01*
X155348336Y-60799500D01*
X155046951Y-60833457D01*
X155046937Y-60833460D01*
X154751228Y-60900953D01*
X154751216Y-60900957D01*
X154464931Y-61001133D01*
X154191661Y-61132733D01*
X153934837Y-61294107D01*
X153697696Y-61483220D01*
X153483220Y-61697696D01*
X153294107Y-61934837D01*
X153132733Y-62191661D01*
X153001133Y-62464931D01*
X152900957Y-62751216D01*
X152900953Y-62751228D01*
X152833460Y-63046937D01*
X152833457Y-63046951D01*
X152799500Y-63348336D01*
X74500000Y-63348336D01*
X74500000Y-59348336D01*
X77299500Y-59348336D01*
X77299500Y-59651663D01*
X77333457Y-59953048D01*
X77333460Y-59953062D01*
X77400953Y-60248771D01*
X77400957Y-60248783D01*
X77501133Y-60535068D01*
X77632733Y-60808338D01*
X77648516Y-60833457D01*
X77794108Y-61065164D01*
X77983221Y-61302304D01*
X78197696Y-61516779D01*
X78434836Y-61705892D01*
X78691659Y-61867265D01*
X78964935Y-61998868D01*
X79179951Y-62074105D01*
X79251216Y-62099042D01*
X79251228Y-62099046D01*
X79546937Y-62166540D01*
X79546946Y-62166541D01*
X79546951Y-62166542D01*
X79747874Y-62189180D01*
X79848337Y-62200499D01*
X79848340Y-62200500D01*
X79848343Y-62200500D01*
X80151660Y-62200500D01*
X80151661Y-62200499D01*
X80321540Y-62181359D01*
X80453048Y-62166542D01*
X80453051Y-62166541D01*
X80453063Y-62166540D01*
X80748772Y-62099046D01*
X81035065Y-61998868D01*
X81308341Y-61867265D01*
X81565164Y-61705892D01*
X81802304Y-61516779D01*
X81937136Y-61381947D01*
X125500000Y-61381947D01*
X125500000Y-61618052D01*
X125536934Y-61851247D01*
X125609897Y-62075802D01*
X125717087Y-62286174D01*
X125777338Y-62369104D01*
X125777340Y-62369105D01*
X126517037Y-61629408D01*
X126534075Y-61692993D01*
X126599901Y-61807007D01*
X126692993Y-61900099D01*
X126807007Y-61965925D01*
X126870590Y-61982962D01*
X126130893Y-62722658D01*
X126213828Y-62782914D01*
X126424197Y-62890102D01*
X126648752Y-62963065D01*
X126648751Y-62963065D01*
X126881948Y-63000000D01*
X127118052Y-63000000D01*
X127351247Y-62963065D01*
X127575802Y-62890102D01*
X127786163Y-62782918D01*
X127786169Y-62782914D01*
X127869104Y-62722658D01*
X127869105Y-62722658D01*
X127766343Y-62619896D01*
X127129408Y-61982962D01*
X127192993Y-61965925D01*
X127307007Y-61900099D01*
X127400099Y-61807007D01*
X127465925Y-61692993D01*
X127482962Y-61629409D01*
X128222658Y-62369105D01*
X128222658Y-62369104D01*
X128282914Y-62286169D01*
X128282918Y-62286163D01*
X128390102Y-62075802D01*
X128463065Y-61851247D01*
X128500000Y-61618052D01*
X128500000Y-61397682D01*
X137130000Y-61397682D01*
X137130000Y-61602317D01*
X137162009Y-61804417D01*
X137225244Y-61999031D01*
X137318141Y-62181350D01*
X137318147Y-62181359D01*
X137350523Y-62225921D01*
X137350524Y-62225922D01*
X138030000Y-61546446D01*
X138030000Y-61552661D01*
X138057259Y-61654394D01*
X138109920Y-61745606D01*
X138184394Y-61820080D01*
X138275606Y-61872741D01*
X138377339Y-61900000D01*
X138383553Y-61900000D01*
X137704076Y-62579474D01*
X137748650Y-62611859D01*
X137930968Y-62704755D01*
X138125582Y-62767990D01*
X138327683Y-62800000D01*
X138532317Y-62800000D01*
X138734417Y-62767990D01*
X138929031Y-62704755D01*
X139111349Y-62611859D01*
X139155921Y-62579474D01*
X138476447Y-61900000D01*
X138482661Y-61900000D01*
X138584394Y-61872741D01*
X138675606Y-61820080D01*
X138750080Y-61745606D01*
X138802741Y-61654394D01*
X138830000Y-61552661D01*
X138830000Y-61546448D01*
X139509474Y-62225922D01*
X139509474Y-62225921D01*
X139541859Y-62181349D01*
X139634755Y-61999031D01*
X139697990Y-61804417D01*
X139730000Y-61602317D01*
X139730000Y-61397682D01*
X139697990Y-61195582D01*
X139634755Y-61000968D01*
X139541859Y-60818650D01*
X139509474Y-60774077D01*
X139509474Y-60774076D01*
X138830000Y-61453551D01*
X138830000Y-61447339D01*
X138802741Y-61345606D01*
X138750080Y-61254394D01*
X138675606Y-61179920D01*
X138584394Y-61127259D01*
X138482661Y-61100000D01*
X138476446Y-61100000D01*
X139155922Y-60420524D01*
X139155921Y-60420523D01*
X139111359Y-60388147D01*
X139111350Y-60388141D01*
X138929031Y-60295244D01*
X138734417Y-60232009D01*
X138532317Y-60200000D01*
X138327683Y-60200000D01*
X138125582Y-60232009D01*
X137930968Y-60295244D01*
X137748644Y-60388143D01*
X137704077Y-60420523D01*
X137704077Y-60420524D01*
X138383554Y-61100000D01*
X138377339Y-61100000D01*
X138275606Y-61127259D01*
X138184394Y-61179920D01*
X138109920Y-61254394D01*
X138057259Y-61345606D01*
X138030000Y-61447339D01*
X138030000Y-61453553D01*
X137350524Y-60774077D01*
X137350523Y-60774077D01*
X137318143Y-60818644D01*
X137225244Y-61000968D01*
X137162009Y-61195582D01*
X137130000Y-61397682D01*
X128500000Y-61397682D01*
X128500000Y-61381947D01*
X128463065Y-61148752D01*
X128390102Y-60924197D01*
X128282914Y-60713828D01*
X128222658Y-60630894D01*
X128222658Y-60630893D01*
X127482962Y-61370590D01*
X127465925Y-61307007D01*
X127400099Y-61192993D01*
X127307007Y-61099901D01*
X127192993Y-61034075D01*
X127129409Y-61017037D01*
X127766344Y-60380102D01*
X127869105Y-60277340D01*
X127869104Y-60277338D01*
X127786174Y-60217087D01*
X127575802Y-60109897D01*
X127351247Y-60036934D01*
X127351248Y-60036934D01*
X127118052Y-60000000D01*
X126881948Y-60000000D01*
X126648752Y-60036934D01*
X126424197Y-60109897D01*
X126213830Y-60217084D01*
X126130894Y-60277340D01*
X126870591Y-61017037D01*
X126807007Y-61034075D01*
X126692993Y-61099901D01*
X126599901Y-61192993D01*
X126534075Y-61307007D01*
X126517037Y-61370591D01*
X125777340Y-60630894D01*
X125717084Y-60713830D01*
X125609897Y-60924197D01*
X125536934Y-61148752D01*
X125500000Y-61381947D01*
X81937136Y-61381947D01*
X82016779Y-61302304D01*
X82205892Y-61065164D01*
X82367265Y-60808341D01*
X82498868Y-60535065D01*
X82582785Y-60295244D01*
X82586842Y-60283651D01*
X82586844Y-60283645D01*
X82599042Y-60248783D01*
X82599046Y-60248772D01*
X82666540Y-59953063D01*
X82700500Y-59651657D01*
X82700500Y-59348343D01*
X82666540Y-59046937D01*
X82599046Y-58751228D01*
X82498868Y-58464935D01*
X82367265Y-58191659D01*
X82205892Y-57934836D01*
X82016779Y-57697696D01*
X81802304Y-57483221D01*
X81565164Y-57294108D01*
X81308341Y-57132735D01*
X81308338Y-57132733D01*
X81035068Y-57001133D01*
X80748783Y-56900957D01*
X80748771Y-56900953D01*
X80520556Y-56848864D01*
X80453063Y-56833460D01*
X80453060Y-56833459D01*
X80453048Y-56833457D01*
X80151663Y-56799500D01*
X80151657Y-56799500D01*
X79848343Y-56799500D01*
X79848336Y-56799500D01*
X79546951Y-56833457D01*
X79546937Y-56833460D01*
X79251228Y-56900953D01*
X79251216Y-56900957D01*
X78964931Y-57001133D01*
X78691661Y-57132733D01*
X78434837Y-57294107D01*
X78197696Y-57483220D01*
X77983220Y-57697696D01*
X77794107Y-57934837D01*
X77632733Y-58191661D01*
X77501133Y-58464931D01*
X77400957Y-58751216D01*
X77400953Y-58751228D01*
X77333460Y-59046937D01*
X77333457Y-59046951D01*
X77299500Y-59348336D01*
X74500000Y-59348336D01*
X74500000Y-53902135D01*
X86007000Y-53902135D01*
X86007000Y-55997870D01*
X86007001Y-55997876D01*
X86013408Y-56057483D01*
X86063702Y-56192328D01*
X86063706Y-56192335D01*
X86149952Y-56307544D01*
X86149955Y-56307547D01*
X86265164Y-56393793D01*
X86265171Y-56393797D01*
X86400017Y-56444091D01*
X86400016Y-56444091D01*
X86406944Y-56444835D01*
X86459627Y-56450500D01*
X88460372Y-56450499D01*
X88519983Y-56444091D01*
X88654831Y-56393796D01*
X88770046Y-56307546D01*
X88856296Y-56192331D01*
X88866690Y-56164460D01*
X88908560Y-56108527D01*
X88974023Y-56084108D01*
X89042297Y-56098958D01*
X89055746Y-56107465D01*
X89238462Y-56240217D01*
X89370599Y-56307544D01*
X89442244Y-56344049D01*
X89659751Y-56414721D01*
X89659752Y-56414721D01*
X89659755Y-56414722D01*
X89885646Y-56450500D01*
X89885647Y-56450500D01*
X90114353Y-56450500D01*
X90114354Y-56450500D01*
X90340245Y-56414722D01*
X90340248Y-56414721D01*
X90340249Y-56414721D01*
X90557755Y-56344049D01*
X90557755Y-56344048D01*
X90557758Y-56344048D01*
X90761538Y-56240217D01*
X90946566Y-56105786D01*
X91108286Y-55944066D01*
X91169683Y-55859559D01*
X91225012Y-55816896D01*
X91294625Y-55810917D01*
X91356420Y-55843523D01*
X91370314Y-55859556D01*
X91431714Y-55944066D01*
X91593434Y-56105786D01*
X91778462Y-56240217D01*
X91910599Y-56307544D01*
X91982244Y-56344049D01*
X92199751Y-56414721D01*
X92199752Y-56414721D01*
X92199755Y-56414722D01*
X92425646Y-56450500D01*
X92425647Y-56450500D01*
X92654353Y-56450500D01*
X92654354Y-56450500D01*
X92880245Y-56414722D01*
X92880248Y-56414721D01*
X92880249Y-56414721D01*
X93097755Y-56344049D01*
X93097755Y-56344048D01*
X93097758Y-56344048D01*
X93301538Y-56240217D01*
X93486566Y-56105786D01*
X93648286Y-55944066D01*
X93782717Y-55759038D01*
X93812807Y-55699983D01*
X125499500Y-55699983D01*
X125499500Y-57300001D01*
X125499501Y-57300018D01*
X125510000Y-57402796D01*
X125510001Y-57402799D01*
X125539550Y-57491971D01*
X125565186Y-57569334D01*
X125657288Y-57718656D01*
X125781344Y-57842712D01*
X125930666Y-57934814D01*
X126097203Y-57989999D01*
X126199991Y-58000500D01*
X127800008Y-58000499D01*
X127902797Y-57989999D01*
X128069334Y-57934814D01*
X128218656Y-57842712D01*
X128342712Y-57718656D01*
X128434814Y-57569334D01*
X128489999Y-57402797D01*
X128500500Y-57300009D01*
X128500499Y-56397648D01*
X137129500Y-56397648D01*
X137129500Y-56602351D01*
X137161522Y-56804534D01*
X137224781Y-56999223D01*
X137317715Y-57181613D01*
X137438028Y-57347213D01*
X137582786Y-57491971D01*
X137737749Y-57604556D01*
X137748390Y-57612287D01*
X137864607Y-57671503D01*
X137930776Y-57705218D01*
X137930778Y-57705218D01*
X137930781Y-57705220D01*
X138035137Y-57739127D01*
X138125465Y-57768477D01*
X138226557Y-57784488D01*
X138327648Y-57800500D01*
X138327649Y-57800500D01*
X138532351Y-57800500D01*
X138532352Y-57800500D01*
X138734534Y-57768477D01*
X138929219Y-57705220D01*
X139111610Y-57612287D01*
X139204590Y-57544732D01*
X139277213Y-57491971D01*
X139277215Y-57491968D01*
X139277219Y-57491966D01*
X139421966Y-57347219D01*
X139421968Y-57347215D01*
X139421971Y-57347213D01*
X139474732Y-57274590D01*
X139542287Y-57181610D01*
X139635220Y-56999219D01*
X139698477Y-56804534D01*
X139730500Y-56602352D01*
X139730500Y-56397648D01*
X139698477Y-56195466D01*
X139697458Y-56192331D01*
X139662295Y-56084108D01*
X139635220Y-56000781D01*
X139635218Y-56000778D01*
X139635218Y-56000776D01*
X139601503Y-55934607D01*
X139542287Y-55818390D01*
X139499166Y-55759038D01*
X139421971Y-55652786D01*
X139277213Y-55508028D01*
X139111613Y-55387715D01*
X139111612Y-55387714D01*
X139111610Y-55387713D01*
X139054653Y-55358691D01*
X138929223Y-55294781D01*
X138734534Y-55231522D01*
X138559995Y-55203878D01*
X138532352Y-55199500D01*
X138327648Y-55199500D01*
X138303329Y-55203351D01*
X138125465Y-55231522D01*
X137930776Y-55294781D01*
X137748386Y-55387715D01*
X137582786Y-55508028D01*
X137438028Y-55652786D01*
X137317715Y-55818386D01*
X137224781Y-56000776D01*
X137161522Y-56195465D01*
X137129500Y-56397648D01*
X128500499Y-56397648D01*
X128500499Y-55699992D01*
X128489999Y-55597203D01*
X128434814Y-55430666D01*
X128342712Y-55281344D01*
X128218656Y-55157288D01*
X128069334Y-55065186D01*
X127902797Y-55010001D01*
X127902795Y-55010000D01*
X127800010Y-54999500D01*
X126199998Y-54999500D01*
X126199981Y-54999501D01*
X126097203Y-55010000D01*
X126097200Y-55010001D01*
X125930668Y-55065185D01*
X125930663Y-55065187D01*
X125781342Y-55157289D01*
X125657289Y-55281342D01*
X125565187Y-55430663D01*
X125565186Y-55430666D01*
X125510001Y-55597203D01*
X125510001Y-55597204D01*
X125510000Y-55597204D01*
X125499500Y-55699983D01*
X93812807Y-55699983D01*
X93886548Y-55555258D01*
X93940986Y-55387715D01*
X93957221Y-55337749D01*
X93957221Y-55337748D01*
X93957222Y-55337745D01*
X93993000Y-55111854D01*
X93993000Y-54788146D01*
X93957222Y-54562255D01*
X93957221Y-54562251D01*
X93957221Y-54562250D01*
X93886549Y-54344744D01*
X93886548Y-54344742D01*
X93782717Y-54140962D01*
X93648286Y-53955934D01*
X93486566Y-53794214D01*
X93301538Y-53659783D01*
X93097755Y-53555950D01*
X92880248Y-53485278D01*
X92694812Y-53455908D01*
X92654354Y-53449500D01*
X92425646Y-53449500D01*
X92385188Y-53455908D01*
X92199753Y-53485278D01*
X92199750Y-53485278D01*
X91982244Y-53555950D01*
X91778461Y-53659783D01*
X91712550Y-53707671D01*
X91593434Y-53794214D01*
X91593432Y-53794216D01*
X91593431Y-53794216D01*
X91431715Y-53955932D01*
X91370318Y-54040438D01*
X91314987Y-54083103D01*
X91245374Y-54089082D01*
X91183579Y-54056476D01*
X91169682Y-54040438D01*
X91158773Y-54025423D01*
X91108286Y-53955934D01*
X90946566Y-53794214D01*
X90761538Y-53659783D01*
X90557755Y-53555950D01*
X90340248Y-53485278D01*
X90154812Y-53455908D01*
X90114354Y-53449500D01*
X89885646Y-53449500D01*
X89845188Y-53455908D01*
X89659753Y-53485278D01*
X89659750Y-53485278D01*
X89442244Y-53555950D01*
X89238461Y-53659783D01*
X89055759Y-53792525D01*
X88989952Y-53816005D01*
X88921898Y-53800180D01*
X88873203Y-53750074D01*
X88866690Y-53735538D01*
X88856296Y-53707669D01*
X88856293Y-53707664D01*
X88770047Y-53592455D01*
X88770044Y-53592452D01*
X88654835Y-53506206D01*
X88654828Y-53506202D01*
X88519982Y-53455908D01*
X88519983Y-53455908D01*
X88460383Y-53449501D01*
X88460381Y-53449500D01*
X88460373Y-53449500D01*
X88460364Y-53449500D01*
X86459629Y-53449500D01*
X86459623Y-53449501D01*
X86400016Y-53455908D01*
X86265171Y-53506202D01*
X86265164Y-53506206D01*
X86149955Y-53592452D01*
X86149952Y-53592455D01*
X86063706Y-53707664D01*
X86063702Y-53707671D01*
X86013408Y-53842517D01*
X86007001Y-53902116D01*
X86007000Y-53902135D01*
X74500000Y-53902135D01*
X74500000Y-51893713D01*
X75649500Y-51893713D01*
X75649500Y-52106287D01*
X75682754Y-52316243D01*
X75733575Y-52472654D01*
X75748444Y-52518414D01*
X75844951Y-52707820D01*
X75969890Y-52879786D01*
X76120213Y-53030109D01*
X76292179Y-53155048D01*
X76292181Y-53155049D01*
X76292184Y-53155051D01*
X76481588Y-53251557D01*
X76683757Y-53317246D01*
X76893713Y-53350500D01*
X76893714Y-53350500D01*
X77106286Y-53350500D01*
X77106287Y-53350500D01*
X77316243Y-53317246D01*
X77518412Y-53251557D01*
X77707816Y-53155051D01*
X77729789Y-53139086D01*
X77879786Y-53030109D01*
X77879788Y-53030106D01*
X77879792Y-53030104D01*
X78030104Y-52879792D01*
X78030106Y-52879788D01*
X78030109Y-52879786D01*
X78155048Y-52707820D01*
X78155047Y-52707820D01*
X78155051Y-52707816D01*
X78251557Y-52518412D01*
X78317246Y-52316243D01*
X78350500Y-52106287D01*
X78350500Y-51893713D01*
X78317246Y-51683757D01*
X78251557Y-51481588D01*
X78155051Y-51292184D01*
X78155049Y-51292181D01*
X78155048Y-51292179D01*
X78030109Y-51120213D01*
X77879786Y-50969890D01*
X77707820Y-50844951D01*
X77518414Y-50748444D01*
X77518413Y-50748443D01*
X77518412Y-50748443D01*
X77316243Y-50682754D01*
X77316241Y-50682753D01*
X77316240Y-50682753D01*
X77154957Y-50657208D01*
X77106287Y-50649500D01*
X76893713Y-50649500D01*
X76845042Y-50657208D01*
X76683760Y-50682753D01*
X76481585Y-50748444D01*
X76292179Y-50844951D01*
X76120213Y-50969890D01*
X75969890Y-51120213D01*
X75844951Y-51292179D01*
X75748444Y-51481585D01*
X75682753Y-51683760D01*
X75649500Y-51893713D01*
X74500000Y-51893713D01*
X74500000Y-50124000D01*
X74519685Y-50056961D01*
X74572489Y-50011206D01*
X74624000Y-50000000D01*
X160876000Y-50000000D01*
X160943039Y-50019685D01*
G37*
%TD.AperFunction*%
%TD*%
M02*
