%TF.GenerationSoftware,KiCad,Pcbnew,9.0.2*%
%TF.CreationDate,2025-06-21T01:00:04+02:00*%
%TF.ProjectId,schaltung,73636861-6c74-4756-9e67-2e6b69636164,B*%
%TF.SameCoordinates,Original*%
%TF.FileFunction,Drillmap*%
%TF.FilePolarity,Positive*%
%FSLAX45Y45*%
G04 Gerber Fmt 4.5, Leading zero omitted, Abs format (unit mm)*
G04 Created by KiCad (PCBNEW 9.0.2) date 2025-06-21 01:00:04*
%MOMM*%
%LPD*%
G01*
G04 APERTURE LIST*
%ADD10C,0.050000*%
%ADD11C,0.200000*%
%ADD12C,0.100000*%
%ADD13C,0.110000*%
%ADD14C,0.220000*%
G04 APERTURE END LIST*
D10*
X7350000Y-4900000D02*
X16250000Y-4900000D01*
X16250000Y-9900000D01*
X7350000Y-9900000D01*
X7350000Y-4900000D01*
D11*
D12*
X8837500Y-7648500D02*
X8867500Y-7678500D01*
X8867500Y-7648500D02*
X8837500Y-7678500D01*
X10285000Y-6285000D02*
X10315000Y-6315000D01*
X10315000Y-6285000D02*
X10285000Y-6315000D01*
X13883000Y-5650000D02*
G75*
G02*
X13803000Y-5650000I-40000J0D01*
G01*
X13803000Y-5650000D02*
G75*
G02*
X13883000Y-5650000I40000J0D01*
G01*
X13883000Y-6150000D02*
G75*
G02*
X13803000Y-6150000I-40000J0D01*
G01*
X13803000Y-6150000D02*
G75*
G02*
X13883000Y-6150000I40000J0D01*
G01*
X12700000Y-5600000D02*
X12700000Y-5700000D01*
X12650000Y-5650000D02*
X12750000Y-5650000D01*
X12700000Y-6100000D02*
X12700000Y-6200000D01*
X12650000Y-6150000D02*
X12750000Y-6150000D01*
D13*
X8784891Y-5533891D02*
X8784891Y-5456109D01*
X8707109Y-5456109D01*
X8707109Y-5533891D01*
X8784891Y-5533891D01*
X9038891Y-5533891D02*
X9038891Y-5456109D01*
X8961109Y-5456109D01*
X8961109Y-5533891D01*
X9038891Y-5533891D01*
X9292891Y-5533891D02*
X9292891Y-5456109D01*
X9215109Y-5456109D01*
X9215109Y-5533891D01*
X9292891Y-5533891D01*
D14*
X8000000Y-6060000D02*
X8110000Y-5950000D01*
X8000000Y-5840000D01*
X7890000Y-5950000D01*
X8000000Y-6060000D01*
X8000000Y-6960000D02*
X8110000Y-6850000D01*
X8000000Y-6740000D01*
X7890000Y-6850000D01*
X8000000Y-6960000D01*
X10450000Y-7110000D02*
X10560000Y-7000000D01*
X10450000Y-6890000D01*
X10340000Y-7000000D01*
X10450000Y-7110000D01*
X10800000Y-9310000D02*
X10910000Y-9200000D01*
X10800000Y-9090000D01*
X10690000Y-9200000D01*
X10800000Y-9310000D01*
X11450000Y-9310000D02*
X11560000Y-9200000D01*
X11450000Y-9090000D01*
X11340000Y-9200000D01*
X11450000Y-9310000D01*
X12250000Y-9310000D02*
X12360000Y-9200000D01*
X12250000Y-9090000D01*
X12140000Y-9200000D01*
X12250000Y-9310000D01*
X13050000Y-9310000D02*
X13160000Y-9200000D01*
X13050000Y-9090000D01*
X12940000Y-9200000D01*
X13050000Y-9310000D01*
X15550000Y-6460000D02*
X15660000Y-6350000D01*
X15550000Y-6240000D01*
X15440000Y-6350000D01*
X15550000Y-6460000D01*
X15550000Y-7660000D02*
X15660000Y-7550000D01*
X15550000Y-7440000D01*
X15440000Y-7550000D01*
X15550000Y-7660000D01*
D11*
X7608277Y-10213984D02*
X7608277Y-10013984D01*
X7608277Y-10013984D02*
X7655896Y-10013984D01*
X7655896Y-10013984D02*
X7684467Y-10023508D01*
X7684467Y-10023508D02*
X7703515Y-10042555D01*
X7703515Y-10042555D02*
X7713039Y-10061603D01*
X7713039Y-10061603D02*
X7722562Y-10099698D01*
X7722562Y-10099698D02*
X7722562Y-10128270D01*
X7722562Y-10128270D02*
X7713039Y-10166365D01*
X7713039Y-10166365D02*
X7703515Y-10185412D01*
X7703515Y-10185412D02*
X7684467Y-10204460D01*
X7684467Y-10204460D02*
X7655896Y-10213984D01*
X7655896Y-10213984D02*
X7608277Y-10213984D01*
X7808277Y-10213984D02*
X7808277Y-10080650D01*
X7808277Y-10118746D02*
X7817801Y-10099698D01*
X7817801Y-10099698D02*
X7827324Y-10090174D01*
X7827324Y-10090174D02*
X7846372Y-10080650D01*
X7846372Y-10080650D02*
X7865420Y-10080650D01*
X7932086Y-10213984D02*
X7932086Y-10080650D01*
X7932086Y-10013984D02*
X7922562Y-10023508D01*
X7922562Y-10023508D02*
X7932086Y-10033031D01*
X7932086Y-10033031D02*
X7941610Y-10023508D01*
X7941610Y-10023508D02*
X7932086Y-10013984D01*
X7932086Y-10013984D02*
X7932086Y-10033031D01*
X8055896Y-10213984D02*
X8036848Y-10204460D01*
X8036848Y-10204460D02*
X8027324Y-10185412D01*
X8027324Y-10185412D02*
X8027324Y-10013984D01*
X8160658Y-10213984D02*
X8141610Y-10204460D01*
X8141610Y-10204460D02*
X8132086Y-10185412D01*
X8132086Y-10185412D02*
X8132086Y-10013984D01*
X8389229Y-10213984D02*
X8389229Y-10013984D01*
X8389229Y-10013984D02*
X8455896Y-10156841D01*
X8455896Y-10156841D02*
X8522563Y-10013984D01*
X8522563Y-10013984D02*
X8522563Y-10213984D01*
X8703515Y-10213984D02*
X8703515Y-10109222D01*
X8703515Y-10109222D02*
X8693991Y-10090174D01*
X8693991Y-10090174D02*
X8674944Y-10080650D01*
X8674944Y-10080650D02*
X8636848Y-10080650D01*
X8636848Y-10080650D02*
X8617801Y-10090174D01*
X8703515Y-10204460D02*
X8684467Y-10213984D01*
X8684467Y-10213984D02*
X8636848Y-10213984D01*
X8636848Y-10213984D02*
X8617801Y-10204460D01*
X8617801Y-10204460D02*
X8608277Y-10185412D01*
X8608277Y-10185412D02*
X8608277Y-10166365D01*
X8608277Y-10166365D02*
X8617801Y-10147317D01*
X8617801Y-10147317D02*
X8636848Y-10137793D01*
X8636848Y-10137793D02*
X8684467Y-10137793D01*
X8684467Y-10137793D02*
X8703515Y-10128270D01*
X8798753Y-10080650D02*
X8798753Y-10280650D01*
X8798753Y-10090174D02*
X8817801Y-10080650D01*
X8817801Y-10080650D02*
X8855896Y-10080650D01*
X8855896Y-10080650D02*
X8874944Y-10090174D01*
X8874944Y-10090174D02*
X8884467Y-10099698D01*
X8884467Y-10099698D02*
X8893991Y-10118746D01*
X8893991Y-10118746D02*
X8893991Y-10175889D01*
X8893991Y-10175889D02*
X8884467Y-10194936D01*
X8884467Y-10194936D02*
X8874944Y-10204460D01*
X8874944Y-10204460D02*
X8855896Y-10213984D01*
X8855896Y-10213984D02*
X8817801Y-10213984D01*
X8817801Y-10213984D02*
X8798753Y-10204460D01*
X8979705Y-10194936D02*
X8989229Y-10204460D01*
X8989229Y-10204460D02*
X8979705Y-10213984D01*
X8979705Y-10213984D02*
X8970182Y-10204460D01*
X8970182Y-10204460D02*
X8979705Y-10194936D01*
X8979705Y-10194936D02*
X8979705Y-10213984D01*
X8979705Y-10090174D02*
X8989229Y-10099698D01*
X8989229Y-10099698D02*
X8979705Y-10109222D01*
X8979705Y-10109222D02*
X8970182Y-10099698D01*
X8970182Y-10099698D02*
X8979705Y-10090174D01*
X8979705Y-10090174D02*
X8979705Y-10109222D01*
D12*
X7317500Y-10527500D02*
X7347500Y-10557500D01*
X7347500Y-10527500D02*
X7317500Y-10557500D01*
D11*
X7646372Y-10433984D02*
X7665420Y-10433984D01*
X7665420Y-10433984D02*
X7684467Y-10443508D01*
X7684467Y-10443508D02*
X7693991Y-10453031D01*
X7693991Y-10453031D02*
X7703515Y-10472079D01*
X7703515Y-10472079D02*
X7713039Y-10510174D01*
X7713039Y-10510174D02*
X7713039Y-10557793D01*
X7713039Y-10557793D02*
X7703515Y-10595889D01*
X7703515Y-10595889D02*
X7693991Y-10614936D01*
X7693991Y-10614936D02*
X7684467Y-10624460D01*
X7684467Y-10624460D02*
X7665420Y-10633984D01*
X7665420Y-10633984D02*
X7646372Y-10633984D01*
X7646372Y-10633984D02*
X7627324Y-10624460D01*
X7627324Y-10624460D02*
X7617801Y-10614936D01*
X7617801Y-10614936D02*
X7608277Y-10595889D01*
X7608277Y-10595889D02*
X7598753Y-10557793D01*
X7598753Y-10557793D02*
X7598753Y-10510174D01*
X7598753Y-10510174D02*
X7608277Y-10472079D01*
X7608277Y-10472079D02*
X7617801Y-10453031D01*
X7617801Y-10453031D02*
X7627324Y-10443508D01*
X7627324Y-10443508D02*
X7646372Y-10433984D01*
X7798753Y-10614936D02*
X7808277Y-10624460D01*
X7808277Y-10624460D02*
X7798753Y-10633984D01*
X7798753Y-10633984D02*
X7789229Y-10624460D01*
X7789229Y-10624460D02*
X7798753Y-10614936D01*
X7798753Y-10614936D02*
X7798753Y-10633984D01*
X7874943Y-10433984D02*
X7998753Y-10433984D01*
X7998753Y-10433984D02*
X7932086Y-10510174D01*
X7932086Y-10510174D02*
X7960658Y-10510174D01*
X7960658Y-10510174D02*
X7979705Y-10519698D01*
X7979705Y-10519698D02*
X7989229Y-10529222D01*
X7989229Y-10529222D02*
X7998753Y-10548270D01*
X7998753Y-10548270D02*
X7998753Y-10595889D01*
X7998753Y-10595889D02*
X7989229Y-10614936D01*
X7989229Y-10614936D02*
X7979705Y-10624460D01*
X7979705Y-10624460D02*
X7960658Y-10633984D01*
X7960658Y-10633984D02*
X7903515Y-10633984D01*
X7903515Y-10633984D02*
X7884467Y-10624460D01*
X7884467Y-10624460D02*
X7874943Y-10614936D01*
X8122562Y-10433984D02*
X8141610Y-10433984D01*
X8141610Y-10433984D02*
X8160658Y-10443508D01*
X8160658Y-10443508D02*
X8170182Y-10453031D01*
X8170182Y-10453031D02*
X8179705Y-10472079D01*
X8179705Y-10472079D02*
X8189229Y-10510174D01*
X8189229Y-10510174D02*
X8189229Y-10557793D01*
X8189229Y-10557793D02*
X8179705Y-10595889D01*
X8179705Y-10595889D02*
X8170182Y-10614936D01*
X8170182Y-10614936D02*
X8160658Y-10624460D01*
X8160658Y-10624460D02*
X8141610Y-10633984D01*
X8141610Y-10633984D02*
X8122562Y-10633984D01*
X8122562Y-10633984D02*
X8103515Y-10624460D01*
X8103515Y-10624460D02*
X8093991Y-10614936D01*
X8093991Y-10614936D02*
X8084467Y-10595889D01*
X8084467Y-10595889D02*
X8074943Y-10557793D01*
X8074943Y-10557793D02*
X8074943Y-10510174D01*
X8074943Y-10510174D02*
X8084467Y-10472079D01*
X8084467Y-10472079D02*
X8093991Y-10453031D01*
X8093991Y-10453031D02*
X8103515Y-10443508D01*
X8103515Y-10443508D02*
X8122562Y-10433984D01*
X8313039Y-10433984D02*
X8332086Y-10433984D01*
X8332086Y-10433984D02*
X8351134Y-10443508D01*
X8351134Y-10443508D02*
X8360658Y-10453031D01*
X8360658Y-10453031D02*
X8370182Y-10472079D01*
X8370182Y-10472079D02*
X8379705Y-10510174D01*
X8379705Y-10510174D02*
X8379705Y-10557793D01*
X8379705Y-10557793D02*
X8370182Y-10595889D01*
X8370182Y-10595889D02*
X8360658Y-10614936D01*
X8360658Y-10614936D02*
X8351134Y-10624460D01*
X8351134Y-10624460D02*
X8332086Y-10633984D01*
X8332086Y-10633984D02*
X8313039Y-10633984D01*
X8313039Y-10633984D02*
X8293991Y-10624460D01*
X8293991Y-10624460D02*
X8284467Y-10614936D01*
X8284467Y-10614936D02*
X8274943Y-10595889D01*
X8274943Y-10595889D02*
X8265420Y-10557793D01*
X8265420Y-10557793D02*
X8265420Y-10510174D01*
X8265420Y-10510174D02*
X8274943Y-10472079D01*
X8274943Y-10472079D02*
X8284467Y-10453031D01*
X8284467Y-10453031D02*
X8293991Y-10443508D01*
X8293991Y-10443508D02*
X8313039Y-10433984D01*
X8465420Y-10633984D02*
X8465420Y-10500650D01*
X8465420Y-10519698D02*
X8474944Y-10510174D01*
X8474944Y-10510174D02*
X8493991Y-10500650D01*
X8493991Y-10500650D02*
X8522563Y-10500650D01*
X8522563Y-10500650D02*
X8541610Y-10510174D01*
X8541610Y-10510174D02*
X8551134Y-10529222D01*
X8551134Y-10529222D02*
X8551134Y-10633984D01*
X8551134Y-10529222D02*
X8560658Y-10510174D01*
X8560658Y-10510174D02*
X8579705Y-10500650D01*
X8579705Y-10500650D02*
X8608277Y-10500650D01*
X8608277Y-10500650D02*
X8627325Y-10510174D01*
X8627325Y-10510174D02*
X8636848Y-10529222D01*
X8636848Y-10529222D02*
X8636848Y-10633984D01*
X8732086Y-10633984D02*
X8732086Y-10500650D01*
X8732086Y-10519698D02*
X8741610Y-10510174D01*
X8741610Y-10510174D02*
X8760658Y-10500650D01*
X8760658Y-10500650D02*
X8789229Y-10500650D01*
X8789229Y-10500650D02*
X8808277Y-10510174D01*
X8808277Y-10510174D02*
X8817801Y-10529222D01*
X8817801Y-10529222D02*
X8817801Y-10633984D01*
X8817801Y-10529222D02*
X8827325Y-10510174D01*
X8827325Y-10510174D02*
X8846372Y-10500650D01*
X8846372Y-10500650D02*
X8874944Y-10500650D01*
X8874944Y-10500650D02*
X8893991Y-10510174D01*
X8893991Y-10510174D02*
X8903515Y-10529222D01*
X8903515Y-10529222D02*
X8903515Y-10633984D01*
X9293991Y-10424460D02*
X9122563Y-10681603D01*
X9551134Y-10433984D02*
X9570182Y-10433984D01*
X9570182Y-10433984D02*
X9589229Y-10443508D01*
X9589229Y-10443508D02*
X9598753Y-10453031D01*
X9598753Y-10453031D02*
X9608277Y-10472079D01*
X9608277Y-10472079D02*
X9617801Y-10510174D01*
X9617801Y-10510174D02*
X9617801Y-10557793D01*
X9617801Y-10557793D02*
X9608277Y-10595889D01*
X9608277Y-10595889D02*
X9598753Y-10614936D01*
X9598753Y-10614936D02*
X9589229Y-10624460D01*
X9589229Y-10624460D02*
X9570182Y-10633984D01*
X9570182Y-10633984D02*
X9551134Y-10633984D01*
X9551134Y-10633984D02*
X9532087Y-10624460D01*
X9532087Y-10624460D02*
X9522563Y-10614936D01*
X9522563Y-10614936D02*
X9513039Y-10595889D01*
X9513039Y-10595889D02*
X9503515Y-10557793D01*
X9503515Y-10557793D02*
X9503515Y-10510174D01*
X9503515Y-10510174D02*
X9513039Y-10472079D01*
X9513039Y-10472079D02*
X9522563Y-10453031D01*
X9522563Y-10453031D02*
X9532087Y-10443508D01*
X9532087Y-10443508D02*
X9551134Y-10433984D01*
X9703515Y-10614936D02*
X9713039Y-10624460D01*
X9713039Y-10624460D02*
X9703515Y-10633984D01*
X9703515Y-10633984D02*
X9693991Y-10624460D01*
X9693991Y-10624460D02*
X9703515Y-10614936D01*
X9703515Y-10614936D02*
X9703515Y-10633984D01*
X9836848Y-10433984D02*
X9855896Y-10433984D01*
X9855896Y-10433984D02*
X9874944Y-10443508D01*
X9874944Y-10443508D02*
X9884468Y-10453031D01*
X9884468Y-10453031D02*
X9893991Y-10472079D01*
X9893991Y-10472079D02*
X9903515Y-10510174D01*
X9903515Y-10510174D02*
X9903515Y-10557793D01*
X9903515Y-10557793D02*
X9893991Y-10595889D01*
X9893991Y-10595889D02*
X9884468Y-10614936D01*
X9884468Y-10614936D02*
X9874944Y-10624460D01*
X9874944Y-10624460D02*
X9855896Y-10633984D01*
X9855896Y-10633984D02*
X9836848Y-10633984D01*
X9836848Y-10633984D02*
X9817801Y-10624460D01*
X9817801Y-10624460D02*
X9808277Y-10614936D01*
X9808277Y-10614936D02*
X9798753Y-10595889D01*
X9798753Y-10595889D02*
X9789229Y-10557793D01*
X9789229Y-10557793D02*
X9789229Y-10510174D01*
X9789229Y-10510174D02*
X9798753Y-10472079D01*
X9798753Y-10472079D02*
X9808277Y-10453031D01*
X9808277Y-10453031D02*
X9817801Y-10443508D01*
X9817801Y-10443508D02*
X9836848Y-10433984D01*
X10093991Y-10633984D02*
X9979706Y-10633984D01*
X10036848Y-10633984D02*
X10036848Y-10433984D01*
X10036848Y-10433984D02*
X10017801Y-10462555D01*
X10017801Y-10462555D02*
X9998753Y-10481603D01*
X9998753Y-10481603D02*
X9979706Y-10491127D01*
X10284468Y-10633984D02*
X10170182Y-10633984D01*
X10227325Y-10633984D02*
X10227325Y-10433984D01*
X10227325Y-10433984D02*
X10208277Y-10462555D01*
X10208277Y-10462555D02*
X10189229Y-10481603D01*
X10189229Y-10481603D02*
X10170182Y-10491127D01*
X10398753Y-10519698D02*
X10379706Y-10510174D01*
X10379706Y-10510174D02*
X10370182Y-10500650D01*
X10370182Y-10500650D02*
X10360658Y-10481603D01*
X10360658Y-10481603D02*
X10360658Y-10472079D01*
X10360658Y-10472079D02*
X10370182Y-10453031D01*
X10370182Y-10453031D02*
X10379706Y-10443508D01*
X10379706Y-10443508D02*
X10398753Y-10433984D01*
X10398753Y-10433984D02*
X10436849Y-10433984D01*
X10436849Y-10433984D02*
X10455896Y-10443508D01*
X10455896Y-10443508D02*
X10465420Y-10453031D01*
X10465420Y-10453031D02*
X10474944Y-10472079D01*
X10474944Y-10472079D02*
X10474944Y-10481603D01*
X10474944Y-10481603D02*
X10465420Y-10500650D01*
X10465420Y-10500650D02*
X10455896Y-10510174D01*
X10455896Y-10510174D02*
X10436849Y-10519698D01*
X10436849Y-10519698D02*
X10398753Y-10519698D01*
X10398753Y-10519698D02*
X10379706Y-10529222D01*
X10379706Y-10529222D02*
X10370182Y-10538746D01*
X10370182Y-10538746D02*
X10360658Y-10557793D01*
X10360658Y-10557793D02*
X10360658Y-10595889D01*
X10360658Y-10595889D02*
X10370182Y-10614936D01*
X10370182Y-10614936D02*
X10379706Y-10624460D01*
X10379706Y-10624460D02*
X10398753Y-10633984D01*
X10398753Y-10633984D02*
X10436849Y-10633984D01*
X10436849Y-10633984D02*
X10455896Y-10624460D01*
X10455896Y-10624460D02*
X10465420Y-10614936D01*
X10465420Y-10614936D02*
X10474944Y-10595889D01*
X10474944Y-10595889D02*
X10474944Y-10557793D01*
X10474944Y-10557793D02*
X10465420Y-10538746D01*
X10465420Y-10538746D02*
X10455896Y-10529222D01*
X10455896Y-10529222D02*
X10436849Y-10519698D01*
X10551134Y-10433984D02*
X10551134Y-10472079D01*
X10627325Y-10433984D02*
X10627325Y-10472079D01*
X10922563Y-10710174D02*
X10913039Y-10700650D01*
X10913039Y-10700650D02*
X10893991Y-10672079D01*
X10893991Y-10672079D02*
X10884468Y-10653031D01*
X10884468Y-10653031D02*
X10874944Y-10624460D01*
X10874944Y-10624460D02*
X10865420Y-10576841D01*
X10865420Y-10576841D02*
X10865420Y-10538746D01*
X10865420Y-10538746D02*
X10874944Y-10491127D01*
X10874944Y-10491127D02*
X10884468Y-10462555D01*
X10884468Y-10462555D02*
X10893991Y-10443508D01*
X10893991Y-10443508D02*
X10913039Y-10414936D01*
X10913039Y-10414936D02*
X10922563Y-10405412D01*
X10989230Y-10453031D02*
X10998753Y-10443508D01*
X10998753Y-10443508D02*
X11017801Y-10433984D01*
X11017801Y-10433984D02*
X11065420Y-10433984D01*
X11065420Y-10433984D02*
X11084468Y-10443508D01*
X11084468Y-10443508D02*
X11093991Y-10453031D01*
X11093991Y-10453031D02*
X11103515Y-10472079D01*
X11103515Y-10472079D02*
X11103515Y-10491127D01*
X11103515Y-10491127D02*
X11093991Y-10519698D01*
X11093991Y-10519698D02*
X10979706Y-10633984D01*
X10979706Y-10633984D02*
X11103515Y-10633984D01*
X11341610Y-10633984D02*
X11341610Y-10433984D01*
X11427325Y-10633984D02*
X11427325Y-10529222D01*
X11427325Y-10529222D02*
X11417801Y-10510174D01*
X11417801Y-10510174D02*
X11398753Y-10500650D01*
X11398753Y-10500650D02*
X11370182Y-10500650D01*
X11370182Y-10500650D02*
X11351134Y-10510174D01*
X11351134Y-10510174D02*
X11341610Y-10519698D01*
X11551134Y-10633984D02*
X11532087Y-10624460D01*
X11532087Y-10624460D02*
X11522563Y-10614936D01*
X11522563Y-10614936D02*
X11513039Y-10595889D01*
X11513039Y-10595889D02*
X11513039Y-10538746D01*
X11513039Y-10538746D02*
X11522563Y-10519698D01*
X11522563Y-10519698D02*
X11532087Y-10510174D01*
X11532087Y-10510174D02*
X11551134Y-10500650D01*
X11551134Y-10500650D02*
X11579706Y-10500650D01*
X11579706Y-10500650D02*
X11598753Y-10510174D01*
X11598753Y-10510174D02*
X11608277Y-10519698D01*
X11608277Y-10519698D02*
X11617801Y-10538746D01*
X11617801Y-10538746D02*
X11617801Y-10595889D01*
X11617801Y-10595889D02*
X11608277Y-10614936D01*
X11608277Y-10614936D02*
X11598753Y-10624460D01*
X11598753Y-10624460D02*
X11579706Y-10633984D01*
X11579706Y-10633984D02*
X11551134Y-10633984D01*
X11732087Y-10633984D02*
X11713039Y-10624460D01*
X11713039Y-10624460D02*
X11703515Y-10605412D01*
X11703515Y-10605412D02*
X11703515Y-10433984D01*
X11884468Y-10624460D02*
X11865420Y-10633984D01*
X11865420Y-10633984D02*
X11827325Y-10633984D01*
X11827325Y-10633984D02*
X11808277Y-10624460D01*
X11808277Y-10624460D02*
X11798753Y-10605412D01*
X11798753Y-10605412D02*
X11798753Y-10529222D01*
X11798753Y-10529222D02*
X11808277Y-10510174D01*
X11808277Y-10510174D02*
X11827325Y-10500650D01*
X11827325Y-10500650D02*
X11865420Y-10500650D01*
X11865420Y-10500650D02*
X11884468Y-10510174D01*
X11884468Y-10510174D02*
X11893991Y-10529222D01*
X11893991Y-10529222D02*
X11893991Y-10548270D01*
X11893991Y-10548270D02*
X11798753Y-10567317D01*
X11970182Y-10624460D02*
X11989230Y-10633984D01*
X11989230Y-10633984D02*
X12027325Y-10633984D01*
X12027325Y-10633984D02*
X12046372Y-10624460D01*
X12046372Y-10624460D02*
X12055896Y-10605412D01*
X12055896Y-10605412D02*
X12055896Y-10595889D01*
X12055896Y-10595889D02*
X12046372Y-10576841D01*
X12046372Y-10576841D02*
X12027325Y-10567317D01*
X12027325Y-10567317D02*
X11998753Y-10567317D01*
X11998753Y-10567317D02*
X11979706Y-10557793D01*
X11979706Y-10557793D02*
X11970182Y-10538746D01*
X11970182Y-10538746D02*
X11970182Y-10529222D01*
X11970182Y-10529222D02*
X11979706Y-10510174D01*
X11979706Y-10510174D02*
X11998753Y-10500650D01*
X11998753Y-10500650D02*
X12027325Y-10500650D01*
X12027325Y-10500650D02*
X12046372Y-10510174D01*
X12122563Y-10710174D02*
X12132087Y-10700650D01*
X12132087Y-10700650D02*
X12151134Y-10672079D01*
X12151134Y-10672079D02*
X12160658Y-10653031D01*
X12160658Y-10653031D02*
X12170182Y-10624460D01*
X12170182Y-10624460D02*
X12179706Y-10576841D01*
X12179706Y-10576841D02*
X12179706Y-10538746D01*
X12179706Y-10538746D02*
X12170182Y-10491127D01*
X12170182Y-10491127D02*
X12160658Y-10462555D01*
X12160658Y-10462555D02*
X12151134Y-10443508D01*
X12151134Y-10443508D02*
X12132087Y-10414936D01*
X12132087Y-10414936D02*
X12122563Y-10405412D01*
D12*
X7347500Y-10806500D02*
G75*
G02*
X7267500Y-10806500I-40000J0D01*
G01*
X7267500Y-10806500D02*
G75*
G02*
X7347500Y-10806500I40000J0D01*
G01*
D11*
X7646372Y-10697984D02*
X7665420Y-10697984D01*
X7665420Y-10697984D02*
X7684467Y-10707508D01*
X7684467Y-10707508D02*
X7693991Y-10717031D01*
X7693991Y-10717031D02*
X7703515Y-10736079D01*
X7703515Y-10736079D02*
X7713039Y-10774174D01*
X7713039Y-10774174D02*
X7713039Y-10821793D01*
X7713039Y-10821793D02*
X7703515Y-10859889D01*
X7703515Y-10859889D02*
X7693991Y-10878936D01*
X7693991Y-10878936D02*
X7684467Y-10888460D01*
X7684467Y-10888460D02*
X7665420Y-10897984D01*
X7665420Y-10897984D02*
X7646372Y-10897984D01*
X7646372Y-10897984D02*
X7627324Y-10888460D01*
X7627324Y-10888460D02*
X7617801Y-10878936D01*
X7617801Y-10878936D02*
X7608277Y-10859889D01*
X7608277Y-10859889D02*
X7598753Y-10821793D01*
X7598753Y-10821793D02*
X7598753Y-10774174D01*
X7598753Y-10774174D02*
X7608277Y-10736079D01*
X7608277Y-10736079D02*
X7617801Y-10717031D01*
X7617801Y-10717031D02*
X7627324Y-10707508D01*
X7627324Y-10707508D02*
X7646372Y-10697984D01*
X7798753Y-10878936D02*
X7808277Y-10888460D01*
X7808277Y-10888460D02*
X7798753Y-10897984D01*
X7798753Y-10897984D02*
X7789229Y-10888460D01*
X7789229Y-10888460D02*
X7798753Y-10878936D01*
X7798753Y-10878936D02*
X7798753Y-10897984D01*
X7922562Y-10783698D02*
X7903515Y-10774174D01*
X7903515Y-10774174D02*
X7893991Y-10764650D01*
X7893991Y-10764650D02*
X7884467Y-10745603D01*
X7884467Y-10745603D02*
X7884467Y-10736079D01*
X7884467Y-10736079D02*
X7893991Y-10717031D01*
X7893991Y-10717031D02*
X7903515Y-10707508D01*
X7903515Y-10707508D02*
X7922562Y-10697984D01*
X7922562Y-10697984D02*
X7960658Y-10697984D01*
X7960658Y-10697984D02*
X7979705Y-10707508D01*
X7979705Y-10707508D02*
X7989229Y-10717031D01*
X7989229Y-10717031D02*
X7998753Y-10736079D01*
X7998753Y-10736079D02*
X7998753Y-10745603D01*
X7998753Y-10745603D02*
X7989229Y-10764650D01*
X7989229Y-10764650D02*
X7979705Y-10774174D01*
X7979705Y-10774174D02*
X7960658Y-10783698D01*
X7960658Y-10783698D02*
X7922562Y-10783698D01*
X7922562Y-10783698D02*
X7903515Y-10793222D01*
X7903515Y-10793222D02*
X7893991Y-10802746D01*
X7893991Y-10802746D02*
X7884467Y-10821793D01*
X7884467Y-10821793D02*
X7884467Y-10859889D01*
X7884467Y-10859889D02*
X7893991Y-10878936D01*
X7893991Y-10878936D02*
X7903515Y-10888460D01*
X7903515Y-10888460D02*
X7922562Y-10897984D01*
X7922562Y-10897984D02*
X7960658Y-10897984D01*
X7960658Y-10897984D02*
X7979705Y-10888460D01*
X7979705Y-10888460D02*
X7989229Y-10878936D01*
X7989229Y-10878936D02*
X7998753Y-10859889D01*
X7998753Y-10859889D02*
X7998753Y-10821793D01*
X7998753Y-10821793D02*
X7989229Y-10802746D01*
X7989229Y-10802746D02*
X7979705Y-10793222D01*
X7979705Y-10793222D02*
X7960658Y-10783698D01*
X8122562Y-10697984D02*
X8141610Y-10697984D01*
X8141610Y-10697984D02*
X8160658Y-10707508D01*
X8160658Y-10707508D02*
X8170182Y-10717031D01*
X8170182Y-10717031D02*
X8179705Y-10736079D01*
X8179705Y-10736079D02*
X8189229Y-10774174D01*
X8189229Y-10774174D02*
X8189229Y-10821793D01*
X8189229Y-10821793D02*
X8179705Y-10859889D01*
X8179705Y-10859889D02*
X8170182Y-10878936D01*
X8170182Y-10878936D02*
X8160658Y-10888460D01*
X8160658Y-10888460D02*
X8141610Y-10897984D01*
X8141610Y-10897984D02*
X8122562Y-10897984D01*
X8122562Y-10897984D02*
X8103515Y-10888460D01*
X8103515Y-10888460D02*
X8093991Y-10878936D01*
X8093991Y-10878936D02*
X8084467Y-10859889D01*
X8084467Y-10859889D02*
X8074943Y-10821793D01*
X8074943Y-10821793D02*
X8074943Y-10774174D01*
X8074943Y-10774174D02*
X8084467Y-10736079D01*
X8084467Y-10736079D02*
X8093991Y-10717031D01*
X8093991Y-10717031D02*
X8103515Y-10707508D01*
X8103515Y-10707508D02*
X8122562Y-10697984D01*
X8313039Y-10697984D02*
X8332086Y-10697984D01*
X8332086Y-10697984D02*
X8351134Y-10707508D01*
X8351134Y-10707508D02*
X8360658Y-10717031D01*
X8360658Y-10717031D02*
X8370182Y-10736079D01*
X8370182Y-10736079D02*
X8379705Y-10774174D01*
X8379705Y-10774174D02*
X8379705Y-10821793D01*
X8379705Y-10821793D02*
X8370182Y-10859889D01*
X8370182Y-10859889D02*
X8360658Y-10878936D01*
X8360658Y-10878936D02*
X8351134Y-10888460D01*
X8351134Y-10888460D02*
X8332086Y-10897984D01*
X8332086Y-10897984D02*
X8313039Y-10897984D01*
X8313039Y-10897984D02*
X8293991Y-10888460D01*
X8293991Y-10888460D02*
X8284467Y-10878936D01*
X8284467Y-10878936D02*
X8274943Y-10859889D01*
X8274943Y-10859889D02*
X8265420Y-10821793D01*
X8265420Y-10821793D02*
X8265420Y-10774174D01*
X8265420Y-10774174D02*
X8274943Y-10736079D01*
X8274943Y-10736079D02*
X8284467Y-10717031D01*
X8284467Y-10717031D02*
X8293991Y-10707508D01*
X8293991Y-10707508D02*
X8313039Y-10697984D01*
X8465420Y-10897984D02*
X8465420Y-10764650D01*
X8465420Y-10783698D02*
X8474944Y-10774174D01*
X8474944Y-10774174D02*
X8493991Y-10764650D01*
X8493991Y-10764650D02*
X8522563Y-10764650D01*
X8522563Y-10764650D02*
X8541610Y-10774174D01*
X8541610Y-10774174D02*
X8551134Y-10793222D01*
X8551134Y-10793222D02*
X8551134Y-10897984D01*
X8551134Y-10793222D02*
X8560658Y-10774174D01*
X8560658Y-10774174D02*
X8579705Y-10764650D01*
X8579705Y-10764650D02*
X8608277Y-10764650D01*
X8608277Y-10764650D02*
X8627325Y-10774174D01*
X8627325Y-10774174D02*
X8636848Y-10793222D01*
X8636848Y-10793222D02*
X8636848Y-10897984D01*
X8732086Y-10897984D02*
X8732086Y-10764650D01*
X8732086Y-10783698D02*
X8741610Y-10774174D01*
X8741610Y-10774174D02*
X8760658Y-10764650D01*
X8760658Y-10764650D02*
X8789229Y-10764650D01*
X8789229Y-10764650D02*
X8808277Y-10774174D01*
X8808277Y-10774174D02*
X8817801Y-10793222D01*
X8817801Y-10793222D02*
X8817801Y-10897984D01*
X8817801Y-10793222D02*
X8827325Y-10774174D01*
X8827325Y-10774174D02*
X8846372Y-10764650D01*
X8846372Y-10764650D02*
X8874944Y-10764650D01*
X8874944Y-10764650D02*
X8893991Y-10774174D01*
X8893991Y-10774174D02*
X8903515Y-10793222D01*
X8903515Y-10793222D02*
X8903515Y-10897984D01*
X9293991Y-10688460D02*
X9122563Y-10945603D01*
X9551134Y-10697984D02*
X9570182Y-10697984D01*
X9570182Y-10697984D02*
X9589229Y-10707508D01*
X9589229Y-10707508D02*
X9598753Y-10717031D01*
X9598753Y-10717031D02*
X9608277Y-10736079D01*
X9608277Y-10736079D02*
X9617801Y-10774174D01*
X9617801Y-10774174D02*
X9617801Y-10821793D01*
X9617801Y-10821793D02*
X9608277Y-10859889D01*
X9608277Y-10859889D02*
X9598753Y-10878936D01*
X9598753Y-10878936D02*
X9589229Y-10888460D01*
X9589229Y-10888460D02*
X9570182Y-10897984D01*
X9570182Y-10897984D02*
X9551134Y-10897984D01*
X9551134Y-10897984D02*
X9532087Y-10888460D01*
X9532087Y-10888460D02*
X9522563Y-10878936D01*
X9522563Y-10878936D02*
X9513039Y-10859889D01*
X9513039Y-10859889D02*
X9503515Y-10821793D01*
X9503515Y-10821793D02*
X9503515Y-10774174D01*
X9503515Y-10774174D02*
X9513039Y-10736079D01*
X9513039Y-10736079D02*
X9522563Y-10717031D01*
X9522563Y-10717031D02*
X9532087Y-10707508D01*
X9532087Y-10707508D02*
X9551134Y-10697984D01*
X9703515Y-10878936D02*
X9713039Y-10888460D01*
X9713039Y-10888460D02*
X9703515Y-10897984D01*
X9703515Y-10897984D02*
X9693991Y-10888460D01*
X9693991Y-10888460D02*
X9703515Y-10878936D01*
X9703515Y-10878936D02*
X9703515Y-10897984D01*
X9836848Y-10697984D02*
X9855896Y-10697984D01*
X9855896Y-10697984D02*
X9874944Y-10707508D01*
X9874944Y-10707508D02*
X9884468Y-10717031D01*
X9884468Y-10717031D02*
X9893991Y-10736079D01*
X9893991Y-10736079D02*
X9903515Y-10774174D01*
X9903515Y-10774174D02*
X9903515Y-10821793D01*
X9903515Y-10821793D02*
X9893991Y-10859889D01*
X9893991Y-10859889D02*
X9884468Y-10878936D01*
X9884468Y-10878936D02*
X9874944Y-10888460D01*
X9874944Y-10888460D02*
X9855896Y-10897984D01*
X9855896Y-10897984D02*
X9836848Y-10897984D01*
X9836848Y-10897984D02*
X9817801Y-10888460D01*
X9817801Y-10888460D02*
X9808277Y-10878936D01*
X9808277Y-10878936D02*
X9798753Y-10859889D01*
X9798753Y-10859889D02*
X9789229Y-10821793D01*
X9789229Y-10821793D02*
X9789229Y-10774174D01*
X9789229Y-10774174D02*
X9798753Y-10736079D01*
X9798753Y-10736079D02*
X9808277Y-10717031D01*
X9808277Y-10717031D02*
X9817801Y-10707508D01*
X9817801Y-10707508D02*
X9836848Y-10697984D01*
X9970182Y-10697984D02*
X10093991Y-10697984D01*
X10093991Y-10697984D02*
X10027325Y-10774174D01*
X10027325Y-10774174D02*
X10055896Y-10774174D01*
X10055896Y-10774174D02*
X10074944Y-10783698D01*
X10074944Y-10783698D02*
X10084468Y-10793222D01*
X10084468Y-10793222D02*
X10093991Y-10812270D01*
X10093991Y-10812270D02*
X10093991Y-10859889D01*
X10093991Y-10859889D02*
X10084468Y-10878936D01*
X10084468Y-10878936D02*
X10074944Y-10888460D01*
X10074944Y-10888460D02*
X10055896Y-10897984D01*
X10055896Y-10897984D02*
X9998753Y-10897984D01*
X9998753Y-10897984D02*
X9979706Y-10888460D01*
X9979706Y-10888460D02*
X9970182Y-10878936D01*
X10284468Y-10897984D02*
X10170182Y-10897984D01*
X10227325Y-10897984D02*
X10227325Y-10697984D01*
X10227325Y-10697984D02*
X10208277Y-10726555D01*
X10208277Y-10726555D02*
X10189229Y-10745603D01*
X10189229Y-10745603D02*
X10170182Y-10755127D01*
X10465420Y-10697984D02*
X10370182Y-10697984D01*
X10370182Y-10697984D02*
X10360658Y-10793222D01*
X10360658Y-10793222D02*
X10370182Y-10783698D01*
X10370182Y-10783698D02*
X10389229Y-10774174D01*
X10389229Y-10774174D02*
X10436849Y-10774174D01*
X10436849Y-10774174D02*
X10455896Y-10783698D01*
X10455896Y-10783698D02*
X10465420Y-10793222D01*
X10465420Y-10793222D02*
X10474944Y-10812270D01*
X10474944Y-10812270D02*
X10474944Y-10859889D01*
X10474944Y-10859889D02*
X10465420Y-10878936D01*
X10465420Y-10878936D02*
X10455896Y-10888460D01*
X10455896Y-10888460D02*
X10436849Y-10897984D01*
X10436849Y-10897984D02*
X10389229Y-10897984D01*
X10389229Y-10897984D02*
X10370182Y-10888460D01*
X10370182Y-10888460D02*
X10360658Y-10878936D01*
X10551134Y-10697984D02*
X10551134Y-10736079D01*
X10627325Y-10697984D02*
X10627325Y-10736079D01*
X10922563Y-10974174D02*
X10913039Y-10964650D01*
X10913039Y-10964650D02*
X10893991Y-10936079D01*
X10893991Y-10936079D02*
X10884468Y-10917031D01*
X10884468Y-10917031D02*
X10874944Y-10888460D01*
X10874944Y-10888460D02*
X10865420Y-10840841D01*
X10865420Y-10840841D02*
X10865420Y-10802746D01*
X10865420Y-10802746D02*
X10874944Y-10755127D01*
X10874944Y-10755127D02*
X10884468Y-10726555D01*
X10884468Y-10726555D02*
X10893991Y-10707508D01*
X10893991Y-10707508D02*
X10913039Y-10678936D01*
X10913039Y-10678936D02*
X10922563Y-10669412D01*
X10989230Y-10717031D02*
X10998753Y-10707508D01*
X10998753Y-10707508D02*
X11017801Y-10697984D01*
X11017801Y-10697984D02*
X11065420Y-10697984D01*
X11065420Y-10697984D02*
X11084468Y-10707508D01*
X11084468Y-10707508D02*
X11093991Y-10717031D01*
X11093991Y-10717031D02*
X11103515Y-10736079D01*
X11103515Y-10736079D02*
X11103515Y-10755127D01*
X11103515Y-10755127D02*
X11093991Y-10783698D01*
X11093991Y-10783698D02*
X10979706Y-10897984D01*
X10979706Y-10897984D02*
X11103515Y-10897984D01*
X11341610Y-10897984D02*
X11341610Y-10697984D01*
X11427325Y-10897984D02*
X11427325Y-10793222D01*
X11427325Y-10793222D02*
X11417801Y-10774174D01*
X11417801Y-10774174D02*
X11398753Y-10764650D01*
X11398753Y-10764650D02*
X11370182Y-10764650D01*
X11370182Y-10764650D02*
X11351134Y-10774174D01*
X11351134Y-10774174D02*
X11341610Y-10783698D01*
X11551134Y-10897984D02*
X11532087Y-10888460D01*
X11532087Y-10888460D02*
X11522563Y-10878936D01*
X11522563Y-10878936D02*
X11513039Y-10859889D01*
X11513039Y-10859889D02*
X11513039Y-10802746D01*
X11513039Y-10802746D02*
X11522563Y-10783698D01*
X11522563Y-10783698D02*
X11532087Y-10774174D01*
X11532087Y-10774174D02*
X11551134Y-10764650D01*
X11551134Y-10764650D02*
X11579706Y-10764650D01*
X11579706Y-10764650D02*
X11598753Y-10774174D01*
X11598753Y-10774174D02*
X11608277Y-10783698D01*
X11608277Y-10783698D02*
X11617801Y-10802746D01*
X11617801Y-10802746D02*
X11617801Y-10859889D01*
X11617801Y-10859889D02*
X11608277Y-10878936D01*
X11608277Y-10878936D02*
X11598753Y-10888460D01*
X11598753Y-10888460D02*
X11579706Y-10897984D01*
X11579706Y-10897984D02*
X11551134Y-10897984D01*
X11732087Y-10897984D02*
X11713039Y-10888460D01*
X11713039Y-10888460D02*
X11703515Y-10869412D01*
X11703515Y-10869412D02*
X11703515Y-10697984D01*
X11884468Y-10888460D02*
X11865420Y-10897984D01*
X11865420Y-10897984D02*
X11827325Y-10897984D01*
X11827325Y-10897984D02*
X11808277Y-10888460D01*
X11808277Y-10888460D02*
X11798753Y-10869412D01*
X11798753Y-10869412D02*
X11798753Y-10793222D01*
X11798753Y-10793222D02*
X11808277Y-10774174D01*
X11808277Y-10774174D02*
X11827325Y-10764650D01*
X11827325Y-10764650D02*
X11865420Y-10764650D01*
X11865420Y-10764650D02*
X11884468Y-10774174D01*
X11884468Y-10774174D02*
X11893991Y-10793222D01*
X11893991Y-10793222D02*
X11893991Y-10812270D01*
X11893991Y-10812270D02*
X11798753Y-10831317D01*
X11970182Y-10888460D02*
X11989230Y-10897984D01*
X11989230Y-10897984D02*
X12027325Y-10897984D01*
X12027325Y-10897984D02*
X12046372Y-10888460D01*
X12046372Y-10888460D02*
X12055896Y-10869412D01*
X12055896Y-10869412D02*
X12055896Y-10859889D01*
X12055896Y-10859889D02*
X12046372Y-10840841D01*
X12046372Y-10840841D02*
X12027325Y-10831317D01*
X12027325Y-10831317D02*
X11998753Y-10831317D01*
X11998753Y-10831317D02*
X11979706Y-10821793D01*
X11979706Y-10821793D02*
X11970182Y-10802746D01*
X11970182Y-10802746D02*
X11970182Y-10793222D01*
X11970182Y-10793222D02*
X11979706Y-10774174D01*
X11979706Y-10774174D02*
X11998753Y-10764650D01*
X11998753Y-10764650D02*
X12027325Y-10764650D01*
X12027325Y-10764650D02*
X12046372Y-10774174D01*
X12122563Y-10974174D02*
X12132087Y-10964650D01*
X12132087Y-10964650D02*
X12151134Y-10936079D01*
X12151134Y-10936079D02*
X12160658Y-10917031D01*
X12160658Y-10917031D02*
X12170182Y-10888460D01*
X12170182Y-10888460D02*
X12179706Y-10840841D01*
X12179706Y-10840841D02*
X12179706Y-10802746D01*
X12179706Y-10802746D02*
X12170182Y-10755127D01*
X12170182Y-10755127D02*
X12160658Y-10726555D01*
X12160658Y-10726555D02*
X12151134Y-10707508D01*
X12151134Y-10707508D02*
X12132087Y-10678936D01*
X12132087Y-10678936D02*
X12122563Y-10669412D01*
D12*
X7297500Y-11020500D02*
X7297500Y-11120500D01*
X7247500Y-11070500D02*
X7347500Y-11070500D01*
D11*
X7713039Y-11161984D02*
X7598753Y-11161984D01*
X7655896Y-11161984D02*
X7655896Y-10961984D01*
X7655896Y-10961984D02*
X7636848Y-10990555D01*
X7636848Y-10990555D02*
X7617801Y-11009603D01*
X7617801Y-11009603D02*
X7598753Y-11019127D01*
X7798753Y-11142936D02*
X7808277Y-11152460D01*
X7808277Y-11152460D02*
X7798753Y-11161984D01*
X7798753Y-11161984D02*
X7789229Y-11152460D01*
X7789229Y-11152460D02*
X7798753Y-11142936D01*
X7798753Y-11142936D02*
X7798753Y-11161984D01*
X7932086Y-10961984D02*
X7951134Y-10961984D01*
X7951134Y-10961984D02*
X7970182Y-10971508D01*
X7970182Y-10971508D02*
X7979705Y-10981031D01*
X7979705Y-10981031D02*
X7989229Y-11000079D01*
X7989229Y-11000079D02*
X7998753Y-11038174D01*
X7998753Y-11038174D02*
X7998753Y-11085793D01*
X7998753Y-11085793D02*
X7989229Y-11123889D01*
X7989229Y-11123889D02*
X7979705Y-11142936D01*
X7979705Y-11142936D02*
X7970182Y-11152460D01*
X7970182Y-11152460D02*
X7951134Y-11161984D01*
X7951134Y-11161984D02*
X7932086Y-11161984D01*
X7932086Y-11161984D02*
X7913039Y-11152460D01*
X7913039Y-11152460D02*
X7903515Y-11142936D01*
X7903515Y-11142936D02*
X7893991Y-11123889D01*
X7893991Y-11123889D02*
X7884467Y-11085793D01*
X7884467Y-11085793D02*
X7884467Y-11038174D01*
X7884467Y-11038174D02*
X7893991Y-11000079D01*
X7893991Y-11000079D02*
X7903515Y-10981031D01*
X7903515Y-10981031D02*
X7913039Y-10971508D01*
X7913039Y-10971508D02*
X7932086Y-10961984D01*
X8122562Y-10961984D02*
X8141610Y-10961984D01*
X8141610Y-10961984D02*
X8160658Y-10971508D01*
X8160658Y-10971508D02*
X8170182Y-10981031D01*
X8170182Y-10981031D02*
X8179705Y-11000079D01*
X8179705Y-11000079D02*
X8189229Y-11038174D01*
X8189229Y-11038174D02*
X8189229Y-11085793D01*
X8189229Y-11085793D02*
X8179705Y-11123889D01*
X8179705Y-11123889D02*
X8170182Y-11142936D01*
X8170182Y-11142936D02*
X8160658Y-11152460D01*
X8160658Y-11152460D02*
X8141610Y-11161984D01*
X8141610Y-11161984D02*
X8122562Y-11161984D01*
X8122562Y-11161984D02*
X8103515Y-11152460D01*
X8103515Y-11152460D02*
X8093991Y-11142936D01*
X8093991Y-11142936D02*
X8084467Y-11123889D01*
X8084467Y-11123889D02*
X8074943Y-11085793D01*
X8074943Y-11085793D02*
X8074943Y-11038174D01*
X8074943Y-11038174D02*
X8084467Y-11000079D01*
X8084467Y-11000079D02*
X8093991Y-10981031D01*
X8093991Y-10981031D02*
X8103515Y-10971508D01*
X8103515Y-10971508D02*
X8122562Y-10961984D01*
X8313039Y-10961984D02*
X8332086Y-10961984D01*
X8332086Y-10961984D02*
X8351134Y-10971508D01*
X8351134Y-10971508D02*
X8360658Y-10981031D01*
X8360658Y-10981031D02*
X8370182Y-11000079D01*
X8370182Y-11000079D02*
X8379705Y-11038174D01*
X8379705Y-11038174D02*
X8379705Y-11085793D01*
X8379705Y-11085793D02*
X8370182Y-11123889D01*
X8370182Y-11123889D02*
X8360658Y-11142936D01*
X8360658Y-11142936D02*
X8351134Y-11152460D01*
X8351134Y-11152460D02*
X8332086Y-11161984D01*
X8332086Y-11161984D02*
X8313039Y-11161984D01*
X8313039Y-11161984D02*
X8293991Y-11152460D01*
X8293991Y-11152460D02*
X8284467Y-11142936D01*
X8284467Y-11142936D02*
X8274943Y-11123889D01*
X8274943Y-11123889D02*
X8265420Y-11085793D01*
X8265420Y-11085793D02*
X8265420Y-11038174D01*
X8265420Y-11038174D02*
X8274943Y-11000079D01*
X8274943Y-11000079D02*
X8284467Y-10981031D01*
X8284467Y-10981031D02*
X8293991Y-10971508D01*
X8293991Y-10971508D02*
X8313039Y-10961984D01*
X8465420Y-11161984D02*
X8465420Y-11028650D01*
X8465420Y-11047698D02*
X8474944Y-11038174D01*
X8474944Y-11038174D02*
X8493991Y-11028650D01*
X8493991Y-11028650D02*
X8522563Y-11028650D01*
X8522563Y-11028650D02*
X8541610Y-11038174D01*
X8541610Y-11038174D02*
X8551134Y-11057222D01*
X8551134Y-11057222D02*
X8551134Y-11161984D01*
X8551134Y-11057222D02*
X8560658Y-11038174D01*
X8560658Y-11038174D02*
X8579705Y-11028650D01*
X8579705Y-11028650D02*
X8608277Y-11028650D01*
X8608277Y-11028650D02*
X8627325Y-11038174D01*
X8627325Y-11038174D02*
X8636848Y-11057222D01*
X8636848Y-11057222D02*
X8636848Y-11161984D01*
X8732086Y-11161984D02*
X8732086Y-11028650D01*
X8732086Y-11047698D02*
X8741610Y-11038174D01*
X8741610Y-11038174D02*
X8760658Y-11028650D01*
X8760658Y-11028650D02*
X8789229Y-11028650D01*
X8789229Y-11028650D02*
X8808277Y-11038174D01*
X8808277Y-11038174D02*
X8817801Y-11057222D01*
X8817801Y-11057222D02*
X8817801Y-11161984D01*
X8817801Y-11057222D02*
X8827325Y-11038174D01*
X8827325Y-11038174D02*
X8846372Y-11028650D01*
X8846372Y-11028650D02*
X8874944Y-11028650D01*
X8874944Y-11028650D02*
X8893991Y-11038174D01*
X8893991Y-11038174D02*
X8903515Y-11057222D01*
X8903515Y-11057222D02*
X8903515Y-11161984D01*
X9293991Y-10952460D02*
X9122563Y-11209603D01*
X9551134Y-10961984D02*
X9570182Y-10961984D01*
X9570182Y-10961984D02*
X9589229Y-10971508D01*
X9589229Y-10971508D02*
X9598753Y-10981031D01*
X9598753Y-10981031D02*
X9608277Y-11000079D01*
X9608277Y-11000079D02*
X9617801Y-11038174D01*
X9617801Y-11038174D02*
X9617801Y-11085793D01*
X9617801Y-11085793D02*
X9608277Y-11123889D01*
X9608277Y-11123889D02*
X9598753Y-11142936D01*
X9598753Y-11142936D02*
X9589229Y-11152460D01*
X9589229Y-11152460D02*
X9570182Y-11161984D01*
X9570182Y-11161984D02*
X9551134Y-11161984D01*
X9551134Y-11161984D02*
X9532087Y-11152460D01*
X9532087Y-11152460D02*
X9522563Y-11142936D01*
X9522563Y-11142936D02*
X9513039Y-11123889D01*
X9513039Y-11123889D02*
X9503515Y-11085793D01*
X9503515Y-11085793D02*
X9503515Y-11038174D01*
X9503515Y-11038174D02*
X9513039Y-11000079D01*
X9513039Y-11000079D02*
X9522563Y-10981031D01*
X9522563Y-10981031D02*
X9532087Y-10971508D01*
X9532087Y-10971508D02*
X9551134Y-10961984D01*
X9703515Y-11142936D02*
X9713039Y-11152460D01*
X9713039Y-11152460D02*
X9703515Y-11161984D01*
X9703515Y-11161984D02*
X9693991Y-11152460D01*
X9693991Y-11152460D02*
X9703515Y-11142936D01*
X9703515Y-11142936D02*
X9703515Y-11161984D01*
X9836848Y-10961984D02*
X9855896Y-10961984D01*
X9855896Y-10961984D02*
X9874944Y-10971508D01*
X9874944Y-10971508D02*
X9884468Y-10981031D01*
X9884468Y-10981031D02*
X9893991Y-11000079D01*
X9893991Y-11000079D02*
X9903515Y-11038174D01*
X9903515Y-11038174D02*
X9903515Y-11085793D01*
X9903515Y-11085793D02*
X9893991Y-11123889D01*
X9893991Y-11123889D02*
X9884468Y-11142936D01*
X9884468Y-11142936D02*
X9874944Y-11152460D01*
X9874944Y-11152460D02*
X9855896Y-11161984D01*
X9855896Y-11161984D02*
X9836848Y-11161984D01*
X9836848Y-11161984D02*
X9817801Y-11152460D01*
X9817801Y-11152460D02*
X9808277Y-11142936D01*
X9808277Y-11142936D02*
X9798753Y-11123889D01*
X9798753Y-11123889D02*
X9789229Y-11085793D01*
X9789229Y-11085793D02*
X9789229Y-11038174D01*
X9789229Y-11038174D02*
X9798753Y-11000079D01*
X9798753Y-11000079D02*
X9808277Y-10981031D01*
X9808277Y-10981031D02*
X9817801Y-10971508D01*
X9817801Y-10971508D02*
X9836848Y-10961984D01*
X9970182Y-10961984D02*
X10093991Y-10961984D01*
X10093991Y-10961984D02*
X10027325Y-11038174D01*
X10027325Y-11038174D02*
X10055896Y-11038174D01*
X10055896Y-11038174D02*
X10074944Y-11047698D01*
X10074944Y-11047698D02*
X10084468Y-11057222D01*
X10084468Y-11057222D02*
X10093991Y-11076270D01*
X10093991Y-11076270D02*
X10093991Y-11123889D01*
X10093991Y-11123889D02*
X10084468Y-11142936D01*
X10084468Y-11142936D02*
X10074944Y-11152460D01*
X10074944Y-11152460D02*
X10055896Y-11161984D01*
X10055896Y-11161984D02*
X9998753Y-11161984D01*
X9998753Y-11161984D02*
X9979706Y-11152460D01*
X9979706Y-11152460D02*
X9970182Y-11142936D01*
X10189229Y-11161984D02*
X10227325Y-11161984D01*
X10227325Y-11161984D02*
X10246372Y-11152460D01*
X10246372Y-11152460D02*
X10255896Y-11142936D01*
X10255896Y-11142936D02*
X10274944Y-11114365D01*
X10274944Y-11114365D02*
X10284468Y-11076270D01*
X10284468Y-11076270D02*
X10284468Y-11000079D01*
X10284468Y-11000079D02*
X10274944Y-10981031D01*
X10274944Y-10981031D02*
X10265420Y-10971508D01*
X10265420Y-10971508D02*
X10246372Y-10961984D01*
X10246372Y-10961984D02*
X10208277Y-10961984D01*
X10208277Y-10961984D02*
X10189229Y-10971508D01*
X10189229Y-10971508D02*
X10179706Y-10981031D01*
X10179706Y-10981031D02*
X10170182Y-11000079D01*
X10170182Y-11000079D02*
X10170182Y-11047698D01*
X10170182Y-11047698D02*
X10179706Y-11066746D01*
X10179706Y-11066746D02*
X10189229Y-11076270D01*
X10189229Y-11076270D02*
X10208277Y-11085793D01*
X10208277Y-11085793D02*
X10246372Y-11085793D01*
X10246372Y-11085793D02*
X10265420Y-11076270D01*
X10265420Y-11076270D02*
X10274944Y-11066746D01*
X10274944Y-11066746D02*
X10284468Y-11047698D01*
X10455896Y-11028650D02*
X10455896Y-11161984D01*
X10408277Y-10952460D02*
X10360658Y-11095317D01*
X10360658Y-11095317D02*
X10484468Y-11095317D01*
X10551134Y-10961984D02*
X10551134Y-11000079D01*
X10627325Y-10961984D02*
X10627325Y-11000079D01*
X10922563Y-11238174D02*
X10913039Y-11228650D01*
X10913039Y-11228650D02*
X10893991Y-11200079D01*
X10893991Y-11200079D02*
X10884468Y-11181031D01*
X10884468Y-11181031D02*
X10874944Y-11152460D01*
X10874944Y-11152460D02*
X10865420Y-11104841D01*
X10865420Y-11104841D02*
X10865420Y-11066746D01*
X10865420Y-11066746D02*
X10874944Y-11019127D01*
X10874944Y-11019127D02*
X10884468Y-10990555D01*
X10884468Y-10990555D02*
X10893991Y-10971508D01*
X10893991Y-10971508D02*
X10913039Y-10942936D01*
X10913039Y-10942936D02*
X10922563Y-10933412D01*
X10989230Y-10981031D02*
X10998753Y-10971508D01*
X10998753Y-10971508D02*
X11017801Y-10961984D01*
X11017801Y-10961984D02*
X11065420Y-10961984D01*
X11065420Y-10961984D02*
X11084468Y-10971508D01*
X11084468Y-10971508D02*
X11093991Y-10981031D01*
X11093991Y-10981031D02*
X11103515Y-11000079D01*
X11103515Y-11000079D02*
X11103515Y-11019127D01*
X11103515Y-11019127D02*
X11093991Y-11047698D01*
X11093991Y-11047698D02*
X10979706Y-11161984D01*
X10979706Y-11161984D02*
X11103515Y-11161984D01*
X11341610Y-11161984D02*
X11341610Y-10961984D01*
X11427325Y-11161984D02*
X11427325Y-11057222D01*
X11427325Y-11057222D02*
X11417801Y-11038174D01*
X11417801Y-11038174D02*
X11398753Y-11028650D01*
X11398753Y-11028650D02*
X11370182Y-11028650D01*
X11370182Y-11028650D02*
X11351134Y-11038174D01*
X11351134Y-11038174D02*
X11341610Y-11047698D01*
X11551134Y-11161984D02*
X11532087Y-11152460D01*
X11532087Y-11152460D02*
X11522563Y-11142936D01*
X11522563Y-11142936D02*
X11513039Y-11123889D01*
X11513039Y-11123889D02*
X11513039Y-11066746D01*
X11513039Y-11066746D02*
X11522563Y-11047698D01*
X11522563Y-11047698D02*
X11532087Y-11038174D01*
X11532087Y-11038174D02*
X11551134Y-11028650D01*
X11551134Y-11028650D02*
X11579706Y-11028650D01*
X11579706Y-11028650D02*
X11598753Y-11038174D01*
X11598753Y-11038174D02*
X11608277Y-11047698D01*
X11608277Y-11047698D02*
X11617801Y-11066746D01*
X11617801Y-11066746D02*
X11617801Y-11123889D01*
X11617801Y-11123889D02*
X11608277Y-11142936D01*
X11608277Y-11142936D02*
X11598753Y-11152460D01*
X11598753Y-11152460D02*
X11579706Y-11161984D01*
X11579706Y-11161984D02*
X11551134Y-11161984D01*
X11732087Y-11161984D02*
X11713039Y-11152460D01*
X11713039Y-11152460D02*
X11703515Y-11133412D01*
X11703515Y-11133412D02*
X11703515Y-10961984D01*
X11884468Y-11152460D02*
X11865420Y-11161984D01*
X11865420Y-11161984D02*
X11827325Y-11161984D01*
X11827325Y-11161984D02*
X11808277Y-11152460D01*
X11808277Y-11152460D02*
X11798753Y-11133412D01*
X11798753Y-11133412D02*
X11798753Y-11057222D01*
X11798753Y-11057222D02*
X11808277Y-11038174D01*
X11808277Y-11038174D02*
X11827325Y-11028650D01*
X11827325Y-11028650D02*
X11865420Y-11028650D01*
X11865420Y-11028650D02*
X11884468Y-11038174D01*
X11884468Y-11038174D02*
X11893991Y-11057222D01*
X11893991Y-11057222D02*
X11893991Y-11076270D01*
X11893991Y-11076270D02*
X11798753Y-11095317D01*
X11970182Y-11152460D02*
X11989230Y-11161984D01*
X11989230Y-11161984D02*
X12027325Y-11161984D01*
X12027325Y-11161984D02*
X12046372Y-11152460D01*
X12046372Y-11152460D02*
X12055896Y-11133412D01*
X12055896Y-11133412D02*
X12055896Y-11123889D01*
X12055896Y-11123889D02*
X12046372Y-11104841D01*
X12046372Y-11104841D02*
X12027325Y-11095317D01*
X12027325Y-11095317D02*
X11998753Y-11095317D01*
X11998753Y-11095317D02*
X11979706Y-11085793D01*
X11979706Y-11085793D02*
X11970182Y-11066746D01*
X11970182Y-11066746D02*
X11970182Y-11057222D01*
X11970182Y-11057222D02*
X11979706Y-11038174D01*
X11979706Y-11038174D02*
X11998753Y-11028650D01*
X11998753Y-11028650D02*
X12027325Y-11028650D01*
X12027325Y-11028650D02*
X12046372Y-11038174D01*
X12122563Y-11238174D02*
X12132087Y-11228650D01*
X12132087Y-11228650D02*
X12151134Y-11200079D01*
X12151134Y-11200079D02*
X12160658Y-11181031D01*
X12160658Y-11181031D02*
X12170182Y-11152460D01*
X12170182Y-11152460D02*
X12179706Y-11104841D01*
X12179706Y-11104841D02*
X12179706Y-11066746D01*
X12179706Y-11066746D02*
X12170182Y-11019127D01*
X12170182Y-11019127D02*
X12160658Y-10990555D01*
X12160658Y-10990555D02*
X12151134Y-10971508D01*
X12151134Y-10971508D02*
X12132087Y-10942936D01*
X12132087Y-10942936D02*
X12122563Y-10933412D01*
D13*
X7331391Y-11373391D02*
X7331391Y-11295609D01*
X7253609Y-11295609D01*
X7253609Y-11373391D01*
X7331391Y-11373391D01*
D11*
X7713039Y-11425984D02*
X7598753Y-11425984D01*
X7655896Y-11425984D02*
X7655896Y-11225984D01*
X7655896Y-11225984D02*
X7636848Y-11254555D01*
X7636848Y-11254555D02*
X7617801Y-11273603D01*
X7617801Y-11273603D02*
X7598753Y-11283127D01*
X7798753Y-11406936D02*
X7808277Y-11416460D01*
X7808277Y-11416460D02*
X7798753Y-11425984D01*
X7798753Y-11425984D02*
X7789229Y-11416460D01*
X7789229Y-11416460D02*
X7798753Y-11406936D01*
X7798753Y-11406936D02*
X7798753Y-11425984D01*
X7998753Y-11425984D02*
X7884467Y-11425984D01*
X7941610Y-11425984D02*
X7941610Y-11225984D01*
X7941610Y-11225984D02*
X7922562Y-11254555D01*
X7922562Y-11254555D02*
X7903515Y-11273603D01*
X7903515Y-11273603D02*
X7884467Y-11283127D01*
X8122562Y-11225984D02*
X8141610Y-11225984D01*
X8141610Y-11225984D02*
X8160658Y-11235508D01*
X8160658Y-11235508D02*
X8170182Y-11245031D01*
X8170182Y-11245031D02*
X8179705Y-11264079D01*
X8179705Y-11264079D02*
X8189229Y-11302174D01*
X8189229Y-11302174D02*
X8189229Y-11349793D01*
X8189229Y-11349793D02*
X8179705Y-11387888D01*
X8179705Y-11387888D02*
X8170182Y-11406936D01*
X8170182Y-11406936D02*
X8160658Y-11416460D01*
X8160658Y-11416460D02*
X8141610Y-11425984D01*
X8141610Y-11425984D02*
X8122562Y-11425984D01*
X8122562Y-11425984D02*
X8103515Y-11416460D01*
X8103515Y-11416460D02*
X8093991Y-11406936D01*
X8093991Y-11406936D02*
X8084467Y-11387888D01*
X8084467Y-11387888D02*
X8074943Y-11349793D01*
X8074943Y-11349793D02*
X8074943Y-11302174D01*
X8074943Y-11302174D02*
X8084467Y-11264079D01*
X8084467Y-11264079D02*
X8093991Y-11245031D01*
X8093991Y-11245031D02*
X8103515Y-11235508D01*
X8103515Y-11235508D02*
X8122562Y-11225984D01*
X8313039Y-11225984D02*
X8332086Y-11225984D01*
X8332086Y-11225984D02*
X8351134Y-11235508D01*
X8351134Y-11235508D02*
X8360658Y-11245031D01*
X8360658Y-11245031D02*
X8370182Y-11264079D01*
X8370182Y-11264079D02*
X8379705Y-11302174D01*
X8379705Y-11302174D02*
X8379705Y-11349793D01*
X8379705Y-11349793D02*
X8370182Y-11387888D01*
X8370182Y-11387888D02*
X8360658Y-11406936D01*
X8360658Y-11406936D02*
X8351134Y-11416460D01*
X8351134Y-11416460D02*
X8332086Y-11425984D01*
X8332086Y-11425984D02*
X8313039Y-11425984D01*
X8313039Y-11425984D02*
X8293991Y-11416460D01*
X8293991Y-11416460D02*
X8284467Y-11406936D01*
X8284467Y-11406936D02*
X8274943Y-11387888D01*
X8274943Y-11387888D02*
X8265420Y-11349793D01*
X8265420Y-11349793D02*
X8265420Y-11302174D01*
X8265420Y-11302174D02*
X8274943Y-11264079D01*
X8274943Y-11264079D02*
X8284467Y-11245031D01*
X8284467Y-11245031D02*
X8293991Y-11235508D01*
X8293991Y-11235508D02*
X8313039Y-11225984D01*
X8465420Y-11425984D02*
X8465420Y-11292650D01*
X8465420Y-11311698D02*
X8474944Y-11302174D01*
X8474944Y-11302174D02*
X8493991Y-11292650D01*
X8493991Y-11292650D02*
X8522563Y-11292650D01*
X8522563Y-11292650D02*
X8541610Y-11302174D01*
X8541610Y-11302174D02*
X8551134Y-11321222D01*
X8551134Y-11321222D02*
X8551134Y-11425984D01*
X8551134Y-11321222D02*
X8560658Y-11302174D01*
X8560658Y-11302174D02*
X8579705Y-11292650D01*
X8579705Y-11292650D02*
X8608277Y-11292650D01*
X8608277Y-11292650D02*
X8627325Y-11302174D01*
X8627325Y-11302174D02*
X8636848Y-11321222D01*
X8636848Y-11321222D02*
X8636848Y-11425984D01*
X8732086Y-11425984D02*
X8732086Y-11292650D01*
X8732086Y-11311698D02*
X8741610Y-11302174D01*
X8741610Y-11302174D02*
X8760658Y-11292650D01*
X8760658Y-11292650D02*
X8789229Y-11292650D01*
X8789229Y-11292650D02*
X8808277Y-11302174D01*
X8808277Y-11302174D02*
X8817801Y-11321222D01*
X8817801Y-11321222D02*
X8817801Y-11425984D01*
X8817801Y-11321222D02*
X8827325Y-11302174D01*
X8827325Y-11302174D02*
X8846372Y-11292650D01*
X8846372Y-11292650D02*
X8874944Y-11292650D01*
X8874944Y-11292650D02*
X8893991Y-11302174D01*
X8893991Y-11302174D02*
X8903515Y-11321222D01*
X8903515Y-11321222D02*
X8903515Y-11425984D01*
X9293991Y-11216460D02*
X9122563Y-11473603D01*
X9551134Y-11225984D02*
X9570182Y-11225984D01*
X9570182Y-11225984D02*
X9589229Y-11235508D01*
X9589229Y-11235508D02*
X9598753Y-11245031D01*
X9598753Y-11245031D02*
X9608277Y-11264079D01*
X9608277Y-11264079D02*
X9617801Y-11302174D01*
X9617801Y-11302174D02*
X9617801Y-11349793D01*
X9617801Y-11349793D02*
X9608277Y-11387888D01*
X9608277Y-11387888D02*
X9598753Y-11406936D01*
X9598753Y-11406936D02*
X9589229Y-11416460D01*
X9589229Y-11416460D02*
X9570182Y-11425984D01*
X9570182Y-11425984D02*
X9551134Y-11425984D01*
X9551134Y-11425984D02*
X9532087Y-11416460D01*
X9532087Y-11416460D02*
X9522563Y-11406936D01*
X9522563Y-11406936D02*
X9513039Y-11387888D01*
X9513039Y-11387888D02*
X9503515Y-11349793D01*
X9503515Y-11349793D02*
X9503515Y-11302174D01*
X9503515Y-11302174D02*
X9513039Y-11264079D01*
X9513039Y-11264079D02*
X9522563Y-11245031D01*
X9522563Y-11245031D02*
X9532087Y-11235508D01*
X9532087Y-11235508D02*
X9551134Y-11225984D01*
X9703515Y-11406936D02*
X9713039Y-11416460D01*
X9713039Y-11416460D02*
X9703515Y-11425984D01*
X9703515Y-11425984D02*
X9693991Y-11416460D01*
X9693991Y-11416460D02*
X9703515Y-11406936D01*
X9703515Y-11406936D02*
X9703515Y-11425984D01*
X9836848Y-11225984D02*
X9855896Y-11225984D01*
X9855896Y-11225984D02*
X9874944Y-11235508D01*
X9874944Y-11235508D02*
X9884468Y-11245031D01*
X9884468Y-11245031D02*
X9893991Y-11264079D01*
X9893991Y-11264079D02*
X9903515Y-11302174D01*
X9903515Y-11302174D02*
X9903515Y-11349793D01*
X9903515Y-11349793D02*
X9893991Y-11387888D01*
X9893991Y-11387888D02*
X9884468Y-11406936D01*
X9884468Y-11406936D02*
X9874944Y-11416460D01*
X9874944Y-11416460D02*
X9855896Y-11425984D01*
X9855896Y-11425984D02*
X9836848Y-11425984D01*
X9836848Y-11425984D02*
X9817801Y-11416460D01*
X9817801Y-11416460D02*
X9808277Y-11406936D01*
X9808277Y-11406936D02*
X9798753Y-11387888D01*
X9798753Y-11387888D02*
X9789229Y-11349793D01*
X9789229Y-11349793D02*
X9789229Y-11302174D01*
X9789229Y-11302174D02*
X9798753Y-11264079D01*
X9798753Y-11264079D02*
X9808277Y-11245031D01*
X9808277Y-11245031D02*
X9817801Y-11235508D01*
X9817801Y-11235508D02*
X9836848Y-11225984D01*
X10074944Y-11292650D02*
X10074944Y-11425984D01*
X10027325Y-11216460D02*
X9979706Y-11359317D01*
X9979706Y-11359317D02*
X10103515Y-11359317D01*
X10160658Y-11225984D02*
X10284468Y-11225984D01*
X10284468Y-11225984D02*
X10217801Y-11302174D01*
X10217801Y-11302174D02*
X10246372Y-11302174D01*
X10246372Y-11302174D02*
X10265420Y-11311698D01*
X10265420Y-11311698D02*
X10274944Y-11321222D01*
X10274944Y-11321222D02*
X10284468Y-11340269D01*
X10284468Y-11340269D02*
X10284468Y-11387888D01*
X10284468Y-11387888D02*
X10274944Y-11406936D01*
X10274944Y-11406936D02*
X10265420Y-11416460D01*
X10265420Y-11416460D02*
X10246372Y-11425984D01*
X10246372Y-11425984D02*
X10189229Y-11425984D01*
X10189229Y-11425984D02*
X10170182Y-11416460D01*
X10170182Y-11416460D02*
X10160658Y-11406936D01*
X10351134Y-11225984D02*
X10474944Y-11225984D01*
X10474944Y-11225984D02*
X10408277Y-11302174D01*
X10408277Y-11302174D02*
X10436849Y-11302174D01*
X10436849Y-11302174D02*
X10455896Y-11311698D01*
X10455896Y-11311698D02*
X10465420Y-11321222D01*
X10465420Y-11321222D02*
X10474944Y-11340269D01*
X10474944Y-11340269D02*
X10474944Y-11387888D01*
X10474944Y-11387888D02*
X10465420Y-11406936D01*
X10465420Y-11406936D02*
X10455896Y-11416460D01*
X10455896Y-11416460D02*
X10436849Y-11425984D01*
X10436849Y-11425984D02*
X10379706Y-11425984D01*
X10379706Y-11425984D02*
X10360658Y-11416460D01*
X10360658Y-11416460D02*
X10351134Y-11406936D01*
X10551134Y-11225984D02*
X10551134Y-11264079D01*
X10627325Y-11225984D02*
X10627325Y-11264079D01*
X10922563Y-11502174D02*
X10913039Y-11492650D01*
X10913039Y-11492650D02*
X10893991Y-11464079D01*
X10893991Y-11464079D02*
X10884468Y-11445031D01*
X10884468Y-11445031D02*
X10874944Y-11416460D01*
X10874944Y-11416460D02*
X10865420Y-11368841D01*
X10865420Y-11368841D02*
X10865420Y-11330746D01*
X10865420Y-11330746D02*
X10874944Y-11283127D01*
X10874944Y-11283127D02*
X10884468Y-11254555D01*
X10884468Y-11254555D02*
X10893991Y-11235508D01*
X10893991Y-11235508D02*
X10913039Y-11206936D01*
X10913039Y-11206936D02*
X10922563Y-11197412D01*
X10979706Y-11225984D02*
X11103515Y-11225984D01*
X11103515Y-11225984D02*
X11036849Y-11302174D01*
X11036849Y-11302174D02*
X11065420Y-11302174D01*
X11065420Y-11302174D02*
X11084468Y-11311698D01*
X11084468Y-11311698D02*
X11093991Y-11321222D01*
X11093991Y-11321222D02*
X11103515Y-11340269D01*
X11103515Y-11340269D02*
X11103515Y-11387888D01*
X11103515Y-11387888D02*
X11093991Y-11406936D01*
X11093991Y-11406936D02*
X11084468Y-11416460D01*
X11084468Y-11416460D02*
X11065420Y-11425984D01*
X11065420Y-11425984D02*
X11008277Y-11425984D01*
X11008277Y-11425984D02*
X10989230Y-11416460D01*
X10989230Y-11416460D02*
X10979706Y-11406936D01*
X11341610Y-11425984D02*
X11341610Y-11225984D01*
X11427325Y-11425984D02*
X11427325Y-11321222D01*
X11427325Y-11321222D02*
X11417801Y-11302174D01*
X11417801Y-11302174D02*
X11398753Y-11292650D01*
X11398753Y-11292650D02*
X11370182Y-11292650D01*
X11370182Y-11292650D02*
X11351134Y-11302174D01*
X11351134Y-11302174D02*
X11341610Y-11311698D01*
X11551134Y-11425984D02*
X11532087Y-11416460D01*
X11532087Y-11416460D02*
X11522563Y-11406936D01*
X11522563Y-11406936D02*
X11513039Y-11387888D01*
X11513039Y-11387888D02*
X11513039Y-11330746D01*
X11513039Y-11330746D02*
X11522563Y-11311698D01*
X11522563Y-11311698D02*
X11532087Y-11302174D01*
X11532087Y-11302174D02*
X11551134Y-11292650D01*
X11551134Y-11292650D02*
X11579706Y-11292650D01*
X11579706Y-11292650D02*
X11598753Y-11302174D01*
X11598753Y-11302174D02*
X11608277Y-11311698D01*
X11608277Y-11311698D02*
X11617801Y-11330746D01*
X11617801Y-11330746D02*
X11617801Y-11387888D01*
X11617801Y-11387888D02*
X11608277Y-11406936D01*
X11608277Y-11406936D02*
X11598753Y-11416460D01*
X11598753Y-11416460D02*
X11579706Y-11425984D01*
X11579706Y-11425984D02*
X11551134Y-11425984D01*
X11732087Y-11425984D02*
X11713039Y-11416460D01*
X11713039Y-11416460D02*
X11703515Y-11397412D01*
X11703515Y-11397412D02*
X11703515Y-11225984D01*
X11884468Y-11416460D02*
X11865420Y-11425984D01*
X11865420Y-11425984D02*
X11827325Y-11425984D01*
X11827325Y-11425984D02*
X11808277Y-11416460D01*
X11808277Y-11416460D02*
X11798753Y-11397412D01*
X11798753Y-11397412D02*
X11798753Y-11321222D01*
X11798753Y-11321222D02*
X11808277Y-11302174D01*
X11808277Y-11302174D02*
X11827325Y-11292650D01*
X11827325Y-11292650D02*
X11865420Y-11292650D01*
X11865420Y-11292650D02*
X11884468Y-11302174D01*
X11884468Y-11302174D02*
X11893991Y-11321222D01*
X11893991Y-11321222D02*
X11893991Y-11340269D01*
X11893991Y-11340269D02*
X11798753Y-11359317D01*
X11970182Y-11416460D02*
X11989230Y-11425984D01*
X11989230Y-11425984D02*
X12027325Y-11425984D01*
X12027325Y-11425984D02*
X12046372Y-11416460D01*
X12046372Y-11416460D02*
X12055896Y-11397412D01*
X12055896Y-11397412D02*
X12055896Y-11387888D01*
X12055896Y-11387888D02*
X12046372Y-11368841D01*
X12046372Y-11368841D02*
X12027325Y-11359317D01*
X12027325Y-11359317D02*
X11998753Y-11359317D01*
X11998753Y-11359317D02*
X11979706Y-11349793D01*
X11979706Y-11349793D02*
X11970182Y-11330746D01*
X11970182Y-11330746D02*
X11970182Y-11321222D01*
X11970182Y-11321222D02*
X11979706Y-11302174D01*
X11979706Y-11302174D02*
X11998753Y-11292650D01*
X11998753Y-11292650D02*
X12027325Y-11292650D01*
X12027325Y-11292650D02*
X12046372Y-11302174D01*
X12122563Y-11502174D02*
X12132087Y-11492650D01*
X12132087Y-11492650D02*
X12151134Y-11464079D01*
X12151134Y-11464079D02*
X12160658Y-11445031D01*
X12160658Y-11445031D02*
X12170182Y-11416460D01*
X12170182Y-11416460D02*
X12179706Y-11368841D01*
X12179706Y-11368841D02*
X12179706Y-11330746D01*
X12179706Y-11330746D02*
X12170182Y-11283127D01*
X12170182Y-11283127D02*
X12160658Y-11254555D01*
X12160658Y-11254555D02*
X12151134Y-11235508D01*
X12151134Y-11235508D02*
X12132087Y-11206936D01*
X12132087Y-11206936D02*
X12122563Y-11197412D01*
X7247500Y-11698500D02*
X7347500Y-11598500D01*
X7247500Y-11498500D01*
X7147500Y-11598500D01*
X7247500Y-11698500D01*
X7598753Y-11509031D02*
X7608277Y-11499508D01*
X7608277Y-11499508D02*
X7627324Y-11489984D01*
X7627324Y-11489984D02*
X7674943Y-11489984D01*
X7674943Y-11489984D02*
X7693991Y-11499508D01*
X7693991Y-11499508D02*
X7703515Y-11509031D01*
X7703515Y-11509031D02*
X7713039Y-11528079D01*
X7713039Y-11528079D02*
X7713039Y-11547127D01*
X7713039Y-11547127D02*
X7703515Y-11575698D01*
X7703515Y-11575698D02*
X7589229Y-11689984D01*
X7589229Y-11689984D02*
X7713039Y-11689984D01*
X7798753Y-11670936D02*
X7808277Y-11680460D01*
X7808277Y-11680460D02*
X7798753Y-11689984D01*
X7798753Y-11689984D02*
X7789229Y-11680460D01*
X7789229Y-11680460D02*
X7798753Y-11670936D01*
X7798753Y-11670936D02*
X7798753Y-11689984D01*
X7884467Y-11509031D02*
X7893991Y-11499508D01*
X7893991Y-11499508D02*
X7913039Y-11489984D01*
X7913039Y-11489984D02*
X7960658Y-11489984D01*
X7960658Y-11489984D02*
X7979705Y-11499508D01*
X7979705Y-11499508D02*
X7989229Y-11509031D01*
X7989229Y-11509031D02*
X7998753Y-11528079D01*
X7998753Y-11528079D02*
X7998753Y-11547127D01*
X7998753Y-11547127D02*
X7989229Y-11575698D01*
X7989229Y-11575698D02*
X7874943Y-11689984D01*
X7874943Y-11689984D02*
X7998753Y-11689984D01*
X8122562Y-11489984D02*
X8141610Y-11489984D01*
X8141610Y-11489984D02*
X8160658Y-11499508D01*
X8160658Y-11499508D02*
X8170182Y-11509031D01*
X8170182Y-11509031D02*
X8179705Y-11528079D01*
X8179705Y-11528079D02*
X8189229Y-11566174D01*
X8189229Y-11566174D02*
X8189229Y-11613793D01*
X8189229Y-11613793D02*
X8179705Y-11651888D01*
X8179705Y-11651888D02*
X8170182Y-11670936D01*
X8170182Y-11670936D02*
X8160658Y-11680460D01*
X8160658Y-11680460D02*
X8141610Y-11689984D01*
X8141610Y-11689984D02*
X8122562Y-11689984D01*
X8122562Y-11689984D02*
X8103515Y-11680460D01*
X8103515Y-11680460D02*
X8093991Y-11670936D01*
X8093991Y-11670936D02*
X8084467Y-11651888D01*
X8084467Y-11651888D02*
X8074943Y-11613793D01*
X8074943Y-11613793D02*
X8074943Y-11566174D01*
X8074943Y-11566174D02*
X8084467Y-11528079D01*
X8084467Y-11528079D02*
X8093991Y-11509031D01*
X8093991Y-11509031D02*
X8103515Y-11499508D01*
X8103515Y-11499508D02*
X8122562Y-11489984D01*
X8313039Y-11489984D02*
X8332086Y-11489984D01*
X8332086Y-11489984D02*
X8351134Y-11499508D01*
X8351134Y-11499508D02*
X8360658Y-11509031D01*
X8360658Y-11509031D02*
X8370182Y-11528079D01*
X8370182Y-11528079D02*
X8379705Y-11566174D01*
X8379705Y-11566174D02*
X8379705Y-11613793D01*
X8379705Y-11613793D02*
X8370182Y-11651888D01*
X8370182Y-11651888D02*
X8360658Y-11670936D01*
X8360658Y-11670936D02*
X8351134Y-11680460D01*
X8351134Y-11680460D02*
X8332086Y-11689984D01*
X8332086Y-11689984D02*
X8313039Y-11689984D01*
X8313039Y-11689984D02*
X8293991Y-11680460D01*
X8293991Y-11680460D02*
X8284467Y-11670936D01*
X8284467Y-11670936D02*
X8274943Y-11651888D01*
X8274943Y-11651888D02*
X8265420Y-11613793D01*
X8265420Y-11613793D02*
X8265420Y-11566174D01*
X8265420Y-11566174D02*
X8274943Y-11528079D01*
X8274943Y-11528079D02*
X8284467Y-11509031D01*
X8284467Y-11509031D02*
X8293991Y-11499508D01*
X8293991Y-11499508D02*
X8313039Y-11489984D01*
X8465420Y-11689984D02*
X8465420Y-11556650D01*
X8465420Y-11575698D02*
X8474944Y-11566174D01*
X8474944Y-11566174D02*
X8493991Y-11556650D01*
X8493991Y-11556650D02*
X8522563Y-11556650D01*
X8522563Y-11556650D02*
X8541610Y-11566174D01*
X8541610Y-11566174D02*
X8551134Y-11585222D01*
X8551134Y-11585222D02*
X8551134Y-11689984D01*
X8551134Y-11585222D02*
X8560658Y-11566174D01*
X8560658Y-11566174D02*
X8579705Y-11556650D01*
X8579705Y-11556650D02*
X8608277Y-11556650D01*
X8608277Y-11556650D02*
X8627325Y-11566174D01*
X8627325Y-11566174D02*
X8636848Y-11585222D01*
X8636848Y-11585222D02*
X8636848Y-11689984D01*
X8732086Y-11689984D02*
X8732086Y-11556650D01*
X8732086Y-11575698D02*
X8741610Y-11566174D01*
X8741610Y-11566174D02*
X8760658Y-11556650D01*
X8760658Y-11556650D02*
X8789229Y-11556650D01*
X8789229Y-11556650D02*
X8808277Y-11566174D01*
X8808277Y-11566174D02*
X8817801Y-11585222D01*
X8817801Y-11585222D02*
X8817801Y-11689984D01*
X8817801Y-11585222D02*
X8827325Y-11566174D01*
X8827325Y-11566174D02*
X8846372Y-11556650D01*
X8846372Y-11556650D02*
X8874944Y-11556650D01*
X8874944Y-11556650D02*
X8893991Y-11566174D01*
X8893991Y-11566174D02*
X8903515Y-11585222D01*
X8903515Y-11585222D02*
X8903515Y-11689984D01*
X9293991Y-11480460D02*
X9122563Y-11737603D01*
X9551134Y-11489984D02*
X9570182Y-11489984D01*
X9570182Y-11489984D02*
X9589229Y-11499508D01*
X9589229Y-11499508D02*
X9598753Y-11509031D01*
X9598753Y-11509031D02*
X9608277Y-11528079D01*
X9608277Y-11528079D02*
X9617801Y-11566174D01*
X9617801Y-11566174D02*
X9617801Y-11613793D01*
X9617801Y-11613793D02*
X9608277Y-11651888D01*
X9608277Y-11651888D02*
X9598753Y-11670936D01*
X9598753Y-11670936D02*
X9589229Y-11680460D01*
X9589229Y-11680460D02*
X9570182Y-11689984D01*
X9570182Y-11689984D02*
X9551134Y-11689984D01*
X9551134Y-11689984D02*
X9532087Y-11680460D01*
X9532087Y-11680460D02*
X9522563Y-11670936D01*
X9522563Y-11670936D02*
X9513039Y-11651888D01*
X9513039Y-11651888D02*
X9503515Y-11613793D01*
X9503515Y-11613793D02*
X9503515Y-11566174D01*
X9503515Y-11566174D02*
X9513039Y-11528079D01*
X9513039Y-11528079D02*
X9522563Y-11509031D01*
X9522563Y-11509031D02*
X9532087Y-11499508D01*
X9532087Y-11499508D02*
X9551134Y-11489984D01*
X9703515Y-11670936D02*
X9713039Y-11680460D01*
X9713039Y-11680460D02*
X9703515Y-11689984D01*
X9703515Y-11689984D02*
X9693991Y-11680460D01*
X9693991Y-11680460D02*
X9703515Y-11670936D01*
X9703515Y-11670936D02*
X9703515Y-11689984D01*
X9836848Y-11489984D02*
X9855896Y-11489984D01*
X9855896Y-11489984D02*
X9874944Y-11499508D01*
X9874944Y-11499508D02*
X9884468Y-11509031D01*
X9884468Y-11509031D02*
X9893991Y-11528079D01*
X9893991Y-11528079D02*
X9903515Y-11566174D01*
X9903515Y-11566174D02*
X9903515Y-11613793D01*
X9903515Y-11613793D02*
X9893991Y-11651888D01*
X9893991Y-11651888D02*
X9884468Y-11670936D01*
X9884468Y-11670936D02*
X9874944Y-11680460D01*
X9874944Y-11680460D02*
X9855896Y-11689984D01*
X9855896Y-11689984D02*
X9836848Y-11689984D01*
X9836848Y-11689984D02*
X9817801Y-11680460D01*
X9817801Y-11680460D02*
X9808277Y-11670936D01*
X9808277Y-11670936D02*
X9798753Y-11651888D01*
X9798753Y-11651888D02*
X9789229Y-11613793D01*
X9789229Y-11613793D02*
X9789229Y-11566174D01*
X9789229Y-11566174D02*
X9798753Y-11528079D01*
X9798753Y-11528079D02*
X9808277Y-11509031D01*
X9808277Y-11509031D02*
X9817801Y-11499508D01*
X9817801Y-11499508D02*
X9836848Y-11489984D01*
X10017801Y-11575698D02*
X9998753Y-11566174D01*
X9998753Y-11566174D02*
X9989229Y-11556650D01*
X9989229Y-11556650D02*
X9979706Y-11537603D01*
X9979706Y-11537603D02*
X9979706Y-11528079D01*
X9979706Y-11528079D02*
X9989229Y-11509031D01*
X9989229Y-11509031D02*
X9998753Y-11499508D01*
X9998753Y-11499508D02*
X10017801Y-11489984D01*
X10017801Y-11489984D02*
X10055896Y-11489984D01*
X10055896Y-11489984D02*
X10074944Y-11499508D01*
X10074944Y-11499508D02*
X10084468Y-11509031D01*
X10084468Y-11509031D02*
X10093991Y-11528079D01*
X10093991Y-11528079D02*
X10093991Y-11537603D01*
X10093991Y-11537603D02*
X10084468Y-11556650D01*
X10084468Y-11556650D02*
X10074944Y-11566174D01*
X10074944Y-11566174D02*
X10055896Y-11575698D01*
X10055896Y-11575698D02*
X10017801Y-11575698D01*
X10017801Y-11575698D02*
X9998753Y-11585222D01*
X9998753Y-11585222D02*
X9989229Y-11594746D01*
X9989229Y-11594746D02*
X9979706Y-11613793D01*
X9979706Y-11613793D02*
X9979706Y-11651888D01*
X9979706Y-11651888D02*
X9989229Y-11670936D01*
X9989229Y-11670936D02*
X9998753Y-11680460D01*
X9998753Y-11680460D02*
X10017801Y-11689984D01*
X10017801Y-11689984D02*
X10055896Y-11689984D01*
X10055896Y-11689984D02*
X10074944Y-11680460D01*
X10074944Y-11680460D02*
X10084468Y-11670936D01*
X10084468Y-11670936D02*
X10093991Y-11651888D01*
X10093991Y-11651888D02*
X10093991Y-11613793D01*
X10093991Y-11613793D02*
X10084468Y-11594746D01*
X10084468Y-11594746D02*
X10074944Y-11585222D01*
X10074944Y-11585222D02*
X10055896Y-11575698D01*
X10265420Y-11489984D02*
X10227325Y-11489984D01*
X10227325Y-11489984D02*
X10208277Y-11499508D01*
X10208277Y-11499508D02*
X10198753Y-11509031D01*
X10198753Y-11509031D02*
X10179706Y-11537603D01*
X10179706Y-11537603D02*
X10170182Y-11575698D01*
X10170182Y-11575698D02*
X10170182Y-11651888D01*
X10170182Y-11651888D02*
X10179706Y-11670936D01*
X10179706Y-11670936D02*
X10189229Y-11680460D01*
X10189229Y-11680460D02*
X10208277Y-11689984D01*
X10208277Y-11689984D02*
X10246372Y-11689984D01*
X10246372Y-11689984D02*
X10265420Y-11680460D01*
X10265420Y-11680460D02*
X10274944Y-11670936D01*
X10274944Y-11670936D02*
X10284468Y-11651888D01*
X10284468Y-11651888D02*
X10284468Y-11604269D01*
X10284468Y-11604269D02*
X10274944Y-11585222D01*
X10274944Y-11585222D02*
X10265420Y-11575698D01*
X10265420Y-11575698D02*
X10246372Y-11566174D01*
X10246372Y-11566174D02*
X10208277Y-11566174D01*
X10208277Y-11566174D02*
X10189229Y-11575698D01*
X10189229Y-11575698D02*
X10179706Y-11585222D01*
X10179706Y-11585222D02*
X10170182Y-11604269D01*
X10455896Y-11489984D02*
X10417801Y-11489984D01*
X10417801Y-11489984D02*
X10398753Y-11499508D01*
X10398753Y-11499508D02*
X10389229Y-11509031D01*
X10389229Y-11509031D02*
X10370182Y-11537603D01*
X10370182Y-11537603D02*
X10360658Y-11575698D01*
X10360658Y-11575698D02*
X10360658Y-11651888D01*
X10360658Y-11651888D02*
X10370182Y-11670936D01*
X10370182Y-11670936D02*
X10379706Y-11680460D01*
X10379706Y-11680460D02*
X10398753Y-11689984D01*
X10398753Y-11689984D02*
X10436849Y-11689984D01*
X10436849Y-11689984D02*
X10455896Y-11680460D01*
X10455896Y-11680460D02*
X10465420Y-11670936D01*
X10465420Y-11670936D02*
X10474944Y-11651888D01*
X10474944Y-11651888D02*
X10474944Y-11604269D01*
X10474944Y-11604269D02*
X10465420Y-11585222D01*
X10465420Y-11585222D02*
X10455896Y-11575698D01*
X10455896Y-11575698D02*
X10436849Y-11566174D01*
X10436849Y-11566174D02*
X10398753Y-11566174D01*
X10398753Y-11566174D02*
X10379706Y-11575698D01*
X10379706Y-11575698D02*
X10370182Y-11585222D01*
X10370182Y-11585222D02*
X10360658Y-11604269D01*
X10551134Y-11489984D02*
X10551134Y-11528079D01*
X10627325Y-11489984D02*
X10627325Y-11528079D01*
X10922563Y-11766174D02*
X10913039Y-11756650D01*
X10913039Y-11756650D02*
X10893991Y-11728079D01*
X10893991Y-11728079D02*
X10884468Y-11709031D01*
X10884468Y-11709031D02*
X10874944Y-11680460D01*
X10874944Y-11680460D02*
X10865420Y-11632841D01*
X10865420Y-11632841D02*
X10865420Y-11594746D01*
X10865420Y-11594746D02*
X10874944Y-11547127D01*
X10874944Y-11547127D02*
X10884468Y-11518555D01*
X10884468Y-11518555D02*
X10893991Y-11499508D01*
X10893991Y-11499508D02*
X10913039Y-11470936D01*
X10913039Y-11470936D02*
X10922563Y-11461412D01*
X11008277Y-11689984D02*
X11046372Y-11689984D01*
X11046372Y-11689984D02*
X11065420Y-11680460D01*
X11065420Y-11680460D02*
X11074944Y-11670936D01*
X11074944Y-11670936D02*
X11093991Y-11642365D01*
X11093991Y-11642365D02*
X11103515Y-11604269D01*
X11103515Y-11604269D02*
X11103515Y-11528079D01*
X11103515Y-11528079D02*
X11093991Y-11509031D01*
X11093991Y-11509031D02*
X11084468Y-11499508D01*
X11084468Y-11499508D02*
X11065420Y-11489984D01*
X11065420Y-11489984D02*
X11027325Y-11489984D01*
X11027325Y-11489984D02*
X11008277Y-11499508D01*
X11008277Y-11499508D02*
X10998753Y-11509031D01*
X10998753Y-11509031D02*
X10989230Y-11528079D01*
X10989230Y-11528079D02*
X10989230Y-11575698D01*
X10989230Y-11575698D02*
X10998753Y-11594746D01*
X10998753Y-11594746D02*
X11008277Y-11604269D01*
X11008277Y-11604269D02*
X11027325Y-11613793D01*
X11027325Y-11613793D02*
X11065420Y-11613793D01*
X11065420Y-11613793D02*
X11084468Y-11604269D01*
X11084468Y-11604269D02*
X11093991Y-11594746D01*
X11093991Y-11594746D02*
X11103515Y-11575698D01*
X11341610Y-11689984D02*
X11341610Y-11489984D01*
X11427325Y-11689984D02*
X11427325Y-11585222D01*
X11427325Y-11585222D02*
X11417801Y-11566174D01*
X11417801Y-11566174D02*
X11398753Y-11556650D01*
X11398753Y-11556650D02*
X11370182Y-11556650D01*
X11370182Y-11556650D02*
X11351134Y-11566174D01*
X11351134Y-11566174D02*
X11341610Y-11575698D01*
X11551134Y-11689984D02*
X11532087Y-11680460D01*
X11532087Y-11680460D02*
X11522563Y-11670936D01*
X11522563Y-11670936D02*
X11513039Y-11651888D01*
X11513039Y-11651888D02*
X11513039Y-11594746D01*
X11513039Y-11594746D02*
X11522563Y-11575698D01*
X11522563Y-11575698D02*
X11532087Y-11566174D01*
X11532087Y-11566174D02*
X11551134Y-11556650D01*
X11551134Y-11556650D02*
X11579706Y-11556650D01*
X11579706Y-11556650D02*
X11598753Y-11566174D01*
X11598753Y-11566174D02*
X11608277Y-11575698D01*
X11608277Y-11575698D02*
X11617801Y-11594746D01*
X11617801Y-11594746D02*
X11617801Y-11651888D01*
X11617801Y-11651888D02*
X11608277Y-11670936D01*
X11608277Y-11670936D02*
X11598753Y-11680460D01*
X11598753Y-11680460D02*
X11579706Y-11689984D01*
X11579706Y-11689984D02*
X11551134Y-11689984D01*
X11732087Y-11689984D02*
X11713039Y-11680460D01*
X11713039Y-11680460D02*
X11703515Y-11661412D01*
X11703515Y-11661412D02*
X11703515Y-11489984D01*
X11884468Y-11680460D02*
X11865420Y-11689984D01*
X11865420Y-11689984D02*
X11827325Y-11689984D01*
X11827325Y-11689984D02*
X11808277Y-11680460D01*
X11808277Y-11680460D02*
X11798753Y-11661412D01*
X11798753Y-11661412D02*
X11798753Y-11585222D01*
X11798753Y-11585222D02*
X11808277Y-11566174D01*
X11808277Y-11566174D02*
X11827325Y-11556650D01*
X11827325Y-11556650D02*
X11865420Y-11556650D01*
X11865420Y-11556650D02*
X11884468Y-11566174D01*
X11884468Y-11566174D02*
X11893991Y-11585222D01*
X11893991Y-11585222D02*
X11893991Y-11604269D01*
X11893991Y-11604269D02*
X11798753Y-11623317D01*
X11970182Y-11680460D02*
X11989230Y-11689984D01*
X11989230Y-11689984D02*
X12027325Y-11689984D01*
X12027325Y-11689984D02*
X12046372Y-11680460D01*
X12046372Y-11680460D02*
X12055896Y-11661412D01*
X12055896Y-11661412D02*
X12055896Y-11651888D01*
X12055896Y-11651888D02*
X12046372Y-11632841D01*
X12046372Y-11632841D02*
X12027325Y-11623317D01*
X12027325Y-11623317D02*
X11998753Y-11623317D01*
X11998753Y-11623317D02*
X11979706Y-11613793D01*
X11979706Y-11613793D02*
X11970182Y-11594746D01*
X11970182Y-11594746D02*
X11970182Y-11585222D01*
X11970182Y-11585222D02*
X11979706Y-11566174D01*
X11979706Y-11566174D02*
X11998753Y-11556650D01*
X11998753Y-11556650D02*
X12027325Y-11556650D01*
X12027325Y-11556650D02*
X12046372Y-11566174D01*
X12122563Y-11766174D02*
X12132087Y-11756650D01*
X12132087Y-11756650D02*
X12151134Y-11728079D01*
X12151134Y-11728079D02*
X12160658Y-11709031D01*
X12160658Y-11709031D02*
X12170182Y-11680460D01*
X12170182Y-11680460D02*
X12179706Y-11632841D01*
X12179706Y-11632841D02*
X12179706Y-11594746D01*
X12179706Y-11594746D02*
X12170182Y-11547127D01*
X12170182Y-11547127D02*
X12160658Y-11518555D01*
X12160658Y-11518555D02*
X12151134Y-11499508D01*
X12151134Y-11499508D02*
X12132087Y-11470936D01*
X12132087Y-11470936D02*
X12122563Y-11461412D01*
M02*
